<svg width="35" height="35" viewBox="0 0 35 35" fill="none" xmlns="http://www.w3.org/2000/svg">
<path opacity="0.8" d="M17.0625 0C13.6879 0 10.389 1.00472 7.58309 2.88712C4.77718 4.76951 2.59023 7.44503 1.29881 10.5753C0.00739289 13.7057 -0.330501 17.1502 0.327859 20.4733C0.986219 23.7964 2.61126 26.8489 4.9975 29.2447C7.38373 31.6405 10.424 33.2721 13.7338 33.9331C17.0436 34.5941 20.4743 34.2549 23.592 32.9583C26.7098 31.6616 29.3746 29.4659 31.2495 26.6487C33.1243 23.8315 34.125 20.5194 34.125 17.1311C34.125 12.5877 32.3274 8.23031 29.1275 5.0176C25.9277 1.80488 21.5878 0 17.0625 0ZM26.1385 18.2263L11.5135 25.5682C11.3277 25.6615 11.1212 25.7055 10.9136 25.696C10.7061 25.6866 10.5044 25.624 10.3277 25.5143C10.151 25.4046 10.0051 25.2513 9.90403 25.0691C9.80293 24.8868 9.74991 24.6817 9.75001 24.4731V9.78923C9.75012 9.58073 9.80329 9.37571 9.90448 9.19364C10.0057 9.01157 10.1515 8.85847 10.3282 8.74888C10.5048 8.63929 10.7065 8.57685 10.9139 8.56747C11.1214 8.55809 11.3278 8.60208 11.5135 8.69528L26.1385 16.0372C26.3407 16.1389 26.5107 16.2951 26.6295 16.4883C26.7483 16.6815 26.8112 16.9041 26.8112 17.1311C26.8112 17.3582 26.7483 17.5808 26.6295 17.774C26.5107 17.9672 26.3407 18.1234 26.1385 18.2251" fill="white"/>
</svg>
