<svg xmlns="http://www.w3.org/2000/svg" width="95" height="48" viewBox="0 0 95 48" fill="none">
  <mask id="path-1-outside-1_10005_374" maskUnits="userSpaceOnUse" x="-0.900391" y="-0.899414" width="96" height="49" fill="black">
    <rect fill="white" x="-0.900391" y="-0.899414" width="96" height="49"/>
    <path d="M19.5689 16.571C20.6406 15.2108 21.5001 13.6652 22.1476 11.9341C22.17 11.8599 22.1923 11.7733 22.2146 11.6744C22.2593 11.5755 22.2928 11.4765 22.3151 11.3776C22.3597 11.2787 22.4044 11.1674 22.4491 11.0438C22.4937 10.9201 22.5272 10.8088 22.5495 10.7099C22.5718 10.611 22.6053 10.4997 22.65 10.376C22.6947 10.2524 22.7281 10.1535 22.7505 10.0793C22.7728 9.98035 22.8063 9.86907 22.8509 9.74542C22.8956 9.62176 22.9291 9.52284 22.9514 9.44865C23.13 8.60782 23.2193 8.1874 23.2193 8.1874C23.2417 7.98956 23.2975 7.55678 23.3868 6.88906C23.4984 6.12242 23.5654 5.57835 23.5877 5.25686C23.6101 4.93537 23.5989 4.40366 23.5542 3.66175C23.5542 3.61229 23.5431 3.56283 23.5208 3.51337C23.5208 3.43918 23.5096 3.38972 23.4873 3.36499C23.4873 3.31553 23.4761 3.26607 23.4538 3.21661C23.4314 3.14242 23.4091 3.08059 23.3868 3.03113C23.2528 2.68491 23.1858 2.51179 23.1858 2.51179C22.8956 2.04192 22.516 1.73279 22.0472 1.5844C21.9802 1.55967 21.7569 1.58441 21.3773 1.6586C21.0871 1.83171 20.942 1.91826 20.942 1.91826C20.8527 1.99246 20.7522 2.07901 20.6406 2.17793C20.5512 2.25212 20.4508 2.35104 20.3391 2.4747C20.0042 2.84565 19.7028 3.22897 19.4349 3.62466C19.167 3.99561 18.9102 4.3913 18.6646 4.81171C18.4413 5.23213 18.2404 5.67728 18.0618 6.14715C18.0618 6.14715 17.8385 6.79014 17.392 8.07612C16.8784 9.58467 16.6217 10.3389 16.6217 10.3389C16.3761 11.1056 15.9854 12.6141 15.4495 14.8646C15.4048 15.013 15.3825 15.1243 15.3825 15.1985C15.2932 15.5694 15.003 16.7688 14.5118 18.7967C14.0206 20.7999 13.641 22.3332 13.3731 23.3966C12.2791 27.9964 11.319 31.4957 10.4929 33.8946C10.4259 34.0677 9.94587 35.3042 9.05278 37.6041C11.4418 37.2332 13.5852 36.9982 15.483 36.8993C16.711 36.8251 18.6869 36.8251 21.4108 36.8993C22.7281 36.9488 24.2241 36.9859 25.8986 37.0106C27.5731 37.0601 29.2588 37.0972 30.9557 37.1219C32.6749 37.1466 34.1819 37.1837 35.4769 37.2332C36.8165 37.3074 39.2279 37.4805 42.7109 37.7525C45.0776 37.9009 47.3773 37.9998 49.61 38.0493C51.8427 38.1235 54.0419 38.1358 56.2076 38.0864C56.3416 38.0864 56.4867 38.0864 56.643 38.0864C56.7993 38.0864 56.9444 38.0864 57.0784 38.0864C57.2124 38.0864 57.3575 38.0864 57.5138 38.0864C57.6701 38.0864 57.8152 38.0864 57.9492 38.0864C58.1055 38.0864 58.2617 38.074 58.418 38.0493C58.5743 38.0493 58.7195 38.0493 58.8534 38.0493C59.0097 38.0493 59.1548 38.0493 59.2888 38.0493C59.5121 38.0246 59.7465 37.9998 59.9921 37.9751C60.26 37.9751 60.4945 37.9627 60.6954 37.938C60.8963 37.938 61.1308 37.9256 61.3987 37.9009C61.689 37.8762 61.9234 37.8514 62.102 37.8267C62.2583 37.8267 62.5039 37.802 62.8388 37.7525C67.1926 37.2579 70.4189 36.6891 72.5176 36.0461C72.6516 36.0214 72.7855 35.9843 72.9195 35.9348C73.0535 35.8854 73.2097 35.8236 73.3884 35.7494C73.567 35.6999 73.701 35.6504 73.7903 35.601C73.8796 35.5762 73.9689 35.5392 74.0582 35.4897C74.1475 35.465 74.248 35.4279 74.3596 35.3784C74.4712 35.3537 74.5494 35.3289 74.594 35.3042C74.661 35.2795 74.7726 35.2424 74.9289 35.1929C75.0852 35.1435 75.1745 35.1187 75.1969 35.1187C75.1076 35.094 74.8396 35.0816 74.3931 35.0816C74.1028 35.0569 73.9577 34.8096 73.9577 34.3397C73.9577 34.1419 74.0024 33.9688 74.0917 33.8204C74.181 33.672 74.3038 33.5978 74.4601 33.5978C75.2415 33.6226 75.9448 33.7586 76.57 34.0059C76.57 34.0059 76.637 34.0182 76.7709 34.043C76.9272 34.0924 77.0388 34.1419 77.1058 34.1913C77.1058 34.1913 77.2956 34.3768 77.6752 34.7478C77.6752 34.7725 77.6752 34.7972 77.6752 34.822C77.6752 34.8714 77.664 34.9456 77.6417 35.0445C77.6417 35.1682 77.6305 35.2671 77.6082 35.3413C77.6082 35.4155 77.597 35.4897 77.5747 35.5639C77.5524 35.6628 77.5189 35.7617 77.4742 35.8606C77.4519 35.9101 77.3961 35.9472 77.3068 35.9719C77.2398 36.0214 77.1728 36.0461 77.1058 36.0461C77.0612 36.0709 76.9942 36.0832 76.9049 36.0832C76.8379 36.0832 76.7933 36.0832 76.7709 36.0832C76.436 36.1574 75.9671 36.2811 75.3643 36.4542C74.7615 36.652 74.3373 36.788 74.0917 36.8622C73.1986 37.1095 72.752 37.2332 72.752 37.2332C70.6086 37.7525 67.0698 38.2471 62.1355 38.717C60.26 38.7912 59.3223 38.8283 59.3223 38.8283C57.5808 38.8777 55.7276 38.8901 53.7628 38.8654C51.798 38.8407 49.9449 38.7912 48.2034 38.717C46.4619 38.6428 44.6199 38.5439 42.6774 38.4202C42.3872 38.3955 42.0188 38.3584 41.5722 38.309C41.148 38.2842 40.8019 38.2595 40.534 38.2348C40.2661 38.21 39.9423 38.1853 39.5628 38.1606C39.1832 38.1358 38.8483 38.1111 38.5581 38.0864C38.2678 38.0616 37.9441 38.0369 37.5868 38.0122C37.2296 37.9875 36.8724 37.9627 36.5151 37.938C36.1802 37.9133 35.823 37.9009 35.4434 37.9009C34.1038 37.8267 32.6079 37.7772 30.9557 37.7525C29.3258 37.7525 27.6289 37.7525 25.8651 37.7525C24.1236 37.7525 22.6388 37.7278 21.4108 37.6783C18.5306 37.7031 16.577 37.7525 15.55 37.8267C13.6075 37.9751 11.2743 38.3337 8.55042 38.9025C8.2825 39.5207 8.10388 39.9164 8.01457 40.0895C7.94759 40.2626 7.67966 40.7943 7.2108 41.6846C6.78658 42.5007 6.52982 42.983 6.44051 43.1314C5.94931 43.9475 5.19019 44.9119 4.16314 46.0248C3.93987 46.2721 3.77242 46.4452 3.66078 46.5442C3.54915 46.6678 3.3817 46.7915 3.15842 46.9151C2.93515 47.0388 2.70072 47.1006 2.45512 47.1006C2.0309 47.1006 1.48389 46.8162 0.814077 46.2474V46.2103C0.79175 46.1856 0.758259 46.1237 0.713605 46.0248C0.646624 45.9506 0.590806 45.8764 0.546152 45.8022C0.501497 45.7281 0.456843 45.6662 0.412189 45.6168C0.32288 45.3695 0.255899 45.1222 0.211245 44.8749C0.144264 44.6276 0.110773 44.3679 0.110773 44.0958C0.0884458 43.8485 0.0996094 43.6012 0.144264 43.3539C0.188918 43.1066 0.255899 42.8593 0.345208 42.612C0.367535 42.4884 0.434516 42.3153 0.546152 42.0927C0.590806 41.9938 0.624297 41.9196 0.646624 41.8701V41.833C0.959203 41.3137 1.11549 41.054 1.11549 41.054C1.42807 40.6089 1.79647 40.2256 2.22069 39.9041C2.62257 39.5826 3.14726 39.2858 3.79475 39.0138C4.44223 38.7665 4.89994 38.5934 5.16786 38.4944C5.43579 38.4202 5.97164 38.2595 6.77542 38.0122C7.15498 37.938 7.52338 37.8762 7.88061 37.8267C7.92526 37.7525 7.95875 37.6783 7.98108 37.6041C8.00341 37.5547 8.07039 37.3816 8.18202 37.0848C8.29366 36.8128 8.39413 36.5655 8.48344 36.3429C8.57275 36.145 8.67322 35.8854 8.78486 35.5639C8.91882 35.2424 9.03045 34.9704 9.11976 34.7478C9.2314 34.5252 9.33187 34.2903 9.42118 34.043C9.51049 33.8204 9.57747 33.6473 9.62212 33.5236C10.2473 31.8172 10.772 30.1974 11.1962 28.6641C11.2185 28.5652 11.4529 27.6625 11.8995 25.9561C11.9441 25.7336 12 25.4986 12.0669 25.2513C12.1339 24.9793 12.1897 24.7444 12.2344 24.5465C12.2791 24.3487 12.3349 24.1137 12.4018 23.8417C12.4688 23.5697 12.5246 23.3471 12.5693 23.174C13.1052 20.9235 13.5405 19.0688 13.8754 17.6097C13.9647 17.2882 14.0764 16.8183 14.2103 16.2C14.5006 14.9141 14.7239 13.9248 14.8802 13.2324C15.0365 12.5399 15.2597 11.662 15.55 10.5986C15.8402 9.51048 16.1305 8.54599 16.4207 7.70516C16.4654 7.53205 16.5324 7.30948 16.6217 7.03744C16.711 6.76541 16.7891 6.51811 16.8561 6.29553C16.9231 6.04823 17.0012 5.82566 17.0905 5.62781C17.2692 5.10848 17.4813 4.61387 17.7269 4.14399C17.9725 3.64939 18.2404 3.17951 18.5306 2.73437C18.8209 2.26449 19.1446 1.83171 19.5019 1.43602C19.8368 1.04034 20.1159 0.768304 20.3391 0.619923C20.3391 0.619923 20.6294 0.471541 21.2099 0.174776C21.7011 0.125316 21.9467 0.100586 21.9467 0.100586C22.0583 0.100586 22.1588 0.112951 22.2481 0.137681C22.3597 0.162411 22.4602 0.187141 22.5495 0.211871C22.6388 0.236601 22.7281 0.273697 22.8174 0.323158C22.9068 0.372618 22.9961 0.434444 23.0854 0.508636C23.1747 0.558096 23.264 0.619921 23.3533 0.694113C23.4426 0.743573 23.5208 0.805399 23.5877 0.87959C23.677 0.953782 23.7552 1.02797 23.8222 1.10216C23.9115 1.17635 23.9896 1.26291 24.0566 1.36183C24.1236 1.43602 24.1794 1.52258 24.2241 1.6215C24.291 1.69569 24.3469 1.78225 24.3915 1.88117C24.4138 1.93063 24.4362 1.99245 24.4585 2.06665C24.5031 2.14084 24.5366 2.21503 24.559 2.28922C24.5813 2.33868 24.6036 2.41287 24.6259 2.51179C24.6483 2.58598 24.6706 2.64781 24.6929 2.69727C24.6929 2.74673 24.6929 2.80856 24.6929 2.88275C24.7153 2.95694 24.7376 3.01876 24.7599 3.06823C24.7822 3.11769 24.7934 3.17951 24.7934 3.2537C24.8157 3.30316 24.8269 3.36499 24.8269 3.43918C24.8269 3.48864 24.8381 3.55047 24.8604 3.62466C24.905 4.29238 24.8046 5.4547 24.559 7.11163C24.559 7.16109 24.5478 7.24765 24.5255 7.3713C24.5255 7.47022 24.5143 7.56915 24.492 7.66807C24.492 7.74226 24.4808 7.82881 24.4585 7.92774C24.4362 8.02666 24.4138 8.12558 24.3915 8.2245C24.3915 8.29869 24.3803 8.38525 24.358 8.48417C24.358 8.53363 24.3469 8.59546 24.3245 8.66965C24.3245 8.71911 24.3134 8.76857 24.291 8.81803C24.291 8.86749 24.2799 8.92931 24.2575 9.00351C24.2575 9.05297 24.2464 9.11479 24.2241 9.18898C24.2241 9.23844 24.2129 9.30027 24.1906 9.37446C24.1682 9.42392 24.1459 9.47338 24.1236 9.52284C24.1236 9.5723 24.1124 9.63413 24.0901 9.70832C24.0901 9.75778 24.0901 9.81961 24.0901 9.8938C24.0454 9.96799 23.9785 10.1411 23.8892 10.4131C23.8222 10.6604 23.7663 10.8459 23.7217 10.9696C23.6994 11.0685 23.6547 11.2292 23.5877 11.4518C23.5208 11.6497 23.4538 11.8351 23.3868 12.0082C23.3198 12.1814 23.2528 12.3421 23.1858 12.4905C22.583 14.0485 21.7234 15.7054 20.6071 17.4613C20.4954 17.5849 20.3615 17.6468 20.2052 17.6468C20.0712 17.622 19.9373 17.5478 19.8033 17.4242C19.4684 17.1027 19.3902 16.8183 19.5689 16.571ZM3.29239 44.9861C4.31943 43.9969 5.05623 43.1685 5.50277 42.5007C5.59208 42.3524 5.86001 41.8701 6.30655 41.054C6.8424 40.0895 7.1773 39.4589 7.31127 39.1621C7.26661 39.1621 7.22196 39.1621 7.1773 39.1621C7.15498 39.1869 7.12149 39.1992 7.07683 39.1992C7.00985 39.224 6.92054 39.2611 6.80891 39.3105C4.86645 39.9535 3.49333 40.6212 2.68955 41.3137C2.46628 41.5115 2.30999 41.6723 2.22069 41.7959C2.17603 41.8701 2.13138 41.9319 2.08672 41.9814C2.04207 42.0556 1.99741 42.1422 1.95276 42.2411C1.90811 42.34 1.87461 42.4142 1.85229 42.4636C1.74065 42.7851 1.66251 43.0201 1.61785 43.1685C1.55087 43.3168 1.50622 43.5023 1.48389 43.7249C1.43924 43.9475 1.43924 44.1577 1.48389 44.3555C1.52854 44.5781 1.60669 44.813 1.71833 45.0603C1.87461 45.2334 2.04207 45.3695 2.22069 45.4684C2.24301 45.4684 2.2765 45.4808 2.32116 45.5055C2.34348 45.5302 2.37698 45.5426 2.42163 45.5426L2.45512 45.6168C2.56676 45.592 2.84584 45.3818 3.29239 44.9861Z"/>
    <path d="M24.7994 29.5544C25.4469 29.7275 26.0274 29.8141 26.5409 29.8141C27.0768 29.8141 27.7019 29.7399 28.4164 29.5915C29.1532 29.4184 29.7895 29.2453 30.3254 29.0722C30.8836 28.8991 31.5087 28.7136 32.2009 28.5157C32.893 28.2932 33.4735 28.1448 33.9424 28.0706C34.8578 27.8975 35.3378 28.0459 35.3825 28.5157C35.4271 28.8125 35.2932 29.0227 34.9806 29.1464C34.8243 29.1958 34.668 29.1711 34.5117 29.0722C33.7749 29.1464 32.6697 29.3195 31.1961 29.5915C29.7449 29.8388 28.8295 29.9996 28.4499 30.0738C28.2936 30.0985 27.9587 30.1603 27.4452 30.2592C26.954 30.3581 26.5186 30.4447 26.139 30.5189C25.7818 30.5684 25.3911 30.5807 24.9669 30.556C24.5427 30.5313 24.2189 30.4323 23.9956 30.2592C23.5938 29.9377 23.5938 29.406 23.9956 28.6641C23.8393 28.763 23.7054 28.8496 23.5938 28.9238C23.5044 28.9732 23.4263 29.0227 23.3593 29.0722C23.3147 29.0969 23.27 29.134 23.2254 29.1835C23.203 29.2082 23.1807 29.2206 23.1584 29.2206C23.1584 29.2206 23.1472 29.2329 23.1249 29.2576C23.1026 29.2576 23.0914 29.2576 23.0914 29.2576C23.0914 29.2576 23.0579 29.27 22.9909 29.2947C22.9463 29.3195 22.9016 29.3442 22.857 29.3689C22.8123 29.3937 22.7342 29.4431 22.6225 29.5173C22.5109 29.5668 22.3881 29.6286 22.2541 29.7028C21.5397 29.9501 20.8698 30.1232 20.2447 30.2221C20.2224 30.2469 20.1442 30.2716 20.0103 30.2963C19.8763 30.3211 19.7758 30.3334 19.7088 30.3334C19.4186 30.284 19.1618 30.185 18.9385 30.0367C18.9385 30.0367 18.9051 29.9254 18.8381 29.7028C18.8381 29.6533 18.8381 29.5915 18.8381 29.5173C18.8158 29.4431 18.8046 29.3937 18.8046 29.3689C18.8046 29.3195 18.8046 29.2577 18.8046 29.1835C18.8492 28.9856 18.9385 28.8001 19.0725 28.627C19.2065 28.4539 19.3069 28.3303 19.3739 28.2561C19.4632 28.1819 19.6419 28.0706 19.9098 27.9222C20.1777 27.7491 20.3228 27.6502 20.3452 27.6254C20.4121 27.576 20.5238 27.4894 20.6801 27.3658C20.8364 27.2174 20.9815 27.0937 21.1154 26.9948C21.2494 26.8959 21.3722 26.8217 21.4838 26.7723C21.7741 26.6486 22.1983 26.562 22.7565 26.5126C23.337 26.4631 23.7277 26.4137 23.9287 26.3642C24.1519 26.3642 24.2636 26.5373 24.2636 26.8835C24.2636 27.2298 24.1519 27.4029 23.9287 27.4029C23.8393 27.4029 23.6272 27.4276 23.2923 27.4771C22.9574 27.5018 22.6783 27.5389 22.4551 27.5884C22.2318 27.6378 22.0197 27.7244 21.8187 27.848C21.7518 27.8975 21.6625 27.984 21.5508 28.1077C21.4615 28.2066 21.3945 28.2684 21.3499 28.2932C21.3052 28.3179 21.2606 28.355 21.2159 28.4045C21.1713 28.4292 21.1154 28.4663 21.0485 28.5157C21.0038 28.5405 20.9703 28.5652 20.948 28.5899C20.9033 28.6394 20.7805 28.7136 20.5796 28.8125C20.401 28.9114 20.267 28.998 20.1777 29.0722C20.7136 29.0227 21.3052 28.8991 21.9527 28.7012C22.0867 28.627 22.2206 28.5652 22.3546 28.5157C22.5109 28.4415 22.6002 28.4045 22.6225 28.4045C22.6448 28.3797 22.6895 28.355 22.7565 28.3303C22.8235 28.2808 22.8681 28.2437 22.8904 28.219C22.9128 28.1942 22.9798 28.1448 23.0914 28.0706C23.2254 27.9964 23.3593 27.9098 23.4933 27.8109C23.5379 27.7862 23.6496 27.7244 23.8282 27.6254C24.0068 27.5018 24.1408 27.4029 24.2301 27.3287C24.3864 27.2298 24.5985 27.0567 24.8664 26.8093C25.1343 26.562 25.3464 26.3889 25.5027 26.29C25.7037 26.1416 25.8934 26.0922 26.0721 26.1416C26.2507 26.1664 26.3958 26.29 26.5074 26.5126C26.6191 26.7104 26.6302 26.9206 26.5409 27.1432C26.4963 27.2669 26.4405 27.3781 26.3735 27.4771C26.3288 27.5513 26.2953 27.6131 26.273 27.6625C26.2507 27.6873 26.1725 27.7491 26.0386 27.848C25.9269 27.9469 25.8488 28.0211 25.8041 28.0706C25.5585 28.2684 25.2236 28.763 24.7994 29.5544Z"/>
    <path d="M42.0233 28.5528C42.4029 28.5281 42.8159 28.4786 43.2625 28.4045C43.709 28.3303 44.2002 28.2437 44.736 28.1448C45.2719 28.0459 45.6961 27.9717 46.0087 27.9222C46.2096 27.8727 46.3548 27.9346 46.4441 28.1077C46.5334 28.2561 46.5334 28.4168 46.4441 28.5899C46.3771 28.763 46.2431 28.862 46.0422 28.8867C44.6579 29.0351 43.3294 29.134 42.0568 29.1835C40.0474 29.2082 38.6631 28.9114 37.9039 28.2932C37.8593 28.2437 37.8035 28.1942 37.7365 28.1448C37.6918 28.1942 37.6137 28.2932 37.5021 28.4415C37.3681 28.5405 37.156 28.6889 36.8657 28.8867C36.5978 29.0598 36.4304 29.1711 36.3634 29.2206C36.3411 29.2453 36.2294 29.3566 36.0285 29.5544C35.8275 29.7523 35.5708 29.913 35.2582 30.0367C34.4098 30.0614 34.1195 29.4431 34.3874 28.1819C34.4767 27.6625 34.5214 27.4029 34.5214 27.4029C34.5437 27.3781 34.5995 27.2421 34.6888 26.9948C34.8005 26.7475 34.901 26.5002 34.9903 26.2529C35.1019 26.0056 35.1577 25.882 35.1577 25.882C35.2024 25.783 35.2582 25.6223 35.3252 25.3997C35.4145 25.1771 35.4815 25.004 35.5261 24.8804C35.5931 24.732 35.7271 24.4105 35.928 23.9159C36.1513 23.4213 36.3076 23.038 36.3969 22.7659C37.022 21.1585 37.9039 19.1677 39.0426 16.7936C39.3329 16.3731 39.478 16.1629 39.478 16.1629C39.7906 15.8414 40.1255 15.6683 40.4827 15.6436C40.6837 15.6189 40.8511 15.6189 40.9851 15.6436C41.1414 15.6436 41.2642 15.6931 41.3535 15.792C41.4651 15.8909 41.5656 16.0517 41.6549 16.2742C41.6772 16.3237 41.6996 16.3855 41.7219 16.4597C41.7442 16.5092 41.7665 16.571 41.7889 16.6452C41.8112 16.6946 41.8224 16.7441 41.8224 16.7936C41.867 16.9914 41.8893 17.1892 41.8893 17.3871C41.9117 17.5602 41.9005 17.7704 41.8559 18.0177C41.8335 18.2403 41.8 18.4134 41.7554 18.5371C41.733 18.6607 41.6772 18.8709 41.5879 19.1677C41.5209 19.4644 41.4875 19.6375 41.4875 19.687C41.2419 20.2805 41.1191 20.5773 41.1191 20.5773C41.0074 20.7999 40.6279 21.3934 39.9804 22.3579C39.9134 22.4568 39.8018 22.6299 39.6455 22.8772C39.4892 23.0998 39.3664 23.2729 39.2771 23.3966C39.1654 23.5697 38.9422 23.8788 38.6073 24.3239C38.2723 24.7444 38.0156 25.0782 37.837 25.3255C36.475 27.0319 35.6377 28.1201 35.3252 28.5899C35.3922 28.5157 35.5373 28.4045 35.7605 28.2561C36.3857 27.8357 36.7318 27.5884 36.7988 27.5142C37.223 26.8959 37.6695 26.6857 38.1384 26.8835L38.4733 27.1432C38.4733 27.1679 38.4956 27.205 38.5403 27.2545C38.5849 27.2792 38.6184 27.3163 38.6407 27.3658C38.6631 27.3905 38.6854 27.4152 38.7077 27.44C39.1543 28.3055 40.2595 28.6765 42.0233 28.5528ZM36.0955 26.0674C36.2294 25.8943 36.4192 25.647 36.6648 25.3255C36.9327 25.004 37.1113 24.7938 37.2006 24.6949C37.3569 24.4229 37.6025 24.0766 37.9374 23.6562C38.2947 23.2358 38.5291 22.9514 38.6407 22.803C38.7077 22.7041 38.7747 22.6052 38.8417 22.5063C38.9087 22.3826 38.9757 22.259 39.0426 22.1353C39.1319 21.9869 39.1989 21.8756 39.2436 21.8015C39.8687 20.8617 40.2371 20.2682 40.3488 20.0209C40.3711 19.9467 40.3934 19.8725 40.4157 19.7983C40.4604 19.7241 40.4939 19.6376 40.5162 19.5386C40.5385 19.415 40.5609 19.3284 40.5832 19.279C40.7841 18.4629 40.8623 17.8199 40.8176 17.35C40.8176 17.2511 40.8065 17.1522 40.7841 17.0532C40.7841 16.979 40.7618 16.9172 40.7172 16.8678C40.6948 16.8183 40.6837 16.7812 40.6837 16.7565C40.6613 16.7565 40.6502 16.7317 40.6502 16.6823C40.6055 16.6081 40.572 16.5586 40.5497 16.5339L40.5832 16.6081C40.6279 16.7317 40.639 16.8059 40.6167 16.8307C40.5944 16.8307 40.5609 16.843 40.5162 16.8678C40.4939 16.8678 40.4604 16.8678 40.4157 16.8678C40.3711 16.8678 40.3376 16.8801 40.3153 16.9048C40.2036 16.9543 40.0474 17.1521 39.8464 17.4984C38.9533 19.1058 38.0714 20.9854 37.2006 23.1369C37.1337 23.3595 37.0444 23.5944 36.9327 23.8417C36.8434 24.089 36.7318 24.3487 36.5978 24.6207C36.4862 24.8927 36.3969 25.1153 36.3299 25.2884C36.3299 25.3132 36.2517 25.5728 36.0955 26.0674Z"/>
    <path d="M48.2209 27.069C48.1986 27.0196 48.1539 26.9701 48.0869 26.9206C48.0423 26.8464 48.0088 26.7846 47.9865 26.7352C47.9195 26.8093 47.8079 26.9083 47.6516 27.0319C47.4953 27.1556 47.3836 27.2545 47.3167 27.3287C47.1827 27.4771 47.0152 27.7491 46.8143 28.1448C46.6134 28.5405 46.4124 28.8001 46.2115 28.9238C45.9882 29.0722 45.7873 29.0969 45.6086 28.998C45.43 28.8743 45.3184 28.7259 45.2737 28.5528C45.2514 28.355 45.2849 28.1819 45.3742 28.0335C45.6868 27.712 45.9994 27.3658 46.3119 26.9948C46.4012 26.8959 46.5017 26.7846 46.6134 26.661C46.658 26.5868 46.7362 26.4879 46.8478 26.3642C46.9818 26.2405 47.0934 26.1293 47.1827 26.0303C47.272 25.9314 47.339 25.8325 47.3836 25.7336C47.406 25.6841 47.4283 25.6347 47.4506 25.5852C47.4729 25.511 47.4953 25.4368 47.5176 25.3626C47.5399 25.2884 47.5623 25.239 47.5846 25.2142C47.5846 25.14 47.5957 25.0782 47.6181 25.0288C47.5957 24.8062 47.6292 24.6207 47.7185 24.4723C47.7409 24.4476 47.7632 24.4105 47.7855 24.361C47.8079 24.3116 47.8302 24.2869 47.8525 24.2869C47.8079 24.1879 47.7967 24.1137 47.819 24.0643C48.2432 23.3471 48.5781 23.2482 48.8237 23.7675C49.0247 24.2869 49.0135 24.7567 48.7902 25.1771C48.8126 25.3255 48.8237 25.5605 48.8237 25.882C48.8237 25.9067 48.8237 25.9191 48.8237 25.9191C48.98 26.3395 49.181 26.6981 49.4266 26.9948C49.6722 27.2916 49.9178 27.5513 50.1634 27.7738C50.409 27.9717 50.7215 28.1201 51.1011 28.219C51.4807 28.3179 51.7932 28.4045 52.0388 28.4786C52.2844 28.5281 52.6417 28.5405 53.1105 28.5157C53.5794 28.491 53.9143 28.4786 54.1153 28.4786C54.3162 28.4539 54.6511 28.3921 55.12 28.2932C55.6112 28.1942 55.9014 28.1324 55.9907 28.1077C56.1024 28.083 56.3815 28.0211 56.828 27.9222C56.9843 27.8727 57.1852 27.848 57.4308 27.848C57.6541 27.848 57.9109 27.8851 58.2011 27.9593C58.4691 27.9346 58.6365 28.1324 58.7035 28.5528C58.7705 28.9732 58.67 29.1958 58.4021 29.2206C58.3351 29.2206 58.2681 29.2082 58.2011 29.1835C58.1788 29.1835 58.056 29.1835 57.8327 29.1835C57.7658 29.2082 57.6764 29.2206 57.5648 29.2206C57.4755 29.2206 57.3974 29.2206 57.3304 29.2206C57.1964 29.2453 57.0959 29.1711 57.029 28.998C56.9396 28.998 56.895 28.998 56.895 28.998C56.5601 29.0227 56.0577 29.0598 55.3879 29.1093C54.7181 29.1587 54.1823 29.1958 53.7804 29.2206C53.3785 29.2453 52.8761 29.2329 52.2733 29.1835C51.6928 29.134 51.1904 29.0474 50.7662 28.9238C50.342 28.7754 49.8954 28.5528 49.4266 28.2561C48.98 27.9346 48.5781 27.5389 48.2209 27.069ZM49.0582 19.3532C50.0182 19.18 50.5764 19.0811 50.7327 19.0564C50.8443 19.0317 50.9337 19.0811 51.0006 19.2048C51.0676 19.3284 51.0899 19.4644 51.0676 19.6128C51.0453 19.7365 50.9895 19.8107 50.9002 19.8354H50.8332L50.7997 19.8725H50.6992L50.6657 19.9096H50.5653L50.5318 19.9467H50.4313L50.3978 19.9838H50.2973L50.2638 20.0209H50.1634L50.1299 20.058H50.0294L49.9959 20.0951H49.8954L49.8619 20.1322H49.7615L49.728 20.1693H49.594L49.5605 20.2063H49.4601L49.4266 20.2434H49.3261L49.2926 20.2805H49.2256C49.114 20.3053 49.0135 20.2434 48.9242 20.0951C48.8572 19.9467 48.8349 19.7983 48.8572 19.6499C48.8796 19.4768 48.9465 19.3779 49.0582 19.3532Z"/>
    <path d="M58.2752 27.1061C59.0566 26.7846 59.5143 26.5497 59.6483 26.4013C59.5143 26.154 59.1124 26.0674 58.4426 26.1416C58.1524 26.1664 57.9514 26.2405 57.8398 26.3642C57.7505 26.4879 57.7393 26.661 57.8063 26.8835C57.8733 27.0814 57.9738 27.2174 58.1077 27.2916C58.13 27.2174 58.1859 27.1556 58.2752 27.1061ZM70.0639 28.8125C69.2155 28.8125 68.1214 28.9114 66.7818 29.1093C65.4422 29.3071 64.2812 29.4926 63.2988 29.6657C62.3387 29.8141 61.3117 29.8141 60.2176 29.6657C59.1459 29.5173 58.264 29.134 57.5719 28.5157C56.8797 27.9469 56.556 27.2792 56.6006 26.5126C56.6006 25.9932 56.8462 25.5852 57.3374 25.2884C57.8063 24.9917 58.3533 24.8556 58.9785 24.8804C59.6036 24.9051 60.106 25.103 60.4856 25.4739C60.7981 25.7707 60.9321 26.0303 60.8874 26.2529C60.8428 26.5002 60.72 26.7352 60.5191 26.9577C60.3181 27.1803 60.0837 27.3658 59.8157 27.5142C59.5478 27.6625 59.2576 27.7862 58.945 27.8851C59.1013 28.3797 59.5032 28.7259 60.1507 28.9238C60.7981 29.0969 61.5796 29.1464 62.495 29.0722C63.4327 28.9733 64.3481 28.8496 65.2412 28.7012C66.1566 28.5281 67.0832 28.3426 68.021 28.1448C68.981 27.9469 69.6508 27.8357 70.0304 27.8109C70.5886 27.5389 70.9346 27.6007 71.0686 27.9964C71.1802 28.3179 71.0574 28.5652 70.7002 28.7383C70.5216 28.8125 70.3095 28.8372 70.0639 28.8125Z"/>
    <path d="M77.5962 30.185C77.1273 29.8388 76.7477 29.1711 76.4575 28.1819C76.2565 28.3303 75.9998 28.5528 75.6872 28.8496C75.6202 28.8991 75.4862 29.0103 75.2853 29.1835C75.1067 29.3318 74.9392 29.4802 74.7829 29.6286C74.6266 29.7523 74.4257 29.913 74.1801 30.1108C73.9345 30.284 73.7001 30.4447 73.4768 30.5931C73.2535 30.7415 73.0079 30.8899 72.74 31.0382C72.4721 31.1619 72.2042 31.2608 71.9362 31.335C71.8692 31.335 71.7688 31.3474 71.6348 31.3721C71.5232 31.3968 71.4227 31.4216 71.3334 31.4463C71.2441 31.4463 71.1436 31.4463 71.032 31.4463C70.9203 31.4463 70.8087 31.4463 70.6971 31.4463C70.6078 31.4216 70.5296 31.3968 70.4626 31.3721C69.9045 31.1248 69.737 30.5436 69.9603 29.6286C70.0049 29.4308 70.0719 29.2453 70.1612 29.0722C70.2952 28.7754 70.485 28.4663 70.7306 28.1448C70.9985 27.8233 71.1883 27.576 71.2999 27.4029C71.5008 27.0814 71.7799 27.1061 72.1372 27.4771C72.4274 27.8233 72.4386 28.1077 72.1707 28.3303C71.7018 28.6518 71.3446 29.0969 71.099 29.6657C70.898 30.1356 71.0097 30.3581 71.4339 30.3334C71.6571 30.3087 71.9586 30.2098 72.3381 30.0367C72.4721 29.9872 72.606 29.9254 72.74 29.8512C72.8963 29.777 73.0414 29.6904 73.1754 29.5915C73.3317 29.4679 73.4545 29.3689 73.5438 29.2947C73.6554 29.2206 73.8005 29.1093 73.9792 28.9609C74.1578 28.8125 74.2806 28.7136 74.3476 28.6641C74.4145 28.5899 74.5373 28.4663 74.716 28.2932C74.9169 28.0953 75.0397 27.984 75.0844 27.9593C75.3076 27.7367 75.5755 27.4894 75.8881 27.2174C76.0444 27.069 76.1561 26.9825 76.223 26.9577C76.29 26.9083 76.4016 26.8588 76.5579 26.8093C76.7366 26.7352 76.8928 26.7352 77.0268 26.8093C77.0491 26.8341 77.0715 26.8588 77.0938 26.8835C77.1161 26.9083 77.1384 26.933 77.1608 26.9577C77.2054 26.9825 77.2278 27.0072 77.2278 27.0319C77.2501 27.0319 77.2724 27.0443 77.2947 27.069C77.3171 27.1185 77.3394 27.1556 77.3617 27.1803C77.4287 27.4029 77.4957 27.6873 77.5627 28.0335C77.6296 28.355 77.6855 28.5899 77.7301 28.7383C77.7748 28.862 77.8864 29.0227 78.065 29.2206C78.266 29.4184 78.5339 29.6039 78.8688 29.777C79.4493 30.0738 80.1749 30.2469 81.0457 30.2963C81.9388 30.3211 82.8653 30.2592 83.8254 30.1108C84.8078 29.9377 85.7455 29.7523 86.6386 29.5544C87.5317 29.3318 88.4136 29.1093 89.2844 28.8867C90.1775 28.6394 90.8138 28.491 91.1934 28.4415C91.238 28.2437 91.3385 28.1324 91.4948 28.1077C91.6511 28.1077 91.8743 28.0953 92.1646 28.0706C92.4548 28.0211 92.7116 27.984 92.9349 27.9593C93.1805 27.9346 93.4149 27.9346 93.6382 27.9593C93.6605 27.984 93.7052 28.0211 93.7721 28.0706C93.8391 28.0953 93.8838 28.1324 93.9061 28.1819C93.9508 28.2066 93.9843 28.2437 94.0066 28.2932C94.1182 28.6641 94.1294 28.9238 94.0401 29.0722C93.9508 29.1958 93.7498 29.3318 93.4372 29.4802C93.3926 29.505 93.2586 29.4802 93.0353 29.406C92.8121 29.3318 92.6781 29.3195 92.6335 29.3689C92.0306 29.3689 91.5729 29.3813 91.2603 29.406C90.8361 29.4555 90.1217 29.5915 89.1169 29.8141C88.1122 30.0119 87.0963 30.2098 86.0693 30.4076C85.0422 30.5807 83.9705 30.7415 82.8542 30.8899C81.7602 31.0382 80.7443 31.063 79.8065 30.964C78.8688 30.8404 78.132 30.5807 77.5962 30.185Z"/>
  </mask>
  <path d="M19.5689 16.571C20.6406 15.2108 21.5001 13.6652 22.1476 11.9341C22.17 11.8599 22.1923 11.7733 22.2146 11.6744C22.2593 11.5755 22.2928 11.4765 22.3151 11.3776C22.3597 11.2787 22.4044 11.1674 22.4491 11.0438C22.4937 10.9201 22.5272 10.8088 22.5495 10.7099C22.5718 10.611 22.6053 10.4997 22.65 10.376C22.6947 10.2524 22.7281 10.1535 22.7505 10.0793C22.7728 9.98035 22.8063 9.86907 22.8509 9.74542C22.8956 9.62176 22.9291 9.52284 22.9514 9.44865C23.13 8.60782 23.2193 8.1874 23.2193 8.1874C23.2417 7.98956 23.2975 7.55678 23.3868 6.88906C23.4984 6.12242 23.5654 5.57835 23.5877 5.25686C23.6101 4.93537 23.5989 4.40366 23.5542 3.66175C23.5542 3.61229 23.5431 3.56283 23.5208 3.51337C23.5208 3.43918 23.5096 3.38972 23.4873 3.36499C23.4873 3.31553 23.4761 3.26607 23.4538 3.21661C23.4314 3.14242 23.4091 3.08059 23.3868 3.03113C23.2528 2.68491 23.1858 2.51179 23.1858 2.51179C22.8956 2.04192 22.516 1.73279 22.0472 1.5844C21.9802 1.55967 21.7569 1.58441 21.3773 1.6586C21.0871 1.83171 20.942 1.91826 20.942 1.91826C20.8527 1.99246 20.7522 2.07901 20.6406 2.17793C20.5512 2.25212 20.4508 2.35104 20.3391 2.4747C20.0042 2.84565 19.7028 3.22897 19.4349 3.62466C19.167 3.99561 18.9102 4.3913 18.6646 4.81171C18.4413 5.23213 18.2404 5.67728 18.0618 6.14715C18.0618 6.14715 17.8385 6.79014 17.392 8.07612C16.8784 9.58467 16.6217 10.3389 16.6217 10.3389C16.3761 11.1056 15.9854 12.6141 15.4495 14.8646C15.4048 15.013 15.3825 15.1243 15.3825 15.1985C15.2932 15.5694 15.003 16.7688 14.5118 18.7967C14.0206 20.7999 13.641 22.3332 13.3731 23.3966C12.2791 27.9964 11.319 31.4957 10.4929 33.8946C10.4259 34.0677 9.94587 35.3042 9.05278 37.6041C11.4418 37.2332 13.5852 36.9982 15.483 36.8993C16.711 36.8251 18.6869 36.8251 21.4108 36.8993C22.7281 36.9488 24.2241 36.9859 25.8986 37.0106C27.5731 37.0601 29.2588 37.0972 30.9557 37.1219C32.6749 37.1466 34.1819 37.1837 35.4769 37.2332C36.8165 37.3074 39.2279 37.4805 42.7109 37.7525C45.0776 37.9009 47.3773 37.9998 49.61 38.0493C51.8427 38.1235 54.0419 38.1358 56.2076 38.0864C56.3416 38.0864 56.4867 38.0864 56.643 38.0864C56.7993 38.0864 56.9444 38.0864 57.0784 38.0864C57.2124 38.0864 57.3575 38.0864 57.5138 38.0864C57.6701 38.0864 57.8152 38.0864 57.9492 38.0864C58.1055 38.0864 58.2617 38.074 58.418 38.0493C58.5743 38.0493 58.7195 38.0493 58.8534 38.0493C59.0097 38.0493 59.1548 38.0493 59.2888 38.0493C59.5121 38.0246 59.7465 37.9998 59.9921 37.9751C60.26 37.9751 60.4945 37.9627 60.6954 37.938C60.8963 37.938 61.1308 37.9256 61.3987 37.9009C61.689 37.8762 61.9234 37.8514 62.102 37.8267C62.2583 37.8267 62.5039 37.802 62.8388 37.7525C67.1926 37.2579 70.4189 36.6891 72.5176 36.0461C72.6516 36.0214 72.7855 35.9843 72.9195 35.9348C73.0535 35.8854 73.2097 35.8236 73.3884 35.7494C73.567 35.6999 73.701 35.6504 73.7903 35.601C73.8796 35.5762 73.9689 35.5392 74.0582 35.4897C74.1475 35.465 74.248 35.4279 74.3596 35.3784C74.4712 35.3537 74.5494 35.3289 74.594 35.3042C74.661 35.2795 74.7726 35.2424 74.9289 35.1929C75.0852 35.1435 75.1745 35.1187 75.1969 35.1187C75.1076 35.094 74.8396 35.0816 74.3931 35.0816C74.1028 35.0569 73.9577 34.8096 73.9577 34.3397C73.9577 34.1419 74.0024 33.9688 74.0917 33.8204C74.181 33.672 74.3038 33.5978 74.4601 33.5978C75.2415 33.6226 75.9448 33.7586 76.57 34.0059C76.57 34.0059 76.637 34.0182 76.7709 34.043C76.9272 34.0924 77.0388 34.1419 77.1058 34.1913C77.1058 34.1913 77.2956 34.3768 77.6752 34.7478C77.6752 34.7725 77.6752 34.7972 77.6752 34.822C77.6752 34.8714 77.664 34.9456 77.6417 35.0445C77.6417 35.1682 77.6305 35.2671 77.6082 35.3413C77.6082 35.4155 77.597 35.4897 77.5747 35.5639C77.5524 35.6628 77.5189 35.7617 77.4742 35.8606C77.4519 35.9101 77.3961 35.9472 77.3068 35.9719C77.2398 36.0214 77.1728 36.0461 77.1058 36.0461C77.0612 36.0709 76.9942 36.0832 76.9049 36.0832C76.8379 36.0832 76.7933 36.0832 76.7709 36.0832C76.436 36.1574 75.9671 36.2811 75.3643 36.4542C74.7615 36.652 74.3373 36.788 74.0917 36.8622C73.1986 37.1095 72.752 37.2332 72.752 37.2332C70.6086 37.7525 67.0698 38.2471 62.1355 38.717C60.26 38.7912 59.3223 38.8283 59.3223 38.8283C57.5808 38.8777 55.7276 38.8901 53.7628 38.8654C51.798 38.8407 49.9449 38.7912 48.2034 38.717C46.4619 38.6428 44.6199 38.5439 42.6774 38.4202C42.3872 38.3955 42.0188 38.3584 41.5722 38.309C41.148 38.2842 40.8019 38.2595 40.534 38.2348C40.2661 38.21 39.9423 38.1853 39.5628 38.1606C39.1832 38.1358 38.8483 38.1111 38.5581 38.0864C38.2678 38.0616 37.9441 38.0369 37.5868 38.0122C37.2296 37.9875 36.8724 37.9627 36.5151 37.938C36.1802 37.9133 35.823 37.9009 35.4434 37.9009C34.1038 37.8267 32.6079 37.7772 30.9557 37.7525C29.3258 37.7525 27.6289 37.7525 25.8651 37.7525C24.1236 37.7525 22.6388 37.7278 21.4108 37.6783C18.5306 37.7031 16.577 37.7525 15.55 37.8267C13.6075 37.9751 11.2743 38.3337 8.55042 38.9025C8.2825 39.5207 8.10388 39.9164 8.01457 40.0895C7.94759 40.2626 7.67966 40.7943 7.2108 41.6846C6.78658 42.5007 6.52982 42.983 6.44051 43.1314C5.94931 43.9475 5.19019 44.9119 4.16314 46.0248C3.93987 46.2721 3.77242 46.4452 3.66078 46.5442C3.54915 46.6678 3.3817 46.7915 3.15842 46.9151C2.93515 47.0388 2.70072 47.1006 2.45512 47.1006C2.0309 47.1006 1.48389 46.8162 0.814077 46.2474V46.2103C0.79175 46.1856 0.758259 46.1237 0.713605 46.0248C0.646624 45.9506 0.590806 45.8764 0.546152 45.8022C0.501497 45.7281 0.456843 45.6662 0.412189 45.6168C0.32288 45.3695 0.255899 45.1222 0.211245 44.8749C0.144264 44.6276 0.110773 44.3679 0.110773 44.0958C0.0884458 43.8485 0.0996094 43.6012 0.144264 43.3539C0.188918 43.1066 0.255899 42.8593 0.345208 42.612C0.367535 42.4884 0.434516 42.3153 0.546152 42.0927C0.590806 41.9938 0.624297 41.9196 0.646624 41.8701V41.833C0.959203 41.3137 1.11549 41.054 1.11549 41.054C1.42807 40.6089 1.79647 40.2256 2.22069 39.9041C2.62257 39.5826 3.14726 39.2858 3.79475 39.0138C4.44223 38.7665 4.89994 38.5934 5.16786 38.4944C5.43579 38.4202 5.97164 38.2595 6.77542 38.0122C7.15498 37.938 7.52338 37.8762 7.88061 37.8267C7.92526 37.7525 7.95875 37.6783 7.98108 37.6041C8.00341 37.5547 8.07039 37.3816 8.18202 37.0848C8.29366 36.8128 8.39413 36.5655 8.48344 36.3429C8.57275 36.145 8.67322 35.8854 8.78486 35.5639C8.91882 35.2424 9.03045 34.9704 9.11976 34.7478C9.2314 34.5252 9.33187 34.2903 9.42118 34.043C9.51049 33.8204 9.57747 33.6473 9.62212 33.5236C10.2473 31.8172 10.772 30.1974 11.1962 28.6641C11.2185 28.5652 11.4529 27.6625 11.8995 25.9561C11.9441 25.7336 12 25.4986 12.0669 25.2513C12.1339 24.9793 12.1897 24.7444 12.2344 24.5465C12.2791 24.3487 12.3349 24.1137 12.4018 23.8417C12.4688 23.5697 12.5246 23.3471 12.5693 23.174C13.1052 20.9235 13.5405 19.0688 13.8754 17.6097C13.9647 17.2882 14.0764 16.8183 14.2103 16.2C14.5006 14.9141 14.7239 13.9248 14.8802 13.2324C15.0365 12.5399 15.2597 11.662 15.55 10.5986C15.8402 9.51048 16.1305 8.54599 16.4207 7.70516C16.4654 7.53205 16.5324 7.30948 16.6217 7.03744C16.711 6.76541 16.7891 6.51811 16.8561 6.29553C16.9231 6.04823 17.0012 5.82566 17.0905 5.62781C17.2692 5.10848 17.4813 4.61387 17.7269 4.14399C17.9725 3.64939 18.2404 3.17951 18.5306 2.73437C18.8209 2.26449 19.1446 1.83171 19.5019 1.43602C19.8368 1.04034 20.1159 0.768304 20.3391 0.619923C20.3391 0.619923 20.6294 0.471541 21.2099 0.174776C21.7011 0.125316 21.9467 0.100586 21.9467 0.100586C22.0583 0.100586 22.1588 0.112951 22.2481 0.137681C22.3597 0.162411 22.4602 0.187141 22.5495 0.211871C22.6388 0.236601 22.7281 0.273697 22.8174 0.323158C22.9068 0.372618 22.9961 0.434444 23.0854 0.508636C23.1747 0.558096 23.264 0.619921 23.3533 0.694113C23.4426 0.743573 23.5208 0.805399 23.5877 0.87959C23.677 0.953782 23.7552 1.02797 23.8222 1.10216C23.9115 1.17635 23.9896 1.26291 24.0566 1.36183C24.1236 1.43602 24.1794 1.52258 24.2241 1.6215C24.291 1.69569 24.3469 1.78225 24.3915 1.88117C24.4138 1.93063 24.4362 1.99245 24.4585 2.06665C24.5031 2.14084 24.5366 2.21503 24.559 2.28922C24.5813 2.33868 24.6036 2.41287 24.6259 2.51179C24.6483 2.58598 24.6706 2.64781 24.6929 2.69727C24.6929 2.74673 24.6929 2.80856 24.6929 2.88275C24.7153 2.95694 24.7376 3.01876 24.7599 3.06823C24.7822 3.11769 24.7934 3.17951 24.7934 3.2537C24.8157 3.30316 24.8269 3.36499 24.8269 3.43918C24.8269 3.48864 24.8381 3.55047 24.8604 3.62466C24.905 4.29238 24.8046 5.4547 24.559 7.11163C24.559 7.16109 24.5478 7.24765 24.5255 7.3713C24.5255 7.47022 24.5143 7.56915 24.492 7.66807C24.492 7.74226 24.4808 7.82881 24.4585 7.92774C24.4362 8.02666 24.4138 8.12558 24.3915 8.2245C24.3915 8.29869 24.3803 8.38525 24.358 8.48417C24.358 8.53363 24.3469 8.59546 24.3245 8.66965C24.3245 8.71911 24.3134 8.76857 24.291 8.81803C24.291 8.86749 24.2799 8.92931 24.2575 9.00351C24.2575 9.05297 24.2464 9.11479 24.2241 9.18898C24.2241 9.23844 24.2129 9.30027 24.1906 9.37446C24.1682 9.42392 24.1459 9.47338 24.1236 9.52284C24.1236 9.5723 24.1124 9.63413 24.0901 9.70832C24.0901 9.75778 24.0901 9.81961 24.0901 9.8938C24.0454 9.96799 23.9785 10.1411 23.8892 10.4131C23.8222 10.6604 23.7663 10.8459 23.7217 10.9696C23.6994 11.0685 23.6547 11.2292 23.5877 11.4518C23.5208 11.6497 23.4538 11.8351 23.3868 12.0082C23.3198 12.1814 23.2528 12.3421 23.1858 12.4905C22.583 14.0485 21.7234 15.7054 20.6071 17.4613C20.4954 17.5849 20.3615 17.6468 20.2052 17.6468C20.0712 17.622 19.9373 17.5478 19.8033 17.4242C19.4684 17.1027 19.3902 16.8183 19.5689 16.571ZM3.29239 44.9861C4.31943 43.9969 5.05623 43.1685 5.50277 42.5007C5.59208 42.3524 5.86001 41.8701 6.30655 41.054C6.8424 40.0895 7.1773 39.4589 7.31127 39.1621C7.26661 39.1621 7.22196 39.1621 7.1773 39.1621C7.15498 39.1869 7.12149 39.1992 7.07683 39.1992C7.00985 39.224 6.92054 39.2611 6.80891 39.3105C4.86645 39.9535 3.49333 40.6212 2.68955 41.3137C2.46628 41.5115 2.30999 41.6723 2.22069 41.7959C2.17603 41.8701 2.13138 41.9319 2.08672 41.9814C2.04207 42.0556 1.99741 42.1422 1.95276 42.2411C1.90811 42.34 1.87461 42.4142 1.85229 42.4636C1.74065 42.7851 1.66251 43.0201 1.61785 43.1685C1.55087 43.3168 1.50622 43.5023 1.48389 43.7249C1.43924 43.9475 1.43924 44.1577 1.48389 44.3555C1.52854 44.5781 1.60669 44.813 1.71833 45.0603C1.87461 45.2334 2.04207 45.3695 2.22069 45.4684C2.24301 45.4684 2.2765 45.4808 2.32116 45.5055C2.34348 45.5302 2.37698 45.5426 2.42163 45.5426L2.45512 45.6168C2.56676 45.592 2.84584 45.3818 3.29239 44.9861Z" fill="black"/>
  <path d="M24.7994 29.5544C25.4469 29.7275 26.0274 29.8141 26.5409 29.8141C27.0768 29.8141 27.7019 29.7399 28.4164 29.5915C29.1532 29.4184 29.7895 29.2453 30.3254 29.0722C30.8836 28.8991 31.5087 28.7136 32.2009 28.5157C32.893 28.2932 33.4735 28.1448 33.9424 28.0706C34.8578 27.8975 35.3378 28.0459 35.3825 28.5157C35.4271 28.8125 35.2932 29.0227 34.9806 29.1464C34.8243 29.1958 34.668 29.1711 34.5117 29.0722C33.7749 29.1464 32.6697 29.3195 31.1961 29.5915C29.7449 29.8388 28.8295 29.9996 28.4499 30.0738C28.2936 30.0985 27.9587 30.1603 27.4452 30.2592C26.954 30.3581 26.5186 30.4447 26.139 30.5189C25.7818 30.5684 25.3911 30.5807 24.9669 30.556C24.5427 30.5313 24.2189 30.4323 23.9956 30.2592C23.5938 29.9377 23.5938 29.406 23.9956 28.6641C23.8393 28.763 23.7054 28.8496 23.5938 28.9238C23.5044 28.9732 23.4263 29.0227 23.3593 29.0722C23.3147 29.0969 23.27 29.134 23.2254 29.1835C23.203 29.2082 23.1807 29.2206 23.1584 29.2206C23.1584 29.2206 23.1472 29.2329 23.1249 29.2576C23.1026 29.2576 23.0914 29.2576 23.0914 29.2576C23.0914 29.2576 23.0579 29.27 22.9909 29.2947C22.9463 29.3195 22.9016 29.3442 22.857 29.3689C22.8123 29.3937 22.7342 29.4431 22.6225 29.5173C22.5109 29.5668 22.3881 29.6286 22.2541 29.7028C21.5397 29.9501 20.8698 30.1232 20.2447 30.2221C20.2224 30.2469 20.1442 30.2716 20.0103 30.2963C19.8763 30.3211 19.7758 30.3334 19.7088 30.3334C19.4186 30.284 19.1618 30.185 18.9385 30.0367C18.9385 30.0367 18.9051 29.9254 18.8381 29.7028C18.8381 29.6533 18.8381 29.5915 18.8381 29.5173C18.8158 29.4431 18.8046 29.3937 18.8046 29.3689C18.8046 29.3195 18.8046 29.2577 18.8046 29.1835C18.8492 28.9856 18.9385 28.8001 19.0725 28.627C19.2065 28.4539 19.3069 28.3303 19.3739 28.2561C19.4632 28.1819 19.6419 28.0706 19.9098 27.9222C20.1777 27.7491 20.3228 27.6502 20.3452 27.6254C20.4121 27.576 20.5238 27.4894 20.6801 27.3658C20.8364 27.2174 20.9815 27.0937 21.1154 26.9948C21.2494 26.8959 21.3722 26.8217 21.4838 26.7723C21.7741 26.6486 22.1983 26.562 22.7565 26.5126C23.337 26.4631 23.7277 26.4137 23.9287 26.3642C24.1519 26.3642 24.2636 26.5373 24.2636 26.8835C24.2636 27.2298 24.1519 27.4029 23.9287 27.4029C23.8393 27.4029 23.6272 27.4276 23.2923 27.4771C22.9574 27.5018 22.6783 27.5389 22.4551 27.5884C22.2318 27.6378 22.0197 27.7244 21.8187 27.848C21.7518 27.8975 21.6625 27.984 21.5508 28.1077C21.4615 28.2066 21.3945 28.2684 21.3499 28.2932C21.3052 28.3179 21.2606 28.355 21.2159 28.4045C21.1713 28.4292 21.1154 28.4663 21.0485 28.5157C21.0038 28.5405 20.9703 28.5652 20.948 28.5899C20.9033 28.6394 20.7805 28.7136 20.5796 28.8125C20.401 28.9114 20.267 28.998 20.1777 29.0722C20.7136 29.0227 21.3052 28.8991 21.9527 28.7012C22.0867 28.627 22.2206 28.5652 22.3546 28.5157C22.5109 28.4415 22.6002 28.4045 22.6225 28.4045C22.6448 28.3797 22.6895 28.355 22.7565 28.3303C22.8235 28.2808 22.8681 28.2437 22.8904 28.219C22.9128 28.1942 22.9798 28.1448 23.0914 28.0706C23.2254 27.9964 23.3593 27.9098 23.4933 27.8109C23.5379 27.7862 23.6496 27.7244 23.8282 27.6254C24.0068 27.5018 24.1408 27.4029 24.2301 27.3287C24.3864 27.2298 24.5985 27.0567 24.8664 26.8093C25.1343 26.562 25.3464 26.3889 25.5027 26.29C25.7037 26.1416 25.8934 26.0922 26.0721 26.1416C26.2507 26.1664 26.3958 26.29 26.5074 26.5126C26.6191 26.7104 26.6302 26.9206 26.5409 27.1432C26.4963 27.2669 26.4405 27.3781 26.3735 27.4771C26.3288 27.5513 26.2953 27.6131 26.273 27.6625C26.2507 27.6873 26.1725 27.7491 26.0386 27.848C25.9269 27.9469 25.8488 28.0211 25.8041 28.0706C25.5585 28.2684 25.2236 28.763 24.7994 29.5544Z" fill="black"/>
  <path d="M42.0233 28.5528C42.4029 28.5281 42.8159 28.4786 43.2625 28.4045C43.709 28.3303 44.2002 28.2437 44.736 28.1448C45.2719 28.0459 45.6961 27.9717 46.0087 27.9222C46.2096 27.8727 46.3548 27.9346 46.4441 28.1077C46.5334 28.2561 46.5334 28.4168 46.4441 28.5899C46.3771 28.763 46.2431 28.862 46.0422 28.8867C44.6579 29.0351 43.3294 29.134 42.0568 29.1835C40.0474 29.2082 38.6631 28.9114 37.9039 28.2932C37.8593 28.2437 37.8035 28.1942 37.7365 28.1448C37.6918 28.1942 37.6137 28.2932 37.5021 28.4415C37.3681 28.5405 37.156 28.6889 36.8657 28.8867C36.5978 29.0598 36.4304 29.1711 36.3634 29.2206C36.3411 29.2453 36.2294 29.3566 36.0285 29.5544C35.8275 29.7523 35.5708 29.913 35.2582 30.0367C34.4098 30.0614 34.1195 29.4431 34.3874 28.1819C34.4767 27.6625 34.5214 27.4029 34.5214 27.4029C34.5437 27.3781 34.5995 27.2421 34.6888 26.9948C34.8005 26.7475 34.901 26.5002 34.9903 26.2529C35.1019 26.0056 35.1577 25.882 35.1577 25.882C35.2024 25.783 35.2582 25.6223 35.3252 25.3997C35.4145 25.1771 35.4815 25.004 35.5261 24.8804C35.5931 24.732 35.7271 24.4105 35.928 23.9159C36.1513 23.4213 36.3076 23.038 36.3969 22.7659C37.022 21.1585 37.9039 19.1677 39.0426 16.7936C39.3329 16.3731 39.478 16.1629 39.478 16.1629C39.7906 15.8414 40.1255 15.6683 40.4827 15.6436C40.6837 15.6189 40.8511 15.6189 40.9851 15.6436C41.1414 15.6436 41.2642 15.6931 41.3535 15.792C41.4651 15.8909 41.5656 16.0517 41.6549 16.2742C41.6772 16.3237 41.6996 16.3855 41.7219 16.4597C41.7442 16.5092 41.7665 16.571 41.7889 16.6452C41.8112 16.6946 41.8224 16.7441 41.8224 16.7936C41.867 16.9914 41.8893 17.1892 41.8893 17.3871C41.9117 17.5602 41.9005 17.7704 41.8559 18.0177C41.8335 18.2403 41.8 18.4134 41.7554 18.5371C41.733 18.6607 41.6772 18.8709 41.5879 19.1677C41.5209 19.4644 41.4875 19.6375 41.4875 19.687C41.2419 20.2805 41.1191 20.5773 41.1191 20.5773C41.0074 20.7999 40.6279 21.3934 39.9804 22.3579C39.9134 22.4568 39.8018 22.6299 39.6455 22.8772C39.4892 23.0998 39.3664 23.2729 39.2771 23.3966C39.1654 23.5697 38.9422 23.8788 38.6073 24.3239C38.2723 24.7444 38.0156 25.0782 37.837 25.3255C36.475 27.0319 35.6377 28.1201 35.3252 28.5899C35.3922 28.5157 35.5373 28.4045 35.7605 28.2561C36.3857 27.8357 36.7318 27.5884 36.7988 27.5142C37.223 26.8959 37.6695 26.6857 38.1384 26.8835L38.4733 27.1432C38.4733 27.1679 38.4956 27.205 38.5403 27.2545C38.5849 27.2792 38.6184 27.3163 38.6407 27.3658C38.6631 27.3905 38.6854 27.4152 38.7077 27.44C39.1543 28.3055 40.2595 28.6765 42.0233 28.5528ZM36.0955 26.0674C36.2294 25.8943 36.4192 25.647 36.6648 25.3255C36.9327 25.004 37.1113 24.7938 37.2006 24.6949C37.3569 24.4229 37.6025 24.0766 37.9374 23.6562C38.2947 23.2358 38.5291 22.9514 38.6407 22.803C38.7077 22.7041 38.7747 22.6052 38.8417 22.5063C38.9087 22.3826 38.9757 22.259 39.0426 22.1353C39.1319 21.9869 39.1989 21.8756 39.2436 21.8015C39.8687 20.8617 40.2371 20.2682 40.3488 20.0209C40.3711 19.9467 40.3934 19.8725 40.4157 19.7983C40.4604 19.7241 40.4939 19.6376 40.5162 19.5386C40.5385 19.415 40.5609 19.3284 40.5832 19.279C40.7841 18.4629 40.8623 17.8199 40.8176 17.35C40.8176 17.2511 40.8065 17.1522 40.7841 17.0532C40.7841 16.979 40.7618 16.9172 40.7172 16.8678C40.6948 16.8183 40.6837 16.7812 40.6837 16.7565C40.6613 16.7565 40.6502 16.7317 40.6502 16.6823C40.6055 16.6081 40.572 16.5586 40.5497 16.5339L40.5832 16.6081C40.6279 16.7317 40.639 16.8059 40.6167 16.8307C40.5944 16.8307 40.5609 16.843 40.5162 16.8678C40.4939 16.8678 40.4604 16.8678 40.4157 16.8678C40.3711 16.8678 40.3376 16.8801 40.3153 16.9048C40.2036 16.9543 40.0474 17.1521 39.8464 17.4984C38.9533 19.1058 38.0714 20.9854 37.2006 23.1369C37.1337 23.3595 37.0444 23.5944 36.9327 23.8417C36.8434 24.089 36.7318 24.3487 36.5978 24.6207C36.4862 24.8927 36.3969 25.1153 36.3299 25.2884C36.3299 25.3132 36.2517 25.5728 36.0955 26.0674Z" fill="black"/>
  <path d="M48.2209 27.069C48.1986 27.0196 48.1539 26.9701 48.0869 26.9206C48.0423 26.8464 48.0088 26.7846 47.9865 26.7352C47.9195 26.8093 47.8079 26.9083 47.6516 27.0319C47.4953 27.1556 47.3836 27.2545 47.3167 27.3287C47.1827 27.4771 47.0152 27.7491 46.8143 28.1448C46.6134 28.5405 46.4124 28.8001 46.2115 28.9238C45.9882 29.0722 45.7873 29.0969 45.6086 28.998C45.43 28.8743 45.3184 28.7259 45.2737 28.5528C45.2514 28.355 45.2849 28.1819 45.3742 28.0335C45.6868 27.712 45.9994 27.3658 46.3119 26.9948C46.4012 26.8959 46.5017 26.7846 46.6134 26.661C46.658 26.5868 46.7362 26.4879 46.8478 26.3642C46.9818 26.2405 47.0934 26.1293 47.1827 26.0303C47.272 25.9314 47.339 25.8325 47.3836 25.7336C47.406 25.6841 47.4283 25.6347 47.4506 25.5852C47.4729 25.511 47.4953 25.4368 47.5176 25.3626C47.5399 25.2884 47.5623 25.239 47.5846 25.2142C47.5846 25.14 47.5957 25.0782 47.6181 25.0288C47.5957 24.8062 47.6292 24.6207 47.7185 24.4723C47.7409 24.4476 47.7632 24.4105 47.7855 24.361C47.8079 24.3116 47.8302 24.2869 47.8525 24.2869C47.8079 24.1879 47.7967 24.1137 47.819 24.0643C48.2432 23.3471 48.5781 23.2482 48.8237 23.7675C49.0247 24.2869 49.0135 24.7567 48.7902 25.1771C48.8126 25.3255 48.8237 25.5605 48.8237 25.882C48.8237 25.9067 48.8237 25.9191 48.8237 25.9191C48.98 26.3395 49.181 26.6981 49.4266 26.9948C49.6722 27.2916 49.9178 27.5513 50.1634 27.7738C50.409 27.9717 50.7215 28.1201 51.1011 28.219C51.4807 28.3179 51.7932 28.4045 52.0388 28.4786C52.2844 28.5281 52.6417 28.5405 53.1105 28.5157C53.5794 28.491 53.9143 28.4786 54.1153 28.4786C54.3162 28.4539 54.6511 28.3921 55.12 28.2932C55.6112 28.1942 55.9014 28.1324 55.9907 28.1077C56.1024 28.083 56.3815 28.0211 56.828 27.9222C56.9843 27.8727 57.1852 27.848 57.4308 27.848C57.6541 27.848 57.9109 27.8851 58.2011 27.9593C58.4691 27.9346 58.6365 28.1324 58.7035 28.5528C58.7705 28.9732 58.67 29.1958 58.4021 29.2206C58.3351 29.2206 58.2681 29.2082 58.2011 29.1835C58.1788 29.1835 58.056 29.1835 57.8327 29.1835C57.7658 29.2082 57.6764 29.2206 57.5648 29.2206C57.4755 29.2206 57.3974 29.2206 57.3304 29.2206C57.1964 29.2453 57.0959 29.1711 57.029 28.998C56.9396 28.998 56.895 28.998 56.895 28.998C56.5601 29.0227 56.0577 29.0598 55.3879 29.1093C54.7181 29.1587 54.1823 29.1958 53.7804 29.2206C53.3785 29.2453 52.8761 29.2329 52.2733 29.1835C51.6928 29.134 51.1904 29.0474 50.7662 28.9238C50.342 28.7754 49.8954 28.5528 49.4266 28.2561C48.98 27.9346 48.5781 27.5389 48.2209 27.069ZM49.0582 19.3532C50.0182 19.18 50.5764 19.0811 50.7327 19.0564C50.8443 19.0317 50.9337 19.0811 51.0006 19.2048C51.0676 19.3284 51.0899 19.4644 51.0676 19.6128C51.0453 19.7365 50.9895 19.8107 50.9002 19.8354H50.8332L50.7997 19.8725H50.6992L50.6657 19.9096H50.5653L50.5318 19.9467H50.4313L50.3978 19.9838H50.2973L50.2638 20.0209H50.1634L50.1299 20.058H50.0294L49.9959 20.0951H49.8954L49.8619 20.1322H49.7615L49.728 20.1693H49.594L49.5605 20.2063H49.4601L49.4266 20.2434H49.3261L49.2926 20.2805H49.2256C49.114 20.3053 49.0135 20.2434 48.9242 20.0951C48.8572 19.9467 48.8349 19.7983 48.8572 19.6499C48.8796 19.4768 48.9465 19.3779 49.0582 19.3532Z" fill="black"/>
  <path d="M58.2752 27.1061C59.0566 26.7846 59.5143 26.5497 59.6483 26.4013C59.5143 26.154 59.1124 26.0674 58.4426 26.1416C58.1524 26.1664 57.9514 26.2405 57.8398 26.3642C57.7505 26.4879 57.7393 26.661 57.8063 26.8835C57.8733 27.0814 57.9738 27.2174 58.1077 27.2916C58.13 27.2174 58.1859 27.1556 58.2752 27.1061ZM70.0639 28.8125C69.2155 28.8125 68.1214 28.9114 66.7818 29.1093C65.4422 29.3071 64.2812 29.4926 63.2988 29.6657C62.3387 29.8141 61.3117 29.8141 60.2176 29.6657C59.1459 29.5173 58.264 29.134 57.5719 28.5157C56.8797 27.9469 56.556 27.2792 56.6006 26.5126C56.6006 25.9932 56.8462 25.5852 57.3374 25.2884C57.8063 24.9917 58.3533 24.8556 58.9785 24.8804C59.6036 24.9051 60.106 25.103 60.4856 25.4739C60.7981 25.7707 60.9321 26.0303 60.8874 26.2529C60.8428 26.5002 60.72 26.7352 60.5191 26.9577C60.3181 27.1803 60.0837 27.3658 59.8157 27.5142C59.5478 27.6625 59.2576 27.7862 58.945 27.8851C59.1013 28.3797 59.5032 28.7259 60.1507 28.9238C60.7981 29.0969 61.5796 29.1464 62.495 29.0722C63.4327 28.9733 64.3481 28.8496 65.2412 28.7012C66.1566 28.5281 67.0832 28.3426 68.021 28.1448C68.981 27.9469 69.6508 27.8357 70.0304 27.8109C70.5886 27.5389 70.9346 27.6007 71.0686 27.9964C71.1802 28.3179 71.0574 28.5652 70.7002 28.7383C70.5216 28.8125 70.3095 28.8372 70.0639 28.8125Z" fill="black"/>
  <path d="M77.5962 30.185C77.1273 29.8388 76.7477 29.1711 76.4575 28.1819C76.2565 28.3303 75.9998 28.5528 75.6872 28.8496C75.6202 28.8991 75.4862 29.0103 75.2853 29.1835C75.1067 29.3318 74.9392 29.4802 74.7829 29.6286C74.6266 29.7523 74.4257 29.913 74.1801 30.1108C73.9345 30.284 73.7001 30.4447 73.4768 30.5931C73.2535 30.7415 73.0079 30.8899 72.74 31.0382C72.4721 31.1619 72.2042 31.2608 71.9362 31.335C71.8692 31.335 71.7688 31.3474 71.6348 31.3721C71.5232 31.3968 71.4227 31.4216 71.3334 31.4463C71.2441 31.4463 71.1436 31.4463 71.032 31.4463C70.9203 31.4463 70.8087 31.4463 70.6971 31.4463C70.6078 31.4216 70.5296 31.3968 70.4626 31.3721C69.9045 31.1248 69.737 30.5436 69.9603 29.6286C70.0049 29.4308 70.0719 29.2453 70.1612 29.0722C70.2952 28.7754 70.485 28.4663 70.7306 28.1448C70.9985 27.8233 71.1883 27.576 71.2999 27.4029C71.5008 27.0814 71.7799 27.1061 72.1372 27.4771C72.4274 27.8233 72.4386 28.1077 72.1707 28.3303C71.7018 28.6518 71.3446 29.0969 71.099 29.6657C70.898 30.1356 71.0097 30.3581 71.4339 30.3334C71.6571 30.3087 71.9586 30.2098 72.3381 30.0367C72.4721 29.9872 72.606 29.9254 72.74 29.8512C72.8963 29.777 73.0414 29.6904 73.1754 29.5915C73.3317 29.4679 73.4545 29.3689 73.5438 29.2947C73.6554 29.2206 73.8005 29.1093 73.9792 28.9609C74.1578 28.8125 74.2806 28.7136 74.3476 28.6641C74.4145 28.5899 74.5373 28.4663 74.716 28.2932C74.9169 28.0953 75.0397 27.984 75.0844 27.9593C75.3076 27.7367 75.5755 27.4894 75.8881 27.2174C76.0444 27.069 76.1561 26.9825 76.223 26.9577C76.29 26.9083 76.4016 26.8588 76.5579 26.8093C76.7366 26.7352 76.8928 26.7352 77.0268 26.8093C77.0491 26.8341 77.0715 26.8588 77.0938 26.8835C77.1161 26.9083 77.1384 26.933 77.1608 26.9577C77.2054 26.9825 77.2278 27.0072 77.2278 27.0319C77.2501 27.0319 77.2724 27.0443 77.2947 27.069C77.3171 27.1185 77.3394 27.1556 77.3617 27.1803C77.4287 27.4029 77.4957 27.6873 77.5627 28.0335C77.6296 28.355 77.6855 28.5899 77.7301 28.7383C77.7748 28.862 77.8864 29.0227 78.065 29.2206C78.266 29.4184 78.5339 29.6039 78.8688 29.777C79.4493 30.0738 80.1749 30.2469 81.0457 30.2963C81.9388 30.3211 82.8653 30.2592 83.8254 30.1108C84.8078 29.9377 85.7455 29.7523 86.6386 29.5544C87.5317 29.3318 88.4136 29.1093 89.2844 28.8867C90.1775 28.6394 90.8138 28.491 91.1934 28.4415C91.238 28.2437 91.3385 28.1324 91.4948 28.1077C91.6511 28.1077 91.8743 28.0953 92.1646 28.0706C92.4548 28.0211 92.7116 27.984 92.9349 27.9593C93.1805 27.9346 93.4149 27.9346 93.6382 27.9593C93.6605 27.984 93.7052 28.0211 93.7721 28.0706C93.8391 28.0953 93.8838 28.1324 93.9061 28.1819C93.9508 28.2066 93.9843 28.2437 94.0066 28.2932C94.1182 28.6641 94.1294 28.9238 94.0401 29.0722C93.9508 29.1958 93.7498 29.3318 93.4372 29.4802C93.3926 29.505 93.2586 29.4802 93.0353 29.406C92.8121 29.3318 92.6781 29.3195 92.6335 29.3689C92.0306 29.3689 91.5729 29.3813 91.2603 29.406C90.8361 29.4555 90.1217 29.5915 89.1169 29.8141C88.1122 30.0119 87.0963 30.2098 86.0693 30.4076C85.0422 30.5807 83.9705 30.7415 82.8542 30.8899C81.7602 31.0382 80.7443 31.063 79.8065 30.964C78.8688 30.8404 78.132 30.5807 77.5962 30.185Z" fill="black"/>
  <path d="M19.5689 16.571C20.6406 15.2108 21.5001 13.6652 22.1476 11.9341C22.17 11.8599 22.1923 11.7733 22.2146 11.6744C22.2593 11.5755 22.2928 11.4765 22.3151 11.3776C22.3597 11.2787 22.4044 11.1674 22.4491 11.0438C22.4937 10.9201 22.5272 10.8088 22.5495 10.7099C22.5718 10.611 22.6053 10.4997 22.65 10.376C22.6947 10.2524 22.7281 10.1535 22.7505 10.0793C22.7728 9.98035 22.8063 9.86907 22.8509 9.74542C22.8956 9.62176 22.9291 9.52284 22.9514 9.44865C23.13 8.60782 23.2193 8.1874 23.2193 8.1874C23.2417 7.98956 23.2975 7.55678 23.3868 6.88906C23.4984 6.12242 23.5654 5.57835 23.5877 5.25686C23.6101 4.93537 23.5989 4.40366 23.5542 3.66175C23.5542 3.61229 23.5431 3.56283 23.5208 3.51337C23.5208 3.43918 23.5096 3.38972 23.4873 3.36499C23.4873 3.31553 23.4761 3.26607 23.4538 3.21661C23.4314 3.14242 23.4091 3.08059 23.3868 3.03113C23.2528 2.68491 23.1858 2.51179 23.1858 2.51179C22.8956 2.04192 22.516 1.73279 22.0472 1.5844C21.9802 1.55967 21.7569 1.58441 21.3773 1.6586C21.0871 1.83171 20.942 1.91826 20.942 1.91826C20.8527 1.99246 20.7522 2.07901 20.6406 2.17793C20.5512 2.25212 20.4508 2.35104 20.3391 2.4747C20.0042 2.84565 19.7028 3.22897 19.4349 3.62466C19.167 3.99561 18.9102 4.3913 18.6646 4.81171C18.4413 5.23213 18.2404 5.67728 18.0618 6.14715C18.0618 6.14715 17.8385 6.79014 17.392 8.07612C16.8784 9.58467 16.6217 10.3389 16.6217 10.3389C16.3761 11.1056 15.9854 12.6141 15.4495 14.8646C15.4048 15.013 15.3825 15.1243 15.3825 15.1985C15.2932 15.5694 15.003 16.7688 14.5118 18.7967C14.0206 20.7999 13.641 22.3332 13.3731 23.3966C12.2791 27.9964 11.319 31.4957 10.4929 33.8946C10.4259 34.0677 9.94587 35.3042 9.05278 37.6041C11.4418 37.2332 13.5852 36.9982 15.483 36.8993C16.711 36.8251 18.6869 36.8251 21.4108 36.8993C22.7281 36.9488 24.2241 36.9859 25.8986 37.0106C27.5731 37.0601 29.2588 37.0972 30.9557 37.1219C32.6749 37.1466 34.1819 37.1837 35.4769 37.2332C36.8165 37.3074 39.2279 37.4805 42.7109 37.7525C45.0776 37.9009 47.3773 37.9998 49.61 38.0493C51.8427 38.1235 54.0419 38.1358 56.2076 38.0864C56.3416 38.0864 56.4867 38.0864 56.643 38.0864C56.7993 38.0864 56.9444 38.0864 57.0784 38.0864C57.2124 38.0864 57.3575 38.0864 57.5138 38.0864C57.6701 38.0864 57.8152 38.0864 57.9492 38.0864C58.1055 38.0864 58.2617 38.074 58.418 38.0493C58.5743 38.0493 58.7195 38.0493 58.8534 38.0493C59.0097 38.0493 59.1548 38.0493 59.2888 38.0493C59.5121 38.0246 59.7465 37.9998 59.9921 37.9751C60.26 37.9751 60.4945 37.9627 60.6954 37.938C60.8963 37.938 61.1308 37.9256 61.3987 37.9009C61.689 37.8762 61.9234 37.8514 62.102 37.8267C62.2583 37.8267 62.5039 37.802 62.8388 37.7525C67.1926 37.2579 70.4189 36.6891 72.5176 36.0461C72.6516 36.0214 72.7855 35.9843 72.9195 35.9348C73.0535 35.8854 73.2097 35.8236 73.3884 35.7494C73.567 35.6999 73.701 35.6504 73.7903 35.601C73.8796 35.5762 73.9689 35.5392 74.0582 35.4897C74.1475 35.465 74.248 35.4279 74.3596 35.3784C74.4712 35.3537 74.5494 35.3289 74.594 35.3042C74.661 35.2795 74.7726 35.2424 74.9289 35.1929C75.0852 35.1435 75.1745 35.1187 75.1969 35.1187C75.1076 35.094 74.8396 35.0816 74.3931 35.0816C74.1028 35.0569 73.9577 34.8096 73.9577 34.3397C73.9577 34.1419 74.0024 33.9688 74.0917 33.8204C74.181 33.672 74.3038 33.5978 74.4601 33.5978C75.2415 33.6226 75.9448 33.7586 76.57 34.0059C76.57 34.0059 76.637 34.0182 76.7709 34.043C76.9272 34.0924 77.0388 34.1419 77.1058 34.1913C77.1058 34.1913 77.2956 34.3768 77.6752 34.7478C77.6752 34.7725 77.6752 34.7972 77.6752 34.822C77.6752 34.8714 77.664 34.9456 77.6417 35.0445C77.6417 35.1682 77.6305 35.2671 77.6082 35.3413C77.6082 35.4155 77.597 35.4897 77.5747 35.5639C77.5524 35.6628 77.5189 35.7617 77.4742 35.8606C77.4519 35.9101 77.3961 35.9472 77.3068 35.9719C77.2398 36.0214 77.1728 36.0461 77.1058 36.0461C77.0612 36.0709 76.9942 36.0832 76.9049 36.0832C76.8379 36.0832 76.7933 36.0832 76.7709 36.0832C76.436 36.1574 75.9671 36.2811 75.3643 36.4542C74.7615 36.652 74.3373 36.788 74.0917 36.8622C73.1986 37.1095 72.752 37.2332 72.752 37.2332C70.6086 37.7525 67.0698 38.2471 62.1355 38.717C60.26 38.7912 59.3223 38.8283 59.3223 38.8283C57.5808 38.8777 55.7276 38.8901 53.7628 38.8654C51.798 38.8407 49.9449 38.7912 48.2034 38.717C46.4619 38.6428 44.6199 38.5439 42.6774 38.4202C42.3872 38.3955 42.0188 38.3584 41.5722 38.309C41.148 38.2842 40.8019 38.2595 40.534 38.2348C40.2661 38.21 39.9423 38.1853 39.5628 38.1606C39.1832 38.1358 38.8483 38.1111 38.5581 38.0864C38.2678 38.0616 37.9441 38.0369 37.5868 38.0122C37.2296 37.9875 36.8724 37.9627 36.5151 37.938C36.1802 37.9133 35.823 37.9009 35.4434 37.9009C34.1038 37.8267 32.6079 37.7772 30.9557 37.7525C29.3258 37.7525 27.6289 37.7525 25.8651 37.7525C24.1236 37.7525 22.6388 37.7278 21.4108 37.6783C18.5306 37.7031 16.577 37.7525 15.55 37.8267C13.6075 37.9751 11.2743 38.3337 8.55042 38.9025C8.2825 39.5207 8.10388 39.9164 8.01457 40.0895C7.94759 40.2626 7.67966 40.7943 7.2108 41.6846C6.78658 42.5007 6.52982 42.983 6.44051 43.1314C5.94931 43.9475 5.19019 44.9119 4.16314 46.0248C3.93987 46.2721 3.77242 46.4452 3.66078 46.5442C3.54915 46.6678 3.3817 46.7915 3.15842 46.9151C2.93515 47.0388 2.70072 47.1006 2.45512 47.1006C2.0309 47.1006 1.48389 46.8162 0.814077 46.2474V46.2103C0.79175 46.1856 0.758259 46.1237 0.713605 46.0248C0.646624 45.9506 0.590806 45.8764 0.546152 45.8022C0.501497 45.7281 0.456843 45.6662 0.412189 45.6168C0.32288 45.3695 0.255899 45.1222 0.211245 44.8749C0.144264 44.6276 0.110773 44.3679 0.110773 44.0958C0.0884458 43.8485 0.0996094 43.6012 0.144264 43.3539C0.188918 43.1066 0.255899 42.8593 0.345208 42.612C0.367535 42.4884 0.434516 42.3153 0.546152 42.0927C0.590806 41.9938 0.624297 41.9196 0.646624 41.8701V41.833C0.959203 41.3137 1.11549 41.054 1.11549 41.054C1.42807 40.6089 1.79647 40.2256 2.22069 39.9041C2.62257 39.5826 3.14726 39.2858 3.79475 39.0138C4.44223 38.7665 4.89994 38.5934 5.16786 38.4944C5.43579 38.4202 5.97164 38.2595 6.77542 38.0122C7.15498 37.938 7.52338 37.8762 7.88061 37.8267C7.92526 37.7525 7.95875 37.6783 7.98108 37.6041C8.00341 37.5547 8.07039 37.3816 8.18202 37.0848C8.29366 36.8128 8.39413 36.5655 8.48344 36.3429C8.57275 36.145 8.67322 35.8854 8.78486 35.5639C8.91882 35.2424 9.03045 34.9704 9.11976 34.7478C9.2314 34.5252 9.33187 34.2903 9.42118 34.043C9.51049 33.8204 9.57747 33.6473 9.62212 33.5236C10.2473 31.8172 10.772 30.1974 11.1962 28.6641C11.2185 28.5652 11.4529 27.6625 11.8995 25.9561C11.9441 25.7336 12 25.4986 12.0669 25.2513C12.1339 24.9793 12.1897 24.7444 12.2344 24.5465C12.2791 24.3487 12.3349 24.1137 12.4018 23.8417C12.4688 23.5697 12.5246 23.3471 12.5693 23.174C13.1052 20.9235 13.5405 19.0688 13.8754 17.6097C13.9647 17.2882 14.0764 16.8183 14.2103 16.2C14.5006 14.9141 14.7239 13.9248 14.8802 13.2324C15.0365 12.5399 15.2597 11.662 15.55 10.5986C15.8402 9.51048 16.1305 8.54599 16.4207 7.70516C16.4654 7.53205 16.5324 7.30948 16.6217 7.03744C16.711 6.76541 16.7891 6.51811 16.8561 6.29553C16.9231 6.04823 17.0012 5.82566 17.0905 5.62781C17.2692 5.10848 17.4813 4.61387 17.7269 4.14399C17.9725 3.64939 18.2404 3.17951 18.5306 2.73437C18.8209 2.26449 19.1446 1.83171 19.5019 1.43602C19.8368 1.04034 20.1159 0.768304 20.3391 0.619923C20.3391 0.619923 20.6294 0.471541 21.2099 0.174776C21.7011 0.125316 21.9467 0.100586 21.9467 0.100586C22.0583 0.100586 22.1588 0.112951 22.2481 0.137681C22.3597 0.162411 22.4602 0.187141 22.5495 0.211871C22.6388 0.236601 22.7281 0.273697 22.8174 0.323158C22.9068 0.372618 22.9961 0.434444 23.0854 0.508636C23.1747 0.558096 23.264 0.619921 23.3533 0.694113C23.4426 0.743573 23.5208 0.805399 23.5877 0.87959C23.677 0.953782 23.7552 1.02797 23.8222 1.10216C23.9115 1.17635 23.9896 1.26291 24.0566 1.36183C24.1236 1.43602 24.1794 1.52258 24.2241 1.6215C24.291 1.69569 24.3469 1.78225 24.3915 1.88117C24.4138 1.93063 24.4362 1.99245 24.4585 2.06665C24.5031 2.14084 24.5366 2.21503 24.559 2.28922C24.5813 2.33868 24.6036 2.41287 24.6259 2.51179C24.6483 2.58598 24.6706 2.64781 24.6929 2.69727C24.6929 2.74673 24.6929 2.80856 24.6929 2.88275C24.7153 2.95694 24.7376 3.01876 24.7599 3.06823C24.7822 3.11769 24.7934 3.17951 24.7934 3.2537C24.8157 3.30316 24.8269 3.36499 24.8269 3.43918C24.8269 3.48864 24.8381 3.55047 24.8604 3.62466C24.905 4.29238 24.8046 5.4547 24.559 7.11163C24.559 7.16109 24.5478 7.24765 24.5255 7.3713C24.5255 7.47022 24.5143 7.56915 24.492 7.66807C24.492 7.74226 24.4808 7.82881 24.4585 7.92774C24.4362 8.02666 24.4138 8.12558 24.3915 8.2245C24.3915 8.29869 24.3803 8.38525 24.358 8.48417C24.358 8.53363 24.3469 8.59546 24.3245 8.66965C24.3245 8.71911 24.3134 8.76857 24.291 8.81803C24.291 8.86749 24.2799 8.92931 24.2575 9.00351C24.2575 9.05297 24.2464 9.11479 24.2241 9.18898C24.2241 9.23844 24.2129 9.30027 24.1906 9.37446C24.1682 9.42392 24.1459 9.47338 24.1236 9.52284C24.1236 9.5723 24.1124 9.63413 24.0901 9.70832C24.0901 9.75778 24.0901 9.81961 24.0901 9.8938C24.0454 9.96799 23.9785 10.1411 23.8892 10.4131C23.8222 10.6604 23.7663 10.8459 23.7217 10.9696C23.6994 11.0685 23.6547 11.2292 23.5877 11.4518C23.5208 11.6497 23.4538 11.8351 23.3868 12.0082C23.3198 12.1814 23.2528 12.3421 23.1858 12.4905C22.583 14.0485 21.7234 15.7054 20.6071 17.4613C20.4954 17.5849 20.3615 17.6468 20.2052 17.6468C20.0712 17.622 19.9373 17.5478 19.8033 17.4242C19.4684 17.1027 19.3902 16.8183 19.5689 16.571ZM3.29239 44.9861C4.31943 43.9969 5.05623 43.1685 5.50277 42.5007C5.59208 42.3524 5.86001 41.8701 6.30655 41.054C6.8424 40.0895 7.1773 39.4589 7.31127 39.1621C7.26661 39.1621 7.22196 39.1621 7.1773 39.1621C7.15498 39.1869 7.12149 39.1992 7.07683 39.1992C7.00985 39.224 6.92054 39.2611 6.80891 39.3105C4.86645 39.9535 3.49333 40.6212 2.68955 41.3137C2.46628 41.5115 2.30999 41.6723 2.22069 41.7959C2.17603 41.8701 2.13138 41.9319 2.08672 41.9814C2.04207 42.0556 1.99741 42.1422 1.95276 42.2411C1.90811 42.34 1.87461 42.4142 1.85229 42.4636C1.74065 42.7851 1.66251 43.0201 1.61785 43.1685C1.55087 43.3168 1.50622 43.5023 1.48389 43.7249C1.43924 43.9475 1.43924 44.1577 1.48389 44.3555C1.52854 44.5781 1.60669 44.813 1.71833 45.0603C1.87461 45.2334 2.04207 45.3695 2.22069 45.4684C2.24301 45.4684 2.2765 45.4808 2.32116 45.5055C2.34348 45.5302 2.37698 45.5426 2.42163 45.5426L2.45512 45.6168C2.56676 45.592 2.84584 45.3818 3.29239 44.9861Z" stroke="black" stroke-width="0.2" mask="url(#path-1-outside-1_10005_374)"/>
  <path d="M24.7994 29.5544C25.4469 29.7275 26.0274 29.8141 26.5409 29.8141C27.0768 29.8141 27.7019 29.7399 28.4164 29.5915C29.1532 29.4184 29.7895 29.2453 30.3254 29.0722C30.8836 28.8991 31.5087 28.7136 32.2009 28.5157C32.893 28.2932 33.4735 28.1448 33.9424 28.0706C34.8578 27.8975 35.3378 28.0459 35.3825 28.5157C35.4271 28.8125 35.2932 29.0227 34.9806 29.1464C34.8243 29.1958 34.668 29.1711 34.5117 29.0722C33.7749 29.1464 32.6697 29.3195 31.1961 29.5915C29.7449 29.8388 28.8295 29.9996 28.4499 30.0738C28.2936 30.0985 27.9587 30.1603 27.4452 30.2592C26.954 30.3581 26.5186 30.4447 26.139 30.5189C25.7818 30.5684 25.3911 30.5807 24.9669 30.556C24.5427 30.5313 24.2189 30.4323 23.9956 30.2592C23.5938 29.9377 23.5938 29.406 23.9956 28.6641C23.8393 28.763 23.7054 28.8496 23.5938 28.9238C23.5044 28.9732 23.4263 29.0227 23.3593 29.0722C23.3147 29.0969 23.27 29.134 23.2254 29.1835C23.203 29.2082 23.1807 29.2206 23.1584 29.2206C23.1584 29.2206 23.1472 29.2329 23.1249 29.2576C23.1026 29.2576 23.0914 29.2576 23.0914 29.2576C23.0914 29.2576 23.0579 29.27 22.9909 29.2947C22.9463 29.3195 22.9016 29.3442 22.857 29.3689C22.8123 29.3937 22.7342 29.4431 22.6225 29.5173C22.5109 29.5668 22.3881 29.6286 22.2541 29.7028C21.5397 29.9501 20.8698 30.1232 20.2447 30.2221C20.2224 30.2469 20.1442 30.2716 20.0103 30.2963C19.8763 30.3211 19.7758 30.3334 19.7088 30.3334C19.4186 30.284 19.1618 30.185 18.9385 30.0367C18.9385 30.0367 18.9051 29.9254 18.8381 29.7028C18.8381 29.6533 18.8381 29.5915 18.8381 29.5173C18.8158 29.4431 18.8046 29.3937 18.8046 29.3689C18.8046 29.3195 18.8046 29.2577 18.8046 29.1835C18.8492 28.9856 18.9385 28.8001 19.0725 28.627C19.2065 28.4539 19.3069 28.3303 19.3739 28.2561C19.4632 28.1819 19.6419 28.0706 19.9098 27.9222C20.1777 27.7491 20.3228 27.6502 20.3452 27.6254C20.4121 27.576 20.5238 27.4894 20.6801 27.3658C20.8364 27.2174 20.9815 27.0937 21.1154 26.9948C21.2494 26.8959 21.3722 26.8217 21.4838 26.7723C21.7741 26.6486 22.1983 26.562 22.7565 26.5126C23.337 26.4631 23.7277 26.4137 23.9287 26.3642C24.1519 26.3642 24.2636 26.5373 24.2636 26.8835C24.2636 27.2298 24.1519 27.4029 23.9287 27.4029C23.8393 27.4029 23.6272 27.4276 23.2923 27.4771C22.9574 27.5018 22.6783 27.5389 22.4551 27.5884C22.2318 27.6378 22.0197 27.7244 21.8187 27.848C21.7518 27.8975 21.6625 27.984 21.5508 28.1077C21.4615 28.2066 21.3945 28.2684 21.3499 28.2932C21.3052 28.3179 21.2606 28.355 21.2159 28.4045C21.1713 28.4292 21.1154 28.4663 21.0485 28.5157C21.0038 28.5405 20.9703 28.5652 20.948 28.5899C20.9033 28.6394 20.7805 28.7136 20.5796 28.8125C20.401 28.9114 20.267 28.998 20.1777 29.0722C20.7136 29.0227 21.3052 28.8991 21.9527 28.7012C22.0867 28.627 22.2206 28.5652 22.3546 28.5157C22.5109 28.4415 22.6002 28.4045 22.6225 28.4045C22.6448 28.3797 22.6895 28.355 22.7565 28.3303C22.8235 28.2808 22.8681 28.2437 22.8904 28.219C22.9128 28.1942 22.9798 28.1448 23.0914 28.0706C23.2254 27.9964 23.3593 27.9098 23.4933 27.8109C23.5379 27.7862 23.6496 27.7244 23.8282 27.6254C24.0068 27.5018 24.1408 27.4029 24.2301 27.3287C24.3864 27.2298 24.5985 27.0567 24.8664 26.8093C25.1343 26.562 25.3464 26.3889 25.5027 26.29C25.7037 26.1416 25.8934 26.0922 26.0721 26.1416C26.2507 26.1664 26.3958 26.29 26.5074 26.5126C26.6191 26.7104 26.6302 26.9206 26.5409 27.1432C26.4963 27.2669 26.4405 27.3781 26.3735 27.4771C26.3288 27.5513 26.2953 27.6131 26.273 27.6625C26.2507 27.6873 26.1725 27.7491 26.0386 27.848C25.9269 27.9469 25.8488 28.0211 25.8041 28.0706C25.5585 28.2684 25.2236 28.763 24.7994 29.5544Z" stroke="black" stroke-width="0.2" mask="url(#path-1-outside-1_10005_374)"/>
  <path d="M42.0233 28.5528C42.4029 28.5281 42.8159 28.4786 43.2625 28.4045C43.709 28.3303 44.2002 28.2437 44.736 28.1448C45.2719 28.0459 45.6961 27.9717 46.0087 27.9222C46.2096 27.8727 46.3548 27.9346 46.4441 28.1077C46.5334 28.2561 46.5334 28.4168 46.4441 28.5899C46.3771 28.763 46.2431 28.862 46.0422 28.8867C44.6579 29.0351 43.3294 29.134 42.0568 29.1835C40.0474 29.2082 38.6631 28.9114 37.9039 28.2932C37.8593 28.2437 37.8035 28.1942 37.7365 28.1448C37.6918 28.1942 37.6137 28.2932 37.5021 28.4415C37.3681 28.5405 37.156 28.6889 36.8657 28.8867C36.5978 29.0598 36.4304 29.1711 36.3634 29.2206C36.3411 29.2453 36.2294 29.3566 36.0285 29.5544C35.8275 29.7523 35.5708 29.913 35.2582 30.0367C34.4098 30.0614 34.1195 29.4431 34.3874 28.1819C34.4767 27.6625 34.5214 27.4029 34.5214 27.4029C34.5437 27.3781 34.5995 27.2421 34.6888 26.9948C34.8005 26.7475 34.901 26.5002 34.9903 26.2529C35.1019 26.0056 35.1577 25.882 35.1577 25.882C35.2024 25.783 35.2582 25.6223 35.3252 25.3997C35.4145 25.1771 35.4815 25.004 35.5261 24.8804C35.5931 24.732 35.7271 24.4105 35.928 23.9159C36.1513 23.4213 36.3076 23.038 36.3969 22.7659C37.022 21.1585 37.9039 19.1677 39.0426 16.7936C39.3329 16.3731 39.478 16.1629 39.478 16.1629C39.7906 15.8414 40.1255 15.6683 40.4827 15.6436C40.6837 15.6189 40.8511 15.6189 40.9851 15.6436C41.1414 15.6436 41.2642 15.6931 41.3535 15.792C41.4651 15.8909 41.5656 16.0517 41.6549 16.2742C41.6772 16.3237 41.6996 16.3855 41.7219 16.4597C41.7442 16.5092 41.7665 16.571 41.7889 16.6452C41.8112 16.6946 41.8224 16.7441 41.8224 16.7936C41.867 16.9914 41.8893 17.1892 41.8893 17.3871C41.9117 17.5602 41.9005 17.7704 41.8559 18.0177C41.8335 18.2403 41.8 18.4134 41.7554 18.5371C41.733 18.6607 41.6772 18.8709 41.5879 19.1677C41.5209 19.4644 41.4875 19.6375 41.4875 19.687C41.2419 20.2805 41.1191 20.5773 41.1191 20.5773C41.0074 20.7999 40.6279 21.3934 39.9804 22.3579C39.9134 22.4568 39.8018 22.6299 39.6455 22.8772C39.4892 23.0998 39.3664 23.2729 39.2771 23.3966C39.1654 23.5697 38.9422 23.8788 38.6073 24.3239C38.2723 24.7444 38.0156 25.0782 37.837 25.3255C36.475 27.0319 35.6377 28.1201 35.3252 28.5899C35.3922 28.5157 35.5373 28.4045 35.7605 28.2561C36.3857 27.8357 36.7318 27.5884 36.7988 27.5142C37.223 26.8959 37.6695 26.6857 38.1384 26.8835L38.4733 27.1432C38.4733 27.1679 38.4956 27.205 38.5403 27.2545C38.5849 27.2792 38.6184 27.3163 38.6407 27.3658C38.6631 27.3905 38.6854 27.4152 38.7077 27.44C39.1543 28.3055 40.2595 28.6765 42.0233 28.5528ZM36.0955 26.0674C36.2294 25.8943 36.4192 25.647 36.6648 25.3255C36.9327 25.004 37.1113 24.7938 37.2006 24.6949C37.3569 24.4229 37.6025 24.0766 37.9374 23.6562C38.2947 23.2358 38.5291 22.9514 38.6407 22.803C38.7077 22.7041 38.7747 22.6052 38.8417 22.5063C38.9087 22.3826 38.9757 22.259 39.0426 22.1353C39.1319 21.9869 39.1989 21.8756 39.2436 21.8015C39.8687 20.8617 40.2371 20.2682 40.3488 20.0209C40.3711 19.9467 40.3934 19.8725 40.4157 19.7983C40.4604 19.7241 40.4939 19.6376 40.5162 19.5386C40.5385 19.415 40.5609 19.3284 40.5832 19.279C40.7841 18.4629 40.8623 17.8199 40.8176 17.35C40.8176 17.2511 40.8065 17.1522 40.7841 17.0532C40.7841 16.979 40.7618 16.9172 40.7172 16.8678C40.6948 16.8183 40.6837 16.7812 40.6837 16.7565C40.6613 16.7565 40.6502 16.7317 40.6502 16.6823C40.6055 16.6081 40.572 16.5586 40.5497 16.5339L40.5832 16.6081C40.6279 16.7317 40.639 16.8059 40.6167 16.8307C40.5944 16.8307 40.5609 16.843 40.5162 16.8678C40.4939 16.8678 40.4604 16.8678 40.4157 16.8678C40.3711 16.8678 40.3376 16.8801 40.3153 16.9048C40.2036 16.9543 40.0474 17.1521 39.8464 17.4984C38.9533 19.1058 38.0714 20.9854 37.2006 23.1369C37.1337 23.3595 37.0444 23.5944 36.9327 23.8417C36.8434 24.089 36.7318 24.3487 36.5978 24.6207C36.4862 24.8927 36.3969 25.1153 36.3299 25.2884C36.3299 25.3132 36.2517 25.5728 36.0955 26.0674Z" stroke="black" stroke-width="0.2" mask="url(#path-1-outside-1_10005_374)"/>
  <path d="M48.2209 27.069C48.1986 27.0196 48.1539 26.9701 48.0869 26.9206C48.0423 26.8464 48.0088 26.7846 47.9865 26.7352C47.9195 26.8093 47.8079 26.9083 47.6516 27.0319C47.4953 27.1556 47.3836 27.2545 47.3167 27.3287C47.1827 27.4771 47.0152 27.7491 46.8143 28.1448C46.6134 28.5405 46.4124 28.8001 46.2115 28.9238C45.9882 29.0722 45.7873 29.0969 45.6086 28.998C45.43 28.8743 45.3184 28.7259 45.2737 28.5528C45.2514 28.355 45.2849 28.1819 45.3742 28.0335C45.6868 27.712 45.9994 27.3658 46.3119 26.9948C46.4012 26.8959 46.5017 26.7846 46.6134 26.661C46.658 26.5868 46.7362 26.4879 46.8478 26.3642C46.9818 26.2405 47.0934 26.1293 47.1827 26.0303C47.272 25.9314 47.339 25.8325 47.3836 25.7336C47.406 25.6841 47.4283 25.6347 47.4506 25.5852C47.4729 25.511 47.4953 25.4368 47.5176 25.3626C47.5399 25.2884 47.5623 25.239 47.5846 25.2142C47.5846 25.14 47.5957 25.0782 47.6181 25.0288C47.5957 24.8062 47.6292 24.6207 47.7185 24.4723C47.7409 24.4476 47.7632 24.4105 47.7855 24.361C47.8079 24.3116 47.8302 24.2869 47.8525 24.2869C47.8079 24.1879 47.7967 24.1137 47.819 24.0643C48.2432 23.3471 48.5781 23.2482 48.8237 23.7675C49.0247 24.2869 49.0135 24.7567 48.7902 25.1771C48.8126 25.3255 48.8237 25.5605 48.8237 25.882C48.8237 25.9067 48.8237 25.9191 48.8237 25.9191C48.98 26.3395 49.181 26.6981 49.4266 26.9948C49.6722 27.2916 49.9178 27.5513 50.1634 27.7738C50.409 27.9717 50.7215 28.1201 51.1011 28.219C51.4807 28.3179 51.7932 28.4045 52.0388 28.4786C52.2844 28.5281 52.6417 28.5405 53.1105 28.5157C53.5794 28.491 53.9143 28.4786 54.1153 28.4786C54.3162 28.4539 54.6511 28.3921 55.12 28.2932C55.6112 28.1942 55.9014 28.1324 55.9907 28.1077C56.1024 28.083 56.3815 28.0211 56.828 27.9222C56.9843 27.8727 57.1852 27.848 57.4308 27.848C57.6541 27.848 57.9109 27.8851 58.2011 27.9593C58.4691 27.9346 58.6365 28.1324 58.7035 28.5528C58.7705 28.9732 58.67 29.1958 58.4021 29.2206C58.3351 29.2206 58.2681 29.2082 58.2011 29.1835C58.1788 29.1835 58.056 29.1835 57.8327 29.1835C57.7658 29.2082 57.6764 29.2206 57.5648 29.2206C57.4755 29.2206 57.3974 29.2206 57.3304 29.2206C57.1964 29.2453 57.0959 29.1711 57.029 28.998C56.9396 28.998 56.895 28.998 56.895 28.998C56.5601 29.0227 56.0577 29.0598 55.3879 29.1093C54.7181 29.1587 54.1823 29.1958 53.7804 29.2206C53.3785 29.2453 52.8761 29.2329 52.2733 29.1835C51.6928 29.134 51.1904 29.0474 50.7662 28.9238C50.342 28.7754 49.8954 28.5528 49.4266 28.2561C48.98 27.9346 48.5781 27.5389 48.2209 27.069ZM49.0582 19.3532C50.0182 19.18 50.5764 19.0811 50.7327 19.0564C50.8443 19.0317 50.9337 19.0811 51.0006 19.2048C51.0676 19.3284 51.0899 19.4644 51.0676 19.6128C51.0453 19.7365 50.9895 19.8107 50.9002 19.8354H50.8332L50.7997 19.8725H50.6992L50.6657 19.9096H50.5653L50.5318 19.9467H50.4313L50.3978 19.9838H50.2973L50.2638 20.0209H50.1634L50.1299 20.058H50.0294L49.9959 20.0951H49.8954L49.8619 20.1322H49.7615L49.728 20.1693H49.594L49.5605 20.2063H49.4601L49.4266 20.2434H49.3261L49.2926 20.2805H49.2256C49.114 20.3053 49.0135 20.2434 48.9242 20.0951C48.8572 19.9467 48.8349 19.7983 48.8572 19.6499C48.8796 19.4768 48.9465 19.3779 49.0582 19.3532Z" stroke="black" stroke-width="0.2" mask="url(#path-1-outside-1_10005_374)"/>
  <path d="M58.2752 27.1061C59.0566 26.7846 59.5143 26.5497 59.6483 26.4013C59.5143 26.154 59.1124 26.0674 58.4426 26.1416C58.1524 26.1664 57.9514 26.2405 57.8398 26.3642C57.7505 26.4879 57.7393 26.661 57.8063 26.8835C57.8733 27.0814 57.9738 27.2174 58.1077 27.2916C58.13 27.2174 58.1859 27.1556 58.2752 27.1061ZM70.0639 28.8125C69.2155 28.8125 68.1214 28.9114 66.7818 29.1093C65.4422 29.3071 64.2812 29.4926 63.2988 29.6657C62.3387 29.8141 61.3117 29.8141 60.2176 29.6657C59.1459 29.5173 58.264 29.134 57.5719 28.5157C56.8797 27.9469 56.556 27.2792 56.6006 26.5126C56.6006 25.9932 56.8462 25.5852 57.3374 25.2884C57.8063 24.9917 58.3533 24.8556 58.9785 24.8804C59.6036 24.9051 60.106 25.103 60.4856 25.4739C60.7981 25.7707 60.9321 26.0303 60.8874 26.2529C60.8428 26.5002 60.72 26.7352 60.5191 26.9577C60.3181 27.1803 60.0837 27.3658 59.8157 27.5142C59.5478 27.6625 59.2576 27.7862 58.945 27.8851C59.1013 28.3797 59.5032 28.7259 60.1507 28.9238C60.7981 29.0969 61.5796 29.1464 62.495 29.0722C63.4327 28.9733 64.3481 28.8496 65.2412 28.7012C66.1566 28.5281 67.0832 28.3426 68.021 28.1448C68.981 27.9469 69.6508 27.8357 70.0304 27.8109C70.5886 27.5389 70.9346 27.6007 71.0686 27.9964C71.1802 28.3179 71.0574 28.5652 70.7002 28.7383C70.5216 28.8125 70.3095 28.8372 70.0639 28.8125Z" stroke="black" stroke-width="0.2" mask="url(#path-1-outside-1_10005_374)"/>
  <path d="M77.5962 30.185C77.1273 29.8388 76.7477 29.1711 76.4575 28.1819C76.2565 28.3303 75.9998 28.5528 75.6872 28.8496C75.6202 28.8991 75.4862 29.0103 75.2853 29.1835C75.1067 29.3318 74.9392 29.4802 74.7829 29.6286C74.6266 29.7523 74.4257 29.913 74.1801 30.1108C73.9345 30.284 73.7001 30.4447 73.4768 30.5931C73.2535 30.7415 73.0079 30.8899 72.74 31.0382C72.4721 31.1619 72.2042 31.2608 71.9362 31.335C71.8692 31.335 71.7688 31.3474 71.6348 31.3721C71.5232 31.3968 71.4227 31.4216 71.3334 31.4463C71.2441 31.4463 71.1436 31.4463 71.032 31.4463C70.9203 31.4463 70.8087 31.4463 70.6971 31.4463C70.6078 31.4216 70.5296 31.3968 70.4626 31.3721C69.9045 31.1248 69.737 30.5436 69.9603 29.6286C70.0049 29.4308 70.0719 29.2453 70.1612 29.0722C70.2952 28.7754 70.485 28.4663 70.7306 28.1448C70.9985 27.8233 71.1883 27.576 71.2999 27.4029C71.5008 27.0814 71.7799 27.1061 72.1372 27.4771C72.4274 27.8233 72.4386 28.1077 72.1707 28.3303C71.7018 28.6518 71.3446 29.0969 71.099 29.6657C70.898 30.1356 71.0097 30.3581 71.4339 30.3334C71.6571 30.3087 71.9586 30.2098 72.3381 30.0367C72.4721 29.9872 72.606 29.9254 72.74 29.8512C72.8963 29.777 73.0414 29.6904 73.1754 29.5915C73.3317 29.4679 73.4545 29.3689 73.5438 29.2947C73.6554 29.2206 73.8005 29.1093 73.9792 28.9609C74.1578 28.8125 74.2806 28.7136 74.3476 28.6641C74.4145 28.5899 74.5373 28.4663 74.716 28.2932C74.9169 28.0953 75.0397 27.984 75.0844 27.9593C75.3076 27.7367 75.5755 27.4894 75.8881 27.2174C76.0444 27.069 76.1561 26.9825 76.223 26.9577C76.29 26.9083 76.4016 26.8588 76.5579 26.8093C76.7366 26.7352 76.8928 26.7352 77.0268 26.8093C77.0491 26.8341 77.0715 26.8588 77.0938 26.8835C77.1161 26.9083 77.1384 26.933 77.1608 26.9577C77.2054 26.9825 77.2278 27.0072 77.2278 27.0319C77.2501 27.0319 77.2724 27.0443 77.2947 27.069C77.3171 27.1185 77.3394 27.1556 77.3617 27.1803C77.4287 27.4029 77.4957 27.6873 77.5627 28.0335C77.6296 28.355 77.6855 28.5899 77.7301 28.7383C77.7748 28.862 77.8864 29.0227 78.065 29.2206C78.266 29.4184 78.5339 29.6039 78.8688 29.777C79.4493 30.0738 80.1749 30.2469 81.0457 30.2963C81.9388 30.3211 82.8653 30.2592 83.8254 30.1108C84.8078 29.9377 85.7455 29.7523 86.6386 29.5544C87.5317 29.3318 88.4136 29.1093 89.2844 28.8867C90.1775 28.6394 90.8138 28.491 91.1934 28.4415C91.238 28.2437 91.3385 28.1324 91.4948 28.1077C91.6511 28.1077 91.8743 28.0953 92.1646 28.0706C92.4548 28.0211 92.7116 27.984 92.9349 27.9593C93.1805 27.9346 93.4149 27.9346 93.6382 27.9593C93.6605 27.984 93.7052 28.0211 93.7721 28.0706C93.8391 28.0953 93.8838 28.1324 93.9061 28.1819C93.9508 28.2066 93.9843 28.2437 94.0066 28.2932C94.1182 28.6641 94.1294 28.9238 94.0401 29.0722C93.9508 29.1958 93.7498 29.3318 93.4372 29.4802C93.3926 29.505 93.2586 29.4802 93.0353 29.406C92.8121 29.3318 92.6781 29.3195 92.6335 29.3689C92.0306 29.3689 91.5729 29.3813 91.2603 29.406C90.8361 29.4555 90.1217 29.5915 89.1169 29.8141C88.1122 30.0119 87.0963 30.2098 86.0693 30.4076C85.0422 30.5807 83.9705 30.7415 82.8542 30.8899C81.7602 31.0382 80.7443 31.063 79.8065 30.964C78.8688 30.8404 78.132 30.5807 77.5962 30.185Z" stroke="black" stroke-width="0.2" mask="url(#path-1-outside-1_10005_374)"/>
</svg>