<svg width="20" height="20" viewBox="0 0 20 20" fill="none" xmlns="http://www.w3.org/2000/svg">
<path d="M18.9598 0.415179C18.4062 -0.138393 17.5759 -0.138393 17.0223 0.415179L9.6875 7.75L2.35268 0.415179C1.79911 -0.138393 0.96875 -0.138393 0.415179 0.415179C-0.138393 0.96875 -0.138393 1.79911 0.415179 2.35268L7.75 9.6875L0.415179 17.0223C-0.138393 17.5759 -0.138393 18.4062 0.415179 18.9598C0.691964 19.2366 0.96875 19.375 1.38393 19.375C1.79911 19.375 2.07589 19.2366 2.35268 18.9598L9.6875 11.625L17.0223 18.9598C17.2991 19.2366 17.7143 19.375 17.9911 19.375C18.2679 19.375 18.683 19.2366 18.9598 18.9598C19.5134 18.4062 19.5134 17.5759 18.9598 17.0223L11.625 9.6875L18.9598 2.35268C19.5134 1.79911 19.5134 0.96875 18.9598 0.415179Z" fill="#242424"/>
</svg>
