<svg width="163" height="218" viewBox="0 0 163 218" fill="none" xmlns="http://www.w3.org/2000/svg">
<path d="M81.6335 217.737C63.9966 217.737 49.0473 212.83 36.7855 203.016C24.5237 192.998 15.2853 179.708 9.07042 163.146C3.0235 146.381 0 127.877 0 107.635C0 87.3938 3.10743 68.7879 9.32232 51.8177C15.5372 34.8475 24.7756 21.3531 37.0374 11.3345C49.2992 1.11151 64.1646 -4 81.6335 -4C98.7664 -4 113.38 1.00929 125.474 11.0278C137.735 21.0464 146.89 34.643 152.937 51.8177C159.152 68.7879 162.259 87.496 162.259 107.942C162.259 128.388 159.152 146.994 152.937 163.76C146.89 180.321 137.735 193.509 125.474 203.323C113.38 212.932 98.7664 217.737 81.6335 217.737ZM81.3815 175.107C93.8113 175.107 103.386 168.667 110.104 155.786C116.991 142.905 120.435 126.752 120.435 107.329C120.435 88.1094 117.075 71.8548 110.356 58.5649C103.638 45.2749 93.9793 38.63 81.3815 38.63C72.815 38.63 65.5084 41.7991 59.4614 48.1374C53.5825 54.4757 49.1313 62.8585 46.1078 73.286C43.2523 83.7135 41.8246 95.061 41.8246 107.329C41.8246 126.343 45.184 142.394 51.9028 155.479C58.7896 168.565 68.6158 175.107 81.3815 175.107Z" fill="url(#paint0_linear_8066_5931)"/>
<defs>
<linearGradient id="paint0_linear_8066_5931" x1="81.1296" y1="-4" x2="81.1296" y2="217.737" gradientUnits="userSpaceOnUse">
<stop stop-color="#F7F7F7" stop-opacity="0"/>
<stop offset="1" stop-color="#F7F7F7"/>
</linearGradient>
</defs>
</svg>
