<svg width="132" height="215" viewBox="0 0 132 215" fill="none" xmlns="http://www.w3.org/2000/svg">
<path d="M67.0201 0C80.9616 0 92.7195 3.47583 102.294 10.4275C112.036 17.3791 119.259 26.5799 123.962 38.0296C128.665 49.4794 131.017 61.8493 131.017 75.1392C131.017 88.2247 128.665 100.39 123.962 111.635C119.427 122.676 112.288 131.57 102.546 138.317C92.9714 145.065 81.1296 148.438 67.0201 148.438H38.5491V214.683H0V0H67.0201ZM60.7212 109.182C69.7916 109.182 77.4342 106.626 83.6491 101.515C89.864 96.1986 92.9715 87.4068 92.9715 75.1392C92.9715 62.8716 89.864 54.2842 83.6491 49.3772C77.6021 44.4701 69.9596 42.0166 60.7212 42.0166H38.5491V109.182H60.7212Z" fill="url(#paint0_linear_8066_5933)"/>
<defs>
<linearGradient id="paint0_linear_8066_5933" x1="65.5083" y1="0" x2="65.5083" y2="214.683" gradientUnits="userSpaceOnUse">
<stop stop-color="#F7F7F7" stop-opacity="0"/>
<stop offset="1" stop-color="#F7F7F7"/>
</linearGradient>
</defs>
</svg>
