<svg width="135" height="223" viewBox="0 -5 135 223" fill="none" xmlns="http://www.w3.org/2000/svg">
<path d="M68.0279 217.737C53.9184 217.737 41.6565 214.364 31.2424 207.616C20.9962 200.869 13.1856 192.077 7.81055 181.241C2.60347 170.2 0 158.75 0 146.892V144.438H43.0843V146.585C43.0843 153.946 45.2678 160.693 49.635 166.827C54.0022 172.96 60.3851 176.027 68.7836 176.027C76.0064 176.027 81.8013 173.778 86.1685 169.28C90.5357 164.782 92.7194 158.853 92.7194 151.492C92.7194 144.949 90.7878 139.736 86.9245 135.851C83.0612 131.762 78.358 129.001 72.815 127.57L52.6586 122.663C40.9007 119.392 29.8986 113.258 19.6524 104.262C9.40624 95.2655 4.28322 80.5443 4.28322 60.0983C4.28322 46.8084 6.88669 35.3586 12.0938 25.749C17.4688 16.1394 24.8595 8.77878 34.2658 3.66728C43.6721 -1.44424 54.3382 -4 66.2641 -4C79.8697 -4 91.6276 -0.830865 101.538 5.50741C111.448 11.8457 118.923 20.1263 123.962 30.3493C129.001 40.3679 131.52 50.8976 131.52 61.9385V63.4719H88.4363V62.5518C88.4363 56.0091 86.5045 49.9775 82.6412 44.4571C78.9458 38.7322 72.9829 35.8698 64.7523 35.8698C58.3695 35.8698 53.2465 38.0166 49.3832 42.3103C45.6879 46.6039 43.8401 52.2266 43.8401 59.1782C43.8401 65.9254 45.9398 71.2414 50.139 75.1262C54.3383 79.0109 59.3774 81.6689 65.2563 83.1001L85.6647 88.6205C98.9343 92.0964 110.272 98.6391 119.679 108.249C129.085 117.858 133.788 131.864 133.788 150.265C133.788 163.76 130.933 175.618 125.222 185.841C119.511 196.064 111.616 203.936 101.538 209.457C91.6276 214.977 80.4576 217.737 68.0279 217.737Z" fill="url(#paint0_linear_8066_5928)"/>
<defs>
<linearGradient id="paint0_linear_8066_5928" x1="66.8941" y1="-4" x2="66.8941" y2="217.737" gradientUnits="userSpaceOnUse">
<stop stop-color="#F7F7F7" stop-opacity="0"/>
<stop offset="1" stop-color="#F7F7F7"/>
</linearGradient>
</defs>
</svg>