<svg width="192" height="215" viewBox="0 0 192 215" fill="none" xmlns="http://www.w3.org/2000/svg">
<path d="M96.349 215.000Q65.124 215.000 43.416 200.577Q21.708 186.155 10.854 161.919Q0 137.683 0 108.243L0 108.243Q0 78.804 11.003 54.122Q22.006 29.440 43.714 14.720Q65.422 0 96.349 0L96.349 0Q126.680 0 148.240 14.571Q169.799 29.142 180.654 53.973Q191.508 78.804 191.508 108.541L191.508 108.541Q191.508 138.278 180.654 162.514Q169.799 186.750 148.240 200.875Q126.680 215.000 96.349 215.000L96.349 215.000ZM96.051 173.665Q118.057 173.665 130.100 154.931Q142.144 136.196 142.144 107.946L142.144 107.946Q142.144 79.993 130.249 60.664Q118.354 41.335 96.051 41.335L96.051 41.335Q80.885 41.335 70.328 50.553Q59.772 59.772 54.568 74.938Q49.364 90.104 49.364 107.946L49.364 107.946Q49.364 135.602 61.407 154.633Q73.451 173.665 96.051 173.665L96.051 173.665Z" fill="url(#paint0_linear_o)"/>
<defs>
<linearGradient id="paint0_linear_o" x1="95.7538" y1="0" x2="95.7538" y2="215.000" gradientUnits="userSpaceOnUse">
<stop stop-color="#F7F7F7" stop-opacity="0"/>
<stop offset="1" stop-color="#F7F7F7"/>
</linearGradient>
</defs>
</svg>
