<svg width="184" height="215" viewBox="0 0 184 215" fill="none" xmlns="http://www.w3.org/2000/svg">
<path d="M183.391 103.940Q183.391 128.146 175.844 148.507Q168.298 168.868 153.775 182.821L153.775 182.821L177.695 215.000L139.252 215.000L127.861 199.623Q111.344 205.887 92.265 205.887L92.265 205.887Q62.364 205.887 41.576 192.076Q20.788 178.265 10.394 155.056Q0 131.848 0 103.656L0 103.656Q0 75.464 10.536 51.828Q21.073 28.192 41.861 14.096Q62.649 0 92.265 0L92.265 0Q121.311 0 141.957 13.954Q162.603 27.907 172.997 51.685Q183.391 75.464 183.391 103.940L183.391 103.940ZM91.980 166.305Q97.106 166.305 102.232 164.881L102.232 164.881L72.046 124.159L110.490 124.159L126.437 145.517Q136.119 129 136.119 103.371L136.119 103.371Q136.119 76.603 124.728 58.093Q113.338 39.583 91.980 39.583L91.980 39.583Q77.457 39.583 67.348 48.411Q57.238 57.238 52.255 71.762Q47.272 86.285 47.272 103.371L47.272 103.371Q47.272 129.854 58.805 148.079Q70.338 166.305 91.980 166.305L91.980 166.305Z" fill="url(#paint0_linear_q)"/>
<defs>
<linearGradient id="paint0_linear_q" x1="91.6954" y1="0" x2="91.6954" y2="215.000" gradientUnits="userSpaceOnUse">
<stop stop-color="#F7F7F7" stop-opacity="0"/>
<stop offset="1" stop-color="#F7F7F7"/>
</linearGradient>
</defs>
</svg>
