<svg width="155" height="215" viewBox="0 0 155 215" fill="none" xmlns="http://www.w3.org/2000/svg">
<path d="M76.786 215.000Q49.911 215.000 32.634 206.140Q15.357 197.280 7.679 183.400Q0 169.519 0 153.276L0 153.276Q0 137.624 6.350 127.139Q12.699 116.655 20.230 111.635Q27.761 106.614 32.191 105.728L32.191 105.728L32.191 104.251Q27.761 102.479 21.411 97.163Q15.062 91.848 10.041 82.102Q5.021 72.356 5.021 59.361L5.021 59.361Q5.021 44.890 12.109 31.305Q19.196 17.720 35.292 8.860Q51.387 0 77.081 0L77.081 0Q102.775 0 118.870 9.008Q134.966 18.015 142.054 31.453Q149.141 44.890 149.141 59.361L149.141 59.361Q149.141 72.356 143.973 82.102Q138.805 91.848 132.308 97.311Q125.810 102.775 121.676 104.251L121.676 104.251L121.676 105.728Q126.401 106.614 133.932 111.635Q141.463 116.655 147.813 127.139Q154.162 137.624 154.162 153.276L154.162 153.276Q154.162 169.519 146.484 183.400Q138.805 197.280 121.380 206.140Q103.956 215.000 76.786 215.000L76.786 215.000ZM76.786 90.371Q91.552 90.371 98.640 82.249Q105.728 74.128 105.728 63.791L105.728 63.791Q105.728 53.455 98.492 45.185Q91.257 36.916 76.786 36.916L76.786 36.916Q62.315 36.916 55.374 45.038Q48.434 53.159 48.434 63.791L48.434 63.791Q48.434 74.423 55.374 82.397Q62.315 90.371 76.786 90.371L76.786 90.371ZM76.786 177.788Q92.734 177.788 100.264 168.633Q107.795 159.478 107.795 147.960L107.795 147.960Q107.795 136.147 100.117 126.992Q92.438 117.837 76.786 117.837L76.786 117.837Q61.133 117.837 53.602 126.844Q46.071 135.852 46.071 147.960L46.071 147.960Q46.071 159.773 53.455 168.781Q60.838 177.788 76.786 177.788L76.786 177.788Z" fill="url(#paint0_linear_8)"/>
<defs>
<linearGradient id="paint0_linear_8" x1="77.0810" y1="0" x2="77.0810" y2="215.000" gradientUnits="userSpaceOnUse">
<stop stop-color="#F7F7F7" stop-opacity="0"/>
<stop offset="1" stop-color="#F7F7F7"/>
</linearGradient>
</defs>
</svg>
