<svg width="186" height="215" viewBox="0 0 186 215" fill="none" xmlns="http://www.w3.org/2000/svg">
<path d="M95.456 215.000Q65.422 215.000 43.862 200.280Q22.303 185.560 11.151 160.878Q0 136.196 0 107.351L0 107.351Q0 78.506 11.151 53.973Q22.303 29.440 43.862 14.720Q65.422 0 95.456 0L95.456 0Q132.033 0 155.228 21.411Q178.423 42.822 185.263 76.722L185.263 76.722L140.360 76.722Q136.791 61.259 125.045 50.851Q113.299 40.443 96.051 40.443L96.051 40.443Q72.261 40.443 60.218 59.028Q48.174 77.614 48.174 107.351L48.174 107.351Q48.174 137.683 60.218 156.120Q72.261 174.557 96.051 174.557L96.051 174.557Q113.001 174.557 124.450 164.447Q135.899 154.336 139.765 140.360L139.765 140.360L184.073 140.360Q177.531 173.071 154.485 194.035Q131.438 215.000 95.456 215.000L95.456 215.000Z" fill="url(#paint0_linear_c)"/>
<defs>
<linearGradient id="paint0_linear_c" x1="92.6314" y1="0" x2="92.6314" y2="215.000" gradientUnits="userSpaceOnUse">
<stop stop-color="#F7F7F7" stop-opacity="0"/>
<stop offset="1" stop-color="#F7F7F7"/>
</linearGradient>
</defs>
</svg>
