<svg width="156" height="215" viewBox="0 0 156 215" fill="none" xmlns="http://www.w3.org/2000/svg">
<path d="M78.540 215.000Q54.887 215.000 37.906 205.599Q20.924 196.199 11.523 180.885Q2.123 165.571 0 147.983L0 147.983L47.609 147.983Q50.339 160.416 58.526 166.784Q66.714 173.152 77.934 173.152L77.934 173.152Q92.489 173.152 100.374 163.297Q108.258 153.441 108.258 138.279L108.258 138.279Q108.258 123.420 100.374 113.717Q92.489 104.013 77.024 104.013L77.024 104.013Q64.288 104.013 57.768 109.774Q51.248 115.536 48.822 122.511L48.822 122.511L2.426 121.904L7.884 0L143.131 0L143.131 42.757L46.396 42.757L44.274 89.760L46.093 89.760Q50.642 83.089 60.800 77.024Q70.959 70.959 89.760 70.959L89.760 70.959Q120.388 70.959 137.976 89.457Q155.564 107.955 155.564 138.583L155.564 138.583Q155.564 158.293 147.073 175.882Q138.583 193.470 121.146 204.235Q103.709 215.000 78.540 215.000L78.540 215.000Z" fill="url(#paint0_linear_5)"/>
<defs>
<linearGradient id="paint0_linear_5" x1="77.7821" y1="0" x2="77.7821" y2="215.000" gradientUnits="userSpaceOnUse">
<stop stop-color="#F7F7F7" stop-opacity="0"/>
<stop offset="1" stop-color="#F7F7F7"/>
</linearGradient>
</defs>
</svg>
