<svg width="155" height="215" viewBox="0 0 155 215" fill="none" xmlns="http://www.w3.org/2000/svg">
<path d="M79.257 215.000Q42.882 215.000 23.215 196.812Q3.549 178.624 0 150.234L0 150.234L46.726 150.234Q49.684 161.768 58.112 168.126Q66.541 174.484 79.257 174.484L79.257 174.484Q93.748 174.484 102.029 166.943Q110.309 159.402 110.309 147.572L110.309 147.572Q110.309 135.447 101.733 128.202Q93.157 120.956 79.553 120.956L79.553 120.956L61.513 120.956L61.513 86.059L80.440 86.059Q92.565 86.059 99.811 79.701Q107.056 73.343 107.056 62.400L107.056 62.400Q107.056 51.162 99.367 44.360Q91.678 37.558 78.961 37.558L78.961 37.558Q66.541 37.558 59.147 43.917Q51.754 50.275 49.092 61.513L49.092 61.513L4.140 61.513Q8.281 34.897 26.173 17.448Q44.065 0 79.257 0L79.257 0Q104.986 0 121.400 9.316Q137.813 18.631 145.206 32.531Q152.600 46.431 152.600 60.626L152.600 60.626Q152.600 75.413 145.798 85.024Q138.996 94.635 131.159 99.219Q123.322 103.803 121.547 103.803L121.547 103.803L121.547 105.578Q159.106 124.505 149.642 119.477Q140.179 114.450 147.572 124.801Q154.966 135.151 154.966 152.304L154.966 152.304Q154.966 169.161 146.685 183.356Q138.404 197.552 121.400 206.276Q104.395 215.000 79.257 215.000L79.257 215.000Z" fill="url(#paint0_linear_3)"/>
<defs>
<linearGradient id="paint0_linear_3" x1="77.4828" y1="0" x2="77.4828" y2="215.000" gradientUnits="userSpaceOnUse">
<stop stop-color="#F7F7F7" stop-opacity="0"/>
<stop offset="1" stop-color="#F7F7F7"/>
</linearGradient>
</defs>
</svg>
