<svg width="193" height="215" viewBox="0 0 193 215" fill="none" xmlns="http://www.w3.org/2000/svg">
<path d="M136.791 148.389L192.102 212.324L139.765 212.324L116.272 185.560L114.191 185.560L112.407 188.237Q106.162 198.050 92.483 206.525Q78.804 215.000 58.880 215.000L58.880 215.000Q42.227 215.000 28.845 208.309Q15.463 201.618 7.732 189.129Q0 176.639 0 159.986L0 159.986Q0 139.765 10.705 125.937Q21.411 112.109 37.766 105.567L37.766 105.567L43.714 103.485L43.714 102.296L42.227 100.214Q33.900 90.996 28.102 80.588Q22.303 70.180 22.303 55.014L22.303 55.014Q22.303 37.172 31.373 24.682Q40.443 12.192 55.163 6.096Q69.882 0 86.833 0L86.833 0Q104.675 0 120.287 6.542Q135.899 13.084 145.564 26.169Q155.228 39.253 155.228 57.690L155.228 57.690L155.228 65.422L107.649 65.422L107.649 60.961Q107.649 50.553 101.553 44.754Q95.456 38.956 86.833 38.956L86.833 38.956Q78.804 38.956 73.005 43.862Q67.206 48.769 67.206 57.690L67.206 57.690Q67.206 65.422 71.221 71.518Q75.235 77.614 85.941 89.806L85.941 89.806L111.515 119.246L125.788 92.483L170.989 92.483L136.791 148.389ZM91.293 159.689L92.185 157.905L66.314 128.167L60.664 130.249Q53.527 132.925 49.066 139.021Q44.606 145.118 44.606 153.444L44.606 153.444Q44.606 163.257 50.702 169.353Q56.798 175.450 66.909 175.450L66.909 175.450Q82.075 175.450 91.293 159.689L91.293 159.689Z" fill="url(#paint0_linear_ampersand)"/>
<defs>
<linearGradient id="paint0_linear_ampersand" x1="96.0512" y1="0" x2="96.0512" y2="215.000" gradientUnits="userSpaceOnUse">
<stop stop-color="#F7F7F7" stop-opacity="0"/>
<stop offset="1" stop-color="#F7F7F7"/>
</linearGradient>
</defs>
</svg>
