<svg width="214" height="215" viewBox="0 0 214 215" fill="none" xmlns="http://www.w3.org/2000/svg">
<path d="M109.463 215.000Q76.084 215.000 51.296 201.256Q26.507 187.511 13.253 163.091Q0 138.670 0 107.255L0 107.255Q0 74.857 13.744 50.559Q27.489 26.261 52.032 13.131Q76.575 0 107.745 0L107.745 0Q139.652 0 163.827 13.744Q188.002 27.489 200.888 50.314Q213.773 73.139 213.773 99.401L213.773 99.401Q213.773 118.545 207.023 131.675Q200.274 144.806 188.861 151.310Q177.449 157.814 163.704 157.814L163.704 157.814Q153.396 157.814 144.438 152.660Q135.479 147.506 130.816 138.670L130.816 138.670L129.589 138.670Q126.889 146.769 118.790 152.537Q110.691 158.305 97.437 158.305L97.437 158.305Q76.084 158.305 65.163 143.579Q54.241 128.853 54.241 107.009L54.241 107.009Q54.241 85.166 65.040 70.562Q75.839 55.959 95.719 55.959L95.719 55.959Q106.764 55.959 114.127 60.499Q121.490 65.040 124.926 71.421L124.926 71.421L126.153 71.421L126.153 57.677L154.378 57.677L154.378 111.918Q154.378 123.208 157.200 130.448Q160.023 137.688 168.122 137.688L168.122 137.688Q176.221 137.688 181.498 129.344Q186.775 120.999 186.775 102.837L186.775 102.837Q186.775 80.011 177.694 62.954Q168.613 45.896 150.819 36.447Q133.025 26.998 107.500 26.998L107.500 26.998Q71.176 26.998 49.823 46.878Q28.470 66.758 28.470 105.537L28.470 105.537Q28.470 145.297 51.173 166.527Q73.876 187.757 114.863 187.757L114.863 187.757L160.268 187.757L160.268 215.000L109.463 215.000ZM105.291 134.498Q115.599 134.498 120.631 126.644Q125.662 118.790 125.662 107.255L125.662 107.255Q125.662 95.474 120.631 87.620Q115.599 79.766 105.291 79.766L105.291 79.766Q95.228 79.766 90.197 87.743Q85.166 95.719 85.166 107.255L85.166 107.255Q85.166 118.790 90.197 126.644Q95.228 134.498 105.291 134.498L105.291 134.498Z" fill="url(#paint0_linear_at)"/>
<defs>
<linearGradient id="paint0_linear_at" x1="106.8864" y1="0" x2="106.8864" y2="215.000" gradientUnits="userSpaceOnUse">
<stop stop-color="#F7F7F7" stop-opacity="0"/>
<stop offset="1" stop-color="#F7F7F7"/>
</linearGradient>
</defs>
</svg>
