<svg xmlns="http://www.w3.org/2000/svg" width="2315" height="236" viewBox="-245 -5 2315 236" fill="none">
  <path d="M-183.628 46.888V93.1508H-109.582V130.974H-183.628V223.187H-228V4.37621H-99.6899V46.888H-183.628Z" fill="url(#paint0_linear_8119_5511)"/>
  <path d="M27.9181 172.548H-35.3891L-49.5202 223.187H-94.1744L-23.8016 4.37621H17.1785L86.986 223.187H42.3318L27.9181 172.548ZM17.1785 135.35L-3.17027 64.7054H-4.866L-24.6495 135.35H17.1785Z" fill="url(#paint1_linear_8119_5511)"/>
  <path d="M192.837 226C173.807 226 157.415 220.894 143.66 210.683C130.095 200.264 119.732 186.406 112.572 169.109C105.601 151.813 102.115 133.058 102.115 112.844C102.115 92.6298 105.601 73.9788 112.572 56.8907C119.732 39.5943 130.095 25.8405 143.66 15.6293C157.415 5.20977 173.807 0 192.837 0C216.011 0 234.947 7.50208 249.643 22.5062C264.34 37.5104 273.855 56.8907 278.188 80.6473H235.512C233.251 69.811 228.353 60.746 220.816 53.4523C213.468 46.1586 204.33 42.5118 193.402 42.5118C178.329 42.5118 166.93 49.0761 159.205 62.2047C151.668 75.1249 147.9 92.0046 147.9 112.844C147.9 134.1 151.668 151.188 159.205 164.108C166.93 177.028 178.329 183.488 193.402 183.488C204.141 183.488 213.091 179.946 220.251 172.86C227.599 165.775 232.498 157.335 234.947 147.541H277.058C272.913 170.464 263.492 189.323 248.796 204.119C234.288 218.706 215.635 226 192.837 226Z" fill="url(#paint2_linear_8119_5511)"/>
  <path d="M355.432 46.888V93.4633H430.609V131.286H355.432V180.675H444.74V223.187H311.061V4.37621H444.74V46.888H355.432Z" fill="url(#paint3_linear_8119_5511)"/>
  <path d="M552.817 226C536.99 226 523.236 222.562 511.554 215.685C500.061 208.808 491.299 199.847 485.27 188.802C479.429 177.549 476.509 165.879 476.509 153.793V151.292H524.837V153.48C524.837 160.982 527.286 167.859 532.185 174.111C537.084 180.362 544.244 183.488 553.664 183.488C561.766 183.488 568.267 181.196 573.165 176.611C578.064 172.027 580.514 165.983 580.514 158.481C580.514 151.813 578.347 146.499 574.013 142.539C569.68 138.372 564.404 135.558 558.186 134.1L535.577 129.098C522.388 125.764 510.047 119.512 498.553 110.343C487.06 101.174 481.313 86.1697 481.313 65.3306C481.313 51.7852 484.234 40.1153 490.075 30.3209C496.104 20.5265 504.394 13.0244 514.945 7.81467C525.497 2.60489 537.461 0 550.838 0C566.1 0 579.289 3.23006 590.405 9.69018C601.522 16.1503 609.906 24.5901 615.559 35.0097C621.211 45.2208 624.037 55.953 624.037 67.2061V68.769H575.709V67.8313C575.709 61.1627 573.542 55.0152 569.209 49.3886C565.064 43.5537 558.375 40.6362 549.143 40.6362C541.983 40.6362 536.236 42.8243 531.903 47.2006C527.758 51.5768 525.685 57.3075 525.685 64.3928C525.685 71.2697 528.04 76.6879 532.75 80.6473C537.461 84.6067 543.113 87.3158 549.708 88.7746L572.6 94.4011C587.485 97.9438 600.203 104.612 610.754 114.407C621.305 124.201 626.581 138.476 626.581 157.231C626.581 170.985 623.378 183.071 616.972 193.491C610.566 203.911 601.71 211.934 590.405 217.56C579.289 223.187 566.759 226 552.817 226Z" fill="url(#paint4_linear_8119_5511)"/>
  <path d="M909.467 223.187H859.726L837.399 195.054H835.42L833.725 197.867C829.768 204.744 823.456 211.204 814.789 217.248C806.122 223.083 795.477 226 782.853 226C772.302 226 762.787 223.708 754.308 219.123C745.829 214.33 739.141 207.557 734.242 198.805C729.343 190.053 726.894 179.841 726.894 168.171C726.894 154.001 730.285 142.123 737.068 132.537C743.851 122.742 752.424 115.553 762.787 110.968L768.439 108.78V107.53L767.026 105.342C761.75 98.8815 757.229 92.0046 753.46 84.7109C749.88 77.4172 748.09 68.4564 748.09 57.8285C748.09 45.325 750.917 34.6971 756.569 25.9447C762.41 17.1923 769.946 10.7321 779.179 6.56432C788.599 2.18811 798.68 0 809.419 0C820.724 0 831.275 2.2923 841.073 6.87691C851.059 11.4615 859.066 18.3384 865.096 27.5076C871.313 36.6768 874.422 47.7215 874.422 60.6418V68.769H829.203V64.0802C829.203 56.7865 827.224 51.16 823.268 47.2006C819.499 43.0327 814.883 40.9488 809.419 40.9488C804.332 40.9488 799.904 42.7201 796.136 46.2628C792.556 49.597 790.766 54.39 790.766 60.6418C790.766 66.0599 791.991 70.9571 794.44 75.3333C797.078 79.5012 801.788 85.8571 808.571 94.4011L832.877 125.347L846.443 97.2144H889.401L856.9 155.981L909.467 223.187ZM814.506 165.983L789.918 134.725L784.549 136.913C780.027 138.788 776.353 141.914 773.526 146.29C770.7 150.458 769.287 155.46 769.287 161.295C769.287 168.171 771.171 173.798 774.939 178.174C778.896 182.342 784.077 184.426 790.484 184.426C800.093 184.426 807.818 178.904 813.658 167.859L814.506 165.983Z" fill="url(#paint5_linear_8119_5511)"/>
  <path d="M1081.92 4.37621C1097.56 4.37621 1110.74 7.91886 1121.48 15.0042C1132.41 22.0894 1140.51 31.467 1145.79 43.1369C1151.07 54.8068 1153.7 67.4145 1153.7 80.9599C1153.7 94.2969 1151.07 106.696 1145.79 118.158C1140.7 129.411 1132.69 138.476 1121.77 145.353C1111.03 152.23 1097.74 155.668 1081.92 155.668H1049.98V223.187H1006.74V4.37621H1081.92ZM1074.85 115.657C1085.03 115.657 1093.6 113.052 1100.57 107.842C1107.54 102.424 1111.03 93.4633 1111.03 80.9599C1111.03 68.4564 1107.54 59.704 1100.57 54.7026C1093.79 49.7012 1085.21 47.2006 1074.85 47.2006H1049.98V115.657H1074.85Z" fill="url(#paint6_linear_8119_5511)"/>
  <path d="M1311.59 180.675V223.187H1184.13V4.37621H1228.5L1228.22 180.675H1311.59Z" fill="url(#paint7_linear_8119_5511)"/>
  <path d="M1456.34 172.548H1393.03L1378.9 223.187H1334.24L1404.62 4.37621H1445.6L1515.41 223.187H1470.75L1456.34 172.548ZM1445.6 135.35L1425.25 64.7054H1423.55L1403.77 135.35H1445.6Z" fill="url(#paint8_linear_8119_5511)"/>
  <path d="M1621.26 226C1602.23 226 1585.83 220.894 1572.08 210.683C1558.51 200.264 1548.15 186.406 1540.99 169.109C1534.02 151.813 1530.53 133.058 1530.53 112.844C1530.53 92.6298 1534.02 73.9788 1540.99 56.8907C1548.15 39.5943 1558.51 25.8405 1572.08 15.6293C1585.83 5.20977 1602.23 0 1621.26 0C1644.43 0 1663.37 7.50208 1678.06 22.5062C1692.76 37.5104 1702.27 56.8907 1706.61 80.6473H1663.93C1661.67 69.811 1656.77 60.746 1649.24 53.4523C1641.89 46.1586 1632.75 42.5118 1621.82 42.5118C1606.75 42.5118 1595.35 49.0761 1587.62 62.2047C1580.09 75.1249 1576.32 92.0046 1576.32 112.844C1576.32 134.1 1580.09 151.188 1587.62 164.108C1595.35 177.028 1606.75 183.488 1621.82 183.488C1632.56 183.488 1641.51 179.946 1648.67 172.86C1656.02 165.775 1660.92 157.335 1663.37 147.541H1705.48C1701.33 170.464 1691.91 189.323 1677.21 204.119C1662.71 218.706 1644.05 226 1621.26 226Z" fill="url(#paint9_linear_8119_5511)"/>
  <path d="M1783.85 46.888V93.4633H1859.03V131.286H1783.85V180.675H1873.16V223.187H1739.48V4.37621H1873.16V46.888H1783.85Z" fill="url(#paint10_linear_8119_5511)"/>
  <path d="M1981.24 226C1965.41 226 1951.65 222.562 1939.97 215.685C1928.48 208.808 1919.72 199.847 1913.69 188.802C1907.85 177.549 1904.93 165.879 1904.93 153.793V151.292H1953.26V153.48C1953.26 160.982 1955.71 167.859 1960.6 174.111C1965.5 180.362 1972.66 183.488 1982.08 183.488C1990.19 183.488 1996.69 181.196 2001.58 176.611C2006.48 172.027 2008.93 165.983 2008.93 158.481C2008.93 151.813 2006.77 146.499 2002.43 142.539C1998.1 138.372 1992.82 135.558 1986.61 134.1L1964 129.098C1950.81 125.764 1938.47 119.512 1926.97 110.343C1915.48 101.174 1909.73 86.1697 1909.73 65.3306C1909.73 51.7852 1912.65 40.1153 1918.49 30.3209C1924.52 20.5265 1932.81 13.0244 1943.36 7.81467C1953.92 2.60489 1965.88 0 1979.26 0C1994.52 0 2007.71 3.23006 2018.82 9.69018C2029.94 16.1503 2038.33 24.5901 2043.98 35.0097C2049.63 45.2208 2052.46 55.953 2052.46 67.2061V68.769H2004.13V67.8313C2004.13 61.1627 2001.96 55.0152 1997.63 49.3886C1993.48 43.5537 1986.79 40.6362 1977.56 40.6362C1970.4 40.6362 1964.66 42.8243 1960.32 47.2006C1956.18 51.5768 1954.1 57.3075 1954.1 64.3928C1954.1 71.2697 1956.46 76.6879 1961.17 80.6473C1965.88 84.6067 1971.53 87.3158 1978.13 88.7746L2001.02 94.4011C2015.9 97.9438 2028.62 104.612 2039.17 114.407C2049.72 124.201 2055 138.476 2055 157.231C2055 170.985 2051.8 183.071 2045.39 193.491C2038.98 203.911 2030.13 211.934 2018.82 217.56C2007.71 223.187 1995.18 226 1981.24 226Z" fill="url(#paint11_linear_8119_5511)"/>
  <defs>
    <linearGradient id="paint0_linear_8119_5511" x1="910.74" y1="-150.671" x2="910.74" y2="306.266" gradientUnits="userSpaceOnUse">
      <stop offset="0.197115" stop-color="white" stop-opacity="0"/>
      <stop offset="0.735577" stop-color="#F7F7F7"/>
    </linearGradient>
    <linearGradient id="paint1_linear_8119_5511" x1="910.74" y1="-150.671" x2="910.74" y2="306.266" gradientUnits="userSpaceOnUse">
      <stop offset="0.197115" stop-color="white" stop-opacity="0"/>
      <stop offset="0.735577" stop-color="#F7F7F7"/>
    </linearGradient>
    <linearGradient id="paint2_linear_8119_5511" x1="910.74" y1="-150.671" x2="910.74" y2="306.266" gradientUnits="userSpaceOnUse">
      <stop offset="0.197115" stop-color="white" stop-opacity="0"/>
      <stop offset="0.735577" stop-color="#F7F7F7"/>
    </linearGradient>
    <linearGradient id="paint3_linear_8119_5511" x1="910.74" y1="-150.671" x2="910.74" y2="306.266" gradientUnits="userSpaceOnUse">
      <stop offset="0.197115" stop-color="white" stop-opacity="0"/>
      <stop offset="0.735577" stop-color="#F7F7F7"/>
    </linearGradient>
    <linearGradient id="paint4_linear_8119_5511" x1="910.74" y1="-150.671" x2="910.74" y2="306.266" gradientUnits="userSpaceOnUse">
      <stop offset="0.197115" stop-color="white" stop-opacity="0"/>
      <stop offset="0.735577" stop-color="#F7F7F7"/>
    </linearGradient>
    <linearGradient id="paint5_linear_8119_5511" x1="910.74" y1="-150.671" x2="910.74" y2="306.266" gradientUnits="userSpaceOnUse">
      <stop offset="0.197115" stop-color="white" stop-opacity="0"/>
      <stop offset="0.735577" stop-color="#F7F7F7"/>
    </linearGradient>
    <linearGradient id="paint6_linear_8119_5511" x1="910.74" y1="-150.671" x2="910.74" y2="306.266" gradientUnits="userSpaceOnUse">
      <stop offset="0.197115" stop-color="white" stop-opacity="0"/>
      <stop offset="0.735577" stop-color="#F7F7F7"/>
    </linearGradient>
    <linearGradient id="paint7_linear_8119_5511" x1="910.74" y1="-150.671" x2="910.74" y2="306.266" gradientUnits="userSpaceOnUse">
      <stop offset="0.197115" stop-color="white" stop-opacity="0"/>
      <stop offset="0.735577" stop-color="#F7F7F7"/>
    </linearGradient>
    <linearGradient id="paint8_linear_8119_5511" x1="910.74" y1="-150.671" x2="910.74" y2="306.266" gradientUnits="userSpaceOnUse">
      <stop offset="0.197115" stop-color="white" stop-opacity="0"/>
      <stop offset="0.735577" stop-color="#F7F7F7"/>
    </linearGradient>
    <linearGradient id="paint9_linear_8119_5511" x1="910.74" y1="-150.671" x2="910.74" y2="306.266" gradientUnits="userSpaceOnUse">
      <stop offset="0.197115" stop-color="white" stop-opacity="0"/>
      <stop offset="0.735577" stop-color="#F7F7F7"/>
    </linearGradient>
    <linearGradient id="paint10_linear_8119_5511" x1="910.74" y1="-150.671" x2="910.74" y2="306.266" gradientUnits="userSpaceOnUse">
      <stop offset="0.197115" stop-color="white" stop-opacity="0"/>
      <stop offset="0.735577" stop-color="#F7F7F7"/>
    </linearGradient>
    <linearGradient id="paint11_linear_8119_5511" x1="910.74" y1="-150.671" x2="910.74" y2="306.266" gradientUnits="userSpaceOnUse">
      <stop offset="0.197115" stop-color="white" stop-opacity="0"/>
      <stop offset="0.735577" stop-color="#F7F7F7"/>
    </linearGradient>
  </defs>
</svg>