<svg width="185" height="93" viewBox="0 0 185 93" fill="none" xmlns="http://www.w3.org/2000/svg">
<mask id="path-1-outside-1_8122_5671" maskUnits="userSpaceOnUse" x="-0.899902" y="-0.899414" width="186" height="94" fill="black">
<rect fill="white" x="-0.899902" y="-0.899414" width="186" height="94"/>
<path d="M38.2101 32.3405C40.3079 29.6781 41.9905 26.6525 43.2579 23.264C43.3016 23.1187 43.3453 22.9493 43.389 22.7557C43.4765 22.562 43.542 22.3684 43.5857 22.1748C43.6731 21.9811 43.7605 21.7633 43.8479 21.5213C43.9354 21.2792 44.0009 21.0614 44.0446 20.8678C44.0883 20.6741 44.1539 20.4563 44.2413 20.2142C44.3287 19.9722 44.3942 19.7786 44.438 19.6333C44.4817 19.4397 44.5472 19.2219 44.6346 18.9798C44.722 18.7378 44.7876 18.5442 44.8313 18.3989C45.1809 16.753 45.3557 15.9301 45.3557 15.9301C45.3994 15.5428 45.5087 14.6957 45.6835 13.3887C45.902 11.888 46.0331 10.823 46.0769 10.1937C46.1206 9.56441 46.0987 8.52363 46.0113 7.07138C46.0113 6.97456 45.9894 6.87775 45.9457 6.78093C45.9457 6.63571 45.9239 6.53889 45.8802 6.49048C45.8802 6.39366 45.8583 6.29685 45.8146 6.20003C45.7709 6.05481 45.7272 5.93379 45.6835 5.83697C45.4213 5.15925 45.2902 4.8204 45.2902 4.8204C44.722 3.90064 43.9791 3.29553 43.0613 3.00508C42.9302 2.95667 42.4931 3.00508 41.7501 3.15031C41.182 3.48917 40.8979 3.65859 40.8979 3.65859C40.7231 3.80382 40.5264 3.97325 40.3079 4.16688C40.1331 4.31211 39.9364 4.50574 39.7179 4.74778C39.0623 5.47391 38.4723 6.22424 37.9479 6.99877C37.4234 7.72489 36.9208 8.49943 36.4401 9.32237C36.0031 10.1453 35.6097 11.0167 35.2601 11.9364C35.2601 11.9364 34.823 13.195 33.949 15.7123C32.9438 18.6652 32.4412 20.1416 32.4412 20.1416C31.9604 21.6423 31.1956 24.5952 30.1467 29.0003C30.0593 29.2908 30.0156 29.5086 30.0156 29.6539C29.8408 30.38 29.2726 32.7278 28.3111 36.6973C27.3496 40.6183 26.6067 43.6197 26.0822 45.7012C23.9407 54.7052 22.0614 61.5549 20.4444 66.2505C20.3133 66.5894 19.3736 69.0098 17.6255 73.5118C22.3018 72.7857 26.4974 72.3258 30.2123 72.1322C32.616 71.9869 36.4838 71.9869 41.8157 72.1322C44.3942 72.229 47.3224 72.3016 50.6002 72.35C53.878 72.4468 57.1777 72.5194 60.4992 72.5678C63.8644 72.6162 66.8145 72.6889 69.3493 72.7857C71.9716 72.9309 76.6916 73.2698 83.5095 73.8022C88.1421 74.0927 92.6436 74.2863 97.014 74.3831C101.384 74.5284 105.689 74.5526 109.929 74.4558C110.191 74.4558 110.475 74.4558 110.781 74.4558C111.087 74.4558 111.371 74.4558 111.633 74.4558C111.895 74.4558 112.179 74.4558 112.485 74.4558C112.791 74.4558 113.075 74.4558 113.338 74.4558C113.643 74.4558 113.949 74.4315 114.255 74.3831C114.561 74.3831 114.845 74.3831 115.108 74.3831C115.413 74.3831 115.698 74.3831 115.96 74.3831C116.397 74.3347 116.856 74.2863 117.336 74.2379C117.861 74.2379 118.32 74.2137 118.713 74.1653C119.106 74.1653 119.565 74.1411 120.09 74.0927C120.658 74.0443 121.117 73.9959 121.466 73.9475C121.772 73.9475 122.253 73.8991 122.909 73.8022C131.431 72.8341 137.746 71.7207 141.854 70.4621C142.117 70.4137 142.379 70.341 142.641 70.2442C142.903 70.1474 143.209 70.0264 143.559 69.8812C143.909 69.7844 144.171 69.6875 144.346 69.5907C144.52 69.5423 144.695 69.4697 144.87 69.3729C145.045 69.3245 145.242 69.2519 145.46 69.155C145.679 69.1066 145.832 69.0582 145.919 69.0098C146.05 68.9614 146.269 68.8888 146.575 68.792C146.88 68.6952 147.055 68.6468 147.099 68.6468C146.924 68.5984 146.4 68.5742 145.526 68.5742C144.957 68.5257 144.673 68.0417 144.673 67.1219C144.673 66.7346 144.761 66.3958 144.936 66.1053C145.11 65.8149 145.351 65.6696 145.657 65.6696C147.186 65.7181 148.563 65.9843 149.787 66.4684C149.787 66.4684 149.918 66.4926 150.18 66.541C150.486 66.6378 150.705 66.7346 150.836 66.8314C150.836 66.8314 151.207 67.1945 151.95 67.9206C151.95 67.969 151.95 68.0174 151.95 68.0659C151.95 68.1627 151.928 68.3079 151.885 68.5015C151.885 68.7436 151.863 68.9372 151.819 69.0824C151.819 69.2277 151.797 69.3729 151.753 69.5181C151.71 69.7117 151.644 69.9054 151.557 70.099C151.513 70.1958 151.404 70.2684 151.229 70.3168C151.098 70.4137 150.967 70.4621 150.836 70.4621C150.748 70.5105 150.617 70.5347 150.442 70.5347C150.311 70.5347 150.224 70.5347 150.18 70.5347C149.525 70.6799 148.607 70.9219 147.427 71.2608C146.247 71.6481 145.416 71.9143 144.936 72.0595C143.187 72.5436 142.313 72.7857 142.313 72.7857C138.118 73.8022 131.191 74.7704 121.532 75.6902C117.861 75.8354 116.025 75.908 116.025 75.908C112.616 76.0048 108.989 76.029 105.143 75.9806C101.297 75.9322 97.6696 75.8354 94.2607 75.6902C90.8517 75.5449 87.2462 75.3513 83.4439 75.1093C82.8757 75.0609 82.1546 74.9883 81.2805 74.8914C80.4502 74.843 79.7728 74.7946 79.2483 74.7462C78.7238 74.6978 78.0901 74.6494 77.3472 74.601C76.6042 74.5526 75.9486 74.5042 75.3805 74.4558C74.8123 74.4073 74.1786 74.3589 73.4793 74.3105C72.7801 74.2621 72.0808 74.2137 71.3816 74.1653C70.726 74.1169 70.0267 74.0927 69.2838 74.0927C66.6615 73.9475 63.7333 73.8507 60.4992 73.8022C57.3088 73.8022 53.9873 73.8022 50.5347 73.8022C47.1258 73.8022 44.2194 73.7538 41.8157 73.657C36.1779 73.7054 32.3538 73.8022 30.3434 73.9475C26.5411 74.2379 21.974 74.9398 16.6421 76.0532C16.1177 77.2634 15.768 78.038 15.5932 78.3768C15.4621 78.7157 14.9377 79.7565 14.0199 81.4992C13.1895 83.0966 12.6869 84.0406 12.5121 84.3311C11.5506 85.9285 10.0646 87.8165 8.05425 89.9948C7.61721 90.4789 7.28943 90.8178 7.07091 91.0114C6.85239 91.2534 6.52461 91.4955 6.08756 91.7375C5.65052 91.9796 5.19163 92.1006 4.71088 92.1006C3.88051 92.1006 2.80975 91.5439 1.49863 90.4305V90.3579C1.45493 90.3095 1.38937 90.1885 1.30196 89.9948C1.17085 89.8496 1.06159 89.7044 0.97418 89.5592C0.886772 89.4139 0.799364 89.2929 0.711956 89.1961C0.537139 88.712 0.406026 88.2279 0.318618 87.7438C0.187506 87.2598 0.12195 86.7515 0.12195 86.219C0.0782455 85.7349 0.100098 85.2508 0.187506 84.7667C0.274914 84.2826 0.406026 83.7986 0.580843 83.3145C0.624547 83.0724 0.75566 82.7336 0.97418 82.2979C1.06159 82.1043 1.12715 81.959 1.17085 81.8622V81.7896C1.78271 80.773 2.08864 80.2648 2.08864 80.2648C2.70049 79.3934 3.42161 78.6431 4.25199 78.0138C5.03867 77.3845 6.06571 76.8036 7.33313 76.2711C8.60055 75.787 9.49649 75.4481 10.0209 75.2545C10.5454 75.1093 11.5943 74.7946 13.1676 74.3105C13.9106 74.1653 14.6317 74.0443 15.331 73.9475C15.4184 73.8022 15.484 73.657 15.5277 73.5118C15.5714 73.415 15.7025 73.0761 15.921 72.4952C16.1395 71.9627 16.3362 71.4786 16.511 71.043C16.6858 70.6557 16.8825 70.1474 17.101 69.5181C17.3632 68.8888 17.5818 68.3563 17.7566 67.9206C17.9751 67.485 18.1718 67.0251 18.3466 66.541C18.5214 66.1053 18.6525 65.7665 18.7399 65.5244C19.9636 62.1842 20.9907 59.0135 21.8211 56.0122C21.8648 55.8186 22.3237 54.0517 23.1977 50.7115C23.2851 50.2758 23.3944 49.8159 23.5255 49.3318C23.6566 48.7994 23.7659 48.3395 23.8533 47.9522C23.9407 47.5649 24.05 47.1051 24.1811 46.5726C24.3122 46.0401 24.4215 45.6044 24.5089 45.2655C25.5578 40.8604 26.41 37.2298 27.0656 34.3737C27.2404 33.7444 27.4589 32.8246 27.7211 31.6144C28.2893 29.0972 28.7263 27.1608 29.0322 25.8054C29.3382 24.45 29.7752 22.7315 30.3434 20.6499C30.9115 18.5199 31.4797 16.632 32.0478 14.9861C32.1352 14.6473 32.2663 14.2116 32.4412 13.6791C32.616 13.1466 32.7689 12.6625 32.9001 12.2269C33.0312 11.7428 33.1841 11.3071 33.3589 10.9198C33.7086 9.90327 34.1238 8.9351 34.6045 8.01534C35.0853 7.04718 35.6097 6.12742 36.1779 5.25607C36.746 4.33631 37.3797 3.48917 38.079 2.71463C38.7346 1.9401 39.2809 1.40761 39.7179 1.11716C39.7179 1.11716 40.2861 0.82671 41.4224 0.245809C42.3839 0.148994 42.8646 0.100586 42.8646 0.100586C43.0831 0.100586 43.2798 0.12479 43.4546 0.173197C43.6731 0.221605 43.8698 0.270013 44.0446 0.318421C44.2194 0.366828 44.3942 0.439441 44.5691 0.536259C44.7439 0.633075 44.9187 0.754096 45.0935 0.899321C45.2683 0.996137 45.4431 1.11716 45.618 1.26238C45.7928 1.3592 45.9457 1.48022 46.0769 1.62545C46.2517 1.77067 46.4046 1.9159 46.5358 2.06112C46.7106 2.20635 46.8635 2.37577 46.9946 2.56941C47.1258 2.71463 47.235 2.88406 47.3224 3.07769C47.4535 3.22292 47.5628 3.39235 47.6502 3.58598C47.6939 3.6828 47.7376 3.80382 47.7813 3.94904C47.8687 4.09427 47.9343 4.2395 47.978 4.38472C48.0217 4.48154 48.0654 4.62676 48.1091 4.8204C48.1528 4.96562 48.1965 5.08664 48.2402 5.18346C48.2402 5.28027 48.2402 5.40129 48.2402 5.54652C48.2839 5.69174 48.3276 5.81276 48.3713 5.90958C48.415 6.0064 48.4369 6.12742 48.4369 6.27264C48.4806 6.36946 48.5024 6.49048 48.5024 6.63571C48.5024 6.73252 48.5243 6.85354 48.568 6.99877C48.6554 8.30579 48.4587 10.581 47.978 13.8243C47.978 13.9212 47.9561 14.0906 47.9124 14.3326C47.9124 14.5263 47.8906 14.7199 47.8469 14.9135C47.8469 15.0588 47.825 15.2282 47.7813 15.4218C47.7376 15.6154 47.6939 15.8091 47.6502 16.0027C47.6502 16.1479 47.6283 16.3174 47.5846 16.511C47.5846 16.6078 47.5628 16.7288 47.5191 16.8741C47.5191 16.9709 47.4972 17.0677 47.4535 17.1645C47.4535 17.2613 47.4317 17.3824 47.388 17.5276C47.388 17.6244 47.3661 17.7454 47.3224 17.8906C47.3224 17.9875 47.3006 18.1085 47.2569 18.2537C47.2132 18.3505 47.1695 18.4473 47.1258 18.5442C47.1258 18.641 47.1039 18.762 47.0602 18.9072C47.0602 19.004 47.0602 19.1251 47.0602 19.2703C46.9728 19.4155 46.8417 19.7544 46.6669 20.2869C46.5357 20.7709 46.4265 21.134 46.3391 21.376C46.2954 21.5697 46.208 21.8843 46.0769 22.32C45.9457 22.7073 45.8146 23.0703 45.6835 23.4092C45.5524 23.748 45.4213 24.0627 45.2902 24.3532C44.1102 27.4029 42.4276 30.6462 40.2424 34.0832C40.0238 34.3253 39.7616 34.4463 39.4557 34.4463C39.1935 34.3979 38.9312 34.2527 38.669 34.0106C38.0134 33.3813 37.8605 32.8246 38.2101 32.3405ZM6.34979 87.9617C8.36018 86.0253 9.80242 84.4037 10.6765 83.0966C10.8513 82.8062 11.3758 81.8622 12.2498 80.2648C13.2987 78.3768 13.9543 77.1424 14.2165 76.5615C14.1291 76.5615 14.0417 76.5615 13.9543 76.5615C13.9106 76.6099 13.845 76.6341 13.7576 76.6341C13.6265 76.6825 13.4517 76.7552 13.2332 76.852C9.43093 78.1106 6.74313 79.4176 5.16978 80.773C4.73274 81.1603 4.42681 81.475 4.25199 81.717C4.16458 81.8622 4.07717 81.9833 3.98977 82.0801C3.90236 82.2253 3.81495 82.3947 3.72754 82.5884C3.64013 82.782 3.57458 82.9272 3.53087 83.024C3.31235 83.6533 3.15939 84.1132 3.07198 84.4037C2.94087 84.6941 2.85346 85.0572 2.80975 85.4929C2.72235 85.9285 2.72235 86.34 2.80975 86.7273C2.89716 87.1629 3.05013 87.6228 3.26865 88.1069C3.57458 88.4458 3.90236 88.712 4.25199 88.9056C4.29569 88.9056 4.36125 88.9298 4.44866 88.9783C4.49236 89.0267 4.55792 89.0509 4.64533 89.0509L4.71088 89.1961C4.92941 89.1477 5.47571 88.7362 6.34979 87.9617Z"/>
<path d="M48.4487 57.7549C49.7161 58.0937 50.8524 58.2632 51.8576 58.2632C52.9065 58.2632 54.1302 58.118 55.5287 57.8275C56.971 57.4886 58.2165 57.1498 59.2654 56.8109C60.358 56.4721 61.5818 56.109 62.9366 55.7217C64.2914 55.2861 65.4277 54.9956 66.3455 54.8504C68.1374 54.5115 69.077 54.802 69.1644 55.7217C69.2518 56.3026 68.9896 56.7141 68.3777 56.9562C68.0718 57.053 67.7659 57.0046 67.46 56.8109C66.0177 56.9562 63.8544 57.295 60.9699 57.8275C58.1291 58.3116 56.3373 58.6262 55.5943 58.7715C55.2884 58.8199 54.6328 58.9409 53.6276 59.1345C52.6661 59.3282 51.8139 59.4976 51.0709 59.6428C50.3716 59.7396 49.6068 59.7638 48.7764 59.7154C47.9461 59.667 47.3123 59.4734 46.8753 59.1345C46.0886 58.5052 46.0886 57.4644 46.8753 56.0122C46.5694 56.2058 46.3072 56.3753 46.0886 56.5205C45.9138 56.6173 45.7609 56.7141 45.6297 56.8109C45.5423 56.8593 45.4549 56.9319 45.3675 57.0288C45.3238 57.0772 45.2801 57.1014 45.2364 57.1014C45.2364 57.1014 45.2146 57.1256 45.1708 57.174C45.1271 57.174 45.1053 57.174 45.1053 57.174C45.1053 57.174 45.0397 57.1982 44.9086 57.2466C44.8212 57.295 44.7338 57.3434 44.6464 57.3918C44.559 57.4402 44.406 57.5371 44.1875 57.6823C43.969 57.7791 43.7286 57.9001 43.4664 58.0453C42.0679 58.5294 40.7567 58.8683 39.533 59.0619C39.4893 59.1103 39.3363 59.1587 39.0741 59.2071C38.8119 59.2555 38.6152 59.2798 38.4841 59.2798C37.916 59.1829 37.4134 58.9893 36.9763 58.6988C36.9763 58.6988 36.9108 58.481 36.7797 58.0453C36.7797 57.9485 36.7797 57.8275 36.7797 57.6823C36.7359 57.5371 36.7141 57.4402 36.7141 57.3918C36.7141 57.295 36.7141 57.174 36.7141 57.0288C36.8015 56.6415 36.9763 56.2784 37.2385 55.9396C37.5008 55.6007 37.6974 55.3587 37.8286 55.2135C38.0034 55.0682 38.353 54.8504 38.8775 54.5599C39.4019 54.2211 39.686 54.0274 39.7297 53.979C39.8608 53.8822 40.0793 53.7128 40.3852 53.4708C40.6912 53.1803 40.9753 52.9383 41.2375 52.7446C41.4997 52.551 41.7401 52.4058 41.9586 52.309C42.5267 52.0669 43.3571 51.8975 44.4497 51.8007C45.586 51.7038 46.3509 51.607 46.7442 51.5102C47.1812 51.5102 47.3998 51.8491 47.3998 52.5268C47.3998 53.2045 47.1812 53.5434 46.7442 53.5434C46.5694 53.5434 46.1542 53.5918 45.4986 53.6886C44.8431 53.737 44.2968 53.8096 43.8597 53.9064C43.4227 54.0032 43.0075 54.1727 42.6142 54.4147C42.483 54.5115 42.3082 54.681 42.0897 54.923C41.9149 55.1166 41.7838 55.2377 41.6964 55.2861C41.609 55.3345 41.5215 55.4071 41.4341 55.5039C41.3467 55.5523 41.2375 55.6249 41.1064 55.7217C41.019 55.7701 40.9534 55.8186 40.9097 55.867C40.8223 55.9638 40.5819 56.109 40.1886 56.3026C39.8389 56.4963 39.5767 56.6657 39.4019 56.8109C40.4508 56.7141 41.609 56.4721 42.8764 56.0848C43.1386 55.9396 43.4008 55.8186 43.6631 55.7217C43.969 55.5765 44.1438 55.5039 44.1875 55.5039C44.2312 55.4555 44.3186 55.4071 44.4497 55.3587C44.5808 55.2619 44.6682 55.1892 44.712 55.1408C44.7557 55.0924 44.8868 54.9956 45.1053 54.8504C45.3675 54.7052 45.6297 54.5357 45.892 54.3421C45.9794 54.2937 46.1979 54.1727 46.5475 53.979C46.8972 53.737 47.1594 53.5434 47.3342 53.3981C47.6401 53.2045 48.0553 52.8657 48.5798 52.3816C49.1042 51.8975 49.5194 51.5586 49.8253 51.365C50.2187 51.0745 50.5902 50.9777 50.9398 51.0745C51.2894 51.1229 51.5735 51.365 51.792 51.8007C52.0105 52.1879 52.0324 52.5994 51.8576 53.0351C51.7702 53.2771 51.6609 53.495 51.5298 53.6886C51.4424 53.8338 51.3768 53.9548 51.3331 54.0517C51.2894 54.1001 51.1365 54.2211 50.8742 54.4147C50.6557 54.6083 50.5028 54.7536 50.4153 54.8504C49.9346 55.2377 49.279 56.2058 48.4487 57.7549Z"/>
<path d="M82.1635 55.7943C82.9065 55.7459 83.715 55.6491 84.5891 55.5039C85.4632 55.3587 86.4247 55.1892 87.4736 54.9956C88.5225 54.802 89.3528 54.6568 89.9647 54.5599C90.358 54.4631 90.6421 54.5841 90.8169 54.923C90.9917 55.2135 90.9917 55.5281 90.8169 55.867C90.6858 56.2058 90.4236 56.3995 90.0302 56.4479C87.3206 56.7383 84.7202 56.9319 82.2291 57.0288C78.2957 57.0772 75.586 56.4963 74.1001 55.2861C74.0127 55.1892 73.9034 55.0924 73.7723 54.9956C73.6849 55.0924 73.5319 55.2861 73.3134 55.5765C73.0512 55.7701 72.636 56.0606 72.0678 56.4479C71.5434 56.7867 71.2156 57.0046 71.0845 57.1014C71.0408 57.1498 70.8223 57.3676 70.4289 57.7549C70.0356 58.1422 69.533 58.4568 68.9211 58.6988C67.2604 58.7473 66.6922 57.5371 67.2167 55.0682C67.3915 54.0517 67.4789 53.5434 67.4789 53.5434C67.5226 53.495 67.6319 53.2287 67.8067 52.7446C68.0252 52.2605 68.2219 51.7765 68.3967 51.2924C68.6152 50.8083 68.7245 50.5663 68.7245 50.5663C68.8119 50.3726 68.9211 50.058 69.0523 49.6223C69.2271 49.1866 69.3582 48.8478 69.4456 48.6057C69.5767 48.3153 69.8389 47.686 70.2323 46.7178C70.6693 45.7496 70.9752 44.9993 71.1501 44.4668C72.3738 41.3203 74.1001 37.4234 76.329 32.7762C76.8971 31.9533 77.1812 31.5418 77.1812 31.5418C77.7931 30.9125 78.4486 30.5736 79.1479 30.5252C79.5412 30.4768 79.869 30.4768 80.1313 30.5252C80.4372 30.5252 80.6776 30.622 80.8524 30.8157C81.0709 31.0093 81.2676 31.3239 81.4424 31.7596C81.4861 31.8564 81.5298 31.9775 81.5735 32.1227C81.6172 32.2195 81.6609 32.3405 81.7046 32.4857C81.7483 32.5826 81.7702 32.6794 81.7702 32.7762C81.8576 33.1635 81.9013 33.5507 81.9013 33.938C81.945 34.2769 81.9231 34.6883 81.8357 35.1724C81.792 35.6081 81.7265 35.9469 81.639 36.189C81.5953 36.431 81.4861 36.8425 81.3113 37.4234C81.1802 38.0043 81.1146 38.3432 81.1146 38.44C80.6339 39.6018 80.3935 40.1827 80.3935 40.1827C80.175 40.6183 79.432 41.7801 78.1646 43.6681C78.0335 43.8617 77.8149 44.2006 77.509 44.6846C77.2031 45.1203 76.9627 45.4592 76.7879 45.7012C76.5694 46.0401 76.1323 46.6452 75.4768 47.5165C74.8212 48.3395 74.3186 48.993 73.969 49.4771C71.303 52.8172 69.6641 54.9472 69.0523 55.867C69.1834 55.7217 69.4674 55.5039 69.9045 55.2135C71.1282 54.3905 71.8056 53.9064 71.9367 53.7612C72.7671 52.551 73.6412 52.1395 74.559 52.5268L75.2145 53.0351C75.2145 53.0835 75.2582 53.1561 75.3457 53.2529C75.4331 53.3013 75.4986 53.3739 75.5423 53.4708C75.586 53.5192 75.6297 53.5676 75.6734 53.616C76.5475 55.3103 78.7109 56.0364 82.1635 55.7943ZM70.5601 50.9293C70.8223 50.5905 71.1938 50.1064 71.6745 49.4771C72.199 48.8478 72.5486 48.4363 72.7234 48.2427C73.0293 47.7102 73.5101 47.0324 74.1656 46.2095C74.8649 45.3866 75.3238 44.8299 75.5423 44.5394C75.6734 44.3458 75.8045 44.1521 75.9357 43.9585C76.0668 43.7165 76.1979 43.4744 76.329 43.2324C76.5038 42.9419 76.6349 42.7241 76.7223 42.5789C77.946 40.7394 78.6672 39.5776 78.8857 39.0935C78.9294 38.9483 78.9731 38.803 79.0168 38.6578C79.1042 38.5126 79.1698 38.3432 79.2135 38.1495C79.2572 37.9075 79.3009 37.738 79.3446 37.6412C79.7379 36.0438 79.8909 34.7851 79.8035 33.8654C79.8035 33.6717 79.7816 33.4781 79.7379 33.2845C79.7379 33.1393 79.6942 33.0182 79.6068 32.9214C79.5631 32.8246 79.5412 32.752 79.5412 32.7036C79.4975 32.7036 79.4757 32.6552 79.4757 32.5584C79.3883 32.4131 79.3227 32.3163 79.279 32.2679L79.3446 32.4131C79.432 32.6552 79.4538 32.8004 79.4101 32.8488C79.3664 32.8488 79.3009 32.873 79.2135 32.9214C79.1698 32.9214 79.1042 32.9214 79.0168 32.9214C78.9294 32.9214 78.8638 32.9456 78.8201 32.994C78.6016 33.0909 78.2957 33.4781 77.9023 34.1558C76.1542 37.3024 74.4279 40.9814 72.7234 45.1929C72.5923 45.6286 72.4175 46.0885 72.199 46.5726C72.0241 47.0567 71.8056 47.5649 71.5434 48.0974C71.3249 48.6299 71.1501 49.0656 71.0189 49.4045C71.0189 49.4529 70.866 49.9612 70.5601 50.9293Z"/>
<path d="M94.295 52.8899C94.2513 52.793 94.1639 52.6962 94.0328 52.5994C93.9454 52.4542 93.8798 52.3332 93.8361 52.2363C93.705 52.3816 93.4865 52.5752 93.1805 52.8172C92.8746 53.0593 92.6561 53.2529 92.525 53.3981C92.2627 53.6886 91.935 54.2211 91.5416 54.9956C91.1483 55.7701 90.755 56.2784 90.3616 56.5205C89.9246 56.8109 89.5312 56.8593 89.1816 56.6657C88.832 56.4237 88.6134 56.1332 88.526 55.7943C88.4823 55.4071 88.5479 55.0682 88.7227 54.7778C89.3346 54.1485 89.9464 53.4708 90.5583 52.7446C90.7331 52.551 90.9298 52.3332 91.1483 52.0911C91.2357 51.9459 91.3887 51.7523 91.6072 51.5102C91.8694 51.2682 92.0879 51.0503 92.2627 50.8567C92.4376 50.6631 92.5687 50.4694 92.6561 50.2758C92.6998 50.179 92.7435 50.0822 92.7872 49.9854C92.8309 49.8401 92.8746 49.6949 92.9183 49.5497C92.962 49.4045 93.0057 49.3076 93.0494 49.2592C93.0494 49.114 93.0713 48.993 93.115 48.8962C93.0713 48.4605 93.1368 48.0974 93.3116 47.807C93.3553 47.7586 93.399 47.686 93.4427 47.5891C93.4865 47.4923 93.5302 47.4439 93.5739 47.4439C93.4865 47.2503 93.4646 47.1051 93.5083 47.0082C94.3387 45.6044 94.9942 45.4108 95.475 46.4273C95.8683 47.4439 95.8465 48.3637 95.4094 49.1866C95.4531 49.4771 95.475 49.9369 95.475 50.5663C95.475 50.6147 95.475 50.6389 95.475 50.6389C95.7809 51.4618 96.1743 52.1637 96.655 52.7446C97.1357 53.3255 97.6165 53.8338 98.0972 54.2695C98.578 54.6568 99.1898 54.9472 99.9328 55.1408C100.676 55.3345 101.288 55.5039 101.768 55.6491C102.249 55.7459 102.948 55.7701 103.866 55.7217C104.784 55.6733 105.44 55.6491 105.833 55.6491C106.226 55.6007 106.882 55.4797 107.8 55.2861C108.761 55.0924 109.329 54.9714 109.504 54.923C109.723 54.8746 110.269 54.7536 111.143 54.5599C111.449 54.4631 111.842 54.4147 112.323 54.4147C112.76 54.4147 113.263 54.4873 113.831 54.6326C114.355 54.5841 114.683 54.9714 114.814 55.7943C114.945 56.6173 114.749 57.053 114.224 57.1014C114.093 57.1014 113.962 57.0772 113.831 57.0288C113.787 57.0288 113.547 57.0288 113.11 57.0288C112.979 57.0772 112.804 57.1014 112.585 57.1014C112.41 57.1014 112.257 57.1014 112.126 57.1014C111.864 57.1498 111.667 57.0046 111.536 56.6657C111.361 56.6657 111.274 56.6657 111.274 56.6657C110.618 56.7141 109.635 56.7867 108.324 56.8835C107.013 56.9804 105.964 57.053 105.177 57.1014C104.391 57.1498 103.407 57.1256 102.227 57.0288C101.091 56.9319 100.108 56.7625 99.2773 56.5205C98.4469 56.23 97.5728 55.7943 96.655 55.2135C95.7809 54.5841 94.9942 53.8096 94.295 52.8899ZM95.9339 37.7865C97.8132 37.4476 98.9058 37.254 99.2117 37.2056C99.4302 37.1572 99.605 37.254 99.7361 37.496C99.8673 37.738 99.911 38.0043 99.8673 38.2947C99.8236 38.5368 99.7143 38.682 99.5395 38.7304H99.4084L99.3428 38.803H99.1461L99.0806 38.8756H98.8839L98.8184 38.9483H98.6217L98.5561 39.0209H98.3595L98.2939 39.0935H98.0972L98.0317 39.1661H97.835L97.7695 39.2387H97.5728L97.5072 39.3113H97.3106L97.245 39.3839H96.9828L96.9172 39.4565H96.7206L96.655 39.5292H96.4583L96.3928 39.6018H96.2617C96.0431 39.6502 95.8465 39.5292 95.6717 39.2387C95.5406 38.9483 95.4968 38.6578 95.5406 38.3674C95.5843 38.0285 95.7154 37.8349 95.9339 37.7865Z"/>
<path d="M113.976 52.9625C115.505 52.3332 116.401 51.8733 116.663 51.5828C116.401 51.0987 115.615 50.9293 114.303 51.0745C113.735 51.1229 113.342 51.2682 113.123 51.5102C112.949 51.7523 112.927 52.0911 113.058 52.5268C113.189 52.9141 113.386 53.1803 113.648 53.3255C113.692 53.1803 113.801 53.0593 113.976 52.9625ZM137.051 56.3026C135.391 56.3026 133.249 56.4963 130.627 56.8835C128.005 57.2708 125.732 57.6339 123.809 57.9727C121.93 58.2632 119.919 58.2632 117.778 57.9727C115.68 57.6823 113.954 56.9319 112.599 55.7217C111.244 54.6083 110.61 53.3013 110.698 51.8007C110.698 50.7841 111.179 49.9854 112.14 49.4045C113.058 48.8236 114.129 48.5573 115.352 48.6057C116.576 48.6541 117.559 49.0414 118.302 49.7675C118.914 50.3484 119.176 50.8567 119.089 51.2924C119.002 51.7765 118.761 52.2363 118.368 52.672C117.975 53.1077 117.516 53.4708 116.991 53.7612C116.467 54.0517 115.899 54.2937 115.287 54.4873C115.593 55.4555 116.379 56.1332 117.647 56.5205C118.914 56.8593 120.444 56.9562 122.236 56.8109C124.071 56.6173 125.863 56.3753 127.611 56.0848C129.403 55.7459 131.217 55.3829 133.053 54.9956C134.932 54.6083 136.243 54.3905 136.986 54.3421C138.079 53.8096 138.756 53.9306 139.018 54.7052C139.237 55.3345 138.996 55.8186 138.297 56.1574C137.947 56.3026 137.532 56.351 137.051 56.3026Z"/>
<path d="M151.795 58.9893C150.878 58.3116 150.135 57.0046 149.567 55.0682C149.173 55.3587 148.671 55.7943 148.059 56.3753C147.928 56.4721 147.665 56.6899 147.272 57.0288C146.922 57.3192 146.595 57.6097 146.289 57.9001C145.983 58.1422 145.589 58.4568 145.109 58.8441C144.628 59.1829 144.169 59.4976 143.732 59.788C143.295 60.0785 142.814 60.3689 142.29 60.6594C141.765 60.9014 141.241 61.0951 140.716 61.2403C140.585 61.2403 140.389 61.2645 140.126 61.3129C139.908 61.3613 139.711 61.4097 139.536 61.4581C139.362 61.4581 139.165 61.4581 138.946 61.4581C138.728 61.4581 138.509 61.4581 138.291 61.4581C138.116 61.4097 137.963 61.3613 137.832 61.3129C136.739 60.8288 136.412 59.6912 136.849 57.9001C136.936 57.5128 137.067 57.1498 137.242 56.8109C137.504 56.23 137.876 55.6249 138.356 54.9956C138.881 54.3663 139.252 53.8822 139.471 53.5434C139.864 52.9141 140.411 52.9625 141.11 53.6886C141.678 54.3663 141.7 54.923 141.175 55.3587C140.258 55.988 139.558 56.8593 139.078 57.9727C138.684 58.8925 138.903 59.3282 139.733 59.2798C140.17 59.2313 140.76 59.0377 141.503 58.6988C141.765 58.602 142.028 58.481 142.29 58.3358C142.596 58.1906 142.88 58.0211 143.142 57.8275C143.448 57.5855 143.688 57.3918 143.863 57.2466C144.082 57.1014 144.366 56.8835 144.715 56.5931C145.065 56.3026 145.305 56.109 145.437 56.0122C145.568 55.867 145.808 55.6249 146.158 55.2861C146.551 54.8988 146.791 54.681 146.879 54.6326C147.316 54.1969 147.84 53.7128 148.452 53.1803C148.758 52.8899 148.977 52.7204 149.108 52.672C149.239 52.5752 149.457 52.4784 149.763 52.3816C150.113 52.2363 150.419 52.2363 150.681 52.3816C150.725 52.43 150.768 52.4784 150.812 52.5268C150.856 52.5752 150.9 52.6236 150.943 52.672C151.031 52.7204 151.074 52.7688 151.074 52.8172C151.118 52.8172 151.162 52.8414 151.205 52.8899C151.249 52.9867 151.293 53.0593 151.337 53.1077C151.468 53.5434 151.599 54.1001 151.73 54.7778C151.861 55.4071 151.97 55.867 152.058 56.1574C152.145 56.3995 152.364 56.7141 152.713 57.1014C153.107 57.4886 153.631 57.8517 154.287 58.1906C155.423 58.7715 156.843 59.1103 158.548 59.2071C160.296 59.2555 162.11 59.1345 163.989 58.8441C165.912 58.5052 167.747 58.1422 169.496 57.7549C171.244 57.3192 172.97 56.8835 174.675 56.4479C176.423 55.9638 177.668 55.6733 178.411 55.5765C178.499 55.1892 178.695 54.9714 179.001 54.923C179.307 54.923 179.744 54.8988 180.312 54.8504C180.881 54.7536 181.383 54.681 181.82 54.6326C182.301 54.5841 182.76 54.5841 183.197 54.6326C183.241 54.681 183.328 54.7536 183.459 54.8504C183.59 54.8988 183.678 54.9714 183.721 55.0682C183.809 55.1166 183.874 55.1892 183.918 55.2861C184.137 56.0122 184.158 56.5205 183.984 56.8109C183.809 57.053 183.415 57.3192 182.804 57.6097C182.716 57.6581 182.454 57.6097 182.017 57.4644C181.58 57.3192 181.318 57.295 181.23 57.3918C180.05 57.3918 179.154 57.416 178.542 57.4644C177.712 57.5613 176.313 57.8275 174.347 58.2632C172.38 58.6504 170.392 59.0377 168.381 59.425C166.371 59.7638 164.273 60.0785 162.088 60.3689C159.946 60.6594 157.958 60.7078 156.122 60.5142C154.287 60.2721 152.844 59.7638 151.795 58.9893Z"/>
</mask>
<path d="M38.2101 32.3405C40.3079 29.6781 41.9905 26.6525 43.2579 23.264C43.3016 23.1187 43.3453 22.9493 43.389 22.7557C43.4765 22.562 43.542 22.3684 43.5857 22.1748C43.6731 21.9811 43.7605 21.7633 43.8479 21.5213C43.9354 21.2792 44.0009 21.0614 44.0446 20.8678C44.0883 20.6741 44.1539 20.4563 44.2413 20.2142C44.3287 19.9722 44.3942 19.7786 44.438 19.6333C44.4817 19.4397 44.5472 19.2219 44.6346 18.9798C44.722 18.7378 44.7876 18.5442 44.8313 18.3989C45.1809 16.753 45.3557 15.9301 45.3557 15.9301C45.3994 15.5428 45.5087 14.6957 45.6835 13.3887C45.902 11.888 46.0331 10.823 46.0769 10.1937C46.1206 9.56441 46.0987 8.52363 46.0113 7.07138C46.0113 6.97456 45.9894 6.87775 45.9457 6.78093C45.9457 6.63571 45.9239 6.53889 45.8802 6.49048C45.8802 6.39366 45.8583 6.29685 45.8146 6.20003C45.7709 6.05481 45.7272 5.93379 45.6835 5.83697C45.4213 5.15925 45.2902 4.8204 45.2902 4.8204C44.722 3.90064 43.9791 3.29553 43.0613 3.00508C42.9302 2.95667 42.4931 3.00508 41.7501 3.15031C41.182 3.48917 40.8979 3.65859 40.8979 3.65859C40.7231 3.80382 40.5264 3.97325 40.3079 4.16688C40.1331 4.31211 39.9364 4.50574 39.7179 4.74778C39.0623 5.47391 38.4723 6.22424 37.9479 6.99877C37.4234 7.72489 36.9208 8.49943 36.4401 9.32237C36.0031 10.1453 35.6097 11.0167 35.2601 11.9364C35.2601 11.9364 34.823 13.195 33.949 15.7123C32.9438 18.6652 32.4412 20.1416 32.4412 20.1416C31.9604 21.6423 31.1956 24.5952 30.1467 29.0003C30.0593 29.2908 30.0156 29.5086 30.0156 29.6539C29.8408 30.38 29.2726 32.7278 28.3111 36.6973C27.3496 40.6183 26.6067 43.6197 26.0822 45.7012C23.9407 54.7052 22.0614 61.5549 20.4444 66.2505C20.3133 66.5894 19.3736 69.0098 17.6255 73.5118C22.3018 72.7857 26.4974 72.3258 30.2123 72.1322C32.616 71.9869 36.4838 71.9869 41.8157 72.1322C44.3942 72.229 47.3224 72.3016 50.6002 72.35C53.878 72.4468 57.1777 72.5194 60.4992 72.5678C63.8644 72.6162 66.8145 72.6889 69.3493 72.7857C71.9716 72.9309 76.6916 73.2698 83.5095 73.8022C88.1421 74.0927 92.6436 74.2863 97.014 74.3831C101.384 74.5284 105.689 74.5526 109.929 74.4558C110.191 74.4558 110.475 74.4558 110.781 74.4558C111.087 74.4558 111.371 74.4558 111.633 74.4558C111.895 74.4558 112.179 74.4558 112.485 74.4558C112.791 74.4558 113.075 74.4558 113.338 74.4558C113.643 74.4558 113.949 74.4315 114.255 74.3831C114.561 74.3831 114.845 74.3831 115.108 74.3831C115.413 74.3831 115.698 74.3831 115.96 74.3831C116.397 74.3347 116.856 74.2863 117.336 74.2379C117.861 74.2379 118.32 74.2137 118.713 74.1653C119.106 74.1653 119.565 74.1411 120.09 74.0927C120.658 74.0443 121.117 73.9959 121.466 73.9475C121.772 73.9475 122.253 73.8991 122.909 73.8022C131.431 72.8341 137.746 71.7207 141.854 70.4621C142.117 70.4137 142.379 70.341 142.641 70.2442C142.903 70.1474 143.209 70.0264 143.559 69.8812C143.909 69.7844 144.171 69.6875 144.346 69.5907C144.52 69.5423 144.695 69.4697 144.87 69.3729C145.045 69.3245 145.242 69.2519 145.46 69.155C145.679 69.1066 145.832 69.0582 145.919 69.0098C146.05 68.9614 146.269 68.8888 146.575 68.792C146.88 68.6952 147.055 68.6468 147.099 68.6468C146.924 68.5984 146.4 68.5742 145.526 68.5742C144.957 68.5257 144.673 68.0417 144.673 67.1219C144.673 66.7346 144.761 66.3958 144.936 66.1053C145.11 65.8149 145.351 65.6696 145.657 65.6696C147.186 65.7181 148.563 65.9843 149.787 66.4684C149.787 66.4684 149.918 66.4926 150.18 66.541C150.486 66.6378 150.705 66.7346 150.836 66.8314C150.836 66.8314 151.207 67.1945 151.95 67.9206C151.95 67.969 151.95 68.0174 151.95 68.0659C151.95 68.1627 151.928 68.3079 151.885 68.5015C151.885 68.7436 151.863 68.9372 151.819 69.0824C151.819 69.2277 151.797 69.3729 151.753 69.5181C151.71 69.7117 151.644 69.9054 151.557 70.099C151.513 70.1958 151.404 70.2684 151.229 70.3168C151.098 70.4137 150.967 70.4621 150.836 70.4621C150.748 70.5105 150.617 70.5347 150.442 70.5347C150.311 70.5347 150.224 70.5347 150.18 70.5347C149.525 70.6799 148.607 70.9219 147.427 71.2608C146.247 71.6481 145.416 71.9143 144.936 72.0595C143.187 72.5436 142.313 72.7857 142.313 72.7857C138.118 73.8022 131.191 74.7704 121.532 75.6902C117.861 75.8354 116.025 75.908 116.025 75.908C112.616 76.0048 108.989 76.029 105.143 75.9806C101.297 75.9322 97.6696 75.8354 94.2607 75.6902C90.8517 75.5449 87.2462 75.3513 83.4439 75.1093C82.8757 75.0609 82.1546 74.9883 81.2805 74.8914C80.4502 74.843 79.7728 74.7946 79.2483 74.7462C78.7238 74.6978 78.0901 74.6494 77.3472 74.601C76.6042 74.5526 75.9486 74.5042 75.3805 74.4558C74.8123 74.4073 74.1786 74.3589 73.4793 74.3105C72.7801 74.2621 72.0808 74.2137 71.3816 74.1653C70.726 74.1169 70.0267 74.0927 69.2838 74.0927C66.6615 73.9475 63.7333 73.8507 60.4992 73.8022C57.3088 73.8022 53.9873 73.8022 50.5347 73.8022C47.1258 73.8022 44.2194 73.7538 41.8157 73.657C36.1779 73.7054 32.3538 73.8022 30.3434 73.9475C26.5411 74.2379 21.974 74.9398 16.6421 76.0532C16.1177 77.2634 15.768 78.038 15.5932 78.3768C15.4621 78.7157 14.9377 79.7565 14.0199 81.4992C13.1895 83.0966 12.6869 84.0406 12.5121 84.3311C11.5506 85.9285 10.0646 87.8165 8.05425 89.9948C7.61721 90.4789 7.28943 90.8178 7.07091 91.0114C6.85239 91.2534 6.52461 91.4955 6.08756 91.7375C5.65052 91.9796 5.19163 92.1006 4.71088 92.1006C3.88051 92.1006 2.80975 91.5439 1.49863 90.4305V90.3579C1.45493 90.3095 1.38937 90.1885 1.30196 89.9948C1.17085 89.8496 1.06159 89.7044 0.97418 89.5592C0.886772 89.4139 0.799364 89.2929 0.711956 89.1961C0.537139 88.712 0.406026 88.2279 0.318618 87.7438C0.187506 87.2598 0.12195 86.7515 0.12195 86.219C0.0782455 85.7349 0.100098 85.2508 0.187506 84.7667C0.274914 84.2826 0.406026 83.7986 0.580843 83.3145C0.624547 83.0724 0.75566 82.7336 0.97418 82.2979C1.06159 82.1043 1.12715 81.959 1.17085 81.8622V81.7896C1.78271 80.773 2.08864 80.2648 2.08864 80.2648C2.70049 79.3934 3.42161 78.6431 4.25199 78.0138C5.03867 77.3845 6.06571 76.8036 7.33313 76.2711C8.60055 75.787 9.49649 75.4481 10.0209 75.2545C10.5454 75.1093 11.5943 74.7946 13.1676 74.3105C13.9106 74.1653 14.6317 74.0443 15.331 73.9475C15.4184 73.8022 15.484 73.657 15.5277 73.5118C15.5714 73.415 15.7025 73.0761 15.921 72.4952C16.1395 71.9627 16.3362 71.4786 16.511 71.043C16.6858 70.6557 16.8825 70.1474 17.101 69.5181C17.3632 68.8888 17.5818 68.3563 17.7566 67.9206C17.9751 67.485 18.1718 67.0251 18.3466 66.541C18.5214 66.1053 18.6525 65.7665 18.7399 65.5244C19.9636 62.1842 20.9907 59.0135 21.8211 56.0122C21.8648 55.8186 22.3237 54.0517 23.1977 50.7115C23.2851 50.2758 23.3944 49.8159 23.5255 49.3318C23.6566 48.7994 23.7659 48.3395 23.8533 47.9522C23.9407 47.5649 24.05 47.1051 24.1811 46.5726C24.3122 46.0401 24.4215 45.6044 24.5089 45.2655C25.5578 40.8604 26.41 37.2298 27.0656 34.3737C27.2404 33.7444 27.4589 32.8246 27.7211 31.6144C28.2893 29.0972 28.7263 27.1608 29.0322 25.8054C29.3382 24.45 29.7752 22.7315 30.3434 20.6499C30.9115 18.5199 31.4797 16.632 32.0478 14.9861C32.1352 14.6473 32.2663 14.2116 32.4412 13.6791C32.616 13.1466 32.7689 12.6625 32.9001 12.2269C33.0312 11.7428 33.1841 11.3071 33.3589 10.9198C33.7086 9.90327 34.1238 8.9351 34.6045 8.01534C35.0853 7.04718 35.6097 6.12742 36.1779 5.25607C36.746 4.33631 37.3797 3.48917 38.079 2.71463C38.7346 1.9401 39.2809 1.40761 39.7179 1.11716C39.7179 1.11716 40.2861 0.82671 41.4224 0.245809C42.3839 0.148994 42.8646 0.100586 42.8646 0.100586C43.0831 0.100586 43.2798 0.12479 43.4546 0.173197C43.6731 0.221605 43.8698 0.270013 44.0446 0.318421C44.2194 0.366828 44.3942 0.439441 44.5691 0.536259C44.7439 0.633075 44.9187 0.754096 45.0935 0.899321C45.2683 0.996137 45.4431 1.11716 45.618 1.26238C45.7928 1.3592 45.9457 1.48022 46.0769 1.62545C46.2517 1.77067 46.4046 1.9159 46.5358 2.06112C46.7106 2.20635 46.8635 2.37577 46.9946 2.56941C47.1258 2.71463 47.235 2.88406 47.3224 3.07769C47.4535 3.22292 47.5628 3.39235 47.6502 3.58598C47.6939 3.6828 47.7376 3.80382 47.7813 3.94904C47.8687 4.09427 47.9343 4.2395 47.978 4.38472C48.0217 4.48154 48.0654 4.62676 48.1091 4.8204C48.1528 4.96562 48.1965 5.08664 48.2402 5.18346C48.2402 5.28027 48.2402 5.40129 48.2402 5.54652C48.2839 5.69174 48.3276 5.81276 48.3713 5.90958C48.415 6.0064 48.4369 6.12742 48.4369 6.27264C48.4806 6.36946 48.5024 6.49048 48.5024 6.63571C48.5024 6.73252 48.5243 6.85354 48.568 6.99877C48.6554 8.30579 48.4587 10.581 47.978 13.8243C47.978 13.9212 47.9561 14.0906 47.9124 14.3326C47.9124 14.5263 47.8906 14.7199 47.8469 14.9135C47.8469 15.0588 47.825 15.2282 47.7813 15.4218C47.7376 15.6154 47.6939 15.8091 47.6502 16.0027C47.6502 16.1479 47.6283 16.3174 47.5846 16.511C47.5846 16.6078 47.5628 16.7288 47.5191 16.8741C47.5191 16.9709 47.4972 17.0677 47.4535 17.1645C47.4535 17.2613 47.4317 17.3824 47.388 17.5276C47.388 17.6244 47.3661 17.7454 47.3224 17.8906C47.3224 17.9875 47.3006 18.1085 47.2569 18.2537C47.2132 18.3505 47.1695 18.4473 47.1258 18.5442C47.1258 18.641 47.1039 18.762 47.0602 18.9072C47.0602 19.004 47.0602 19.1251 47.0602 19.2703C46.9728 19.4155 46.8417 19.7544 46.6669 20.2869C46.5357 20.7709 46.4265 21.134 46.3391 21.376C46.2954 21.5697 46.208 21.8843 46.0769 22.32C45.9457 22.7073 45.8146 23.0703 45.6835 23.4092C45.5524 23.748 45.4213 24.0627 45.2902 24.3532C44.1102 27.4029 42.4276 30.6462 40.2424 34.0832C40.0238 34.3253 39.7616 34.4463 39.4557 34.4463C39.1935 34.3979 38.9312 34.2527 38.669 34.0106C38.0134 33.3813 37.8605 32.8246 38.2101 32.3405ZM6.34979 87.9617C8.36018 86.0253 9.80242 84.4037 10.6765 83.0966C10.8513 82.8062 11.3758 81.8622 12.2498 80.2648C13.2987 78.3768 13.9543 77.1424 14.2165 76.5615C14.1291 76.5615 14.0417 76.5615 13.9543 76.5615C13.9106 76.6099 13.845 76.6341 13.7576 76.6341C13.6265 76.6825 13.4517 76.7552 13.2332 76.852C9.43093 78.1106 6.74313 79.4176 5.16978 80.773C4.73274 81.1603 4.42681 81.475 4.25199 81.717C4.16458 81.8622 4.07717 81.9833 3.98977 82.0801C3.90236 82.2253 3.81495 82.3947 3.72754 82.5884C3.64013 82.782 3.57458 82.9272 3.53087 83.024C3.31235 83.6533 3.15939 84.1132 3.07198 84.4037C2.94087 84.6941 2.85346 85.0572 2.80975 85.4929C2.72235 85.9285 2.72235 86.34 2.80975 86.7273C2.89716 87.1629 3.05013 87.6228 3.26865 88.1069C3.57458 88.4458 3.90236 88.712 4.25199 88.9056C4.29569 88.9056 4.36125 88.9298 4.44866 88.9783C4.49236 89.0267 4.55792 89.0509 4.64533 89.0509L4.71088 89.1961C4.92941 89.1477 5.47571 88.7362 6.34979 87.9617Z" fill="black"/>
<path d="M48.4487 57.7549C49.7161 58.0937 50.8524 58.2632 51.8576 58.2632C52.9065 58.2632 54.1302 58.118 55.5287 57.8275C56.971 57.4886 58.2165 57.1498 59.2654 56.8109C60.358 56.4721 61.5818 56.109 62.9366 55.7217C64.2914 55.2861 65.4277 54.9956 66.3455 54.8504C68.1374 54.5115 69.077 54.802 69.1644 55.7217C69.2518 56.3026 68.9896 56.7141 68.3777 56.9562C68.0718 57.053 67.7659 57.0046 67.46 56.8109C66.0177 56.9562 63.8544 57.295 60.9699 57.8275C58.1291 58.3116 56.3373 58.6262 55.5943 58.7715C55.2884 58.8199 54.6328 58.9409 53.6276 59.1345C52.6661 59.3282 51.8139 59.4976 51.0709 59.6428C50.3716 59.7396 49.6068 59.7638 48.7764 59.7154C47.9461 59.667 47.3123 59.4734 46.8753 59.1345C46.0886 58.5052 46.0886 57.4644 46.8753 56.0122C46.5694 56.2058 46.3072 56.3753 46.0886 56.5205C45.9138 56.6173 45.7609 56.7141 45.6297 56.8109C45.5423 56.8593 45.4549 56.9319 45.3675 57.0288C45.3238 57.0772 45.2801 57.1014 45.2364 57.1014C45.2364 57.1014 45.2146 57.1256 45.1708 57.174C45.1271 57.174 45.1053 57.174 45.1053 57.174C45.1053 57.174 45.0397 57.1982 44.9086 57.2466C44.8212 57.295 44.7338 57.3434 44.6464 57.3918C44.559 57.4402 44.406 57.5371 44.1875 57.6823C43.969 57.7791 43.7286 57.9001 43.4664 58.0453C42.0679 58.5294 40.7567 58.8683 39.533 59.0619C39.4893 59.1103 39.3363 59.1587 39.0741 59.2071C38.8119 59.2555 38.6152 59.2798 38.4841 59.2798C37.916 59.1829 37.4134 58.9893 36.9763 58.6988C36.9763 58.6988 36.9108 58.481 36.7797 58.0453C36.7797 57.9485 36.7797 57.8275 36.7797 57.6823C36.7359 57.5371 36.7141 57.4402 36.7141 57.3918C36.7141 57.295 36.7141 57.174 36.7141 57.0288C36.8015 56.6415 36.9763 56.2784 37.2385 55.9396C37.5008 55.6007 37.6974 55.3587 37.8286 55.2135C38.0034 55.0682 38.353 54.8504 38.8775 54.5599C39.4019 54.2211 39.686 54.0274 39.7297 53.979C39.8608 53.8822 40.0793 53.7128 40.3852 53.4708C40.6912 53.1803 40.9753 52.9383 41.2375 52.7446C41.4997 52.551 41.7401 52.4058 41.9586 52.309C42.5267 52.0669 43.3571 51.8975 44.4497 51.8007C45.586 51.7038 46.3509 51.607 46.7442 51.5102C47.1812 51.5102 47.3998 51.8491 47.3998 52.5268C47.3998 53.2045 47.1812 53.5434 46.7442 53.5434C46.5694 53.5434 46.1542 53.5918 45.4986 53.6886C44.8431 53.737 44.2968 53.8096 43.8597 53.9064C43.4227 54.0032 43.0075 54.1727 42.6142 54.4147C42.483 54.5115 42.3082 54.681 42.0897 54.923C41.9149 55.1166 41.7838 55.2377 41.6964 55.2861C41.609 55.3345 41.5215 55.4071 41.4341 55.5039C41.3467 55.5523 41.2375 55.6249 41.1064 55.7217C41.019 55.7701 40.9534 55.8186 40.9097 55.867C40.8223 55.9638 40.5819 56.109 40.1886 56.3026C39.8389 56.4963 39.5767 56.6657 39.4019 56.8109C40.4508 56.7141 41.609 56.4721 42.8764 56.0848C43.1386 55.9396 43.4008 55.8186 43.6631 55.7217C43.969 55.5765 44.1438 55.5039 44.1875 55.5039C44.2312 55.4555 44.3186 55.4071 44.4497 55.3587C44.5808 55.2619 44.6682 55.1892 44.712 55.1408C44.7557 55.0924 44.8868 54.9956 45.1053 54.8504C45.3675 54.7052 45.6297 54.5357 45.892 54.3421C45.9794 54.2937 46.1979 54.1727 46.5475 53.979C46.8972 53.737 47.1594 53.5434 47.3342 53.3981C47.6401 53.2045 48.0553 52.8657 48.5798 52.3816C49.1042 51.8975 49.5194 51.5586 49.8253 51.365C50.2187 51.0745 50.5902 50.9777 50.9398 51.0745C51.2894 51.1229 51.5735 51.365 51.792 51.8007C52.0105 52.1879 52.0324 52.5994 51.8576 53.0351C51.7702 53.2771 51.6609 53.495 51.5298 53.6886C51.4424 53.8338 51.3768 53.9548 51.3331 54.0517C51.2894 54.1001 51.1365 54.2211 50.8742 54.4147C50.6557 54.6083 50.5028 54.7536 50.4153 54.8504C49.9346 55.2377 49.279 56.2058 48.4487 57.7549Z" fill="black"/>
<path d="M82.1635 55.7943C82.9065 55.7459 83.715 55.6491 84.5891 55.5039C85.4632 55.3587 86.4247 55.1892 87.4736 54.9956C88.5225 54.802 89.3528 54.6568 89.9647 54.5599C90.358 54.4631 90.6421 54.5841 90.8169 54.923C90.9917 55.2135 90.9917 55.5281 90.8169 55.867C90.6858 56.2058 90.4236 56.3995 90.0302 56.4479C87.3206 56.7383 84.7202 56.9319 82.2291 57.0288C78.2957 57.0772 75.586 56.4963 74.1001 55.2861C74.0127 55.1892 73.9034 55.0924 73.7723 54.9956C73.6849 55.0924 73.5319 55.2861 73.3134 55.5765C73.0512 55.7701 72.636 56.0606 72.0678 56.4479C71.5434 56.7867 71.2156 57.0046 71.0845 57.1014C71.0408 57.1498 70.8223 57.3676 70.4289 57.7549C70.0356 58.1422 69.533 58.4568 68.9211 58.6988C67.2604 58.7473 66.6922 57.5371 67.2167 55.0682C67.3915 54.0517 67.4789 53.5434 67.4789 53.5434C67.5226 53.495 67.6319 53.2287 67.8067 52.7446C68.0252 52.2605 68.2219 51.7765 68.3967 51.2924C68.6152 50.8083 68.7245 50.5663 68.7245 50.5663C68.8119 50.3726 68.9211 50.058 69.0523 49.6223C69.2271 49.1866 69.3582 48.8478 69.4456 48.6057C69.5767 48.3153 69.8389 47.686 70.2323 46.7178C70.6693 45.7496 70.9752 44.9993 71.1501 44.4668C72.3738 41.3203 74.1001 37.4234 76.329 32.7762C76.8971 31.9533 77.1812 31.5418 77.1812 31.5418C77.7931 30.9125 78.4486 30.5736 79.1479 30.5252C79.5412 30.4768 79.869 30.4768 80.1313 30.5252C80.4372 30.5252 80.6776 30.622 80.8524 30.8157C81.0709 31.0093 81.2676 31.3239 81.4424 31.7596C81.4861 31.8564 81.5298 31.9775 81.5735 32.1227C81.6172 32.2195 81.6609 32.3405 81.7046 32.4857C81.7483 32.5826 81.7702 32.6794 81.7702 32.7762C81.8576 33.1635 81.9013 33.5507 81.9013 33.938C81.945 34.2769 81.9231 34.6883 81.8357 35.1724C81.792 35.6081 81.7265 35.9469 81.639 36.189C81.5953 36.431 81.4861 36.8425 81.3113 37.4234C81.1802 38.0043 81.1146 38.3432 81.1146 38.44C80.6339 39.6018 80.3935 40.1827 80.3935 40.1827C80.175 40.6183 79.432 41.7801 78.1646 43.6681C78.0335 43.8617 77.8149 44.2006 77.509 44.6846C77.2031 45.1203 76.9627 45.4592 76.7879 45.7012C76.5694 46.0401 76.1323 46.6452 75.4768 47.5165C74.8212 48.3395 74.3186 48.993 73.969 49.4771C71.303 52.8172 69.6641 54.9472 69.0523 55.867C69.1834 55.7217 69.4674 55.5039 69.9045 55.2135C71.1282 54.3905 71.8056 53.9064 71.9367 53.7612C72.7671 52.551 73.6412 52.1395 74.559 52.5268L75.2145 53.0351C75.2145 53.0835 75.2582 53.1561 75.3457 53.2529C75.4331 53.3013 75.4986 53.3739 75.5423 53.4708C75.586 53.5192 75.6297 53.5676 75.6734 53.616C76.5475 55.3103 78.7109 56.0364 82.1635 55.7943ZM70.5601 50.9293C70.8223 50.5905 71.1938 50.1064 71.6745 49.4771C72.199 48.8478 72.5486 48.4363 72.7234 48.2427C73.0293 47.7102 73.5101 47.0324 74.1656 46.2095C74.8649 45.3866 75.3238 44.8299 75.5423 44.5394C75.6734 44.3458 75.8045 44.1521 75.9357 43.9585C76.0668 43.7165 76.1979 43.4744 76.329 43.2324C76.5038 42.9419 76.6349 42.7241 76.7223 42.5789C77.946 40.7394 78.6672 39.5776 78.8857 39.0935C78.9294 38.9483 78.9731 38.803 79.0168 38.6578C79.1042 38.5126 79.1698 38.3432 79.2135 38.1495C79.2572 37.9075 79.3009 37.738 79.3446 37.6412C79.7379 36.0438 79.8909 34.7851 79.8035 33.8654C79.8035 33.6717 79.7816 33.4781 79.7379 33.2845C79.7379 33.1393 79.6942 33.0182 79.6068 32.9214C79.5631 32.8246 79.5412 32.752 79.5412 32.7036C79.4975 32.7036 79.4757 32.6552 79.4757 32.5584C79.3883 32.4131 79.3227 32.3163 79.279 32.2679L79.3446 32.4131C79.432 32.6552 79.4538 32.8004 79.4101 32.8488C79.3664 32.8488 79.3009 32.873 79.2135 32.9214C79.1698 32.9214 79.1042 32.9214 79.0168 32.9214C78.9294 32.9214 78.8638 32.9456 78.8201 32.994C78.6016 33.0909 78.2957 33.4781 77.9023 34.1558C76.1542 37.3024 74.4279 40.9814 72.7234 45.1929C72.5923 45.6286 72.4175 46.0885 72.199 46.5726C72.0241 47.0567 71.8056 47.5649 71.5434 48.0974C71.3249 48.6299 71.1501 49.0656 71.0189 49.4045C71.0189 49.4529 70.866 49.9612 70.5601 50.9293Z" fill="black"/>
<path d="M94.295 52.8899C94.2513 52.793 94.1639 52.6962 94.0328 52.5994C93.9454 52.4542 93.8798 52.3332 93.8361 52.2363C93.705 52.3816 93.4865 52.5752 93.1805 52.8172C92.8746 53.0593 92.6561 53.2529 92.525 53.3981C92.2627 53.6886 91.935 54.2211 91.5416 54.9956C91.1483 55.7701 90.755 56.2784 90.3616 56.5205C89.9246 56.8109 89.5312 56.8593 89.1816 56.6657C88.832 56.4237 88.6134 56.1332 88.526 55.7943C88.4823 55.4071 88.5479 55.0682 88.7227 54.7778C89.3346 54.1485 89.9464 53.4708 90.5583 52.7446C90.7331 52.551 90.9298 52.3332 91.1483 52.0911C91.2357 51.9459 91.3887 51.7523 91.6072 51.5102C91.8694 51.2682 92.0879 51.0503 92.2627 50.8567C92.4376 50.6631 92.5687 50.4694 92.6561 50.2758C92.6998 50.179 92.7435 50.0822 92.7872 49.9854C92.8309 49.8401 92.8746 49.6949 92.9183 49.5497C92.962 49.4045 93.0057 49.3076 93.0494 49.2592C93.0494 49.114 93.0713 48.993 93.115 48.8962C93.0713 48.4605 93.1368 48.0974 93.3116 47.807C93.3553 47.7586 93.399 47.686 93.4427 47.5891C93.4865 47.4923 93.5302 47.4439 93.5739 47.4439C93.4865 47.2503 93.4646 47.1051 93.5083 47.0082C94.3387 45.6044 94.9942 45.4108 95.475 46.4273C95.8683 47.4439 95.8465 48.3637 95.4094 49.1866C95.4531 49.4771 95.475 49.9369 95.475 50.5663C95.475 50.6147 95.475 50.6389 95.475 50.6389C95.7809 51.4618 96.1743 52.1637 96.655 52.7446C97.1357 53.3255 97.6165 53.8338 98.0972 54.2695C98.578 54.6568 99.1898 54.9472 99.9328 55.1408C100.676 55.3345 101.288 55.5039 101.768 55.6491C102.249 55.7459 102.948 55.7701 103.866 55.7217C104.784 55.6733 105.44 55.6491 105.833 55.6491C106.226 55.6007 106.882 55.4797 107.8 55.2861C108.761 55.0924 109.329 54.9714 109.504 54.923C109.723 54.8746 110.269 54.7536 111.143 54.5599C111.449 54.4631 111.842 54.4147 112.323 54.4147C112.76 54.4147 113.263 54.4873 113.831 54.6326C114.355 54.5841 114.683 54.9714 114.814 55.7943C114.945 56.6173 114.749 57.053 114.224 57.1014C114.093 57.1014 113.962 57.0772 113.831 57.0288C113.787 57.0288 113.547 57.0288 113.11 57.0288C112.979 57.0772 112.804 57.1014 112.585 57.1014C112.41 57.1014 112.257 57.1014 112.126 57.1014C111.864 57.1498 111.667 57.0046 111.536 56.6657C111.361 56.6657 111.274 56.6657 111.274 56.6657C110.618 56.7141 109.635 56.7867 108.324 56.8835C107.013 56.9804 105.964 57.053 105.177 57.1014C104.391 57.1498 103.407 57.1256 102.227 57.0288C101.091 56.9319 100.108 56.7625 99.2773 56.5205C98.4469 56.23 97.5728 55.7943 96.655 55.2135C95.7809 54.5841 94.9942 53.8096 94.295 52.8899ZM95.9339 37.7865C97.8132 37.4476 98.9058 37.254 99.2117 37.2056C99.4302 37.1572 99.605 37.254 99.7361 37.496C99.8673 37.738 99.911 38.0043 99.8673 38.2947C99.8236 38.5368 99.7143 38.682 99.5395 38.7304H99.4084L99.3428 38.803H99.1461L99.0806 38.8756H98.8839L98.8184 38.9483H98.6217L98.5561 39.0209H98.3595L98.2939 39.0935H98.0972L98.0317 39.1661H97.835L97.7695 39.2387H97.5728L97.5072 39.3113H97.3106L97.245 39.3839H96.9828L96.9172 39.4565H96.7206L96.655 39.5292H96.4583L96.3928 39.6018H96.2617C96.0431 39.6502 95.8465 39.5292 95.6717 39.2387C95.5406 38.9483 95.4968 38.6578 95.5406 38.3674C95.5843 38.0285 95.7154 37.8349 95.9339 37.7865Z" fill="black"/>
<path d="M113.976 52.9625C115.505 52.3332 116.401 51.8733 116.663 51.5828C116.401 51.0987 115.615 50.9293 114.303 51.0745C113.735 51.1229 113.342 51.2682 113.123 51.5102C112.949 51.7523 112.927 52.0911 113.058 52.5268C113.189 52.9141 113.386 53.1803 113.648 53.3255C113.692 53.1803 113.801 53.0593 113.976 52.9625ZM137.051 56.3026C135.391 56.3026 133.249 56.4963 130.627 56.8835C128.005 57.2708 125.732 57.6339 123.809 57.9727C121.93 58.2632 119.919 58.2632 117.778 57.9727C115.68 57.6823 113.954 56.9319 112.599 55.7217C111.244 54.6083 110.61 53.3013 110.698 51.8007C110.698 50.7841 111.179 49.9854 112.14 49.4045C113.058 48.8236 114.129 48.5573 115.352 48.6057C116.576 48.6541 117.559 49.0414 118.302 49.7675C118.914 50.3484 119.176 50.8567 119.089 51.2924C119.002 51.7765 118.761 52.2363 118.368 52.672C117.975 53.1077 117.516 53.4708 116.991 53.7612C116.467 54.0517 115.899 54.2937 115.287 54.4873C115.593 55.4555 116.379 56.1332 117.647 56.5205C118.914 56.8593 120.444 56.9562 122.236 56.8109C124.071 56.6173 125.863 56.3753 127.611 56.0848C129.403 55.7459 131.217 55.3829 133.053 54.9956C134.932 54.6083 136.243 54.3905 136.986 54.3421C138.079 53.8096 138.756 53.9306 139.018 54.7052C139.237 55.3345 138.996 55.8186 138.297 56.1574C137.947 56.3026 137.532 56.351 137.051 56.3026Z" fill="black"/>
<path d="M151.795 58.9893C150.878 58.3116 150.135 57.0046 149.567 55.0682C149.173 55.3587 148.671 55.7943 148.059 56.3753C147.928 56.4721 147.665 56.6899 147.272 57.0288C146.922 57.3192 146.595 57.6097 146.289 57.9001C145.983 58.1422 145.589 58.4568 145.109 58.8441C144.628 59.1829 144.169 59.4976 143.732 59.788C143.295 60.0785 142.814 60.3689 142.29 60.6594C141.765 60.9014 141.241 61.0951 140.716 61.2403C140.585 61.2403 140.389 61.2645 140.126 61.3129C139.908 61.3613 139.711 61.4097 139.536 61.4581C139.362 61.4581 139.165 61.4581 138.946 61.4581C138.728 61.4581 138.509 61.4581 138.291 61.4581C138.116 61.4097 137.963 61.3613 137.832 61.3129C136.739 60.8288 136.412 59.6912 136.849 57.9001C136.936 57.5128 137.067 57.1498 137.242 56.8109C137.504 56.23 137.876 55.6249 138.356 54.9956C138.881 54.3663 139.252 53.8822 139.471 53.5434C139.864 52.9141 140.411 52.9625 141.11 53.6886C141.678 54.3663 141.7 54.923 141.175 55.3587C140.258 55.988 139.558 56.8593 139.078 57.9727C138.684 58.8925 138.903 59.3282 139.733 59.2798C140.17 59.2313 140.76 59.0377 141.503 58.6988C141.765 58.602 142.028 58.481 142.29 58.3358C142.596 58.1906 142.88 58.0211 143.142 57.8275C143.448 57.5855 143.688 57.3918 143.863 57.2466C144.082 57.1014 144.366 56.8835 144.715 56.5931C145.065 56.3026 145.305 56.109 145.437 56.0122C145.568 55.867 145.808 55.6249 146.158 55.2861C146.551 54.8988 146.791 54.681 146.879 54.6326C147.316 54.1969 147.84 53.7128 148.452 53.1803C148.758 52.8899 148.977 52.7204 149.108 52.672C149.239 52.5752 149.457 52.4784 149.763 52.3816C150.113 52.2363 150.419 52.2363 150.681 52.3816C150.725 52.43 150.768 52.4784 150.812 52.5268C150.856 52.5752 150.9 52.6236 150.943 52.672C151.031 52.7204 151.074 52.7688 151.074 52.8172C151.118 52.8172 151.162 52.8414 151.205 52.8899C151.249 52.9867 151.293 53.0593 151.337 53.1077C151.468 53.5434 151.599 54.1001 151.73 54.7778C151.861 55.4071 151.97 55.867 152.058 56.1574C152.145 56.3995 152.364 56.7141 152.713 57.1014C153.107 57.4886 153.631 57.8517 154.287 58.1906C155.423 58.7715 156.843 59.1103 158.548 59.2071C160.296 59.2555 162.11 59.1345 163.989 58.8441C165.912 58.5052 167.747 58.1422 169.496 57.7549C171.244 57.3192 172.97 56.8835 174.675 56.4479C176.423 55.9638 177.668 55.6733 178.411 55.5765C178.499 55.1892 178.695 54.9714 179.001 54.923C179.307 54.923 179.744 54.8988 180.312 54.8504C180.881 54.7536 181.383 54.681 181.82 54.6326C182.301 54.5841 182.76 54.5841 183.197 54.6326C183.241 54.681 183.328 54.7536 183.459 54.8504C183.59 54.8988 183.678 54.9714 183.721 55.0682C183.809 55.1166 183.874 55.1892 183.918 55.2861C184.137 56.0122 184.158 56.5205 183.984 56.8109C183.809 57.053 183.415 57.3192 182.804 57.6097C182.716 57.6581 182.454 57.6097 182.017 57.4644C181.58 57.3192 181.318 57.295 181.23 57.3918C180.05 57.3918 179.154 57.416 178.542 57.4644C177.712 57.5613 176.313 57.8275 174.347 58.2632C172.38 58.6504 170.392 59.0377 168.381 59.425C166.371 59.7638 164.273 60.0785 162.088 60.3689C159.946 60.6594 157.958 60.7078 156.122 60.5142C154.287 60.2721 152.844 59.7638 151.795 58.9893Z" fill="black"/>
<path d="M38.2101 32.3405C40.3079 29.6781 41.9905 26.6525 43.2579 23.264C43.3016 23.1187 43.3453 22.9493 43.389 22.7557C43.4765 22.562 43.542 22.3684 43.5857 22.1748C43.6731 21.9811 43.7605 21.7633 43.8479 21.5213C43.9354 21.2792 44.0009 21.0614 44.0446 20.8678C44.0883 20.6741 44.1539 20.4563 44.2413 20.2142C44.3287 19.9722 44.3942 19.7786 44.438 19.6333C44.4817 19.4397 44.5472 19.2219 44.6346 18.9798C44.722 18.7378 44.7876 18.5442 44.8313 18.3989C45.1809 16.753 45.3557 15.9301 45.3557 15.9301C45.3994 15.5428 45.5087 14.6957 45.6835 13.3887C45.902 11.888 46.0331 10.823 46.0769 10.1937C46.1206 9.56441 46.0987 8.52363 46.0113 7.07138C46.0113 6.97456 45.9894 6.87775 45.9457 6.78093C45.9457 6.63571 45.9239 6.53889 45.8802 6.49048C45.8802 6.39366 45.8583 6.29685 45.8146 6.20003C45.7709 6.05481 45.7272 5.93379 45.6835 5.83697C45.4213 5.15925 45.2902 4.8204 45.2902 4.8204C44.722 3.90064 43.9791 3.29553 43.0613 3.00508C42.9302 2.95667 42.4931 3.00508 41.7501 3.15031C41.182 3.48917 40.8979 3.65859 40.8979 3.65859C40.7231 3.80382 40.5264 3.97325 40.3079 4.16688C40.1331 4.31211 39.9364 4.50574 39.7179 4.74778C39.0623 5.47391 38.4723 6.22424 37.9479 6.99877C37.4234 7.72489 36.9208 8.49943 36.4401 9.32237C36.0031 10.1453 35.6097 11.0167 35.2601 11.9364C35.2601 11.9364 34.823 13.195 33.949 15.7123C32.9438 18.6652 32.4412 20.1416 32.4412 20.1416C31.9604 21.6423 31.1956 24.5952 30.1467 29.0003C30.0593 29.2908 30.0156 29.5086 30.0156 29.6539C29.8408 30.38 29.2726 32.7278 28.3111 36.6973C27.3496 40.6183 26.6067 43.6197 26.0822 45.7012C23.9407 54.7052 22.0614 61.5549 20.4444 66.2505C20.3133 66.5894 19.3736 69.0098 17.6255 73.5118C22.3018 72.7857 26.4974 72.3258 30.2123 72.1322C32.616 71.9869 36.4838 71.9869 41.8157 72.1322C44.3942 72.229 47.3224 72.3016 50.6002 72.35C53.878 72.4468 57.1777 72.5194 60.4992 72.5678C63.8644 72.6162 66.8145 72.6889 69.3493 72.7857C71.9716 72.9309 76.6916 73.2698 83.5095 73.8022C88.1421 74.0927 92.6436 74.2863 97.014 74.3831C101.384 74.5284 105.689 74.5526 109.929 74.4558C110.191 74.4558 110.475 74.4558 110.781 74.4558C111.087 74.4558 111.371 74.4558 111.633 74.4558C111.895 74.4558 112.179 74.4558 112.485 74.4558C112.791 74.4558 113.075 74.4558 113.338 74.4558C113.643 74.4558 113.949 74.4315 114.255 74.3831C114.561 74.3831 114.845 74.3831 115.108 74.3831C115.413 74.3831 115.698 74.3831 115.96 74.3831C116.397 74.3347 116.856 74.2863 117.336 74.2379C117.861 74.2379 118.32 74.2137 118.713 74.1653C119.106 74.1653 119.565 74.1411 120.09 74.0927C120.658 74.0443 121.117 73.9959 121.466 73.9475C121.772 73.9475 122.253 73.8991 122.909 73.8022C131.431 72.8341 137.746 71.7207 141.854 70.4621C142.117 70.4137 142.379 70.341 142.641 70.2442C142.903 70.1474 143.209 70.0264 143.559 69.8812C143.909 69.7844 144.171 69.6875 144.346 69.5907C144.52 69.5423 144.695 69.4697 144.87 69.3729C145.045 69.3245 145.242 69.2519 145.46 69.155C145.679 69.1066 145.832 69.0582 145.919 69.0098C146.05 68.9614 146.269 68.8888 146.575 68.792C146.88 68.6952 147.055 68.6468 147.099 68.6468C146.924 68.5984 146.4 68.5742 145.526 68.5742C144.957 68.5257 144.673 68.0417 144.673 67.1219C144.673 66.7346 144.761 66.3958 144.936 66.1053C145.11 65.8149 145.351 65.6696 145.657 65.6696C147.186 65.7181 148.563 65.9843 149.787 66.4684C149.787 66.4684 149.918 66.4926 150.18 66.541C150.486 66.6378 150.705 66.7346 150.836 66.8314C150.836 66.8314 151.207 67.1945 151.95 67.9206C151.95 67.969 151.95 68.0174 151.95 68.0659C151.95 68.1627 151.928 68.3079 151.885 68.5015C151.885 68.7436 151.863 68.9372 151.819 69.0824C151.819 69.2277 151.797 69.3729 151.753 69.5181C151.71 69.7117 151.644 69.9054 151.557 70.099C151.513 70.1958 151.404 70.2684 151.229 70.3168C151.098 70.4137 150.967 70.4621 150.836 70.4621C150.748 70.5105 150.617 70.5347 150.442 70.5347C150.311 70.5347 150.224 70.5347 150.18 70.5347C149.525 70.6799 148.607 70.9219 147.427 71.2608C146.247 71.6481 145.416 71.9143 144.936 72.0595C143.187 72.5436 142.313 72.7857 142.313 72.7857C138.118 73.8022 131.191 74.7704 121.532 75.6902C117.861 75.8354 116.025 75.908 116.025 75.908C112.616 76.0048 108.989 76.029 105.143 75.9806C101.297 75.9322 97.6696 75.8354 94.2607 75.6902C90.8517 75.5449 87.2462 75.3513 83.4439 75.1093C82.8757 75.0609 82.1546 74.9883 81.2805 74.8914C80.4502 74.843 79.7728 74.7946 79.2483 74.7462C78.7238 74.6978 78.0901 74.6494 77.3472 74.601C76.6042 74.5526 75.9486 74.5042 75.3805 74.4558C74.8123 74.4073 74.1786 74.3589 73.4793 74.3105C72.7801 74.2621 72.0808 74.2137 71.3816 74.1653C70.726 74.1169 70.0267 74.0927 69.2838 74.0927C66.6615 73.9475 63.7333 73.8507 60.4992 73.8022C57.3088 73.8022 53.9873 73.8022 50.5347 73.8022C47.1258 73.8022 44.2194 73.7538 41.8157 73.657C36.1779 73.7054 32.3538 73.8022 30.3434 73.9475C26.5411 74.2379 21.974 74.9398 16.6421 76.0532C16.1177 77.2634 15.768 78.038 15.5932 78.3768C15.4621 78.7157 14.9377 79.7565 14.0199 81.4992C13.1895 83.0966 12.6869 84.0406 12.5121 84.3311C11.5506 85.9285 10.0646 87.8165 8.05425 89.9948C7.61721 90.4789 7.28943 90.8178 7.07091 91.0114C6.85239 91.2534 6.52461 91.4955 6.08756 91.7375C5.65052 91.9796 5.19163 92.1006 4.71088 92.1006C3.88051 92.1006 2.80975 91.5439 1.49863 90.4305V90.3579C1.45493 90.3095 1.38937 90.1885 1.30196 89.9948C1.17085 89.8496 1.06159 89.7044 0.97418 89.5592C0.886772 89.4139 0.799364 89.2929 0.711956 89.1961C0.537139 88.712 0.406026 88.2279 0.318618 87.7438C0.187506 87.2598 0.12195 86.7515 0.12195 86.219C0.0782455 85.7349 0.100098 85.2508 0.187506 84.7667C0.274914 84.2826 0.406026 83.7986 0.580843 83.3145C0.624547 83.0724 0.75566 82.7336 0.97418 82.2979C1.06159 82.1043 1.12715 81.959 1.17085 81.8622V81.7896C1.78271 80.773 2.08864 80.2648 2.08864 80.2648C2.70049 79.3934 3.42161 78.6431 4.25199 78.0138C5.03867 77.3845 6.06571 76.8036 7.33313 76.2711C8.60055 75.787 9.49649 75.4481 10.0209 75.2545C10.5454 75.1093 11.5943 74.7946 13.1676 74.3105C13.9106 74.1653 14.6317 74.0443 15.331 73.9475C15.4184 73.8022 15.484 73.657 15.5277 73.5118C15.5714 73.415 15.7025 73.0761 15.921 72.4952C16.1395 71.9627 16.3362 71.4786 16.511 71.043C16.6858 70.6557 16.8825 70.1474 17.101 69.5181C17.3632 68.8888 17.5818 68.3563 17.7566 67.9206C17.9751 67.485 18.1718 67.0251 18.3466 66.541C18.5214 66.1053 18.6525 65.7665 18.7399 65.5244C19.9636 62.1842 20.9907 59.0135 21.8211 56.0122C21.8648 55.8186 22.3237 54.0517 23.1977 50.7115C23.2851 50.2758 23.3944 49.8159 23.5255 49.3318C23.6566 48.7994 23.7659 48.3395 23.8533 47.9522C23.9407 47.5649 24.05 47.1051 24.1811 46.5726C24.3122 46.0401 24.4215 45.6044 24.5089 45.2655C25.5578 40.8604 26.41 37.2298 27.0656 34.3737C27.2404 33.7444 27.4589 32.8246 27.7211 31.6144C28.2893 29.0972 28.7263 27.1608 29.0322 25.8054C29.3382 24.45 29.7752 22.7315 30.3434 20.6499C30.9115 18.5199 31.4797 16.632 32.0478 14.9861C32.1352 14.6473 32.2663 14.2116 32.4412 13.6791C32.616 13.1466 32.7689 12.6625 32.9001 12.2269C33.0312 11.7428 33.1841 11.3071 33.3589 10.9198C33.7086 9.90327 34.1238 8.9351 34.6045 8.01534C35.0853 7.04718 35.6097 6.12742 36.1779 5.25607C36.746 4.33631 37.3797 3.48917 38.079 2.71463C38.7346 1.9401 39.2809 1.40761 39.7179 1.11716C39.7179 1.11716 40.2861 0.82671 41.4224 0.245809C42.3839 0.148994 42.8646 0.100586 42.8646 0.100586C43.0831 0.100586 43.2798 0.12479 43.4546 0.173197C43.6731 0.221605 43.8698 0.270013 44.0446 0.318421C44.2194 0.366828 44.3942 0.439441 44.5691 0.536259C44.7439 0.633075 44.9187 0.754096 45.0935 0.899321C45.2683 0.996137 45.4431 1.11716 45.618 1.26238C45.7928 1.3592 45.9457 1.48022 46.0769 1.62545C46.2517 1.77067 46.4046 1.9159 46.5358 2.06112C46.7106 2.20635 46.8635 2.37577 46.9946 2.56941C47.1258 2.71463 47.235 2.88406 47.3224 3.07769C47.4535 3.22292 47.5628 3.39235 47.6502 3.58598C47.6939 3.6828 47.7376 3.80382 47.7813 3.94904C47.8687 4.09427 47.9343 4.2395 47.978 4.38472C48.0217 4.48154 48.0654 4.62676 48.1091 4.8204C48.1528 4.96562 48.1965 5.08664 48.2402 5.18346C48.2402 5.28027 48.2402 5.40129 48.2402 5.54652C48.2839 5.69174 48.3276 5.81276 48.3713 5.90958C48.415 6.0064 48.4369 6.12742 48.4369 6.27264C48.4806 6.36946 48.5024 6.49048 48.5024 6.63571C48.5024 6.73252 48.5243 6.85354 48.568 6.99877C48.6554 8.30579 48.4587 10.581 47.978 13.8243C47.978 13.9212 47.9561 14.0906 47.9124 14.3326C47.9124 14.5263 47.8906 14.7199 47.8469 14.9135C47.8469 15.0588 47.825 15.2282 47.7813 15.4218C47.7376 15.6154 47.6939 15.8091 47.6502 16.0027C47.6502 16.1479 47.6283 16.3174 47.5846 16.511C47.5846 16.6078 47.5628 16.7288 47.5191 16.8741C47.5191 16.9709 47.4972 17.0677 47.4535 17.1645C47.4535 17.2613 47.4317 17.3824 47.388 17.5276C47.388 17.6244 47.3661 17.7454 47.3224 17.8906C47.3224 17.9875 47.3006 18.1085 47.2569 18.2537C47.2132 18.3505 47.1695 18.4473 47.1258 18.5442C47.1258 18.641 47.1039 18.762 47.0602 18.9072C47.0602 19.004 47.0602 19.1251 47.0602 19.2703C46.9728 19.4155 46.8417 19.7544 46.6669 20.2869C46.5357 20.7709 46.4265 21.134 46.3391 21.376C46.2954 21.5697 46.208 21.8843 46.0769 22.32C45.9457 22.7073 45.8146 23.0703 45.6835 23.4092C45.5524 23.748 45.4213 24.0627 45.2902 24.3532C44.1102 27.4029 42.4276 30.6462 40.2424 34.0832C40.0238 34.3253 39.7616 34.4463 39.4557 34.4463C39.1935 34.3979 38.9312 34.2527 38.669 34.0106C38.0134 33.3813 37.8605 32.8246 38.2101 32.3405ZM6.34979 87.9617C8.36018 86.0253 9.80242 84.4037 10.6765 83.0966C10.8513 82.8062 11.3758 81.8622 12.2498 80.2648C13.2987 78.3768 13.9543 77.1424 14.2165 76.5615C14.1291 76.5615 14.0417 76.5615 13.9543 76.5615C13.9106 76.6099 13.845 76.6341 13.7576 76.6341C13.6265 76.6825 13.4517 76.7552 13.2332 76.852C9.43093 78.1106 6.74313 79.4176 5.16978 80.773C4.73274 81.1603 4.42681 81.475 4.25199 81.717C4.16458 81.8622 4.07717 81.9833 3.98977 82.0801C3.90236 82.2253 3.81495 82.3947 3.72754 82.5884C3.64013 82.782 3.57458 82.9272 3.53087 83.024C3.31235 83.6533 3.15939 84.1132 3.07198 84.4037C2.94087 84.6941 2.85346 85.0572 2.80975 85.4929C2.72235 85.9285 2.72235 86.34 2.80975 86.7273C2.89716 87.1629 3.05013 87.6228 3.26865 88.1069C3.57458 88.4458 3.90236 88.712 4.25199 88.9056C4.29569 88.9056 4.36125 88.9298 4.44866 88.9783C4.49236 89.0267 4.55792 89.0509 4.64533 89.0509L4.71088 89.1961C4.92941 89.1477 5.47571 88.7362 6.34979 87.9617Z" stroke="black" stroke-width="0.2" mask="url(#path-1-outside-1_8122_5671)"/>
<path d="M48.4487 57.7549C49.7161 58.0937 50.8524 58.2632 51.8576 58.2632C52.9065 58.2632 54.1302 58.118 55.5287 57.8275C56.971 57.4886 58.2165 57.1498 59.2654 56.8109C60.358 56.4721 61.5818 56.109 62.9366 55.7217C64.2914 55.2861 65.4277 54.9956 66.3455 54.8504C68.1374 54.5115 69.077 54.802 69.1644 55.7217C69.2518 56.3026 68.9896 56.7141 68.3777 56.9562C68.0718 57.053 67.7659 57.0046 67.46 56.8109C66.0177 56.9562 63.8544 57.295 60.9699 57.8275C58.1291 58.3116 56.3373 58.6262 55.5943 58.7715C55.2884 58.8199 54.6328 58.9409 53.6276 59.1345C52.6661 59.3282 51.8139 59.4976 51.0709 59.6428C50.3716 59.7396 49.6068 59.7638 48.7764 59.7154C47.9461 59.667 47.3123 59.4734 46.8753 59.1345C46.0886 58.5052 46.0886 57.4644 46.8753 56.0122C46.5694 56.2058 46.3072 56.3753 46.0886 56.5205C45.9138 56.6173 45.7609 56.7141 45.6297 56.8109C45.5423 56.8593 45.4549 56.9319 45.3675 57.0288C45.3238 57.0772 45.2801 57.1014 45.2364 57.1014C45.2364 57.1014 45.2146 57.1256 45.1708 57.174C45.1271 57.174 45.1053 57.174 45.1053 57.174C45.1053 57.174 45.0397 57.1982 44.9086 57.2466C44.8212 57.295 44.7338 57.3434 44.6464 57.3918C44.559 57.4402 44.406 57.5371 44.1875 57.6823C43.969 57.7791 43.7286 57.9001 43.4664 58.0453C42.0679 58.5294 40.7567 58.8683 39.533 59.0619C39.4893 59.1103 39.3363 59.1587 39.0741 59.2071C38.8119 59.2555 38.6152 59.2798 38.4841 59.2798C37.916 59.1829 37.4134 58.9893 36.9763 58.6988C36.9763 58.6988 36.9108 58.481 36.7797 58.0453C36.7797 57.9485 36.7797 57.8275 36.7797 57.6823C36.7359 57.5371 36.7141 57.4402 36.7141 57.3918C36.7141 57.295 36.7141 57.174 36.7141 57.0288C36.8015 56.6415 36.9763 56.2784 37.2385 55.9396C37.5008 55.6007 37.6974 55.3587 37.8286 55.2135C38.0034 55.0682 38.353 54.8504 38.8775 54.5599C39.4019 54.2211 39.686 54.0274 39.7297 53.979C39.8608 53.8822 40.0793 53.7128 40.3852 53.4708C40.6912 53.1803 40.9753 52.9383 41.2375 52.7446C41.4997 52.551 41.7401 52.4058 41.9586 52.309C42.5267 52.0669 43.3571 51.8975 44.4497 51.8007C45.586 51.7038 46.3509 51.607 46.7442 51.5102C47.1812 51.5102 47.3998 51.8491 47.3998 52.5268C47.3998 53.2045 47.1812 53.5434 46.7442 53.5434C46.5694 53.5434 46.1542 53.5918 45.4986 53.6886C44.8431 53.737 44.2968 53.8096 43.8597 53.9064C43.4227 54.0032 43.0075 54.1727 42.6142 54.4147C42.483 54.5115 42.3082 54.681 42.0897 54.923C41.9149 55.1166 41.7838 55.2377 41.6964 55.2861C41.609 55.3345 41.5215 55.4071 41.4341 55.5039C41.3467 55.5523 41.2375 55.6249 41.1064 55.7217C41.019 55.7701 40.9534 55.8186 40.9097 55.867C40.8223 55.9638 40.5819 56.109 40.1886 56.3026C39.8389 56.4963 39.5767 56.6657 39.4019 56.8109C40.4508 56.7141 41.609 56.4721 42.8764 56.0848C43.1386 55.9396 43.4008 55.8186 43.6631 55.7217C43.969 55.5765 44.1438 55.5039 44.1875 55.5039C44.2312 55.4555 44.3186 55.4071 44.4497 55.3587C44.5808 55.2619 44.6682 55.1892 44.712 55.1408C44.7557 55.0924 44.8868 54.9956 45.1053 54.8504C45.3675 54.7052 45.6297 54.5357 45.892 54.3421C45.9794 54.2937 46.1979 54.1727 46.5475 53.979C46.8972 53.737 47.1594 53.5434 47.3342 53.3981C47.6401 53.2045 48.0553 52.8657 48.5798 52.3816C49.1042 51.8975 49.5194 51.5586 49.8253 51.365C50.2187 51.0745 50.5902 50.9777 50.9398 51.0745C51.2894 51.1229 51.5735 51.365 51.792 51.8007C52.0105 52.1879 52.0324 52.5994 51.8576 53.0351C51.7702 53.2771 51.6609 53.495 51.5298 53.6886C51.4424 53.8338 51.3768 53.9548 51.3331 54.0517C51.2894 54.1001 51.1365 54.2211 50.8742 54.4147C50.6557 54.6083 50.5028 54.7536 50.4153 54.8504C49.9346 55.2377 49.279 56.2058 48.4487 57.7549Z" stroke="black" stroke-width="0.2" mask="url(#path-1-outside-1_8122_5671)"/>
<path d="M82.1635 55.7943C82.9065 55.7459 83.715 55.6491 84.5891 55.5039C85.4632 55.3587 86.4247 55.1892 87.4736 54.9956C88.5225 54.802 89.3528 54.6568 89.9647 54.5599C90.358 54.4631 90.6421 54.5841 90.8169 54.923C90.9917 55.2135 90.9917 55.5281 90.8169 55.867C90.6858 56.2058 90.4236 56.3995 90.0302 56.4479C87.3206 56.7383 84.7202 56.9319 82.2291 57.0288C78.2957 57.0772 75.586 56.4963 74.1001 55.2861C74.0127 55.1892 73.9034 55.0924 73.7723 54.9956C73.6849 55.0924 73.5319 55.2861 73.3134 55.5765C73.0512 55.7701 72.636 56.0606 72.0678 56.4479C71.5434 56.7867 71.2156 57.0046 71.0845 57.1014C71.0408 57.1498 70.8223 57.3676 70.4289 57.7549C70.0356 58.1422 69.533 58.4568 68.9211 58.6988C67.2604 58.7473 66.6922 57.5371 67.2167 55.0682C67.3915 54.0517 67.4789 53.5434 67.4789 53.5434C67.5226 53.495 67.6319 53.2287 67.8067 52.7446C68.0252 52.2605 68.2219 51.7765 68.3967 51.2924C68.6152 50.8083 68.7245 50.5663 68.7245 50.5663C68.8119 50.3726 68.9211 50.058 69.0523 49.6223C69.2271 49.1866 69.3582 48.8478 69.4456 48.6057C69.5767 48.3153 69.8389 47.686 70.2323 46.7178C70.6693 45.7496 70.9752 44.9993 71.1501 44.4668C72.3738 41.3203 74.1001 37.4234 76.329 32.7762C76.8971 31.9533 77.1812 31.5418 77.1812 31.5418C77.7931 30.9125 78.4486 30.5736 79.1479 30.5252C79.5412 30.4768 79.869 30.4768 80.1313 30.5252C80.4372 30.5252 80.6776 30.622 80.8524 30.8157C81.0709 31.0093 81.2676 31.3239 81.4424 31.7596C81.4861 31.8564 81.5298 31.9775 81.5735 32.1227C81.6172 32.2195 81.6609 32.3405 81.7046 32.4857C81.7483 32.5826 81.7702 32.6794 81.7702 32.7762C81.8576 33.1635 81.9013 33.5507 81.9013 33.938C81.945 34.2769 81.9231 34.6883 81.8357 35.1724C81.792 35.6081 81.7265 35.9469 81.639 36.189C81.5953 36.431 81.4861 36.8425 81.3113 37.4234C81.1802 38.0043 81.1146 38.3432 81.1146 38.44C80.6339 39.6018 80.3935 40.1827 80.3935 40.1827C80.175 40.6183 79.432 41.7801 78.1646 43.6681C78.0335 43.8617 77.8149 44.2006 77.509 44.6846C77.2031 45.1203 76.9627 45.4592 76.7879 45.7012C76.5694 46.0401 76.1323 46.6452 75.4768 47.5165C74.8212 48.3395 74.3186 48.993 73.969 49.4771C71.303 52.8172 69.6641 54.9472 69.0523 55.867C69.1834 55.7217 69.4674 55.5039 69.9045 55.2135C71.1282 54.3905 71.8056 53.9064 71.9367 53.7612C72.7671 52.551 73.6412 52.1395 74.559 52.5268L75.2145 53.0351C75.2145 53.0835 75.2582 53.1561 75.3457 53.2529C75.4331 53.3013 75.4986 53.3739 75.5423 53.4708C75.586 53.5192 75.6297 53.5676 75.6734 53.616C76.5475 55.3103 78.7109 56.0364 82.1635 55.7943ZM70.5601 50.9293C70.8223 50.5905 71.1938 50.1064 71.6745 49.4771C72.199 48.8478 72.5486 48.4363 72.7234 48.2427C73.0293 47.7102 73.5101 47.0324 74.1656 46.2095C74.8649 45.3866 75.3238 44.8299 75.5423 44.5394C75.6734 44.3458 75.8045 44.1521 75.9357 43.9585C76.0668 43.7165 76.1979 43.4744 76.329 43.2324C76.5038 42.9419 76.6349 42.7241 76.7223 42.5789C77.946 40.7394 78.6672 39.5776 78.8857 39.0935C78.9294 38.9483 78.9731 38.803 79.0168 38.6578C79.1042 38.5126 79.1698 38.3432 79.2135 38.1495C79.2572 37.9075 79.3009 37.738 79.3446 37.6412C79.7379 36.0438 79.8909 34.7851 79.8035 33.8654C79.8035 33.6717 79.7816 33.4781 79.7379 33.2845C79.7379 33.1393 79.6942 33.0182 79.6068 32.9214C79.5631 32.8246 79.5412 32.752 79.5412 32.7036C79.4975 32.7036 79.4757 32.6552 79.4757 32.5584C79.3883 32.4131 79.3227 32.3163 79.279 32.2679L79.3446 32.4131C79.432 32.6552 79.4538 32.8004 79.4101 32.8488C79.3664 32.8488 79.3009 32.873 79.2135 32.9214C79.1698 32.9214 79.1042 32.9214 79.0168 32.9214C78.9294 32.9214 78.8638 32.9456 78.8201 32.994C78.6016 33.0909 78.2957 33.4781 77.9023 34.1558C76.1542 37.3024 74.4279 40.9814 72.7234 45.1929C72.5923 45.6286 72.4175 46.0885 72.199 46.5726C72.0241 47.0567 71.8056 47.5649 71.5434 48.0974C71.3249 48.6299 71.1501 49.0656 71.0189 49.4045C71.0189 49.4529 70.866 49.9612 70.5601 50.9293Z" stroke="black" stroke-width="0.2" mask="url(#path-1-outside-1_8122_5671)"/>
<path d="M94.295 52.8899C94.2513 52.793 94.1639 52.6962 94.0328 52.5994C93.9454 52.4542 93.8798 52.3332 93.8361 52.2363C93.705 52.3816 93.4865 52.5752 93.1805 52.8172C92.8746 53.0593 92.6561 53.2529 92.525 53.3981C92.2627 53.6886 91.935 54.2211 91.5416 54.9956C91.1483 55.7701 90.755 56.2784 90.3616 56.5205C89.9246 56.8109 89.5312 56.8593 89.1816 56.6657C88.832 56.4237 88.6134 56.1332 88.526 55.7943C88.4823 55.4071 88.5479 55.0682 88.7227 54.7778C89.3346 54.1485 89.9464 53.4708 90.5583 52.7446C90.7331 52.551 90.9298 52.3332 91.1483 52.0911C91.2357 51.9459 91.3887 51.7523 91.6072 51.5102C91.8694 51.2682 92.0879 51.0503 92.2627 50.8567C92.4376 50.6631 92.5687 50.4694 92.6561 50.2758C92.6998 50.179 92.7435 50.0822 92.7872 49.9854C92.8309 49.8401 92.8746 49.6949 92.9183 49.5497C92.962 49.4045 93.0057 49.3076 93.0494 49.2592C93.0494 49.114 93.0713 48.993 93.115 48.8962C93.0713 48.4605 93.1368 48.0974 93.3116 47.807C93.3553 47.7586 93.399 47.686 93.4427 47.5891C93.4865 47.4923 93.5302 47.4439 93.5739 47.4439C93.4865 47.2503 93.4646 47.1051 93.5083 47.0082C94.3387 45.6044 94.9942 45.4108 95.475 46.4273C95.8683 47.4439 95.8465 48.3637 95.4094 49.1866C95.4531 49.4771 95.475 49.9369 95.475 50.5663C95.475 50.6147 95.475 50.6389 95.475 50.6389C95.7809 51.4618 96.1743 52.1637 96.655 52.7446C97.1357 53.3255 97.6165 53.8338 98.0972 54.2695C98.578 54.6568 99.1898 54.9472 99.9328 55.1408C100.676 55.3345 101.288 55.5039 101.768 55.6491C102.249 55.7459 102.948 55.7701 103.866 55.7217C104.784 55.6733 105.44 55.6491 105.833 55.6491C106.226 55.6007 106.882 55.4797 107.8 55.2861C108.761 55.0924 109.329 54.9714 109.504 54.923C109.723 54.8746 110.269 54.7536 111.143 54.5599C111.449 54.4631 111.842 54.4147 112.323 54.4147C112.76 54.4147 113.263 54.4873 113.831 54.6326C114.355 54.5841 114.683 54.9714 114.814 55.7943C114.945 56.6173 114.749 57.053 114.224 57.1014C114.093 57.1014 113.962 57.0772 113.831 57.0288C113.787 57.0288 113.547 57.0288 113.11 57.0288C112.979 57.0772 112.804 57.1014 112.585 57.1014C112.41 57.1014 112.257 57.1014 112.126 57.1014C111.864 57.1498 111.667 57.0046 111.536 56.6657C111.361 56.6657 111.274 56.6657 111.274 56.6657C110.618 56.7141 109.635 56.7867 108.324 56.8835C107.013 56.9804 105.964 57.053 105.177 57.1014C104.391 57.1498 103.407 57.1256 102.227 57.0288C101.091 56.9319 100.108 56.7625 99.2773 56.5205C98.4469 56.23 97.5728 55.7943 96.655 55.2135C95.7809 54.5841 94.9942 53.8096 94.295 52.8899ZM95.9339 37.7865C97.8132 37.4476 98.9058 37.254 99.2117 37.2056C99.4302 37.1572 99.605 37.254 99.7361 37.496C99.8673 37.738 99.911 38.0043 99.8673 38.2947C99.8236 38.5368 99.7143 38.682 99.5395 38.7304H99.4084L99.3428 38.803H99.1461L99.0806 38.8756H98.8839L98.8184 38.9483H98.6217L98.5561 39.0209H98.3595L98.2939 39.0935H98.0972L98.0317 39.1661H97.835L97.7695 39.2387H97.5728L97.5072 39.3113H97.3106L97.245 39.3839H96.9828L96.9172 39.4565H96.7206L96.655 39.5292H96.4583L96.3928 39.6018H96.2617C96.0431 39.6502 95.8465 39.5292 95.6717 39.2387C95.5406 38.9483 95.4968 38.6578 95.5406 38.3674C95.5843 38.0285 95.7154 37.8349 95.9339 37.7865Z" stroke="black" stroke-width="0.2" mask="url(#path-1-outside-1_8122_5671)"/>
<path d="M113.976 52.9625C115.505 52.3332 116.401 51.8733 116.663 51.5828C116.401 51.0987 115.615 50.9293 114.303 51.0745C113.735 51.1229 113.342 51.2682 113.123 51.5102C112.949 51.7523 112.927 52.0911 113.058 52.5268C113.189 52.9141 113.386 53.1803 113.648 53.3255C113.692 53.1803 113.801 53.0593 113.976 52.9625ZM137.051 56.3026C135.391 56.3026 133.249 56.4963 130.627 56.8835C128.005 57.2708 125.732 57.6339 123.809 57.9727C121.93 58.2632 119.919 58.2632 117.778 57.9727C115.68 57.6823 113.954 56.9319 112.599 55.7217C111.244 54.6083 110.61 53.3013 110.698 51.8007C110.698 50.7841 111.179 49.9854 112.14 49.4045C113.058 48.8236 114.129 48.5573 115.352 48.6057C116.576 48.6541 117.559 49.0414 118.302 49.7675C118.914 50.3484 119.176 50.8567 119.089 51.2924C119.002 51.7765 118.761 52.2363 118.368 52.672C117.975 53.1077 117.516 53.4708 116.991 53.7612C116.467 54.0517 115.899 54.2937 115.287 54.4873C115.593 55.4555 116.379 56.1332 117.647 56.5205C118.914 56.8593 120.444 56.9562 122.236 56.8109C124.071 56.6173 125.863 56.3753 127.611 56.0848C129.403 55.7459 131.217 55.3829 133.053 54.9956C134.932 54.6083 136.243 54.3905 136.986 54.3421C138.079 53.8096 138.756 53.9306 139.018 54.7052C139.237 55.3345 138.996 55.8186 138.297 56.1574C137.947 56.3026 137.532 56.351 137.051 56.3026Z" stroke="black" stroke-width="0.2" mask="url(#path-1-outside-1_8122_5671)"/>
<path d="M151.795 58.9893C150.878 58.3116 150.135 57.0046 149.567 55.0682C149.173 55.3587 148.671 55.7943 148.059 56.3753C147.928 56.4721 147.665 56.6899 147.272 57.0288C146.922 57.3192 146.595 57.6097 146.289 57.9001C145.983 58.1422 145.589 58.4568 145.109 58.8441C144.628 59.1829 144.169 59.4976 143.732 59.788C143.295 60.0785 142.814 60.3689 142.29 60.6594C141.765 60.9014 141.241 61.0951 140.716 61.2403C140.585 61.2403 140.389 61.2645 140.126 61.3129C139.908 61.3613 139.711 61.4097 139.536 61.4581C139.362 61.4581 139.165 61.4581 138.946 61.4581C138.728 61.4581 138.509 61.4581 138.291 61.4581C138.116 61.4097 137.963 61.3613 137.832 61.3129C136.739 60.8288 136.412 59.6912 136.849 57.9001C136.936 57.5128 137.067 57.1498 137.242 56.8109C137.504 56.23 137.876 55.6249 138.356 54.9956C138.881 54.3663 139.252 53.8822 139.471 53.5434C139.864 52.9141 140.411 52.9625 141.11 53.6886C141.678 54.3663 141.7 54.923 141.175 55.3587C140.258 55.988 139.558 56.8593 139.078 57.9727C138.684 58.8925 138.903 59.3282 139.733 59.2798C140.17 59.2313 140.76 59.0377 141.503 58.6988C141.765 58.602 142.028 58.481 142.29 58.3358C142.596 58.1906 142.88 58.0211 143.142 57.8275C143.448 57.5855 143.688 57.3918 143.863 57.2466C144.082 57.1014 144.366 56.8835 144.715 56.5931C145.065 56.3026 145.305 56.109 145.437 56.0122C145.568 55.867 145.808 55.6249 146.158 55.2861C146.551 54.8988 146.791 54.681 146.879 54.6326C147.316 54.1969 147.84 53.7128 148.452 53.1803C148.758 52.8899 148.977 52.7204 149.108 52.672C149.239 52.5752 149.457 52.4784 149.763 52.3816C150.113 52.2363 150.419 52.2363 150.681 52.3816C150.725 52.43 150.768 52.4784 150.812 52.5268C150.856 52.5752 150.9 52.6236 150.943 52.672C151.031 52.7204 151.074 52.7688 151.074 52.8172C151.118 52.8172 151.162 52.8414 151.205 52.8899C151.249 52.9867 151.293 53.0593 151.337 53.1077C151.468 53.5434 151.599 54.1001 151.73 54.7778C151.861 55.4071 151.97 55.867 152.058 56.1574C152.145 56.3995 152.364 56.7141 152.713 57.1014C153.107 57.4886 153.631 57.8517 154.287 58.1906C155.423 58.7715 156.843 59.1103 158.548 59.2071C160.296 59.2555 162.11 59.1345 163.989 58.8441C165.912 58.5052 167.747 58.1422 169.496 57.7549C171.244 57.3192 172.97 56.8835 174.675 56.4479C176.423 55.9638 177.668 55.6733 178.411 55.5765C178.499 55.1892 178.695 54.9714 179.001 54.923C179.307 54.923 179.744 54.8988 180.312 54.8504C180.881 54.7536 181.383 54.681 181.82 54.6326C182.301 54.5841 182.76 54.5841 183.197 54.6326C183.241 54.681 183.328 54.7536 183.459 54.8504C183.59 54.8988 183.678 54.9714 183.721 55.0682C183.809 55.1166 183.874 55.1892 183.918 55.2861C184.137 56.0122 184.158 56.5205 183.984 56.8109C183.809 57.053 183.415 57.3192 182.804 57.6097C182.716 57.6581 182.454 57.6097 182.017 57.4644C181.58 57.3192 181.318 57.295 181.23 57.3918C180.05 57.3918 179.154 57.416 178.542 57.4644C177.712 57.5613 176.313 57.8275 174.347 58.2632C172.38 58.6504 170.392 59.0377 168.381 59.425C166.371 59.7638 164.273 60.0785 162.088 60.3689C159.946 60.6594 157.958 60.7078 156.122 60.5142C154.287 60.2721 152.844 59.7638 151.795 58.9893Z" stroke="black" stroke-width="0.2" mask="url(#path-1-outside-1_8122_5671)"/>
</svg>
