<svg width="102" height="46" viewBox="0 0 102 46" fill="none" xmlns="http://www.w3.org/2000/svg">
<mask id="path-1-outside-1_8007_6372" maskUnits="userSpaceOnUse" x="-0.900391" y="-0.899414" width="103" height="47" fill="black">
<rect fill="white" x="-0.900391" y="-0.899414" width="103" height="47"/>
<path d="M21.0276 16.0846C22.1796 14.7646 23.1036 13.2646 23.7996 11.5846C23.8236 11.5126 23.8476 11.4286 23.8716 11.3326C23.9196 11.2366 23.9556 11.1406 23.9796 11.0446C24.0276 10.9486 24.0756 10.8406 24.1236 10.7206C24.1716 10.6006 24.2076 10.4926 24.2316 10.3966C24.2556 10.3006 24.2916 10.1926 24.3396 10.0726C24.3876 9.95259 24.4236 9.85658 24.4476 9.78459C24.4716 9.68859 24.5076 9.58059 24.5556 9.46059C24.6036 9.34059 24.6396 9.24459 24.6636 9.17258C24.8556 8.35658 24.9516 7.94859 24.9516 7.94859C24.9756 7.75659 25.0356 7.33659 25.1316 6.68858C25.2516 5.94458 25.3236 5.41658 25.3476 5.10459C25.3716 4.79259 25.3596 4.27659 25.3116 3.55658C25.3116 3.50858 25.2996 3.46058 25.2756 3.41258C25.2756 3.34058 25.2636 3.29259 25.2396 3.26859C25.2396 3.22059 25.2276 3.17259 25.2036 3.12459C25.1796 3.05259 25.1556 2.99259 25.1316 2.94459C24.9876 2.60859 24.9156 2.44059 24.9156 2.44059C24.6036 1.98458 24.1956 1.68458 23.6916 1.54058C23.6196 1.51658 23.3796 1.54059 22.9716 1.61259C22.6596 1.78059 22.5036 1.86458 22.5036 1.86458C22.4076 1.93659 22.2996 2.02059 22.1796 2.11659C22.0836 2.18858 21.9756 2.28458 21.8556 2.40458C21.4956 2.76459 21.1716 3.13659 20.8836 3.52058C20.5956 3.88058 20.3196 4.26458 20.0556 4.67259C19.8156 5.08059 19.5996 5.51259 19.4076 5.96859C19.4076 5.96859 19.1676 6.59259 18.6876 7.84058C18.1356 9.30458 17.8596 10.0366 17.8596 10.0366C17.5956 10.7806 17.1756 12.2446 16.5996 14.4286C16.5516 14.5726 16.5276 14.6806 16.5276 14.7526C16.4316 15.1126 16.1196 16.2766 15.5916 18.2446C15.0636 20.1886 14.6556 21.6766 14.3676 22.7086C13.1916 27.1726 12.1596 30.5686 11.2716 32.8966C11.1996 33.0646 10.6836 34.2646 9.72361 36.4966C12.2916 36.1366 14.5956 35.9086 16.6356 35.8126C17.9556 35.7406 20.0796 35.7406 23.0076 35.8126C24.4236 35.8606 26.0316 35.8966 27.8316 35.9206C29.6316 35.9686 31.4436 36.0046 33.2676 36.0286C35.1156 36.0526 36.7356 36.0886 38.1276 36.1366C39.5676 36.2086 42.1596 36.3766 45.9036 36.6406C48.4476 36.7846 50.9196 36.8806 53.3196 36.9286C55.7196 37.0006 58.0836 37.0126 60.4116 36.9646C60.5556 36.9646 60.7116 36.9646 60.8796 36.9646C61.0476 36.9646 61.2036 36.9646 61.3476 36.9646C61.4916 36.9646 61.6476 36.9646 61.8156 36.9646C61.9836 36.9646 62.1396 36.9646 62.2836 36.9646C62.4516 36.9646 62.6196 36.9526 62.7876 36.9286C62.9556 36.9286 63.1116 36.9286 63.2556 36.9286C63.4236 36.9286 63.5796 36.9286 63.7236 36.9286C63.9636 36.9046 64.2156 36.8806 64.4796 36.8566C64.7676 36.8566 65.0196 36.8446 65.2356 36.8206C65.4516 36.8206 65.7036 36.8086 65.9916 36.7846C66.3036 36.7606 66.5556 36.7366 66.7476 36.7126C66.9156 36.7126 67.1796 36.6886 67.5396 36.6406C72.2196 36.1606 75.6876 35.6086 77.9436 34.9846C78.0876 34.9606 78.2316 34.9246 78.3756 34.8766C78.5196 34.8286 78.6876 34.7686 78.8796 34.6966C79.0716 34.6486 79.2156 34.6006 79.3116 34.5526C79.4076 34.5286 79.5036 34.4926 79.5996 34.4446C79.6956 34.4206 79.8036 34.3846 79.9236 34.3366C80.0436 34.3126 80.1276 34.2886 80.1756 34.2646C80.2476 34.2406 80.3676 34.2046 80.5356 34.1566C80.7036 34.1086 80.7996 34.0846 80.8236 34.0846C80.7276 34.0606 80.4396 34.0486 79.9596 34.0486C79.6476 34.0246 79.4916 33.7846 79.4916 33.3286C79.4916 33.1366 79.5396 32.9686 79.6356 32.8246C79.7316 32.6806 79.8636 32.6086 80.0316 32.6086C80.8716 32.6326 81.6276 32.7646 82.2996 33.0046C82.2996 33.0046 82.3716 33.0166 82.5156 33.0406C82.6836 33.0886 82.8036 33.1366 82.8756 33.1846C82.8756 33.1846 83.0796 33.3646 83.4876 33.7246C83.4876 33.7486 83.4876 33.7726 83.4876 33.7966C83.4876 33.8446 83.4756 33.9166 83.4516 34.0126C83.4516 34.1326 83.4396 34.2286 83.4156 34.3006C83.4156 34.3726 83.4036 34.4446 83.3796 34.5166C83.3556 34.6126 83.3196 34.7086 83.2716 34.8046C83.2476 34.8526 83.1876 34.8886 83.0916 34.9126C83.0196 34.9606 82.9476 34.9846 82.8756 34.9846C82.8276 35.0086 82.7556 35.0206 82.6596 35.0206C82.5876 35.0206 82.5396 35.0206 82.5156 35.0206C82.1556 35.0926 81.6516 35.2126 81.0036 35.3806C80.3556 35.5726 79.8996 35.7046 79.6356 35.7766C78.6756 36.0166 78.1956 36.1366 78.1956 36.1366C75.8916 36.6406 72.0876 37.1206 66.7836 37.5766C64.7676 37.6486 63.7596 37.6846 63.7596 37.6846C61.8876 37.7326 59.8956 37.7446 57.7836 37.7206C55.6716 37.6966 53.6796 37.6486 51.8076 37.5766C49.9356 37.5046 47.9556 37.4086 45.8676 37.2886C45.5556 37.2646 45.1596 37.2286 44.6796 37.1806C44.2236 37.1566 43.8516 37.1326 43.5636 37.1086C43.2756 37.0846 42.9276 37.0606 42.5196 37.0366C42.1116 37.0126 41.7516 36.9886 41.4396 36.9646C41.1276 36.9406 40.7796 36.9166 40.3956 36.8926C40.0116 36.8686 39.6276 36.8446 39.2436 36.8206C38.8836 36.7966 38.4996 36.7846 38.0916 36.7846C36.6516 36.7126 35.0436 36.6646 33.2676 36.6406C31.5156 36.6406 29.6916 36.6406 27.7956 36.6406C25.9236 36.6406 24.3276 36.6166 23.0076 36.5686C19.9116 36.5926 17.8116 36.6406 16.7076 36.7126C14.6196 36.8566 12.1116 37.2046 9.18361 37.7566C8.89561 38.3566 8.70361 38.7406 8.60761 38.9086C8.53561 39.0766 8.24761 39.5926 7.74361 40.4566C7.28761 41.2486 7.01161 41.7166 6.91561 41.8606C6.38761 42.6526 5.57161 43.5886 4.46761 44.6686C4.22761 44.9086 4.04761 45.0766 3.92761 45.1726C3.80761 45.2926 3.62761 45.4126 3.38761 45.5326C3.14761 45.6526 2.89561 45.7126 2.63161 45.7126C2.17561 45.7126 1.58761 45.4366 0.867609 44.8846V44.8486C0.843609 44.8246 0.807609 44.7646 0.759609 44.6686C0.687609 44.5966 0.627609 44.5246 0.579609 44.4526C0.531609 44.3806 0.483609 44.3206 0.43561 44.2726C0.339609 44.0326 0.267609 43.7926 0.219609 43.5526C0.147609 43.3126 0.111609 43.0606 0.111609 42.7966C0.0876094 42.5566 0.0996094 42.3166 0.147609 42.0766C0.195609 41.8366 0.267609 41.5966 0.363609 41.3566C0.387609 41.2366 0.459609 41.0686 0.579609 40.8526C0.627609 40.7566 0.663609 40.6846 0.687609 40.6366V40.6006C1.02361 40.0966 1.19161 39.8446 1.19161 39.8446C1.52761 39.4126 1.92361 39.0406 2.37961 38.7286C2.81161 38.4166 3.37561 38.1286 4.07161 37.8646C4.76761 37.6246 5.25961 37.4566 5.54761 37.3606C5.83561 37.2886 6.41161 37.1326 7.27561 36.8926C7.68361 36.8206 8.07961 36.7606 8.46361 36.7126C8.51161 36.6406 8.54761 36.5686 8.57161 36.4966C8.59561 36.4486 8.66761 36.2806 8.78761 35.9926C8.90761 35.7286 9.01561 35.4886 9.11161 35.2726C9.20761 35.0806 9.31561 34.8286 9.43561 34.5166C9.57961 34.2046 9.69961 33.9406 9.79561 33.7246C9.91561 33.5086 10.0236 33.2806 10.1196 33.0406C10.2156 32.8246 10.2876 32.6566 10.3356 32.5366C11.0076 30.8806 11.5716 29.3086 12.0276 27.8206C12.0516 27.7246 12.3036 26.8486 12.7836 25.1926C12.8316 24.9766 12.8916 24.7486 12.9636 24.5086C13.0356 24.2446 13.0956 24.0166 13.1436 23.8246C13.1916 23.6326 13.2516 23.4046 13.3236 23.1406C13.3956 22.8766 13.4556 22.6606 13.5036 22.4926C14.0796 20.3086 14.5476 18.5086 14.9076 17.0926C15.0036 16.7806 15.1236 16.3246 15.2676 15.7246C15.5796 14.4766 15.8196 13.5166 15.9876 12.8446C16.1556 12.1726 16.3956 11.3206 16.7076 10.2886C17.0196 9.23258 17.3316 8.29659 17.6436 7.48059C17.6916 7.31258 17.7636 7.09658 17.8596 6.83259C17.9556 6.56859 18.0396 6.32859 18.1116 6.11259C18.1836 5.87259 18.2676 5.65659 18.3636 5.46459C18.5556 4.96058 18.7836 4.48058 19.0476 4.02458C19.3116 3.54459 19.5996 3.08859 19.9116 2.65659C20.2236 2.20059 20.5716 1.78059 20.9556 1.39658C21.3156 1.01258 21.6156 0.748585 21.8556 0.604586C21.8556 0.604586 22.1676 0.460586 22.7916 0.172585C23.3196 0.124586 23.5836 0.100586 23.5836 0.100586C23.7036 0.100586 23.8116 0.112586 23.9076 0.136585C24.0276 0.160585 24.1356 0.184585 24.2316 0.208585C24.3276 0.232584 24.4236 0.268584 24.5196 0.316585C24.6156 0.364585 24.7116 0.424585 24.8076 0.496585C24.9036 0.544585 24.9996 0.604584 25.0956 0.676585C25.1916 0.724584 25.2756 0.784584 25.3476 0.856585C25.4436 0.928585 25.5276 1.00059 25.5996 1.07258C25.6956 1.14458 25.7796 1.22859 25.8516 1.32459C25.9236 1.39659 25.9836 1.48059 26.0316 1.57658C26.1036 1.64858 26.1636 1.73258 26.2116 1.82859C26.2356 1.87658 26.2596 1.93658 26.2836 2.00858C26.3316 2.08059 26.3676 2.15259 26.3916 2.22458C26.4156 2.27259 26.4396 2.34459 26.4636 2.44059C26.4876 2.51258 26.5116 2.57258 26.5356 2.62059C26.5356 2.66859 26.5356 2.72859 26.5356 2.80059C26.5596 2.87258 26.5836 2.93258 26.6076 2.98059C26.6316 3.02858 26.6436 3.08858 26.6436 3.16059C26.6676 3.20858 26.6796 3.26858 26.6796 3.34058C26.6796 3.38858 26.6916 3.44858 26.7156 3.52058C26.7636 4.16858 26.6556 5.29658 26.3916 6.90458C26.3916 6.95258 26.3796 7.03659 26.3556 7.15659C26.3556 7.25259 26.3436 7.34859 26.3196 7.44459C26.3196 7.51658 26.3076 7.60058 26.2836 7.69658C26.2596 7.79258 26.2356 7.88859 26.2116 7.98459C26.2116 8.05659 26.1996 8.14059 26.1756 8.23659C26.1756 8.28459 26.1636 8.34459 26.1396 8.41659C26.1396 8.46459 26.1276 8.51258 26.1036 8.56058C26.1036 8.60859 26.0916 8.66859 26.0676 8.74059C26.0676 8.78859 26.0556 8.84859 26.0316 8.92059C26.0316 8.96859 26.0196 9.02859 25.9956 9.10059C25.9716 9.14859 25.9476 9.19658 25.9236 9.24459C25.9236 9.29259 25.9116 9.35259 25.8876 9.42459C25.8876 9.47259 25.8876 9.53259 25.8876 9.60459C25.8396 9.67658 25.7676 9.84458 25.6716 10.1086C25.5996 10.3486 25.5396 10.5286 25.4916 10.6486C25.4676 10.7446 25.4196 10.9006 25.3476 11.1166C25.2756 11.3086 25.2036 11.4886 25.1316 11.6566C25.0596 11.8246 24.9876 11.9806 24.9156 12.1246C24.2676 13.6366 23.3436 15.2446 22.1436 16.9486C22.0236 17.0686 21.8796 17.1286 21.7116 17.1286C21.5676 17.1046 21.4236 17.0326 21.2796 16.9126C20.9196 16.6006 20.8356 16.3246 21.0276 16.0846ZM3.53161 43.6606C4.63561 42.7006 5.42761 41.8966 5.90761 41.2486C6.00361 41.1046 6.29161 40.6366 6.77161 39.8446C7.34761 38.9086 7.70761 38.2966 7.85161 38.0086C7.80361 38.0086 7.75561 38.0086 7.70761 38.0086C7.68361 38.0326 7.64761 38.0446 7.59961 38.0446C7.52761 38.0686 7.43161 38.1046 7.31161 38.1526C5.22361 38.7766 3.74761 39.4246 2.88361 40.0966C2.64361 40.2886 2.47561 40.4446 2.37961 40.5646C2.33161 40.6366 2.28361 40.6966 2.23561 40.7446C2.18761 40.8166 2.13961 40.9006 2.09161 40.9966C2.04361 41.0926 2.00761 41.1646 1.98361 41.2126C1.86361 41.5246 1.77961 41.7526 1.73161 41.8966C1.65961 42.0406 1.61161 42.2206 1.58761 42.4366C1.53961 42.6526 1.53961 42.8566 1.58761 43.0486C1.63561 43.2646 1.71961 43.4926 1.83961 43.7326C2.00761 43.9006 2.18761 44.0326 2.37961 44.1286C2.40361 44.1286 2.43961 44.1406 2.48761 44.1646C2.51161 44.1886 2.54761 44.2006 2.59561 44.2006L2.63161 44.2726C2.75161 44.2486 3.05161 44.0446 3.53161 43.6606Z"/>
<path d="M26.6501 28.6846C27.3461 28.8526 27.9701 28.9366 28.5221 28.9366C29.0981 28.9366 29.7701 28.8646 30.5381 28.7206C31.3301 28.5526 32.0141 28.3846 32.5901 28.2166C33.1901 28.0486 33.8621 27.8686 34.6061 27.6766C35.3501 27.4606 35.9741 27.3166 36.4781 27.2446C37.4621 27.0766 37.9781 27.2206 38.0261 27.6766C38.0741 27.9646 37.9301 28.1686 37.5941 28.2886C37.4261 28.3366 37.2581 28.3126 37.0901 28.2166C36.2981 28.2886 35.1101 28.4566 33.5261 28.7206C31.9661 28.9606 30.9821 29.1166 30.5741 29.1886C30.4061 29.2126 30.0461 29.2726 29.4941 29.3686C28.9661 29.4646 28.4981 29.5486 28.0901 29.6206C27.7061 29.6686 27.2861 29.6806 26.8301 29.6566C26.3741 29.6326 26.0261 29.5366 25.7861 29.3686C25.3541 29.0566 25.3541 28.5406 25.7861 27.8206C25.6181 27.9166 25.4741 28.0006 25.3541 28.0726C25.2581 28.1206 25.1741 28.1686 25.1021 28.2166C25.0541 28.2406 25.0061 28.2766 24.9581 28.3246C24.9341 28.3486 24.9101 28.3606 24.8861 28.3606C24.8861 28.3606 24.8741 28.3726 24.8501 28.3966C24.8261 28.3966 24.8141 28.3966 24.8141 28.3966C24.8141 28.3966 24.7781 28.4086 24.7061 28.4326C24.6581 28.4566 24.6101 28.4806 24.5621 28.5046C24.5141 28.5286 24.4301 28.5766 24.3101 28.6486C24.1901 28.6966 24.0581 28.7566 23.9141 28.8286C23.1461 29.0686 22.4261 29.2366 21.7541 29.3326C21.7301 29.3566 21.6461 29.3806 21.5021 29.4046C21.3581 29.4286 21.2501 29.4406 21.1781 29.4406C20.8661 29.3926 20.5901 29.2966 20.3501 29.1526C20.3501 29.1526 20.3141 29.0446 20.2421 28.8286C20.2421 28.7806 20.2421 28.7206 20.2421 28.6486C20.2181 28.5766 20.2061 28.5286 20.2061 28.5046C20.2061 28.4566 20.2061 28.3966 20.2061 28.3246C20.2541 28.1326 20.3501 27.9526 20.4941 27.7846C20.6381 27.6166 20.7461 27.4966 20.8181 27.4246C20.9141 27.3526 21.1061 27.2446 21.3941 27.1006C21.6821 26.9326 21.8381 26.8366 21.8621 26.8126C21.9341 26.7646 22.0541 26.6806 22.2221 26.5606C22.3901 26.4166 22.5461 26.2966 22.6901 26.2006C22.8341 26.1046 22.9661 26.0326 23.0861 25.9846C23.3981 25.8646 23.8541 25.7806 24.4541 25.7326C25.0781 25.6846 25.4981 25.6366 25.7141 25.5886C25.9541 25.5886 26.0741 25.7566 26.0741 26.0926C26.0741 26.4286 25.9541 26.5966 25.7141 26.5966C25.6181 26.5966 25.3901 26.6206 25.0301 26.6686C24.6701 26.6926 24.3701 26.7286 24.1301 26.7766C23.8901 26.8246 23.6621 26.9086 23.4461 27.0286C23.3741 27.0766 23.2781 27.1606 23.1581 27.2806C23.0621 27.3766 22.9901 27.4366 22.9421 27.4606C22.8941 27.4846 22.8461 27.5206 22.7981 27.5686C22.7501 27.5926 22.6901 27.6286 22.6181 27.6766C22.5701 27.7006 22.5341 27.7246 22.5101 27.7486C22.4621 27.7966 22.3301 27.8686 22.1141 27.9646C21.9221 28.0606 21.7781 28.1446 21.6821 28.2166C22.2581 28.1686 22.8941 28.0486 23.5901 27.8566C23.7341 27.7846 23.8781 27.7246 24.0221 27.6766C24.1901 27.6046 24.2861 27.5686 24.3101 27.5686C24.3341 27.5446 24.3821 27.5206 24.4541 27.4966C24.5261 27.4486 24.5741 27.4126 24.5981 27.3886C24.6221 27.3646 24.6941 27.3166 24.8141 27.2446C24.9581 27.1726 25.1021 27.0886 25.2461 26.9926C25.2941 26.9686 25.4141 26.9086 25.6061 26.8126C25.7981 26.6926 25.9421 26.5966 26.0381 26.5246C26.2061 26.4286 26.4341 26.2606 26.7221 26.0206C27.0101 25.7806 27.2381 25.6126 27.4061 25.5166C27.6221 25.3726 27.8261 25.3246 28.0181 25.3726C28.2101 25.3966 28.3661 25.5166 28.4861 25.7326C28.6061 25.9246 28.6181 26.1286 28.5221 26.3446C28.4741 26.4646 28.4141 26.5726 28.3421 26.6686C28.2941 26.7406 28.2581 26.8006 28.2341 26.8486C28.2101 26.8726 28.1261 26.9326 27.9821 27.0286C27.8621 27.1246 27.7781 27.1966 27.7301 27.2446C27.4661 27.4366 27.1061 27.9166 26.6501 28.6846Z"/>
<path d="M45.1645 27.7126C45.5725 27.6886 46.0165 27.6406 46.4965 27.5686C46.9765 27.4966 47.5045 27.4126 48.0805 27.3166C48.6565 27.2206 49.1125 27.1486 49.4485 27.1006C49.6645 27.0526 49.8205 27.1126 49.9165 27.2806C50.0125 27.4246 50.0125 27.5806 49.9165 27.7486C49.8445 27.9166 49.7005 28.0126 49.4845 28.0366C47.9965 28.1806 46.5685 28.2766 45.2005 28.3246C43.0405 28.3486 41.5525 28.0606 40.7365 27.4606C40.6885 27.4126 40.6285 27.3646 40.5565 27.3166C40.5085 27.3646 40.4245 27.4606 40.3045 27.6046C40.1605 27.7006 39.9325 27.8446 39.6205 28.0366C39.3325 28.2046 39.1525 28.3126 39.0805 28.3606C39.0565 28.3846 38.9365 28.4926 38.7205 28.6846C38.5045 28.8766 38.2285 29.0326 37.8925 29.1526C36.9805 29.1766 36.6685 28.5766 36.9565 27.3526C37.0525 26.8486 37.1005 26.5966 37.1005 26.5966C37.1245 26.5726 37.1845 26.4406 37.2805 26.2006C37.4005 25.9606 37.5085 25.7206 37.6045 25.4806C37.7245 25.2406 37.7845 25.1206 37.7845 25.1206C37.8325 25.0246 37.8925 24.8686 37.9645 24.6526C38.0605 24.4366 38.1325 24.2686 38.1805 24.1486C38.2525 24.0046 38.3965 23.6926 38.6125 23.2126C38.8525 22.7326 39.0205 22.3606 39.1165 22.0966C39.7885 20.5366 40.7365 18.6046 41.9605 16.3006C42.2725 15.8926 42.4285 15.6886 42.4285 15.6886C42.7645 15.3766 43.1245 15.2086 43.5085 15.1846C43.7245 15.1606 43.9045 15.1606 44.0485 15.1846C44.2165 15.1846 44.3485 15.2326 44.4445 15.3286C44.5645 15.4246 44.6725 15.5806 44.7685 15.7966C44.7925 15.8446 44.8165 15.9046 44.8405 15.9766C44.8645 16.0246 44.8885 16.0846 44.9125 16.1566C44.9365 16.2046 44.9485 16.2526 44.9485 16.3006C44.9965 16.4926 45.0205 16.6846 45.0205 16.8766C45.0445 17.0446 45.0325 17.2486 44.9845 17.4886C44.9605 17.7046 44.9245 17.8726 44.8765 17.9926C44.8525 18.1126 44.7925 18.3166 44.6965 18.6046C44.6245 18.8926 44.5885 19.0606 44.5885 19.1086C44.3245 19.6846 44.1925 19.9726 44.1925 19.9726C44.0725 20.1886 43.6645 20.7646 42.9685 21.7006C42.8965 21.7966 42.7765 21.9646 42.6085 22.2046C42.4405 22.4206 42.3085 22.5886 42.2125 22.7086C42.0925 22.8766 41.8525 23.1766 41.4925 23.6086C41.1325 24.0166 40.8565 24.3406 40.6645 24.5806C39.2005 26.2366 38.3005 27.2926 37.9645 27.7486C38.0365 27.6766 38.1925 27.5686 38.4325 27.4246C39.1045 27.0166 39.4765 26.7766 39.5485 26.7046C40.0045 26.1046 40.4845 25.9006 40.9885 26.0926L41.3485 26.3446C41.3485 26.3686 41.3725 26.4046 41.4205 26.4526C41.4685 26.4766 41.5045 26.5126 41.5285 26.5606C41.5525 26.5846 41.5765 26.6086 41.6005 26.6326C42.0805 27.4726 43.2685 27.8326 45.1645 27.7126ZM38.7925 25.3006C38.9365 25.1326 39.1405 24.8926 39.4045 24.5806C39.6925 24.2686 39.8845 24.0646 39.9805 23.9686C40.1485 23.7046 40.4125 23.3686 40.7725 22.9606C41.1565 22.5526 41.4085 22.2766 41.5285 22.1326C41.6005 22.0366 41.6725 21.9406 41.7445 21.8446C41.8165 21.7246 41.8885 21.6046 41.9605 21.4846C42.0565 21.3406 42.1285 21.2326 42.1765 21.1606C42.8485 20.2486 43.2445 19.6726 43.3645 19.4326C43.3885 19.3606 43.4125 19.2886 43.4365 19.2166C43.4845 19.1446 43.5205 19.0606 43.5445 18.9646C43.5685 18.8446 43.5925 18.7606 43.6165 18.7126C43.8325 17.9206 43.9165 17.2966 43.8685 16.8406C43.8685 16.7446 43.8565 16.6486 43.8325 16.5526C43.8325 16.4806 43.8085 16.4206 43.7605 16.3726C43.7365 16.3246 43.7245 16.2886 43.7245 16.2646C43.7005 16.2646 43.6885 16.2406 43.6885 16.1926C43.6405 16.1206 43.6045 16.0726 43.5805 16.0486L43.6165 16.1206C43.6645 16.2406 43.6765 16.3126 43.6525 16.3366C43.6285 16.3366 43.5925 16.3486 43.5445 16.3726C43.5205 16.3726 43.4845 16.3726 43.4365 16.3726C43.3885 16.3726 43.3525 16.3846 43.3285 16.4086C43.2085 16.4566 43.0405 16.6486 42.8245 16.9846C41.8645 18.5446 40.9165 20.3686 39.9805 22.4566C39.9085 22.6726 39.8125 22.9006 39.6925 23.1406C39.5965 23.3806 39.4765 23.6326 39.3325 23.8966C39.2125 24.1606 39.1165 24.3766 39.0445 24.5446C39.0445 24.5686 38.9605 24.8206 38.7925 25.3006Z"/>
<path d="M51.8265 26.2726C51.8025 26.2246 51.7545 26.1766 51.6825 26.1286C51.6345 26.0566 51.5985 25.9966 51.5745 25.9486C51.5025 26.0206 51.3825 26.1166 51.2145 26.2366C51.0465 26.3566 50.9265 26.4526 50.8545 26.5246C50.7105 26.6686 50.5305 26.9326 50.3145 27.3166C50.0985 27.7006 49.8825 27.9526 49.6665 28.0726C49.4265 28.2166 49.2105 28.2406 49.0185 28.1446C48.8265 28.0246 48.7065 27.8806 48.6585 27.7126C48.6345 27.5206 48.6705 27.3526 48.7665 27.2086C49.1025 26.8966 49.4385 26.5606 49.7745 26.2006C49.8705 26.1046 49.9785 25.9966 50.0985 25.8766C50.1465 25.8046 50.2305 25.7086 50.3505 25.5886C50.4945 25.4686 50.6145 25.3606 50.7105 25.2646C50.8065 25.1686 50.8785 25.0726 50.9265 24.9766C50.9505 24.9286 50.9745 24.8806 50.9985 24.8326C51.0225 24.7606 51.0465 24.6886 51.0705 24.6166C51.0945 24.5446 51.1185 24.4966 51.1425 24.4726C51.1425 24.4006 51.1545 24.3406 51.1785 24.2926C51.1545 24.0766 51.1905 23.8966 51.2865 23.7526C51.3105 23.7286 51.3345 23.6926 51.3585 23.6446C51.3825 23.5966 51.4065 23.5726 51.4305 23.5726C51.3825 23.4766 51.3705 23.4046 51.3945 23.3566C51.8505 22.6606 52.2105 22.5646 52.4745 23.0686C52.6905 23.5726 52.6785 24.0286 52.4385 24.4366C52.4625 24.5806 52.4745 24.8086 52.4745 25.1206C52.4745 25.1446 52.4745 25.1566 52.4745 25.1566C52.6425 25.5646 52.8585 25.9126 53.1225 26.2006C53.3865 26.4886 53.6505 26.7406 53.9145 26.9566C54.1785 27.1486 54.5145 27.2926 54.9225 27.3886C55.3305 27.4846 55.6665 27.5686 55.9305 27.6406C56.1945 27.6886 56.5785 27.7006 57.0825 27.6766C57.5865 27.6526 57.9465 27.6406 58.1625 27.6406C58.3785 27.6166 58.7385 27.5566 59.2425 27.4606C59.7705 27.3646 60.0825 27.3046 60.1785 27.2806C60.2985 27.2566 60.5985 27.1966 61.0785 27.1006C61.2465 27.0526 61.4625 27.0286 61.7265 27.0286C61.9665 27.0286 62.2425 27.0646 62.5545 27.1366C62.8425 27.1126 63.0225 27.3046 63.0945 27.7126C63.1665 28.1206 63.0585 28.3366 62.7705 28.3606C62.6985 28.3606 62.6265 28.3486 62.5545 28.3246C62.5305 28.3246 62.3985 28.3246 62.1585 28.3246C62.0865 28.3486 61.9905 28.3606 61.8705 28.3606C61.7745 28.3606 61.6905 28.3606 61.6185 28.3606C61.4745 28.3846 61.3665 28.3126 61.2945 28.1446C61.1985 28.1446 61.1505 28.1446 61.1505 28.1446C60.7905 28.1686 60.2505 28.2046 59.5305 28.2526C58.8105 28.3006 58.2345 28.3366 57.8025 28.3606C57.3705 28.3846 56.8305 28.3726 56.1825 28.3246C55.5585 28.2766 55.0185 28.1926 54.5625 28.0726C54.1065 27.9286 53.6265 27.7126 53.1225 27.4246C52.6425 27.1126 52.2105 26.7286 51.8265 26.2726ZM52.7265 18.7846C53.7585 18.6166 54.3585 18.5206 54.5265 18.4966C54.6465 18.4726 54.7425 18.5206 54.8145 18.6406C54.8865 18.7606 54.9104 18.8926 54.8865 19.0366C54.8625 19.1566 54.8025 19.2286 54.7065 19.2526H54.6345L54.5985 19.2886H54.4905L54.4545 19.3246H54.3465L54.3105 19.3606H54.2025L54.1665 19.3966H54.0585L54.0225 19.4326H53.9145L53.8785 19.4686H53.7705L53.7345 19.5046H53.6265L53.5905 19.5406H53.4825L53.4465 19.5766H53.3025L53.2665 19.6126H53.1585L53.1225 19.6486H53.0145L52.9785 19.6846H52.9065C52.7865 19.7086 52.6785 19.6486 52.5825 19.5046C52.5105 19.3606 52.4865 19.2166 52.5105 19.0726C52.5345 18.9046 52.6065 18.8086 52.7265 18.7846Z"/>
<path d="M62.634 26.3086C63.474 25.9966 63.966 25.7686 64.11 25.6246C63.966 25.3846 63.534 25.3006 62.814 25.3726C62.502 25.3966 62.286 25.4686 62.166 25.5886C62.07 25.7086 62.058 25.8766 62.13 26.0926C62.202 26.2846 62.31 26.4166 62.454 26.4886C62.478 26.4166 62.538 26.3566 62.634 26.3086ZM75.306 27.9646C74.394 27.9646 73.218 28.0606 71.778 28.2526C70.338 28.4446 69.09 28.6246 68.034 28.7926C67.0021 28.9366 65.898 28.9366 64.722 28.7926C63.57 28.6486 62.622 28.2766 61.878 27.6766C61.134 27.1246 60.786 26.4766 60.834 25.7326C60.834 25.2286 61.098 24.8326 61.626 24.5446C62.13 24.2566 62.718 24.1246 63.39 24.1486C64.062 24.1726 64.6021 24.3646 65.01 24.7246C65.346 25.0126 65.49 25.2646 65.442 25.4806C65.3941 25.7206 65.2621 25.9486 65.0461 26.1646C64.83 26.3806 64.578 26.5606 64.29 26.7046C64.002 26.8486 63.69 26.9686 63.354 27.0646C63.522 27.5446 63.954 27.8806 64.65 28.0726C65.346 28.2406 66.186 28.2886 67.17 28.2166C68.178 28.1206 69.162 28.0006 70.122 27.8566C71.106 27.6886 72.102 27.5086 73.11 27.3166C74.142 27.1246 74.8621 27.0166 75.2701 26.9926C75.87 26.7286 76.2421 26.7886 76.386 27.1726C76.5061 27.4846 76.3741 27.7246 75.9901 27.8926C75.798 27.9646 75.57 27.9886 75.306 27.9646Z"/>
<path d="M83.4027 29.2966C82.8987 28.9606 82.4907 28.3126 82.1787 27.3526C81.9627 27.4966 81.6867 27.7126 81.3507 28.0006C81.2787 28.0486 81.1347 28.1566 80.9187 28.3246C80.7267 28.4686 80.5467 28.6126 80.3787 28.7566C80.2107 28.8766 79.9947 29.0326 79.7307 29.2246C79.4667 29.3926 79.2147 29.5486 78.9747 29.6926C78.7347 29.8366 78.4707 29.9806 78.1827 30.1246C77.8947 30.2446 77.6067 30.3406 77.3187 30.4126C77.2467 30.4126 77.1387 30.4246 76.9947 30.4486C76.8747 30.4726 76.7667 30.4966 76.6707 30.5206C76.5747 30.5206 76.4667 30.5206 76.3467 30.5206C76.2267 30.5206 76.1067 30.5206 75.9867 30.5206C75.8907 30.4966 75.8067 30.4726 75.7347 30.4486C75.1347 30.2086 74.9547 29.6446 75.1947 28.7566C75.2427 28.5646 75.3147 28.3846 75.4107 28.2166C75.5547 27.9286 75.7587 27.6286 76.0227 27.3166C76.3107 27.0046 76.5147 26.7646 76.6347 26.5966C76.8507 26.2846 77.1507 26.3086 77.5347 26.6686C77.8467 27.0046 77.8587 27.2806 77.5707 27.4966C77.0667 27.8086 76.6827 28.2406 76.4187 28.7926C76.2027 29.2486 76.3227 29.4646 76.7787 29.4406C77.0187 29.4166 77.3427 29.3206 77.7507 29.1526C77.8947 29.1046 78.0387 29.0446 78.1827 28.9726C78.3507 28.9006 78.5067 28.8166 78.6507 28.7206C78.8187 28.6006 78.9507 28.5046 79.0467 28.4326C79.1667 28.3606 79.3227 28.2526 79.5147 28.1086C79.7067 27.9646 79.8387 27.8686 79.9107 27.8206C79.9827 27.7486 80.1147 27.6286 80.3067 27.4606C80.5227 27.2686 80.6547 27.1606 80.7027 27.1366C80.9427 26.9206 81.2307 26.6806 81.5667 26.4166C81.7347 26.2726 81.8547 26.1886 81.9267 26.1646C81.9987 26.1166 82.1187 26.0686 82.2867 26.0206C82.4787 25.9486 82.6467 25.9486 82.7907 26.0206C82.8147 26.0446 82.8387 26.0686 82.8627 26.0926C82.8867 26.1166 82.9107 26.1406 82.9347 26.1646C82.9827 26.1886 83.0067 26.2126 83.0067 26.2366C83.0307 26.2366 83.0547 26.2486 83.0787 26.2726C83.1027 26.3206 83.1267 26.3566 83.1507 26.3806C83.2227 26.5966 83.2947 26.8726 83.3667 27.2086C83.4387 27.5206 83.4987 27.7486 83.5467 27.8926C83.5947 28.0126 83.7147 28.1686 83.9067 28.3606C84.1227 28.5526 84.4107 28.7326 84.7707 28.9006C85.3947 29.1886 86.1747 29.3566 87.1107 29.4046C88.0707 29.4286 89.0667 29.3686 90.0987 29.2246C91.1547 29.0566 92.1627 28.8766 93.1227 28.6846C94.0827 28.4686 95.0307 28.2526 95.9667 28.0366C96.9267 27.7966 97.6107 27.6526 98.0187 27.6046C98.0667 27.4126 98.1747 27.3046 98.3427 27.2806C98.5107 27.2806 98.7507 27.2686 99.0627 27.2446C99.3747 27.1966 99.6507 27.1606 99.8907 27.1366C100.155 27.1126 100.407 27.1126 100.647 27.1366C100.671 27.1606 100.719 27.1966 100.791 27.2446C100.863 27.2686 100.911 27.3046 100.935 27.3526C100.983 27.3766 101.019 27.4126 101.043 27.4606C101.163 27.8206 101.175 28.0726 101.079 28.2166C100.983 28.3366 100.767 28.4686 100.431 28.6126C100.383 28.6366 100.239 28.6126 99.9987 28.5406C99.7587 28.4686 99.6147 28.4566 99.5667 28.5046C98.9187 28.5046 98.4267 28.5166 98.0907 28.5406C97.6347 28.5886 96.8667 28.7206 95.7867 28.9366C94.7067 29.1286 93.6147 29.3206 92.5107 29.5126C91.4067 29.6806 90.2547 29.8366 89.0547 29.9806C87.8787 30.1246 86.7867 30.1486 85.7787 30.0526C84.7707 29.9326 83.9787 29.6806 83.4027 29.2966Z"/>
</mask>
<path d="M21.0276 16.0846C22.1796 14.7646 23.1036 13.2646 23.7996 11.5846C23.8236 11.5126 23.8476 11.4286 23.8716 11.3326C23.9196 11.2366 23.9556 11.1406 23.9796 11.0446C24.0276 10.9486 24.0756 10.8406 24.1236 10.7206C24.1716 10.6006 24.2076 10.4926 24.2316 10.3966C24.2556 10.3006 24.2916 10.1926 24.3396 10.0726C24.3876 9.95259 24.4236 9.85658 24.4476 9.78459C24.4716 9.68859 24.5076 9.58059 24.5556 9.46059C24.6036 9.34059 24.6396 9.24459 24.6636 9.17258C24.8556 8.35658 24.9516 7.94859 24.9516 7.94859C24.9756 7.75659 25.0356 7.33659 25.1316 6.68858C25.2516 5.94458 25.3236 5.41658 25.3476 5.10459C25.3716 4.79259 25.3596 4.27659 25.3116 3.55658C25.3116 3.50858 25.2996 3.46058 25.2756 3.41258C25.2756 3.34058 25.2636 3.29259 25.2396 3.26859C25.2396 3.22059 25.2276 3.17259 25.2036 3.12459C25.1796 3.05259 25.1556 2.99259 25.1316 2.94459C24.9876 2.60859 24.9156 2.44059 24.9156 2.44059C24.6036 1.98458 24.1956 1.68458 23.6916 1.54058C23.6196 1.51658 23.3796 1.54059 22.9716 1.61259C22.6596 1.78059 22.5036 1.86458 22.5036 1.86458C22.4076 1.93659 22.2996 2.02059 22.1796 2.11659C22.0836 2.18858 21.9756 2.28458 21.8556 2.40458C21.4956 2.76459 21.1716 3.13659 20.8836 3.52058C20.5956 3.88058 20.3196 4.26458 20.0556 4.67259C19.8156 5.08059 19.5996 5.51259 19.4076 5.96859C19.4076 5.96859 19.1676 6.59259 18.6876 7.84058C18.1356 9.30458 17.8596 10.0366 17.8596 10.0366C17.5956 10.7806 17.1756 12.2446 16.5996 14.4286C16.5516 14.5726 16.5276 14.6806 16.5276 14.7526C16.4316 15.1126 16.1196 16.2766 15.5916 18.2446C15.0636 20.1886 14.6556 21.6766 14.3676 22.7086C13.1916 27.1726 12.1596 30.5686 11.2716 32.8966C11.1996 33.0646 10.6836 34.2646 9.72361 36.4966C12.2916 36.1366 14.5956 35.9086 16.6356 35.8126C17.9556 35.7406 20.0796 35.7406 23.0076 35.8126C24.4236 35.8606 26.0316 35.8966 27.8316 35.9206C29.6316 35.9686 31.4436 36.0046 33.2676 36.0286C35.1156 36.0526 36.7356 36.0886 38.1276 36.1366C39.5676 36.2086 42.1596 36.3766 45.9036 36.6406C48.4476 36.7846 50.9196 36.8806 53.3196 36.9286C55.7196 37.0006 58.0836 37.0126 60.4116 36.9646C60.5556 36.9646 60.7116 36.9646 60.8796 36.9646C61.0476 36.9646 61.2036 36.9646 61.3476 36.9646C61.4916 36.9646 61.6476 36.9646 61.8156 36.9646C61.9836 36.9646 62.1396 36.9646 62.2836 36.9646C62.4516 36.9646 62.6196 36.9526 62.7876 36.9286C62.9556 36.9286 63.1116 36.9286 63.2556 36.9286C63.4236 36.9286 63.5796 36.9286 63.7236 36.9286C63.9636 36.9046 64.2156 36.8806 64.4796 36.8566C64.7676 36.8566 65.0196 36.8446 65.2356 36.8206C65.4516 36.8206 65.7036 36.8086 65.9916 36.7846C66.3036 36.7606 66.5556 36.7366 66.7476 36.7126C66.9156 36.7126 67.1796 36.6886 67.5396 36.6406C72.2196 36.1606 75.6876 35.6086 77.9436 34.9846C78.0876 34.9606 78.2316 34.9246 78.3756 34.8766C78.5196 34.8286 78.6876 34.7686 78.8796 34.6966C79.0716 34.6486 79.2156 34.6006 79.3116 34.5526C79.4076 34.5286 79.5036 34.4926 79.5996 34.4446C79.6956 34.4206 79.8036 34.3846 79.9236 34.3366C80.0436 34.3126 80.1276 34.2886 80.1756 34.2646C80.2476 34.2406 80.3676 34.2046 80.5356 34.1566C80.7036 34.1086 80.7996 34.0846 80.8236 34.0846C80.7276 34.0606 80.4396 34.0486 79.9596 34.0486C79.6476 34.0246 79.4916 33.7846 79.4916 33.3286C79.4916 33.1366 79.5396 32.9686 79.6356 32.8246C79.7316 32.6806 79.8636 32.6086 80.0316 32.6086C80.8716 32.6326 81.6276 32.7646 82.2996 33.0046C82.2996 33.0046 82.3716 33.0166 82.5156 33.0406C82.6836 33.0886 82.8036 33.1366 82.8756 33.1846C82.8756 33.1846 83.0796 33.3646 83.4876 33.7246C83.4876 33.7486 83.4876 33.7726 83.4876 33.7966C83.4876 33.8446 83.4756 33.9166 83.4516 34.0126C83.4516 34.1326 83.4396 34.2286 83.4156 34.3006C83.4156 34.3726 83.4036 34.4446 83.3796 34.5166C83.3556 34.6126 83.3196 34.7086 83.2716 34.8046C83.2476 34.8526 83.1876 34.8886 83.0916 34.9126C83.0196 34.9606 82.9476 34.9846 82.8756 34.9846C82.8276 35.0086 82.7556 35.0206 82.6596 35.0206C82.5876 35.0206 82.5396 35.0206 82.5156 35.0206C82.1556 35.0926 81.6516 35.2126 81.0036 35.3806C80.3556 35.5726 79.8996 35.7046 79.6356 35.7766C78.6756 36.0166 78.1956 36.1366 78.1956 36.1366C75.8916 36.6406 72.0876 37.1206 66.7836 37.5766C64.7676 37.6486 63.7596 37.6846 63.7596 37.6846C61.8876 37.7326 59.8956 37.7446 57.7836 37.7206C55.6716 37.6966 53.6796 37.6486 51.8076 37.5766C49.9356 37.5046 47.9556 37.4086 45.8676 37.2886C45.5556 37.2646 45.1596 37.2286 44.6796 37.1806C44.2236 37.1566 43.8516 37.1326 43.5636 37.1086C43.2756 37.0846 42.9276 37.0606 42.5196 37.0366C42.1116 37.0126 41.7516 36.9886 41.4396 36.9646C41.1276 36.9406 40.7796 36.9166 40.3956 36.8926C40.0116 36.8686 39.6276 36.8446 39.2436 36.8206C38.8836 36.7966 38.4996 36.7846 38.0916 36.7846C36.6516 36.7126 35.0436 36.6646 33.2676 36.6406C31.5156 36.6406 29.6916 36.6406 27.7956 36.6406C25.9236 36.6406 24.3276 36.6166 23.0076 36.5686C19.9116 36.5926 17.8116 36.6406 16.7076 36.7126C14.6196 36.8566 12.1116 37.2046 9.18361 37.7566C8.89561 38.3566 8.70361 38.7406 8.60761 38.9086C8.53561 39.0766 8.24761 39.5926 7.74361 40.4566C7.28761 41.2486 7.01161 41.7166 6.91561 41.8606C6.38761 42.6526 5.57161 43.5886 4.46761 44.6686C4.22761 44.9086 4.04761 45.0766 3.92761 45.1726C3.80761 45.2926 3.62761 45.4126 3.38761 45.5326C3.14761 45.6526 2.89561 45.7126 2.63161 45.7126C2.17561 45.7126 1.58761 45.4366 0.867609 44.8846V44.8486C0.843609 44.8246 0.807609 44.7646 0.759609 44.6686C0.687609 44.5966 0.627609 44.5246 0.579609 44.4526C0.531609 44.3806 0.483609 44.3206 0.43561 44.2726C0.339609 44.0326 0.267609 43.7926 0.219609 43.5526C0.147609 43.3126 0.111609 43.0606 0.111609 42.7966C0.0876094 42.5566 0.0996094 42.3166 0.147609 42.0766C0.195609 41.8366 0.267609 41.5966 0.363609 41.3566C0.387609 41.2366 0.459609 41.0686 0.579609 40.8526C0.627609 40.7566 0.663609 40.6846 0.687609 40.6366V40.6006C1.02361 40.0966 1.19161 39.8446 1.19161 39.8446C1.52761 39.4126 1.92361 39.0406 2.37961 38.7286C2.81161 38.4166 3.37561 38.1286 4.07161 37.8646C4.76761 37.6246 5.25961 37.4566 5.54761 37.3606C5.83561 37.2886 6.41161 37.1326 7.27561 36.8926C7.68361 36.8206 8.07961 36.7606 8.46361 36.7126C8.51161 36.6406 8.54761 36.5686 8.57161 36.4966C8.59561 36.4486 8.66761 36.2806 8.78761 35.9926C8.90761 35.7286 9.01561 35.4886 9.11161 35.2726C9.20761 35.0806 9.31561 34.8286 9.43561 34.5166C9.57961 34.2046 9.69961 33.9406 9.79561 33.7246C9.91561 33.5086 10.0236 33.2806 10.1196 33.0406C10.2156 32.8246 10.2876 32.6566 10.3356 32.5366C11.0076 30.8806 11.5716 29.3086 12.0276 27.8206C12.0516 27.7246 12.3036 26.8486 12.7836 25.1926C12.8316 24.9766 12.8916 24.7486 12.9636 24.5086C13.0356 24.2446 13.0956 24.0166 13.1436 23.8246C13.1916 23.6326 13.2516 23.4046 13.3236 23.1406C13.3956 22.8766 13.4556 22.6606 13.5036 22.4926C14.0796 20.3086 14.5476 18.5086 14.9076 17.0926C15.0036 16.7806 15.1236 16.3246 15.2676 15.7246C15.5796 14.4766 15.8196 13.5166 15.9876 12.8446C16.1556 12.1726 16.3956 11.3206 16.7076 10.2886C17.0196 9.23258 17.3316 8.29659 17.6436 7.48059C17.6916 7.31258 17.7636 7.09658 17.8596 6.83259C17.9556 6.56859 18.0396 6.32859 18.1116 6.11259C18.1836 5.87259 18.2676 5.65659 18.3636 5.46459C18.5556 4.96058 18.7836 4.48058 19.0476 4.02458C19.3116 3.54459 19.5996 3.08859 19.9116 2.65659C20.2236 2.20059 20.5716 1.78059 20.9556 1.39658C21.3156 1.01258 21.6156 0.748585 21.8556 0.604586C21.8556 0.604586 22.1676 0.460586 22.7916 0.172585C23.3196 0.124586 23.5836 0.100586 23.5836 0.100586C23.7036 0.100586 23.8116 0.112586 23.9076 0.136585C24.0276 0.160585 24.1356 0.184585 24.2316 0.208585C24.3276 0.232584 24.4236 0.268584 24.5196 0.316585C24.6156 0.364585 24.7116 0.424585 24.8076 0.496585C24.9036 0.544585 24.9996 0.604584 25.0956 0.676585C25.1916 0.724584 25.2756 0.784584 25.3476 0.856585C25.4436 0.928585 25.5276 1.00059 25.5996 1.07258C25.6956 1.14458 25.7796 1.22859 25.8516 1.32459C25.9236 1.39659 25.9836 1.48059 26.0316 1.57658C26.1036 1.64858 26.1636 1.73258 26.2116 1.82859C26.2356 1.87658 26.2596 1.93658 26.2836 2.00858C26.3316 2.08059 26.3676 2.15259 26.3916 2.22458C26.4156 2.27259 26.4396 2.34459 26.4636 2.44059C26.4876 2.51258 26.5116 2.57258 26.5356 2.62059C26.5356 2.66859 26.5356 2.72859 26.5356 2.80059C26.5596 2.87258 26.5836 2.93258 26.6076 2.98059C26.6316 3.02858 26.6436 3.08858 26.6436 3.16059C26.6676 3.20858 26.6796 3.26858 26.6796 3.34058C26.6796 3.38858 26.6916 3.44858 26.7156 3.52058C26.7636 4.16858 26.6556 5.29658 26.3916 6.90458C26.3916 6.95258 26.3796 7.03659 26.3556 7.15659C26.3556 7.25259 26.3436 7.34859 26.3196 7.44459C26.3196 7.51658 26.3076 7.60058 26.2836 7.69658C26.2596 7.79258 26.2356 7.88859 26.2116 7.98459C26.2116 8.05659 26.1996 8.14059 26.1756 8.23659C26.1756 8.28459 26.1636 8.34459 26.1396 8.41659C26.1396 8.46459 26.1276 8.51258 26.1036 8.56058C26.1036 8.60859 26.0916 8.66859 26.0676 8.74059C26.0676 8.78859 26.0556 8.84859 26.0316 8.92059C26.0316 8.96859 26.0196 9.02859 25.9956 9.10059C25.9716 9.14859 25.9476 9.19658 25.9236 9.24459C25.9236 9.29259 25.9116 9.35259 25.8876 9.42459C25.8876 9.47259 25.8876 9.53259 25.8876 9.60459C25.8396 9.67658 25.7676 9.84458 25.6716 10.1086C25.5996 10.3486 25.5396 10.5286 25.4916 10.6486C25.4676 10.7446 25.4196 10.9006 25.3476 11.1166C25.2756 11.3086 25.2036 11.4886 25.1316 11.6566C25.0596 11.8246 24.9876 11.9806 24.9156 12.1246C24.2676 13.6366 23.3436 15.2446 22.1436 16.9486C22.0236 17.0686 21.8796 17.1286 21.7116 17.1286C21.5676 17.1046 21.4236 17.0326 21.2796 16.9126C20.9196 16.6006 20.8356 16.3246 21.0276 16.0846ZM3.53161 43.6606C4.63561 42.7006 5.42761 41.8966 5.90761 41.2486C6.00361 41.1046 6.29161 40.6366 6.77161 39.8446C7.34761 38.9086 7.70761 38.2966 7.85161 38.0086C7.80361 38.0086 7.75561 38.0086 7.70761 38.0086C7.68361 38.0326 7.64761 38.0446 7.59961 38.0446C7.52761 38.0686 7.43161 38.1046 7.31161 38.1526C5.22361 38.7766 3.74761 39.4246 2.88361 40.0966C2.64361 40.2886 2.47561 40.4446 2.37961 40.5646C2.33161 40.6366 2.28361 40.6966 2.23561 40.7446C2.18761 40.8166 2.13961 40.9006 2.09161 40.9966C2.04361 41.0926 2.00761 41.1646 1.98361 41.2126C1.86361 41.5246 1.77961 41.7526 1.73161 41.8966C1.65961 42.0406 1.61161 42.2206 1.58761 42.4366C1.53961 42.6526 1.53961 42.8566 1.58761 43.0486C1.63561 43.2646 1.71961 43.4926 1.83961 43.7326C2.00761 43.9006 2.18761 44.0326 2.37961 44.1286C2.40361 44.1286 2.43961 44.1406 2.48761 44.1646C2.51161 44.1886 2.54761 44.2006 2.59561 44.2006L2.63161 44.2726C2.75161 44.2486 3.05161 44.0446 3.53161 43.6606Z" fill="black"/>
<path d="M26.6501 28.6846C27.3461 28.8526 27.9701 28.9366 28.5221 28.9366C29.0981 28.9366 29.7701 28.8646 30.5381 28.7206C31.3301 28.5526 32.0141 28.3846 32.5901 28.2166C33.1901 28.0486 33.8621 27.8686 34.6061 27.6766C35.3501 27.4606 35.9741 27.3166 36.4781 27.2446C37.4621 27.0766 37.9781 27.2206 38.0261 27.6766C38.0741 27.9646 37.9301 28.1686 37.5941 28.2886C37.4261 28.3366 37.2581 28.3126 37.0901 28.2166C36.2981 28.2886 35.1101 28.4566 33.5261 28.7206C31.9661 28.9606 30.9821 29.1166 30.5741 29.1886C30.4061 29.2126 30.0461 29.2726 29.4941 29.3686C28.9661 29.4646 28.4981 29.5486 28.0901 29.6206C27.7061 29.6686 27.2861 29.6806 26.8301 29.6566C26.3741 29.6326 26.0261 29.5366 25.7861 29.3686C25.3541 29.0566 25.3541 28.5406 25.7861 27.8206C25.6181 27.9166 25.4741 28.0006 25.3541 28.0726C25.2581 28.1206 25.1741 28.1686 25.1021 28.2166C25.0541 28.2406 25.0061 28.2766 24.9581 28.3246C24.9341 28.3486 24.9101 28.3606 24.8861 28.3606C24.8861 28.3606 24.8741 28.3726 24.8501 28.3966C24.8261 28.3966 24.8141 28.3966 24.8141 28.3966C24.8141 28.3966 24.7781 28.4086 24.7061 28.4326C24.6581 28.4566 24.6101 28.4806 24.5621 28.5046C24.5141 28.5286 24.4301 28.5766 24.3101 28.6486C24.1901 28.6966 24.0581 28.7566 23.9141 28.8286C23.1461 29.0686 22.4261 29.2366 21.7541 29.3326C21.7301 29.3566 21.6461 29.3806 21.5021 29.4046C21.3581 29.4286 21.2501 29.4406 21.1781 29.4406C20.8661 29.3926 20.5901 29.2966 20.3501 29.1526C20.3501 29.1526 20.3141 29.0446 20.2421 28.8286C20.2421 28.7806 20.2421 28.7206 20.2421 28.6486C20.2181 28.5766 20.2061 28.5286 20.2061 28.5046C20.2061 28.4566 20.2061 28.3966 20.2061 28.3246C20.2541 28.1326 20.3501 27.9526 20.4941 27.7846C20.6381 27.6166 20.7461 27.4966 20.8181 27.4246C20.9141 27.3526 21.1061 27.2446 21.3941 27.1006C21.6821 26.9326 21.8381 26.8366 21.8621 26.8126C21.9341 26.7646 22.0541 26.6806 22.2221 26.5606C22.3901 26.4166 22.5461 26.2966 22.6901 26.2006C22.8341 26.1046 22.9661 26.0326 23.0861 25.9846C23.3981 25.8646 23.8541 25.7806 24.4541 25.7326C25.0781 25.6846 25.4981 25.6366 25.7141 25.5886C25.9541 25.5886 26.0741 25.7566 26.0741 26.0926C26.0741 26.4286 25.9541 26.5966 25.7141 26.5966C25.6181 26.5966 25.3901 26.6206 25.0301 26.6686C24.6701 26.6926 24.3701 26.7286 24.1301 26.7766C23.8901 26.8246 23.6621 26.9086 23.4461 27.0286C23.3741 27.0766 23.2781 27.1606 23.1581 27.2806C23.0621 27.3766 22.9901 27.4366 22.9421 27.4606C22.8941 27.4846 22.8461 27.5206 22.7981 27.5686C22.7501 27.5926 22.6901 27.6286 22.6181 27.6766C22.5701 27.7006 22.5341 27.7246 22.5101 27.7486C22.4621 27.7966 22.3301 27.8686 22.1141 27.9646C21.9221 28.0606 21.7781 28.1446 21.6821 28.2166C22.2581 28.1686 22.8941 28.0486 23.5901 27.8566C23.7341 27.7846 23.8781 27.7246 24.0221 27.6766C24.1901 27.6046 24.2861 27.5686 24.3101 27.5686C24.3341 27.5446 24.3821 27.5206 24.4541 27.4966C24.5261 27.4486 24.5741 27.4126 24.5981 27.3886C24.6221 27.3646 24.6941 27.3166 24.8141 27.2446C24.9581 27.1726 25.1021 27.0886 25.2461 26.9926C25.2941 26.9686 25.4141 26.9086 25.6061 26.8126C25.7981 26.6926 25.9421 26.5966 26.0381 26.5246C26.2061 26.4286 26.4341 26.2606 26.7221 26.0206C27.0101 25.7806 27.2381 25.6126 27.4061 25.5166C27.6221 25.3726 27.8261 25.3246 28.0181 25.3726C28.2101 25.3966 28.3661 25.5166 28.4861 25.7326C28.6061 25.9246 28.6181 26.1286 28.5221 26.3446C28.4741 26.4646 28.4141 26.5726 28.3421 26.6686C28.2941 26.7406 28.2581 26.8006 28.2341 26.8486C28.2101 26.8726 28.1261 26.9326 27.9821 27.0286C27.8621 27.1246 27.7781 27.1966 27.7301 27.2446C27.4661 27.4366 27.1061 27.9166 26.6501 28.6846Z" fill="black"/>
<path d="M45.1645 27.7126C45.5725 27.6886 46.0165 27.6406 46.4965 27.5686C46.9765 27.4966 47.5045 27.4126 48.0805 27.3166C48.6565 27.2206 49.1125 27.1486 49.4485 27.1006C49.6645 27.0526 49.8205 27.1126 49.9165 27.2806C50.0125 27.4246 50.0125 27.5806 49.9165 27.7486C49.8445 27.9166 49.7005 28.0126 49.4845 28.0366C47.9965 28.1806 46.5685 28.2766 45.2005 28.3246C43.0405 28.3486 41.5525 28.0606 40.7365 27.4606C40.6885 27.4126 40.6285 27.3646 40.5565 27.3166C40.5085 27.3646 40.4245 27.4606 40.3045 27.6046C40.1605 27.7006 39.9325 27.8446 39.6205 28.0366C39.3325 28.2046 39.1525 28.3126 39.0805 28.3606C39.0565 28.3846 38.9365 28.4926 38.7205 28.6846C38.5045 28.8766 38.2285 29.0326 37.8925 29.1526C36.9805 29.1766 36.6685 28.5766 36.9565 27.3526C37.0525 26.8486 37.1005 26.5966 37.1005 26.5966C37.1245 26.5726 37.1845 26.4406 37.2805 26.2006C37.4005 25.9606 37.5085 25.7206 37.6045 25.4806C37.7245 25.2406 37.7845 25.1206 37.7845 25.1206C37.8325 25.0246 37.8925 24.8686 37.9645 24.6526C38.0605 24.4366 38.1325 24.2686 38.1805 24.1486C38.2525 24.0046 38.3965 23.6926 38.6125 23.2126C38.8525 22.7326 39.0205 22.3606 39.1165 22.0966C39.7885 20.5366 40.7365 18.6046 41.9605 16.3006C42.2725 15.8926 42.4285 15.6886 42.4285 15.6886C42.7645 15.3766 43.1245 15.2086 43.5085 15.1846C43.7245 15.1606 43.9045 15.1606 44.0485 15.1846C44.2165 15.1846 44.3485 15.2326 44.4445 15.3286C44.5645 15.4246 44.6725 15.5806 44.7685 15.7966C44.7925 15.8446 44.8165 15.9046 44.8405 15.9766C44.8645 16.0246 44.8885 16.0846 44.9125 16.1566C44.9365 16.2046 44.9485 16.2526 44.9485 16.3006C44.9965 16.4926 45.0205 16.6846 45.0205 16.8766C45.0445 17.0446 45.0325 17.2486 44.9845 17.4886C44.9605 17.7046 44.9245 17.8726 44.8765 17.9926C44.8525 18.1126 44.7925 18.3166 44.6965 18.6046C44.6245 18.8926 44.5885 19.0606 44.5885 19.1086C44.3245 19.6846 44.1925 19.9726 44.1925 19.9726C44.0725 20.1886 43.6645 20.7646 42.9685 21.7006C42.8965 21.7966 42.7765 21.9646 42.6085 22.2046C42.4405 22.4206 42.3085 22.5886 42.2125 22.7086C42.0925 22.8766 41.8525 23.1766 41.4925 23.6086C41.1325 24.0166 40.8565 24.3406 40.6645 24.5806C39.2005 26.2366 38.3005 27.2926 37.9645 27.7486C38.0365 27.6766 38.1925 27.5686 38.4325 27.4246C39.1045 27.0166 39.4765 26.7766 39.5485 26.7046C40.0045 26.1046 40.4845 25.9006 40.9885 26.0926L41.3485 26.3446C41.3485 26.3686 41.3725 26.4046 41.4205 26.4526C41.4685 26.4766 41.5045 26.5126 41.5285 26.5606C41.5525 26.5846 41.5765 26.6086 41.6005 26.6326C42.0805 27.4726 43.2685 27.8326 45.1645 27.7126ZM38.7925 25.3006C38.9365 25.1326 39.1405 24.8926 39.4045 24.5806C39.6925 24.2686 39.8845 24.0646 39.9805 23.9686C40.1485 23.7046 40.4125 23.3686 40.7725 22.9606C41.1565 22.5526 41.4085 22.2766 41.5285 22.1326C41.6005 22.0366 41.6725 21.9406 41.7445 21.8446C41.8165 21.7246 41.8885 21.6046 41.9605 21.4846C42.0565 21.3406 42.1285 21.2326 42.1765 21.1606C42.8485 20.2486 43.2445 19.6726 43.3645 19.4326C43.3885 19.3606 43.4125 19.2886 43.4365 19.2166C43.4845 19.1446 43.5205 19.0606 43.5445 18.9646C43.5685 18.8446 43.5925 18.7606 43.6165 18.7126C43.8325 17.9206 43.9165 17.2966 43.8685 16.8406C43.8685 16.7446 43.8565 16.6486 43.8325 16.5526C43.8325 16.4806 43.8085 16.4206 43.7605 16.3726C43.7365 16.3246 43.7245 16.2886 43.7245 16.2646C43.7005 16.2646 43.6885 16.2406 43.6885 16.1926C43.6405 16.1206 43.6045 16.0726 43.5805 16.0486L43.6165 16.1206C43.6645 16.2406 43.6765 16.3126 43.6525 16.3366C43.6285 16.3366 43.5925 16.3486 43.5445 16.3726C43.5205 16.3726 43.4845 16.3726 43.4365 16.3726C43.3885 16.3726 43.3525 16.3846 43.3285 16.4086C43.2085 16.4566 43.0405 16.6486 42.8245 16.9846C41.8645 18.5446 40.9165 20.3686 39.9805 22.4566C39.9085 22.6726 39.8125 22.9006 39.6925 23.1406C39.5965 23.3806 39.4765 23.6326 39.3325 23.8966C39.2125 24.1606 39.1165 24.3766 39.0445 24.5446C39.0445 24.5686 38.9605 24.8206 38.7925 25.3006Z" fill="black"/>
<path d="M51.8265 26.2726C51.8025 26.2246 51.7545 26.1766 51.6825 26.1286C51.6345 26.0566 51.5985 25.9966 51.5745 25.9486C51.5025 26.0206 51.3825 26.1166 51.2145 26.2366C51.0465 26.3566 50.9265 26.4526 50.8545 26.5246C50.7105 26.6686 50.5305 26.9326 50.3145 27.3166C50.0985 27.7006 49.8825 27.9526 49.6665 28.0726C49.4265 28.2166 49.2105 28.2406 49.0185 28.1446C48.8265 28.0246 48.7065 27.8806 48.6585 27.7126C48.6345 27.5206 48.6705 27.3526 48.7665 27.2086C49.1025 26.8966 49.4385 26.5606 49.7745 26.2006C49.8705 26.1046 49.9785 25.9966 50.0985 25.8766C50.1465 25.8046 50.2305 25.7086 50.3505 25.5886C50.4945 25.4686 50.6145 25.3606 50.7105 25.2646C50.8065 25.1686 50.8785 25.0726 50.9265 24.9766C50.9505 24.9286 50.9745 24.8806 50.9985 24.8326C51.0225 24.7606 51.0465 24.6886 51.0705 24.6166C51.0945 24.5446 51.1185 24.4966 51.1425 24.4726C51.1425 24.4006 51.1545 24.3406 51.1785 24.2926C51.1545 24.0766 51.1905 23.8966 51.2865 23.7526C51.3105 23.7286 51.3345 23.6926 51.3585 23.6446C51.3825 23.5966 51.4065 23.5726 51.4305 23.5726C51.3825 23.4766 51.3705 23.4046 51.3945 23.3566C51.8505 22.6606 52.2105 22.5646 52.4745 23.0686C52.6905 23.5726 52.6785 24.0286 52.4385 24.4366C52.4625 24.5806 52.4745 24.8086 52.4745 25.1206C52.4745 25.1446 52.4745 25.1566 52.4745 25.1566C52.6425 25.5646 52.8585 25.9126 53.1225 26.2006C53.3865 26.4886 53.6505 26.7406 53.9145 26.9566C54.1785 27.1486 54.5145 27.2926 54.9225 27.3886C55.3305 27.4846 55.6665 27.5686 55.9305 27.6406C56.1945 27.6886 56.5785 27.7006 57.0825 27.6766C57.5865 27.6526 57.9465 27.6406 58.1625 27.6406C58.3785 27.6166 58.7385 27.5566 59.2425 27.4606C59.7705 27.3646 60.0825 27.3046 60.1785 27.2806C60.2985 27.2566 60.5985 27.1966 61.0785 27.1006C61.2465 27.0526 61.4625 27.0286 61.7265 27.0286C61.9665 27.0286 62.2425 27.0646 62.5545 27.1366C62.8425 27.1126 63.0225 27.3046 63.0945 27.7126C63.1665 28.1206 63.0585 28.3366 62.7705 28.3606C62.6985 28.3606 62.6265 28.3486 62.5545 28.3246C62.5305 28.3246 62.3985 28.3246 62.1585 28.3246C62.0865 28.3486 61.9905 28.3606 61.8705 28.3606C61.7745 28.3606 61.6905 28.3606 61.6185 28.3606C61.4745 28.3846 61.3665 28.3126 61.2945 28.1446C61.1985 28.1446 61.1505 28.1446 61.1505 28.1446C60.7905 28.1686 60.2505 28.2046 59.5305 28.2526C58.8105 28.3006 58.2345 28.3366 57.8025 28.3606C57.3705 28.3846 56.8305 28.3726 56.1825 28.3246C55.5585 28.2766 55.0185 28.1926 54.5625 28.0726C54.1065 27.9286 53.6265 27.7126 53.1225 27.4246C52.6425 27.1126 52.2105 26.7286 51.8265 26.2726ZM52.7265 18.7846C53.7585 18.6166 54.3585 18.5206 54.5265 18.4966C54.6465 18.4726 54.7425 18.5206 54.8145 18.6406C54.8865 18.7606 54.9104 18.8926 54.8865 19.0366C54.8625 19.1566 54.8025 19.2286 54.7065 19.2526H54.6345L54.5985 19.2886H54.4905L54.4545 19.3246H54.3465L54.3105 19.3606H54.2025L54.1665 19.3966H54.0585L54.0225 19.4326H53.9145L53.8785 19.4686H53.7705L53.7345 19.5046H53.6265L53.5905 19.5406H53.4825L53.4465 19.5766H53.3025L53.2665 19.6126H53.1585L53.1225 19.6486H53.0145L52.9785 19.6846H52.9065C52.7865 19.7086 52.6785 19.6486 52.5825 19.5046C52.5105 19.3606 52.4865 19.2166 52.5105 19.0726C52.5345 18.9046 52.6065 18.8086 52.7265 18.7846Z" fill="black"/>
<path d="M62.634 26.3086C63.474 25.9966 63.966 25.7686 64.11 25.6246C63.966 25.3846 63.534 25.3006 62.814 25.3726C62.502 25.3966 62.286 25.4686 62.166 25.5886C62.07 25.7086 62.058 25.8766 62.13 26.0926C62.202 26.2846 62.31 26.4166 62.454 26.4886C62.478 26.4166 62.538 26.3566 62.634 26.3086ZM75.306 27.9646C74.394 27.9646 73.218 28.0606 71.778 28.2526C70.338 28.4446 69.09 28.6246 68.034 28.7926C67.0021 28.9366 65.898 28.9366 64.722 28.7926C63.57 28.6486 62.622 28.2766 61.878 27.6766C61.134 27.1246 60.786 26.4766 60.834 25.7326C60.834 25.2286 61.098 24.8326 61.626 24.5446C62.13 24.2566 62.718 24.1246 63.39 24.1486C64.062 24.1726 64.6021 24.3646 65.01 24.7246C65.346 25.0126 65.49 25.2646 65.442 25.4806C65.3941 25.7206 65.2621 25.9486 65.0461 26.1646C64.83 26.3806 64.578 26.5606 64.29 26.7046C64.002 26.8486 63.69 26.9686 63.354 27.0646C63.522 27.5446 63.954 27.8806 64.65 28.0726C65.346 28.2406 66.186 28.2886 67.17 28.2166C68.178 28.1206 69.162 28.0006 70.122 27.8566C71.106 27.6886 72.102 27.5086 73.11 27.3166C74.142 27.1246 74.8621 27.0166 75.2701 26.9926C75.87 26.7286 76.2421 26.7886 76.386 27.1726C76.5061 27.4846 76.3741 27.7246 75.9901 27.8926C75.798 27.9646 75.57 27.9886 75.306 27.9646Z" fill="black"/>
<path d="M83.4027 29.2966C82.8987 28.9606 82.4907 28.3126 82.1787 27.3526C81.9627 27.4966 81.6867 27.7126 81.3507 28.0006C81.2787 28.0486 81.1347 28.1566 80.9187 28.3246C80.7267 28.4686 80.5467 28.6126 80.3787 28.7566C80.2107 28.8766 79.9947 29.0326 79.7307 29.2246C79.4667 29.3926 79.2147 29.5486 78.9747 29.6926C78.7347 29.8366 78.4707 29.9806 78.1827 30.1246C77.8947 30.2446 77.6067 30.3406 77.3187 30.4126C77.2467 30.4126 77.1387 30.4246 76.9947 30.4486C76.8747 30.4726 76.7667 30.4966 76.6707 30.5206C76.5747 30.5206 76.4667 30.5206 76.3467 30.5206C76.2267 30.5206 76.1067 30.5206 75.9867 30.5206C75.8907 30.4966 75.8067 30.4726 75.7347 30.4486C75.1347 30.2086 74.9547 29.6446 75.1947 28.7566C75.2427 28.5646 75.3147 28.3846 75.4107 28.2166C75.5547 27.9286 75.7587 27.6286 76.0227 27.3166C76.3107 27.0046 76.5147 26.7646 76.6347 26.5966C76.8507 26.2846 77.1507 26.3086 77.5347 26.6686C77.8467 27.0046 77.8587 27.2806 77.5707 27.4966C77.0667 27.8086 76.6827 28.2406 76.4187 28.7926C76.2027 29.2486 76.3227 29.4646 76.7787 29.4406C77.0187 29.4166 77.3427 29.3206 77.7507 29.1526C77.8947 29.1046 78.0387 29.0446 78.1827 28.9726C78.3507 28.9006 78.5067 28.8166 78.6507 28.7206C78.8187 28.6006 78.9507 28.5046 79.0467 28.4326C79.1667 28.3606 79.3227 28.2526 79.5147 28.1086C79.7067 27.9646 79.8387 27.8686 79.9107 27.8206C79.9827 27.7486 80.1147 27.6286 80.3067 27.4606C80.5227 27.2686 80.6547 27.1606 80.7027 27.1366C80.9427 26.9206 81.2307 26.6806 81.5667 26.4166C81.7347 26.2726 81.8547 26.1886 81.9267 26.1646C81.9987 26.1166 82.1187 26.0686 82.2867 26.0206C82.4787 25.9486 82.6467 25.9486 82.7907 26.0206C82.8147 26.0446 82.8387 26.0686 82.8627 26.0926C82.8867 26.1166 82.9107 26.1406 82.9347 26.1646C82.9827 26.1886 83.0067 26.2126 83.0067 26.2366C83.0307 26.2366 83.0547 26.2486 83.0787 26.2726C83.1027 26.3206 83.1267 26.3566 83.1507 26.3806C83.2227 26.5966 83.2947 26.8726 83.3667 27.2086C83.4387 27.5206 83.4987 27.7486 83.5467 27.8926C83.5947 28.0126 83.7147 28.1686 83.9067 28.3606C84.1227 28.5526 84.4107 28.7326 84.7707 28.9006C85.3947 29.1886 86.1747 29.3566 87.1107 29.4046C88.0707 29.4286 89.0667 29.3686 90.0987 29.2246C91.1547 29.0566 92.1627 28.8766 93.1227 28.6846C94.0827 28.4686 95.0307 28.2526 95.9667 28.0366C96.9267 27.7966 97.6107 27.6526 98.0187 27.6046C98.0667 27.4126 98.1747 27.3046 98.3427 27.2806C98.5107 27.2806 98.7507 27.2686 99.0627 27.2446C99.3747 27.1966 99.6507 27.1606 99.8907 27.1366C100.155 27.1126 100.407 27.1126 100.647 27.1366C100.671 27.1606 100.719 27.1966 100.791 27.2446C100.863 27.2686 100.911 27.3046 100.935 27.3526C100.983 27.3766 101.019 27.4126 101.043 27.4606C101.163 27.8206 101.175 28.0726 101.079 28.2166C100.983 28.3366 100.767 28.4686 100.431 28.6126C100.383 28.6366 100.239 28.6126 99.9987 28.5406C99.7587 28.4686 99.6147 28.4566 99.5667 28.5046C98.9187 28.5046 98.4267 28.5166 98.0907 28.5406C97.6347 28.5886 96.8667 28.7206 95.7867 28.9366C94.7067 29.1286 93.6147 29.3206 92.5107 29.5126C91.4067 29.6806 90.2547 29.8366 89.0547 29.9806C87.8787 30.1246 86.7867 30.1486 85.7787 30.0526C84.7707 29.9326 83.9787 29.6806 83.4027 29.2966Z" fill="black"/>
<path d="M21.0276 16.0846C22.1796 14.7646 23.1036 13.2646 23.7996 11.5846C23.8236 11.5126 23.8476 11.4286 23.8716 11.3326C23.9196 11.2366 23.9556 11.1406 23.9796 11.0446C24.0276 10.9486 24.0756 10.8406 24.1236 10.7206C24.1716 10.6006 24.2076 10.4926 24.2316 10.3966C24.2556 10.3006 24.2916 10.1926 24.3396 10.0726C24.3876 9.95259 24.4236 9.85658 24.4476 9.78459C24.4716 9.68859 24.5076 9.58059 24.5556 9.46059C24.6036 9.34059 24.6396 9.24459 24.6636 9.17258C24.8556 8.35658 24.9516 7.94859 24.9516 7.94859C24.9756 7.75659 25.0356 7.33659 25.1316 6.68858C25.2516 5.94458 25.3236 5.41658 25.3476 5.10459C25.3716 4.79259 25.3596 4.27659 25.3116 3.55658C25.3116 3.50858 25.2996 3.46058 25.2756 3.41258C25.2756 3.34058 25.2636 3.29259 25.2396 3.26859C25.2396 3.22059 25.2276 3.17259 25.2036 3.12459C25.1796 3.05259 25.1556 2.99259 25.1316 2.94459C24.9876 2.60859 24.9156 2.44059 24.9156 2.44059C24.6036 1.98458 24.1956 1.68458 23.6916 1.54058C23.6196 1.51658 23.3796 1.54059 22.9716 1.61259C22.6596 1.78059 22.5036 1.86458 22.5036 1.86458C22.4076 1.93659 22.2996 2.02059 22.1796 2.11659C22.0836 2.18858 21.9756 2.28458 21.8556 2.40458C21.4956 2.76459 21.1716 3.13659 20.8836 3.52058C20.5956 3.88058 20.3196 4.26458 20.0556 4.67259C19.8156 5.08059 19.5996 5.51259 19.4076 5.96859C19.4076 5.96859 19.1676 6.59259 18.6876 7.84058C18.1356 9.30458 17.8596 10.0366 17.8596 10.0366C17.5956 10.7806 17.1756 12.2446 16.5996 14.4286C16.5516 14.5726 16.5276 14.6806 16.5276 14.7526C16.4316 15.1126 16.1196 16.2766 15.5916 18.2446C15.0636 20.1886 14.6556 21.6766 14.3676 22.7086C13.1916 27.1726 12.1596 30.5686 11.2716 32.8966C11.1996 33.0646 10.6836 34.2646 9.72361 36.4966C12.2916 36.1366 14.5956 35.9086 16.6356 35.8126C17.9556 35.7406 20.0796 35.7406 23.0076 35.8126C24.4236 35.8606 26.0316 35.8966 27.8316 35.9206C29.6316 35.9686 31.4436 36.0046 33.2676 36.0286C35.1156 36.0526 36.7356 36.0886 38.1276 36.1366C39.5676 36.2086 42.1596 36.3766 45.9036 36.6406C48.4476 36.7846 50.9196 36.8806 53.3196 36.9286C55.7196 37.0006 58.0836 37.0126 60.4116 36.9646C60.5556 36.9646 60.7116 36.9646 60.8796 36.9646C61.0476 36.9646 61.2036 36.9646 61.3476 36.9646C61.4916 36.9646 61.6476 36.9646 61.8156 36.9646C61.9836 36.9646 62.1396 36.9646 62.2836 36.9646C62.4516 36.9646 62.6196 36.9526 62.7876 36.9286C62.9556 36.9286 63.1116 36.9286 63.2556 36.9286C63.4236 36.9286 63.5796 36.9286 63.7236 36.9286C63.9636 36.9046 64.2156 36.8806 64.4796 36.8566C64.7676 36.8566 65.0196 36.8446 65.2356 36.8206C65.4516 36.8206 65.7036 36.8086 65.9916 36.7846C66.3036 36.7606 66.5556 36.7366 66.7476 36.7126C66.9156 36.7126 67.1796 36.6886 67.5396 36.6406C72.2196 36.1606 75.6876 35.6086 77.9436 34.9846C78.0876 34.9606 78.2316 34.9246 78.3756 34.8766C78.5196 34.8286 78.6876 34.7686 78.8796 34.6966C79.0716 34.6486 79.2156 34.6006 79.3116 34.5526C79.4076 34.5286 79.5036 34.4926 79.5996 34.4446C79.6956 34.4206 79.8036 34.3846 79.9236 34.3366C80.0436 34.3126 80.1276 34.2886 80.1756 34.2646C80.2476 34.2406 80.3676 34.2046 80.5356 34.1566C80.7036 34.1086 80.7996 34.0846 80.8236 34.0846C80.7276 34.0606 80.4396 34.0486 79.9596 34.0486C79.6476 34.0246 79.4916 33.7846 79.4916 33.3286C79.4916 33.1366 79.5396 32.9686 79.6356 32.8246C79.7316 32.6806 79.8636 32.6086 80.0316 32.6086C80.8716 32.6326 81.6276 32.7646 82.2996 33.0046C82.2996 33.0046 82.3716 33.0166 82.5156 33.0406C82.6836 33.0886 82.8036 33.1366 82.8756 33.1846C82.8756 33.1846 83.0796 33.3646 83.4876 33.7246C83.4876 33.7486 83.4876 33.7726 83.4876 33.7966C83.4876 33.8446 83.4756 33.9166 83.4516 34.0126C83.4516 34.1326 83.4396 34.2286 83.4156 34.3006C83.4156 34.3726 83.4036 34.4446 83.3796 34.5166C83.3556 34.6126 83.3196 34.7086 83.2716 34.8046C83.2476 34.8526 83.1876 34.8886 83.0916 34.9126C83.0196 34.9606 82.9476 34.9846 82.8756 34.9846C82.8276 35.0086 82.7556 35.0206 82.6596 35.0206C82.5876 35.0206 82.5396 35.0206 82.5156 35.0206C82.1556 35.0926 81.6516 35.2126 81.0036 35.3806C80.3556 35.5726 79.8996 35.7046 79.6356 35.7766C78.6756 36.0166 78.1956 36.1366 78.1956 36.1366C75.8916 36.6406 72.0876 37.1206 66.7836 37.5766C64.7676 37.6486 63.7596 37.6846 63.7596 37.6846C61.8876 37.7326 59.8956 37.7446 57.7836 37.7206C55.6716 37.6966 53.6796 37.6486 51.8076 37.5766C49.9356 37.5046 47.9556 37.4086 45.8676 37.2886C45.5556 37.2646 45.1596 37.2286 44.6796 37.1806C44.2236 37.1566 43.8516 37.1326 43.5636 37.1086C43.2756 37.0846 42.9276 37.0606 42.5196 37.0366C42.1116 37.0126 41.7516 36.9886 41.4396 36.9646C41.1276 36.9406 40.7796 36.9166 40.3956 36.8926C40.0116 36.8686 39.6276 36.8446 39.2436 36.8206C38.8836 36.7966 38.4996 36.7846 38.0916 36.7846C36.6516 36.7126 35.0436 36.6646 33.2676 36.6406C31.5156 36.6406 29.6916 36.6406 27.7956 36.6406C25.9236 36.6406 24.3276 36.6166 23.0076 36.5686C19.9116 36.5926 17.8116 36.6406 16.7076 36.7126C14.6196 36.8566 12.1116 37.2046 9.18361 37.7566C8.89561 38.3566 8.70361 38.7406 8.60761 38.9086C8.53561 39.0766 8.24761 39.5926 7.74361 40.4566C7.28761 41.2486 7.01161 41.7166 6.91561 41.8606C6.38761 42.6526 5.57161 43.5886 4.46761 44.6686C4.22761 44.9086 4.04761 45.0766 3.92761 45.1726C3.80761 45.2926 3.62761 45.4126 3.38761 45.5326C3.14761 45.6526 2.89561 45.7126 2.63161 45.7126C2.17561 45.7126 1.58761 45.4366 0.867609 44.8846V44.8486C0.843609 44.8246 0.807609 44.7646 0.759609 44.6686C0.687609 44.5966 0.627609 44.5246 0.579609 44.4526C0.531609 44.3806 0.483609 44.3206 0.43561 44.2726C0.339609 44.0326 0.267609 43.7926 0.219609 43.5526C0.147609 43.3126 0.111609 43.0606 0.111609 42.7966C0.0876094 42.5566 0.0996094 42.3166 0.147609 42.0766C0.195609 41.8366 0.267609 41.5966 0.363609 41.3566C0.387609 41.2366 0.459609 41.0686 0.579609 40.8526C0.627609 40.7566 0.663609 40.6846 0.687609 40.6366V40.6006C1.02361 40.0966 1.19161 39.8446 1.19161 39.8446C1.52761 39.4126 1.92361 39.0406 2.37961 38.7286C2.81161 38.4166 3.37561 38.1286 4.07161 37.8646C4.76761 37.6246 5.25961 37.4566 5.54761 37.3606C5.83561 37.2886 6.41161 37.1326 7.27561 36.8926C7.68361 36.8206 8.07961 36.7606 8.46361 36.7126C8.51161 36.6406 8.54761 36.5686 8.57161 36.4966C8.59561 36.4486 8.66761 36.2806 8.78761 35.9926C8.90761 35.7286 9.01561 35.4886 9.11161 35.2726C9.20761 35.0806 9.31561 34.8286 9.43561 34.5166C9.57961 34.2046 9.69961 33.9406 9.79561 33.7246C9.91561 33.5086 10.0236 33.2806 10.1196 33.0406C10.2156 32.8246 10.2876 32.6566 10.3356 32.5366C11.0076 30.8806 11.5716 29.3086 12.0276 27.8206C12.0516 27.7246 12.3036 26.8486 12.7836 25.1926C12.8316 24.9766 12.8916 24.7486 12.9636 24.5086C13.0356 24.2446 13.0956 24.0166 13.1436 23.8246C13.1916 23.6326 13.2516 23.4046 13.3236 23.1406C13.3956 22.8766 13.4556 22.6606 13.5036 22.4926C14.0796 20.3086 14.5476 18.5086 14.9076 17.0926C15.0036 16.7806 15.1236 16.3246 15.2676 15.7246C15.5796 14.4766 15.8196 13.5166 15.9876 12.8446C16.1556 12.1726 16.3956 11.3206 16.7076 10.2886C17.0196 9.23258 17.3316 8.29659 17.6436 7.48059C17.6916 7.31258 17.7636 7.09658 17.8596 6.83259C17.9556 6.56859 18.0396 6.32859 18.1116 6.11259C18.1836 5.87259 18.2676 5.65659 18.3636 5.46459C18.5556 4.96058 18.7836 4.48058 19.0476 4.02458C19.3116 3.54459 19.5996 3.08859 19.9116 2.65659C20.2236 2.20059 20.5716 1.78059 20.9556 1.39658C21.3156 1.01258 21.6156 0.748585 21.8556 0.604586C21.8556 0.604586 22.1676 0.460586 22.7916 0.172585C23.3196 0.124586 23.5836 0.100586 23.5836 0.100586C23.7036 0.100586 23.8116 0.112586 23.9076 0.136585C24.0276 0.160585 24.1356 0.184585 24.2316 0.208585C24.3276 0.232584 24.4236 0.268584 24.5196 0.316585C24.6156 0.364585 24.7116 0.424585 24.8076 0.496585C24.9036 0.544585 24.9996 0.604584 25.0956 0.676585C25.1916 0.724584 25.2756 0.784584 25.3476 0.856585C25.4436 0.928585 25.5276 1.00059 25.5996 1.07258C25.6956 1.14458 25.7796 1.22859 25.8516 1.32459C25.9236 1.39659 25.9836 1.48059 26.0316 1.57658C26.1036 1.64858 26.1636 1.73258 26.2116 1.82859C26.2356 1.87658 26.2596 1.93658 26.2836 2.00858C26.3316 2.08059 26.3676 2.15259 26.3916 2.22458C26.4156 2.27259 26.4396 2.34459 26.4636 2.44059C26.4876 2.51258 26.5116 2.57258 26.5356 2.62059C26.5356 2.66859 26.5356 2.72859 26.5356 2.80059C26.5596 2.87258 26.5836 2.93258 26.6076 2.98059C26.6316 3.02858 26.6436 3.08858 26.6436 3.16059C26.6676 3.20858 26.6796 3.26858 26.6796 3.34058C26.6796 3.38858 26.6916 3.44858 26.7156 3.52058C26.7636 4.16858 26.6556 5.29658 26.3916 6.90458C26.3916 6.95258 26.3796 7.03659 26.3556 7.15659C26.3556 7.25259 26.3436 7.34859 26.3196 7.44459C26.3196 7.51658 26.3076 7.60058 26.2836 7.69658C26.2596 7.79258 26.2356 7.88859 26.2116 7.98459C26.2116 8.05659 26.1996 8.14059 26.1756 8.23659C26.1756 8.28459 26.1636 8.34459 26.1396 8.41659C26.1396 8.46459 26.1276 8.51258 26.1036 8.56058C26.1036 8.60859 26.0916 8.66859 26.0676 8.74059C26.0676 8.78859 26.0556 8.84859 26.0316 8.92059C26.0316 8.96859 26.0196 9.02859 25.9956 9.10059C25.9716 9.14859 25.9476 9.19658 25.9236 9.24459C25.9236 9.29259 25.9116 9.35259 25.8876 9.42459C25.8876 9.47259 25.8876 9.53259 25.8876 9.60459C25.8396 9.67658 25.7676 9.84458 25.6716 10.1086C25.5996 10.3486 25.5396 10.5286 25.4916 10.6486C25.4676 10.7446 25.4196 10.9006 25.3476 11.1166C25.2756 11.3086 25.2036 11.4886 25.1316 11.6566C25.0596 11.8246 24.9876 11.9806 24.9156 12.1246C24.2676 13.6366 23.3436 15.2446 22.1436 16.9486C22.0236 17.0686 21.8796 17.1286 21.7116 17.1286C21.5676 17.1046 21.4236 17.0326 21.2796 16.9126C20.9196 16.6006 20.8356 16.3246 21.0276 16.0846ZM3.53161 43.6606C4.63561 42.7006 5.42761 41.8966 5.90761 41.2486C6.00361 41.1046 6.29161 40.6366 6.77161 39.8446C7.34761 38.9086 7.70761 38.2966 7.85161 38.0086C7.80361 38.0086 7.75561 38.0086 7.70761 38.0086C7.68361 38.0326 7.64761 38.0446 7.59961 38.0446C7.52761 38.0686 7.43161 38.1046 7.31161 38.1526C5.22361 38.7766 3.74761 39.4246 2.88361 40.0966C2.64361 40.2886 2.47561 40.4446 2.37961 40.5646C2.33161 40.6366 2.28361 40.6966 2.23561 40.7446C2.18761 40.8166 2.13961 40.9006 2.09161 40.9966C2.04361 41.0926 2.00761 41.1646 1.98361 41.2126C1.86361 41.5246 1.77961 41.7526 1.73161 41.8966C1.65961 42.0406 1.61161 42.2206 1.58761 42.4366C1.53961 42.6526 1.53961 42.8566 1.58761 43.0486C1.63561 43.2646 1.71961 43.4926 1.83961 43.7326C2.00761 43.9006 2.18761 44.0326 2.37961 44.1286C2.40361 44.1286 2.43961 44.1406 2.48761 44.1646C2.51161 44.1886 2.54761 44.2006 2.59561 44.2006L2.63161 44.2726C2.75161 44.2486 3.05161 44.0446 3.53161 43.6606Z" stroke="black" stroke-width="0.2" mask="url(#path-1-outside-1_8007_6372)"/>
<path d="M26.6501 28.6846C27.3461 28.8526 27.9701 28.9366 28.5221 28.9366C29.0981 28.9366 29.7701 28.8646 30.5381 28.7206C31.3301 28.5526 32.0141 28.3846 32.5901 28.2166C33.1901 28.0486 33.8621 27.8686 34.6061 27.6766C35.3501 27.4606 35.9741 27.3166 36.4781 27.2446C37.4621 27.0766 37.9781 27.2206 38.0261 27.6766C38.0741 27.9646 37.9301 28.1686 37.5941 28.2886C37.4261 28.3366 37.2581 28.3126 37.0901 28.2166C36.2981 28.2886 35.1101 28.4566 33.5261 28.7206C31.9661 28.9606 30.9821 29.1166 30.5741 29.1886C30.4061 29.2126 30.0461 29.2726 29.4941 29.3686C28.9661 29.4646 28.4981 29.5486 28.0901 29.6206C27.7061 29.6686 27.2861 29.6806 26.8301 29.6566C26.3741 29.6326 26.0261 29.5366 25.7861 29.3686C25.3541 29.0566 25.3541 28.5406 25.7861 27.8206C25.6181 27.9166 25.4741 28.0006 25.3541 28.0726C25.2581 28.1206 25.1741 28.1686 25.1021 28.2166C25.0541 28.2406 25.0061 28.2766 24.9581 28.3246C24.9341 28.3486 24.9101 28.3606 24.8861 28.3606C24.8861 28.3606 24.8741 28.3726 24.8501 28.3966C24.8261 28.3966 24.8141 28.3966 24.8141 28.3966C24.8141 28.3966 24.7781 28.4086 24.7061 28.4326C24.6581 28.4566 24.6101 28.4806 24.5621 28.5046C24.5141 28.5286 24.4301 28.5766 24.3101 28.6486C24.1901 28.6966 24.0581 28.7566 23.9141 28.8286C23.1461 29.0686 22.4261 29.2366 21.7541 29.3326C21.7301 29.3566 21.6461 29.3806 21.5021 29.4046C21.3581 29.4286 21.2501 29.4406 21.1781 29.4406C20.8661 29.3926 20.5901 29.2966 20.3501 29.1526C20.3501 29.1526 20.3141 29.0446 20.2421 28.8286C20.2421 28.7806 20.2421 28.7206 20.2421 28.6486C20.2181 28.5766 20.2061 28.5286 20.2061 28.5046C20.2061 28.4566 20.2061 28.3966 20.2061 28.3246C20.2541 28.1326 20.3501 27.9526 20.4941 27.7846C20.6381 27.6166 20.7461 27.4966 20.8181 27.4246C20.9141 27.3526 21.1061 27.2446 21.3941 27.1006C21.6821 26.9326 21.8381 26.8366 21.8621 26.8126C21.9341 26.7646 22.0541 26.6806 22.2221 26.5606C22.3901 26.4166 22.5461 26.2966 22.6901 26.2006C22.8341 26.1046 22.9661 26.0326 23.0861 25.9846C23.3981 25.8646 23.8541 25.7806 24.4541 25.7326C25.0781 25.6846 25.4981 25.6366 25.7141 25.5886C25.9541 25.5886 26.0741 25.7566 26.0741 26.0926C26.0741 26.4286 25.9541 26.5966 25.7141 26.5966C25.6181 26.5966 25.3901 26.6206 25.0301 26.6686C24.6701 26.6926 24.3701 26.7286 24.1301 26.7766C23.8901 26.8246 23.6621 26.9086 23.4461 27.0286C23.3741 27.0766 23.2781 27.1606 23.1581 27.2806C23.0621 27.3766 22.9901 27.4366 22.9421 27.4606C22.8941 27.4846 22.8461 27.5206 22.7981 27.5686C22.7501 27.5926 22.6901 27.6286 22.6181 27.6766C22.5701 27.7006 22.5341 27.7246 22.5101 27.7486C22.4621 27.7966 22.3301 27.8686 22.1141 27.9646C21.9221 28.0606 21.7781 28.1446 21.6821 28.2166C22.2581 28.1686 22.8941 28.0486 23.5901 27.8566C23.7341 27.7846 23.8781 27.7246 24.0221 27.6766C24.1901 27.6046 24.2861 27.5686 24.3101 27.5686C24.3341 27.5446 24.3821 27.5206 24.4541 27.4966C24.5261 27.4486 24.5741 27.4126 24.5981 27.3886C24.6221 27.3646 24.6941 27.3166 24.8141 27.2446C24.9581 27.1726 25.1021 27.0886 25.2461 26.9926C25.2941 26.9686 25.4141 26.9086 25.6061 26.8126C25.7981 26.6926 25.9421 26.5966 26.0381 26.5246C26.2061 26.4286 26.4341 26.2606 26.7221 26.0206C27.0101 25.7806 27.2381 25.6126 27.4061 25.5166C27.6221 25.3726 27.8261 25.3246 28.0181 25.3726C28.2101 25.3966 28.3661 25.5166 28.4861 25.7326C28.6061 25.9246 28.6181 26.1286 28.5221 26.3446C28.4741 26.4646 28.4141 26.5726 28.3421 26.6686C28.2941 26.7406 28.2581 26.8006 28.2341 26.8486C28.2101 26.8726 28.1261 26.9326 27.9821 27.0286C27.8621 27.1246 27.7781 27.1966 27.7301 27.2446C27.4661 27.4366 27.1061 27.9166 26.6501 28.6846Z" stroke="black" stroke-width="0.2" mask="url(#path-1-outside-1_8007_6372)"/>
<path d="M45.1645 27.7126C45.5725 27.6886 46.0165 27.6406 46.4965 27.5686C46.9765 27.4966 47.5045 27.4126 48.0805 27.3166C48.6565 27.2206 49.1125 27.1486 49.4485 27.1006C49.6645 27.0526 49.8205 27.1126 49.9165 27.2806C50.0125 27.4246 50.0125 27.5806 49.9165 27.7486C49.8445 27.9166 49.7005 28.0126 49.4845 28.0366C47.9965 28.1806 46.5685 28.2766 45.2005 28.3246C43.0405 28.3486 41.5525 28.0606 40.7365 27.4606C40.6885 27.4126 40.6285 27.3646 40.5565 27.3166C40.5085 27.3646 40.4245 27.4606 40.3045 27.6046C40.1605 27.7006 39.9325 27.8446 39.6205 28.0366C39.3325 28.2046 39.1525 28.3126 39.0805 28.3606C39.0565 28.3846 38.9365 28.4926 38.7205 28.6846C38.5045 28.8766 38.2285 29.0326 37.8925 29.1526C36.9805 29.1766 36.6685 28.5766 36.9565 27.3526C37.0525 26.8486 37.1005 26.5966 37.1005 26.5966C37.1245 26.5726 37.1845 26.4406 37.2805 26.2006C37.4005 25.9606 37.5085 25.7206 37.6045 25.4806C37.7245 25.2406 37.7845 25.1206 37.7845 25.1206C37.8325 25.0246 37.8925 24.8686 37.9645 24.6526C38.0605 24.4366 38.1325 24.2686 38.1805 24.1486C38.2525 24.0046 38.3965 23.6926 38.6125 23.2126C38.8525 22.7326 39.0205 22.3606 39.1165 22.0966C39.7885 20.5366 40.7365 18.6046 41.9605 16.3006C42.2725 15.8926 42.4285 15.6886 42.4285 15.6886C42.7645 15.3766 43.1245 15.2086 43.5085 15.1846C43.7245 15.1606 43.9045 15.1606 44.0485 15.1846C44.2165 15.1846 44.3485 15.2326 44.4445 15.3286C44.5645 15.4246 44.6725 15.5806 44.7685 15.7966C44.7925 15.8446 44.8165 15.9046 44.8405 15.9766C44.8645 16.0246 44.8885 16.0846 44.9125 16.1566C44.9365 16.2046 44.9485 16.2526 44.9485 16.3006C44.9965 16.4926 45.0205 16.6846 45.0205 16.8766C45.0445 17.0446 45.0325 17.2486 44.9845 17.4886C44.9605 17.7046 44.9245 17.8726 44.8765 17.9926C44.8525 18.1126 44.7925 18.3166 44.6965 18.6046C44.6245 18.8926 44.5885 19.0606 44.5885 19.1086C44.3245 19.6846 44.1925 19.9726 44.1925 19.9726C44.0725 20.1886 43.6645 20.7646 42.9685 21.7006C42.8965 21.7966 42.7765 21.9646 42.6085 22.2046C42.4405 22.4206 42.3085 22.5886 42.2125 22.7086C42.0925 22.8766 41.8525 23.1766 41.4925 23.6086C41.1325 24.0166 40.8565 24.3406 40.6645 24.5806C39.2005 26.2366 38.3005 27.2926 37.9645 27.7486C38.0365 27.6766 38.1925 27.5686 38.4325 27.4246C39.1045 27.0166 39.4765 26.7766 39.5485 26.7046C40.0045 26.1046 40.4845 25.9006 40.9885 26.0926L41.3485 26.3446C41.3485 26.3686 41.3725 26.4046 41.4205 26.4526C41.4685 26.4766 41.5045 26.5126 41.5285 26.5606C41.5525 26.5846 41.5765 26.6086 41.6005 26.6326C42.0805 27.4726 43.2685 27.8326 45.1645 27.7126ZM38.7925 25.3006C38.9365 25.1326 39.1405 24.8926 39.4045 24.5806C39.6925 24.2686 39.8845 24.0646 39.9805 23.9686C40.1485 23.7046 40.4125 23.3686 40.7725 22.9606C41.1565 22.5526 41.4085 22.2766 41.5285 22.1326C41.6005 22.0366 41.6725 21.9406 41.7445 21.8446C41.8165 21.7246 41.8885 21.6046 41.9605 21.4846C42.0565 21.3406 42.1285 21.2326 42.1765 21.1606C42.8485 20.2486 43.2445 19.6726 43.3645 19.4326C43.3885 19.3606 43.4125 19.2886 43.4365 19.2166C43.4845 19.1446 43.5205 19.0606 43.5445 18.9646C43.5685 18.8446 43.5925 18.7606 43.6165 18.7126C43.8325 17.9206 43.9165 17.2966 43.8685 16.8406C43.8685 16.7446 43.8565 16.6486 43.8325 16.5526C43.8325 16.4806 43.8085 16.4206 43.7605 16.3726C43.7365 16.3246 43.7245 16.2886 43.7245 16.2646C43.7005 16.2646 43.6885 16.2406 43.6885 16.1926C43.6405 16.1206 43.6045 16.0726 43.5805 16.0486L43.6165 16.1206C43.6645 16.2406 43.6765 16.3126 43.6525 16.3366C43.6285 16.3366 43.5925 16.3486 43.5445 16.3726C43.5205 16.3726 43.4845 16.3726 43.4365 16.3726C43.3885 16.3726 43.3525 16.3846 43.3285 16.4086C43.2085 16.4566 43.0405 16.6486 42.8245 16.9846C41.8645 18.5446 40.9165 20.3686 39.9805 22.4566C39.9085 22.6726 39.8125 22.9006 39.6925 23.1406C39.5965 23.3806 39.4765 23.6326 39.3325 23.8966C39.2125 24.1606 39.1165 24.3766 39.0445 24.5446C39.0445 24.5686 38.9605 24.8206 38.7925 25.3006Z" stroke="black" stroke-width="0.2" mask="url(#path-1-outside-1_8007_6372)"/>
<path d="M51.8265 26.2726C51.8025 26.2246 51.7545 26.1766 51.6825 26.1286C51.6345 26.0566 51.5985 25.9966 51.5745 25.9486C51.5025 26.0206 51.3825 26.1166 51.2145 26.2366C51.0465 26.3566 50.9265 26.4526 50.8545 26.5246C50.7105 26.6686 50.5305 26.9326 50.3145 27.3166C50.0985 27.7006 49.8825 27.9526 49.6665 28.0726C49.4265 28.2166 49.2105 28.2406 49.0185 28.1446C48.8265 28.0246 48.7065 27.8806 48.6585 27.7126C48.6345 27.5206 48.6705 27.3526 48.7665 27.2086C49.1025 26.8966 49.4385 26.5606 49.7745 26.2006C49.8705 26.1046 49.9785 25.9966 50.0985 25.8766C50.1465 25.8046 50.2305 25.7086 50.3505 25.5886C50.4945 25.4686 50.6145 25.3606 50.7105 25.2646C50.8065 25.1686 50.8785 25.0726 50.9265 24.9766C50.9505 24.9286 50.9745 24.8806 50.9985 24.8326C51.0225 24.7606 51.0465 24.6886 51.0705 24.6166C51.0945 24.5446 51.1185 24.4966 51.1425 24.4726C51.1425 24.4006 51.1545 24.3406 51.1785 24.2926C51.1545 24.0766 51.1905 23.8966 51.2865 23.7526C51.3105 23.7286 51.3345 23.6926 51.3585 23.6446C51.3825 23.5966 51.4065 23.5726 51.4305 23.5726C51.3825 23.4766 51.3705 23.4046 51.3945 23.3566C51.8505 22.6606 52.2105 22.5646 52.4745 23.0686C52.6905 23.5726 52.6785 24.0286 52.4385 24.4366C52.4625 24.5806 52.4745 24.8086 52.4745 25.1206C52.4745 25.1446 52.4745 25.1566 52.4745 25.1566C52.6425 25.5646 52.8585 25.9126 53.1225 26.2006C53.3865 26.4886 53.6505 26.7406 53.9145 26.9566C54.1785 27.1486 54.5145 27.2926 54.9225 27.3886C55.3305 27.4846 55.6665 27.5686 55.9305 27.6406C56.1945 27.6886 56.5785 27.7006 57.0825 27.6766C57.5865 27.6526 57.9465 27.6406 58.1625 27.6406C58.3785 27.6166 58.7385 27.5566 59.2425 27.4606C59.7705 27.3646 60.0825 27.3046 60.1785 27.2806C60.2985 27.2566 60.5985 27.1966 61.0785 27.1006C61.2465 27.0526 61.4625 27.0286 61.7265 27.0286C61.9665 27.0286 62.2425 27.0646 62.5545 27.1366C62.8425 27.1126 63.0225 27.3046 63.0945 27.7126C63.1665 28.1206 63.0585 28.3366 62.7705 28.3606C62.6985 28.3606 62.6265 28.3486 62.5545 28.3246C62.5305 28.3246 62.3985 28.3246 62.1585 28.3246C62.0865 28.3486 61.9905 28.3606 61.8705 28.3606C61.7745 28.3606 61.6905 28.3606 61.6185 28.3606C61.4745 28.3846 61.3665 28.3126 61.2945 28.1446C61.1985 28.1446 61.1505 28.1446 61.1505 28.1446C60.7905 28.1686 60.2505 28.2046 59.5305 28.2526C58.8105 28.3006 58.2345 28.3366 57.8025 28.3606C57.3705 28.3846 56.8305 28.3726 56.1825 28.3246C55.5585 28.2766 55.0185 28.1926 54.5625 28.0726C54.1065 27.9286 53.6265 27.7126 53.1225 27.4246C52.6425 27.1126 52.2105 26.7286 51.8265 26.2726ZM52.7265 18.7846C53.7585 18.6166 54.3585 18.5206 54.5265 18.4966C54.6465 18.4726 54.7425 18.5206 54.8145 18.6406C54.8865 18.7606 54.9104 18.8926 54.8865 19.0366C54.8625 19.1566 54.8025 19.2286 54.7065 19.2526H54.6345L54.5985 19.2886H54.4905L54.4545 19.3246H54.3465L54.3105 19.3606H54.2025L54.1665 19.3966H54.0585L54.0225 19.4326H53.9145L53.8785 19.4686H53.7705L53.7345 19.5046H53.6265L53.5905 19.5406H53.4825L53.4465 19.5766H53.3025L53.2665 19.6126H53.1585L53.1225 19.6486H53.0145L52.9785 19.6846H52.9065C52.7865 19.7086 52.6785 19.6486 52.5825 19.5046C52.5105 19.3606 52.4865 19.2166 52.5105 19.0726C52.5345 18.9046 52.6065 18.8086 52.7265 18.7846Z" stroke="black" stroke-width="0.2" mask="url(#path-1-outside-1_8007_6372)"/>
<path d="M62.634 26.3086C63.474 25.9966 63.966 25.7686 64.11 25.6246C63.966 25.3846 63.534 25.3006 62.814 25.3726C62.502 25.3966 62.286 25.4686 62.166 25.5886C62.07 25.7086 62.058 25.8766 62.13 26.0926C62.202 26.2846 62.31 26.4166 62.454 26.4886C62.478 26.4166 62.538 26.3566 62.634 26.3086ZM75.306 27.9646C74.394 27.9646 73.218 28.0606 71.778 28.2526C70.338 28.4446 69.09 28.6246 68.034 28.7926C67.0021 28.9366 65.898 28.9366 64.722 28.7926C63.57 28.6486 62.622 28.2766 61.878 27.6766C61.134 27.1246 60.786 26.4766 60.834 25.7326C60.834 25.2286 61.098 24.8326 61.626 24.5446C62.13 24.2566 62.718 24.1246 63.39 24.1486C64.062 24.1726 64.6021 24.3646 65.01 24.7246C65.346 25.0126 65.49 25.2646 65.442 25.4806C65.3941 25.7206 65.2621 25.9486 65.0461 26.1646C64.83 26.3806 64.578 26.5606 64.29 26.7046C64.002 26.8486 63.69 26.9686 63.354 27.0646C63.522 27.5446 63.954 27.8806 64.65 28.0726C65.346 28.2406 66.186 28.2886 67.17 28.2166C68.178 28.1206 69.162 28.0006 70.122 27.8566C71.106 27.6886 72.102 27.5086 73.11 27.3166C74.142 27.1246 74.8621 27.0166 75.2701 26.9926C75.87 26.7286 76.2421 26.7886 76.386 27.1726C76.5061 27.4846 76.3741 27.7246 75.9901 27.8926C75.798 27.9646 75.57 27.9886 75.306 27.9646Z" stroke="black" stroke-width="0.2" mask="url(#path-1-outside-1_8007_6372)"/>
<path d="M83.4027 29.2966C82.8987 28.9606 82.4907 28.3126 82.1787 27.3526C81.9627 27.4966 81.6867 27.7126 81.3507 28.0006C81.2787 28.0486 81.1347 28.1566 80.9187 28.3246C80.7267 28.4686 80.5467 28.6126 80.3787 28.7566C80.2107 28.8766 79.9947 29.0326 79.7307 29.2246C79.4667 29.3926 79.2147 29.5486 78.9747 29.6926C78.7347 29.8366 78.4707 29.9806 78.1827 30.1246C77.8947 30.2446 77.6067 30.3406 77.3187 30.4126C77.2467 30.4126 77.1387 30.4246 76.9947 30.4486C76.8747 30.4726 76.7667 30.4966 76.6707 30.5206C76.5747 30.5206 76.4667 30.5206 76.3467 30.5206C76.2267 30.5206 76.1067 30.5206 75.9867 30.5206C75.8907 30.4966 75.8067 30.4726 75.7347 30.4486C75.1347 30.2086 74.9547 29.6446 75.1947 28.7566C75.2427 28.5646 75.3147 28.3846 75.4107 28.2166C75.5547 27.9286 75.7587 27.6286 76.0227 27.3166C76.3107 27.0046 76.5147 26.7646 76.6347 26.5966C76.8507 26.2846 77.1507 26.3086 77.5347 26.6686C77.8467 27.0046 77.8587 27.2806 77.5707 27.4966C77.0667 27.8086 76.6827 28.2406 76.4187 28.7926C76.2027 29.2486 76.3227 29.4646 76.7787 29.4406C77.0187 29.4166 77.3427 29.3206 77.7507 29.1526C77.8947 29.1046 78.0387 29.0446 78.1827 28.9726C78.3507 28.9006 78.5067 28.8166 78.6507 28.7206C78.8187 28.6006 78.9507 28.5046 79.0467 28.4326C79.1667 28.3606 79.3227 28.2526 79.5147 28.1086C79.7067 27.9646 79.8387 27.8686 79.9107 27.8206C79.9827 27.7486 80.1147 27.6286 80.3067 27.4606C80.5227 27.2686 80.6547 27.1606 80.7027 27.1366C80.9427 26.9206 81.2307 26.6806 81.5667 26.4166C81.7347 26.2726 81.8547 26.1886 81.9267 26.1646C81.9987 26.1166 82.1187 26.0686 82.2867 26.0206C82.4787 25.9486 82.6467 25.9486 82.7907 26.0206C82.8147 26.0446 82.8387 26.0686 82.8627 26.0926C82.8867 26.1166 82.9107 26.1406 82.9347 26.1646C82.9827 26.1886 83.0067 26.2126 83.0067 26.2366C83.0307 26.2366 83.0547 26.2486 83.0787 26.2726C83.1027 26.3206 83.1267 26.3566 83.1507 26.3806C83.2227 26.5966 83.2947 26.8726 83.3667 27.2086C83.4387 27.5206 83.4987 27.7486 83.5467 27.8926C83.5947 28.0126 83.7147 28.1686 83.9067 28.3606C84.1227 28.5526 84.4107 28.7326 84.7707 28.9006C85.3947 29.1886 86.1747 29.3566 87.1107 29.4046C88.0707 29.4286 89.0667 29.3686 90.0987 29.2246C91.1547 29.0566 92.1627 28.8766 93.1227 28.6846C94.0827 28.4686 95.0307 28.2526 95.9667 28.0366C96.9267 27.7966 97.6107 27.6526 98.0187 27.6046C98.0667 27.4126 98.1747 27.3046 98.3427 27.2806C98.5107 27.2806 98.7507 27.2686 99.0627 27.2446C99.3747 27.1966 99.6507 27.1606 99.8907 27.1366C100.155 27.1126 100.407 27.1126 100.647 27.1366C100.671 27.1606 100.719 27.1966 100.791 27.2446C100.863 27.2686 100.911 27.3046 100.935 27.3526C100.983 27.3766 101.019 27.4126 101.043 27.4606C101.163 27.8206 101.175 28.0726 101.079 28.2166C100.983 28.3366 100.767 28.4686 100.431 28.6126C100.383 28.6366 100.239 28.6126 99.9987 28.5406C99.7587 28.4686 99.6147 28.4566 99.5667 28.5046C98.9187 28.5046 98.4267 28.5166 98.0907 28.5406C97.6347 28.5886 96.8667 28.7206 95.7867 28.9366C94.7067 29.1286 93.6147 29.3206 92.5107 29.5126C91.4067 29.6806 90.2547 29.8366 89.0547 29.9806C87.8787 30.1246 86.7867 30.1486 85.7787 30.0526C84.7707 29.9326 83.9787 29.6806 83.4027 29.2966Z" stroke="black" stroke-width="0.2" mask="url(#path-1-outside-1_8007_6372)"/>
</svg>
