<svg width="16" height="16" viewBox="0 0 16 16" fill="none" xmlns="http://www.w3.org/2000/svg">
<path d="M7 14C3.14 14 0 10.86 0 7C0 3.14 3.14 0 7 0C10.86 0 14 3.14 14 7C14 10.86 10.86 14 7 14ZM7 2C4.243 2 2 4.243 2 7C2 9.757 4.243 12 7 12C9.757 12 12 9.757 12 7C12 4.243 9.757 2 7 2Z" fill="black"/>
<path d="M15.7074 14.2929L13.3144 11.8999C12.9034 12.4289 12.4294 12.9029 11.9004 13.3139L14.2934 15.7069C14.4884 15.9019 14.7444 15.9999 15.0004 15.9999C15.2564 15.9999 15.5124 15.9019 15.7074 15.7069C16.0984 15.3159 16.0984 14.6839 15.7074 14.2929Z" fill="black"/>
</svg>
