<svg width="13" height="18" viewBox="0 0 13 18" fill="none" xmlns="http://www.w3.org/2000/svg">
<path fill-rule="evenodd" clip-rule="evenodd" d="M2.08 0.257143C1.88686 0.11388 1.6572 0.0266389 1.41675 0.00519579C1.1763 -0.0162473 0.93456 0.0289546 0.718622 0.135737C0.502685 0.242519 0.321079 0.406663 0.194154 0.609775C0.0672291 0.812887 0 1.04694 0 1.28571V16.7143C0 16.9531 0.0672291 17.1871 0.194154 17.3902C0.321079 17.5933 0.502685 17.7575 0.718622 17.8643C0.93456 17.971 1.1763 18.0162 1.41675 17.9948C1.6572 17.9734 1.88686 17.8861 2.08 17.7429L12.48 10.0286C12.6415 9.90881 12.7725 9.75352 12.8628 9.57499C12.953 9.39646 13 9.1996 13 9C13 8.8004 12.953 8.60354 12.8628 8.42501C12.7725 8.24648 12.6415 8.09119 12.48 7.97143L2.08 0.257143Z" fill="black"/>
</svg>
