<svg width="2800" height="220" viewBox="-600 -5 2800 220" fill="none" xmlns="http://www.w3.org/2000/svg">
  <!-- P -->
  <path d="M-519.865 4.06077C-503.82 4.06077 -490.287 7.34807 -479.268 13.9227C-468.056 20.4972 -459.743 29.1989 -454.33 40.0276C-448.917 50.8564 -446.21 62.5553 -446.21 75.1243C-446.21 87.5 -448.917 99.0055 -454.33 109.641C-459.55 120.083 -467.766 128.494 -478.978 134.876C-489.997 141.257 -503.626 144.448 -519.865 144.448H-552.633V207.099H-597V4.06077H-519.865ZM-527.115 107.32C-516.676 107.32 -507.88 104.903 -500.727 100.069C-493.574 95.0414 -489.997 86.7265 -489.997 75.1243C-489.997 63.5221 -493.574 55.4005 -500.727 50.7597C-507.686 46.1188 -516.482 43.7983 -527.115 43.7983H-552.633V107.32H-527.115Z" fill="url(#paint0_linear_8100_5124)"/>
  <!-- H -->
  <path d="M-247.964 4.06077V207.099H-293.491V122.983H-369.755V207.099H-414.992V4.06077H-369.755V87.5967H-293.491V4.06077H-247.964Z" fill="url(#paint1_linear_8100_5124)"/>
  <!-- O -->
  <path d="M-119.593 209.71C-139.892 209.71 -157.098 205.069 -171.21 195.787C-185.322 186.312 -195.955 173.743 -203.108 158.08C-210.067 142.224 -213.547 124.724 -213.547 105.58C-213.547 86.4365 -209.971 68.8398 -202.818 52.7901C-195.665 36.7403 -185.032 23.9779 -170.92 14.5028C-156.808 4.83426 -139.699 0 -119.593 0C-99.8748 0 -83.056 4.73757 -69.137 14.2127C-55.0246 23.6878 -44.4887 36.547 -37.5291 52.7901C-30.3763 68.8398 -26.7999 86.5332 -26.7999 105.87C-26.7999 125.207 -30.3763 142.804 -37.5291 158.66C-44.4887 174.323 -55.0246 186.796 -69.137 196.077C-83.056 205.166 -99.8748 209.71 -119.593 209.71ZM-119.883 169.392C-105.578 169.392 -94.5585 163.301 -86.8257 151.119C-78.8996 138.936 -74.9366 123.66 -74.9366 105.29C-74.9366 87.1133 -78.8029 71.7403 -86.5357 59.1713C-94.2685 46.6022 -105.384 40.3177 -119.883 40.3177C-129.743 40.3177 -138.152 43.3149 -145.112 49.3094C-151.878 55.3039 -157.001 63.2321 -160.481 73.0939C-163.767 82.9558 -165.41 93.6878 -165.41 105.29C-165.41 123.273 -161.544 138.453 -153.811 150.829C-145.885 163.204 -134.576 169.392 -119.883 169.392Z" fill="url(#paint2_linear_8100_5124)"/>
  <!-- T -->
  <path d="M143.328 43.5083H89.9713V207.099H45.0244V43.5083H-8.3318V4.06077H143.328V43.5083Z" fill="url(#paint3_linear_8100_5124)"/>
  <!-- O -->
  <path d="M260.563 209.71C240.265 209.71 223.059 205.069 208.947 195.787C194.835 186.312 184.202 173.743 177.049 158.08C170.09 142.224 166.61 124.724 166.61 105.58C166.61 86.4365 170.186 68.8398 177.339 52.7901C184.492 36.7403 195.125 23.9779 209.237 14.5028C223.349 4.83426 240.458 0 260.563 0C280.282 0 297.101 4.73757 311.02 14.2127C325.132 23.6878 335.668 36.547 342.628 52.7901C349.78 68.8398 353.357 86.5332 353.357 105.87C353.357 125.207 349.78 142.804 342.628 158.66C335.668 174.323 325.132 186.796 311.02 196.077C297.101 205.166 280.282 209.71 260.563 209.71ZM260.273 169.392C274.579 169.392 285.598 163.301 293.331 151.119C301.257 138.936 305.22 123.66 305.22 105.29C305.22 87.1133 301.354 71.7403 293.621 59.1713C285.888 46.6022 274.772 40.3177 260.273 40.3177C250.414 40.3177 242.005 43.3149 235.045 49.3094C228.279 55.3039 223.156 63.2321 219.676 73.0939C216.39 82.9558 214.746 93.6878 214.746 105.29C214.746 123.273 218.613 138.453 226.346 150.829C234.272 163.204 245.581 169.392 260.273 169.392Z" fill="url(#paint4_linear_8100_5124)"/>
  <!-- J -->
  <path d="M410.97 207.97C400.531 207.97 392.025 207.196 385.452 205.649V173.453C389.705 174.227 393.861 174.613 397.921 174.613C404.494 174.613 409.327 173.453 412.42 171.133C415.513 168.812 417.35 165.912 417.93 162.431C418.703 158.95 419.089 154.309 419.089 148.508V4.06077H464.036V162.431C464.036 173.453 460.75 183.798 454.177 193.467C447.604 203.135 433.202 207.97 410.97 207.97Z" fill="url(#paint5_linear_8100_5124)"/>
  <!-- O -->
  <path d="M595.411 209.71C575.112 209.71 557.907 205.069 543.794 195.787C529.682 186.312 519.049 173.743 511.897 158.08C504.937 142.224 501.457 124.724 501.457 105.58C501.457 86.4365 505.034 68.8398 512.187 52.7901C519.339 36.7403 529.972 23.9779 544.084 14.5028C558.197 4.83426 575.305 0 595.411 0C615.129 0 631.948 4.73757 645.867 14.2127C659.98 23.6878 670.516 36.547 677.475 52.7901C684.628 68.8398 688.204 86.5332 688.204 105.87C688.204 125.207 684.628 142.804 677.475 158.66C670.516 174.323 659.98 186.796 645.867 196.077C631.948 205.166 615.129 209.71 595.411 209.71ZM595.121 169.392C609.426 169.392 620.446 163.301 628.178 151.119C636.105 138.936 640.068 123.66 640.068 105.29C640.068 87.1133 636.201 71.7403 628.468 59.1713C620.736 46.6022 609.62 40.3177 595.121 40.3177C585.261 40.3177 576.852 43.3149 569.893 49.3094C563.126 55.3039 558.003 63.2321 554.524 73.0939C551.237 82.9558 549.594 93.6878 549.594 105.29C549.594 123.273 553.46 138.453 561.193 150.829C569.119 163.204 580.428 169.392 595.121 169.392Z" fill="url(#paint6_linear_8100_5124)"/>
  <!-- U -->
  <path d="M808.163 210C783.418 210 763.12 202.749 747.267 188.246C731.608 173.55 723.779 150.249 723.779 118.343V4.06077H768.726V115.152C768.726 149.572 781.872 166.782 808.163 166.782C822.275 166.782 832.328 162.044 838.321 152.569C844.314 143.094 847.31 130.622 847.31 115.152V4.06077H892.257V118.343C892.257 150.249 884.331 173.55 868.479 188.246C852.82 202.749 832.715 210 808.163 210Z" fill="url(#paint7_linear_8100_5124)"/>
  <!-- R -->
  <path d="M1001.12 136.036H977.636V207.099H932.689V4.06077H1009.82C1025.87 4.06077 1039.4 7.1547 1050.42 13.3425C1061.63 19.5304 1069.95 27.7486 1075.36 37.9972C1080.77 48.0525 1083.48 58.9779 1083.48 70.7735C1083.48 83.9227 1080.19 95.8149 1073.62 106.45C1067.05 116.892 1057.38 124.724 1044.62 129.945L1088.12 207.099H1040.85L1001.12 136.036ZM977.636 99.1989H1002.57C1013.01 99.1989 1021.81 97.0718 1028.96 92.8177C1036.12 88.3702 1039.69 81.0221 1039.69 70.7735C1039.69 60.9116 1036.12 53.9503 1028.96 49.8895C1022 45.6354 1013.21 43.5083 1002.57 43.5083H977.636V99.1989Z" fill="url(#paint8_linear_8100_5124)"/>
  <!-- N -->
  <path d="M1121.21 4.06077H1173.7L1247.93 137.776H1248.8V4.06077H1293.46V207.39H1240.39L1166.74 78.605H1165.87V207.39H1121.21V4.06077Z" fill="url(#paint9_linear_8100_5124)"/>
  <!-- A -->
  <path d="M1447.8 160.11H1382.84L1368.34 207.099H1322.53L1394.73 4.06077H1436.78L1508.4 207.099H1462.59L1447.8 160.11ZM1436.78 125.594L1415.9 60.0414H1414.16L1393.86 125.594H1436.78Z" fill="url(#paint10_linear_8100_5124)"/>
  <!-- L -->
  <path d="M1666.98 167.652V207.099H1536.2V4.06077H1581.73L1581.44 167.652H1666.98Z" fill="url(#paint11_linear_8100_5124)"/>
  <!-- I -->
  <path d="M1702.11 4.06077H1747.64V207.099H1702.11V4.06077Z" fill="url(#paint12_linear_8100_5124)"/>
  <!-- S -->
  <path d="M1869.69 209.71C1853.45 209.71 1839.34 206.519 1827.35 200.138C1815.56 193.757 1806.57 185.442 1800.39 175.193C1794.39 164.751 1791.4 153.923 1791.4 142.707V140.387H1840.98V142.417C1840.98 149.378 1843.5 155.76 1848.52 161.561C1853.55 167.362 1860.9 170.262 1870.56 170.262C1878.87 170.262 1885.54 168.135 1890.57 163.881C1895.6 159.627 1898.11 154.019 1898.11 147.058C1898.11 140.87 1895.89 135.939 1891.44 132.265C1886.99 128.398 1881.58 125.787 1875.2 124.434L1852 119.793C1838.47 116.699 1825.81 110.898 1814.01 102.389C1802.22 93.8812 1796.33 79.9586 1796.33 60.6216C1796.33 48.0525 1799.32 37.2238 1805.32 28.1354C1811.5 19.047 1820.01 12.0856 1830.83 7.25139C1841.66 2.41713 1853.94 0 1867.66 0C1883.32 0 1896.85 2.99724 1908.26 8.99172C1919.66 14.9862 1928.27 22.8177 1934.07 32.4862C1939.87 41.9613 1942.77 51.9199 1942.77 62.3619V63.8122H1893.18V62.942C1893.18 56.7541 1890.96 51.0497 1886.51 45.8287C1882.26 40.4144 1875.39 37.7072 1865.92 37.7072C1858.58 37.7072 1852.68 39.7376 1848.23 43.7983C1843.98 47.8591 1841.85 53.1768 1841.85 59.7514C1841.85 66.1326 1844.27 71.1602 1849.1 74.8343C1853.94 78.5083 1859.73 81.0221 1866.5 82.3757L1889.99 87.5967C1905.26 90.884 1918.31 97.0718 1929.14 106.16C1939.96 115.249 1945.38 128.494 1945.38 145.898C1945.38 158.66 1942.09 169.876 1935.52 179.544C1928.94 189.213 1919.86 196.657 1908.26 201.878C1896.85 207.099 1884 209.71 1869.69 209.71Z" fill="url(#paint13_linear_8100_5124)"/>
  <!-- M -->
  <path d="M1981.12 4.06077H2048.4L2088.13 119.213H2089L2128.72 4.06077H2196V207.099H2151.63V67.8729H2150.47L2102.92 207.099H2074.21L2026.65 67.8729H2025.49V207.099H1981.12V4.06077Z" fill="url(#paint14_linear_8100_5124)"/>

  <defs>
    <linearGradient id="paint0_linear_8100_5124" x1="799.5" y1="210" x2="799.5" y2="0" gradientUnits="userSpaceOnUse">
      <stop stop-color="#F7F7F7"/>
      <stop offset="1" stop-color="#FEFEFE" stop-opacity="0"/>
    </linearGradient>
    <linearGradient id="paint1_linear_8100_5124" x1="799.5" y1="210" x2="799.5" y2="0" gradientUnits="userSpaceOnUse">
      <stop stop-color="#F7F7F7"/>
      <stop offset="1" stop-color="#FEFEFE" stop-opacity="0"/>
    </linearGradient>
    <linearGradient id="paint2_linear_8100_5124" x1="799.5" y1="210" x2="799.5" y2="0" gradientUnits="userSpaceOnUse">
      <stop stop-color="#F7F7F7"/>
      <stop offset="1" stop-color="#FEFEFE" stop-opacity="0"/>
    </linearGradient>
    <linearGradient id="paint3_linear_8100_5124" x1="799.5" y1="210" x2="799.5" y2="0" gradientUnits="userSpaceOnUse">
      <stop stop-color="#F7F7F7"/>
      <stop offset="1" stop-color="#FEFEFE" stop-opacity="0"/>
    </linearGradient>
    <linearGradient id="paint4_linear_8100_5124" x1="799.5" y1="210" x2="799.5" y2="0" gradientUnits="userSpaceOnUse">
      <stop stop-color="#F7F7F7"/>
      <stop offset="1" stop-color="#FEFEFE" stop-opacity="0"/>
    </linearGradient>
    <linearGradient id="paint5_linear_8100_5124" x1="799.5" y1="210" x2="799.5" y2="0" gradientUnits="userSpaceOnUse">
      <stop stop-color="#F7F7F7"/>
      <stop offset="1" stop-color="#FEFEFE" stop-opacity="0"/>
    </linearGradient>
    <linearGradient id="paint6_linear_8100_5124" x1="799.5" y1="210" x2="799.5" y2="0" gradientUnits="userSpaceOnUse">
      <stop stop-color="#F7F7F7"/>
      <stop offset="1" stop-color="#FEFEFE" stop-opacity="0"/>
    </linearGradient>
    <linearGradient id="paint7_linear_8100_5124" x1="799.5" y1="210" x2="799.5" y2="0" gradientUnits="userSpaceOnUse">
      <stop stop-color="#F7F7F7"/>
      <stop offset="1" stop-color="#FEFEFE" stop-opacity="0"/>
    </linearGradient>
    <linearGradient id="paint8_linear_8100_5124" x1="799.5" y1="210" x2="799.5" y2="0" gradientUnits="userSpaceOnUse">
      <stop stop-color="#F7F7F7"/>
      <stop offset="1" stop-color="#FEFEFE" stop-opacity="0"/>
    </linearGradient>
    <linearGradient id="paint9_linear_8100_5124" x1="799.5" y1="210" x2="799.5" y2="0" gradientUnits="userSpaceOnUse">
      <stop stop-color="#F7F7F7"/>
      <stop offset="1" stop-color="#FEFEFE" stop-opacity="0"/>
    </linearGradient>
    <linearGradient id="paint10_linear_8100_5124" x1="799.5" y1="210" x2="799.5" y2="0" gradientUnits="userSpaceOnUse">
      <stop stop-color="#F7F7F7"/>
      <stop offset="1" stop-color="#FEFEFE" stop-opacity="0"/>
    </linearGradient>
    <linearGradient id="paint11_linear_8100_5124" x1="799.5" y1="210" x2="799.5" y2="0" gradientUnits="userSpaceOnUse">
      <stop stop-color="#F7F7F7"/>
      <stop offset="1" stop-color="#FEFEFE" stop-opacity="0"/>
    </linearGradient>
    <linearGradient id="paint12_linear_8100_5124" x1="799.5" y1="210" x2="799.5" y2="0" gradientUnits="userSpaceOnUse">
      <stop stop-color="#F7F7F7"/>
      <stop offset="1" stop-color="#FEFEFE" stop-opacity="0"/>
    </linearGradient>
    <linearGradient id="paint13_linear_8100_5124" x1="799.5" y1="210" x2="799.5" y2="0" gradientUnits="userSpaceOnUse">
      <stop stop-color="#F7F7F7"/>
      <stop offset="1" stop-color="#FEFEFE" stop-opacity="0"/>
    </linearGradient>
    <linearGradient id="paint14_linear_8100_5124" x1="799.5" y1="210" x2="799.5" y2="0" gradientUnits="userSpaceOnUse">
      <stop stop-color="#F7F7F7"/>
      <stop offset="1" stop-color="#FEFEFE" stop-opacity="0"/>
    </linearGradient>
  </defs>
</svg>