<svg width="12" height="10" viewBox="0 0 12 10" fill="none" xmlns="http://www.w3.org/2000/svg">
<path d="M4.805 9.85708L2.19741e-07 5.02708L4.805 0.197079C4.8484 0.140093 4.90353 0.093095 4.96667 0.0592682C5.0298 0.0254414 5.09947 0.00557524 5.17096 0.00101441C5.24244 -0.00354642 5.31407 0.00730486 5.38099 0.0328333C5.44792 0.0583617 5.50858 0.0979713 5.55886 0.148981C5.60915 0.19999 5.64789 0.261209 5.67246 0.328491C5.69703 0.395774 5.70685 0.46755 5.70127 0.538961C5.69569 0.610372 5.67483 0.67975 5.64011 0.742398C5.60538 0.805046 5.5576 0.859502 5.5 0.902079L1.905 4.52708L11.47 4.52708C11.6026 4.52708 11.7298 4.57976 11.8236 4.67353C11.9173 4.76729 11.97 4.89447 11.97 5.02708C11.97 5.15969 11.9173 5.28686 11.8236 5.38063C11.7298 5.4744 11.6026 5.52708 11.47 5.52708L1.905 5.52708L5.5 9.15208C5.59349 9.24623 5.64575 9.37367 5.64528 9.50635C5.64481 9.63903 5.59165 9.76609 5.4975 9.85958C5.40335 9.95307 5.27591 10.0053 5.14323 10.0049C5.01055 10.0044 4.88349 9.95123 4.79 9.85708L4.805 9.85708Z" fill="#585858"/>
</svg>
