<svg width="2180" height="228" viewBox="-290 -5 2180 228" fill="none" xmlns="http://www.w3.org/2000/svg">
<path d="M-273.836 4.21405H-226.88L-177.215 164.647H-175.409L-126.045 4.21405H-79.089L-146.513 215.215H-206.412L-273.836 4.21405ZM-42.8185 4.21405H4.43846V214.914H-42.8185V4.21405ZM49.9365 3.91305H133.012C151.674 3.91305 168.129 8.12705 182.376 16.5551C196.624 24.7824 207.66 36.8224 215.487 52.6751C223.513 68.3271 227.526 87.0894 227.526 108.962C227.526 131.236 223.513 150.299 215.487 166.152C207.46 182.005 196.222 194.045 181.774 202.272C167.527 210.499 151.072 214.613 132.41 214.613H49.9365V3.91305ZM123.681 172.473C140.136 172.473 153.179 167.757 162.811 158.326C172.443 148.895 177.259 132.44 177.259 108.962C177.259 85.4841 172.443 69.0294 162.811 59.5981C153.38 50.1667 140.337 45.4511 123.681 45.4511H95.3875V172.473H123.681ZM309.928 45.1501V89.9991H389.994V126.42H309.928V173.978H405.044V214.914H262.671V4.21405H405.044V45.1501H309.928ZM535.198 217.623C514.128 217.623 496.269 212.807 481.62 203.175C466.971 193.342 455.935 180.299 448.51 164.045C441.286 147.59 437.674 129.43 437.674 109.564C437.674 89.6981 441.386 71.4374 448.811 54.7821C456.236 38.1267 467.272 24.8827 481.921 15.0501C496.57 5.01672 514.329 4.85778e-05 535.198 4.85778e-05C555.666 4.85778e-05 573.124 4.91638 587.572 14.7491C602.221 24.5817 613.157 37.9261 620.381 54.7821C627.806 71.4374 631.518 89.7984 631.518 109.865C631.518 129.932 627.806 148.192 620.381 164.647C613.157 180.901 602.221 193.844 587.572 203.476C573.124 212.907 555.666 217.623 535.198 217.623ZM534.897 175.784C549.746 175.784 561.184 169.463 569.211 156.821C577.438 144.179 581.552 128.326 581.552 109.263C581.552 90.4004 577.539 74.4474 569.512 61.404C561.485 48.3607 549.947 41.839 534.897 41.839C524.663 41.839 515.934 44.9494 508.71 51.1701C501.687 57.3907 496.369 65.6181 492.757 75.8521C489.346 86.0861 487.64 97.2231 487.64 109.263C487.64 127.925 491.653 143.677 499.68 156.52C507.907 169.363 519.646 175.784 534.897 175.784ZM756.63 217.623C736.965 217.623 720.209 212.506 706.363 202.272C692.718 192.038 682.484 178.694 675.661 162.239C668.839 145.784 665.427 128.226 665.427 109.564C665.427 90.3001 668.939 72.3404 675.962 55.685C683.186 39.0297 694.022 25.585 708.47 15.351C722.918 5.11705 740.577 4.85778e-05 761.446 4.85778e-05C785.326 4.85778e-05 804.891 6.72239 820.141 20.1671C835.593 33.4111 846.429 50.7687 852.649 72.2401H803.285C800.677 62.8087 795.861 55.2837 788.837 49.6651C781.814 44.0464 772.784 41.2371 761.747 41.2371C745.895 41.2371 733.754 47.5581 725.326 60.2001C716.898 72.8421 712.684 89.6981 712.684 110.768C712.684 132.841 717.199 149.998 726.229 162.239C735.259 174.279 747.901 180.299 764.155 180.299C778.202 180.299 788.837 175.985 796.061 167.356C803.486 158.727 807.299 148.594 807.499 136.955V133.042H768.068V99.6311H853.552V214.914H818.937V185.115H816.529C804.69 206.787 784.724 217.623 756.63 217.623ZM969.263 141.169H944.882V214.914H898.227V4.21405H978.293C994.949 4.21405 1009 7.42472 1020.43 13.846C1032.07 20.2674 1040.7 28.7957 1046.32 39.4311C1051.94 49.8657 1054.75 61.2034 1054.75 73.4441C1054.75 87.0894 1051.34 99.4304 1044.51 110.467C1037.69 121.303 1027.66 129.43 1014.41 134.848L1059.56 214.914H1010.5L969.263 141.169ZM944.882 102.942H970.768C981.604 102.942 990.735 100.735 998.159 96.3201C1005.58 91.7047 1009.3 84.0794 1009.3 73.4441C1009.3 63.2101 1005.58 55.9861 998.159 51.772C990.935 47.3574 981.805 45.1501 970.768 45.1501H944.882V102.942ZM1197.54 166.152H1130.12L1115.07 214.914H1067.51L1142.46 4.21405H1186.11L1260.45 214.914H1212.89L1197.54 166.152ZM1186.11 130.333L1164.43 62.3071H1162.63L1141.56 130.333H1186.11ZM1369.37 4.21405C1386.03 4.21405 1400.07 7.62539 1411.51 14.4481C1423.15 21.2707 1431.78 30.3007 1437.4 41.5381C1443.01 52.7754 1445.82 64.9157 1445.82 77.9591C1445.82 90.8017 1443.01 102.741 1437.4 113.778C1431.98 124.614 1423.45 133.343 1411.81 139.965C1400.37 146.587 1386.23 149.898 1369.37 149.898H1335.36V214.914H1289.3V4.21405H1369.37ZM1361.84 111.37C1372.68 111.37 1381.81 108.862 1389.24 103.845C1396.66 98.6277 1400.37 89.9991 1400.37 77.9591C1400.37 65.9191 1396.66 57.491 1389.24 52.6751C1382.01 47.8591 1372.88 45.4511 1361.84 45.4511H1335.36V111.37H1361.84ZM1651.6 4.21405V214.914H1604.35V127.624H1525.18V214.914H1478.23V4.21405H1525.18V90.9021H1604.35V4.21405H1651.6ZM1756.75 214.914V142.975L1687.52 4.21405H1736.28L1779.32 96.0191H1780.83L1823.87 4.21405H1872.63L1803.4 142.975V214.914H1756.75Z" fill="url(#paint0_linear_8117_5433)"/>
<defs>
<linearGradient id="paint0_linear_8117_5433" x1="800.5" y1="-145.086" x2="800.5" y2="294.914" gradientUnits="userSpaceOnUse">
<stop offset="0.326923" stop-color="#FBFBFB" stop-opacity="0"/>
<stop offset="0.5" stop-color="#F7F7F7"/>
<stop offset="1" stop-color="white" stop-opacity="0"/>
</linearGradient>
</defs>
</svg>