<svg width="225" height="103" viewBox="0 0 225 103" fill="none" xmlns="http://www.w3.org/2000/svg">
<mask id="path-1-outside-1_8033_6527" maskUnits="userSpaceOnUse" x="-0.900391" y="-0.899536" width="226" height="104" fill="black">
<rect fill="white" x="-0.900391" y="-0.899536" width="226" height="104"/>
<path d="M46.4944 35.8447C49.0483 32.8929 51.0966 29.5385 52.6396 25.7816C52.6928 25.6206 52.746 25.4327 52.7992 25.2181C52.9056 25.0034 52.9854 24.7887 53.0386 24.574C53.145 24.3593 53.2514 24.1178 53.3579 23.8495C53.4643 23.5811 53.5441 23.3396 53.5973 23.1249C53.6505 22.9103 53.7303 22.6687 53.8367 22.4004C53.9431 22.132 54.0229 21.9174 54.0761 21.7563C54.1293 21.5417 54.2091 21.3001 54.3155 21.0318C54.422 20.7634 54.5018 20.5488 54.555 20.3878C54.9806 18.563 55.1934 17.6506 55.1934 17.6506C55.2466 17.2212 55.3797 16.282 55.5925 14.8329C55.8585 13.1691 56.0181 11.9884 56.0713 11.2907C56.1245 10.593 56.0979 9.43906 55.9915 7.82895C55.9915 7.72161 55.9649 7.61427 55.9117 7.50693C55.9117 7.34592 55.8851 7.23858 55.8319 7.18492C55.8319 7.07757 55.8053 6.97023 55.7521 6.86289C55.6989 6.70188 55.6457 6.56771 55.5925 6.46037C55.2732 5.70899 55.1136 5.3333 55.1136 5.3333C54.422 4.31356 53.5175 3.64269 52.4002 3.32067C52.2406 3.267 51.7085 3.32067 50.804 3.48168C50.1124 3.85737 49.7665 4.04521 49.7665 4.04521C49.5537 4.20622 49.3143 4.39407 49.0482 4.60875C48.8354 4.76976 48.596 4.98444 48.33 5.25279C47.5319 6.05784 46.8136 6.88973 46.1752 7.74845C45.5367 8.5535 44.9249 9.41222 44.3396 10.3246C43.8076 11.237 43.3287 12.2031 42.9031 13.2228C42.9031 13.2228 42.371 14.6182 41.3069 17.4091C40.0832 20.6829 39.4713 22.3199 39.4713 22.3199C38.8861 23.9837 37.955 27.2575 36.6781 32.1415C36.5717 32.4635 36.5185 32.705 36.5185 32.8661C36.3056 33.6711 35.614 36.2741 34.4435 40.6751C33.273 45.0223 32.3685 48.3499 31.73 50.6577C29.123 60.6403 26.8351 68.2346 24.8666 73.4406C24.7069 73.8163 23.563 76.4998 21.4348 81.4912C27.1278 80.6861 32.2355 80.1762 36.7579 79.9616C39.6842 79.8006 44.3928 79.8006 50.8838 79.9616C54.0229 80.0689 57.5877 80.1494 61.578 80.2031C65.5684 80.3104 69.5854 80.3909 73.629 80.4446C77.7258 80.4983 81.3171 80.5788 84.403 80.6861C87.5953 80.8471 93.3414 81.2228 101.641 81.8132C107.281 82.1352 112.761 82.3499 118.082 82.4572C123.402 82.6182 128.643 82.6451 133.804 82.5377C134.123 82.5377 134.469 82.5377 134.841 82.5377C135.214 82.5377 135.56 82.5377 135.879 82.5377C136.198 82.5377 136.544 82.5377 136.916 82.5377C137.289 82.5377 137.635 82.5377 137.954 82.5377C138.326 82.5377 138.699 82.5109 139.071 82.4572C139.444 82.4572 139.789 82.4572 140.109 82.4572C140.481 82.4572 140.827 82.4572 141.146 82.4572C141.678 82.4035 142.237 82.3499 142.822 82.2962C143.461 82.2962 144.019 82.2694 144.498 82.2157C144.977 82.2157 145.536 82.1889 146.174 82.1352C146.866 82.0815 147.424 82.0279 147.85 81.9742C148.222 81.9742 148.808 81.9205 149.606 81.8132C159.981 80.7398 167.669 79.5054 172.67 78.1099C172.989 78.0563 173.309 77.9758 173.628 77.8684C173.947 77.7611 174.32 77.6269 174.745 77.4659C175.171 77.3586 175.49 77.2512 175.703 77.1439C175.916 77.0902 176.128 77.0097 176.341 76.9024C176.554 76.8487 176.794 76.7682 177.06 76.6609C177.326 76.6072 177.512 76.5535 177.618 76.4998C177.778 76.4462 178.044 76.3657 178.416 76.2583C178.789 76.151 179.002 76.0973 179.055 76.0973C178.842 76.0436 178.203 76.0168 177.139 76.0168C176.448 75.9631 176.102 75.4264 176.102 74.4067C176.102 73.9773 176.208 73.6016 176.421 73.2796C176.634 72.9576 176.927 72.7966 177.299 72.7966C179.161 72.8503 180.837 73.1455 182.327 73.6822C182.327 73.6822 182.487 73.709 182.806 73.7627C183.178 73.87 183.444 73.9773 183.604 74.0847C183.604 74.0847 184.056 74.4872 184.961 75.2923C184.961 75.3459 184.961 75.3996 184.961 75.4533C184.961 75.5606 184.934 75.7216 184.881 75.9363C184.881 76.2047 184.854 76.4193 184.801 76.5803C184.801 76.7414 184.774 76.9024 184.721 77.0634C184.668 77.2781 184.588 77.4927 184.482 77.7074C184.428 77.8148 184.295 77.8953 184.083 77.9489C183.923 78.0563 183.763 78.1099 183.604 78.1099C183.497 78.1636 183.338 78.1905 183.125 78.1905C182.965 78.1905 182.859 78.1905 182.806 78.1905C182.008 78.3515 180.89 78.6198 179.454 78.9955C178.017 79.4249 177.006 79.72 176.421 79.8811C174.293 80.4177 173.229 80.6861 173.229 80.6861C168.121 81.8132 159.688 82.8866 147.93 83.9063C143.461 84.0673 141.226 84.1478 141.226 84.1478C137.076 84.2552 132.66 84.282 127.978 84.2283C123.296 84.1747 118.88 84.0673 114.73 83.9063C110.58 83.7453 106.19 83.5306 101.562 83.2623C100.87 83.2086 99.9921 83.1281 98.928 83.0208C97.9171 82.9671 97.0924 82.9134 96.4539 82.8597C95.8155 82.8061 95.044 82.7524 94.1395 82.6987C93.235 82.6451 92.437 82.5914 91.7453 82.5377C91.0536 82.4841 90.2822 82.4304 89.4309 82.3767C88.5796 82.323 87.7283 82.2694 86.877 82.2157C86.079 82.162 85.2277 82.1352 84.3232 82.1352C81.1309 81.9742 77.5662 81.8668 73.629 81.8132C69.745 81.8132 65.7014 81.8132 61.4982 81.8132C57.3482 81.8132 53.8101 81.7595 50.8838 81.6522C44.0204 81.7058 39.3649 81.8132 36.9175 81.9742C32.2887 82.2962 26.7287 83.0744 20.2377 84.3088C19.5993 85.6506 19.1736 86.5093 18.9608 86.885C18.8012 87.2607 18.1627 88.4146 17.0454 90.3467C16.0345 92.1178 15.4227 93.1644 15.2098 93.4864C14.0393 95.2575 12.2304 97.3507 9.78293 99.7658C9.25088 100.303 8.85184 100.678 8.58581 100.893C8.31979 101.161 7.92075 101.43 7.3887 101.698C6.85665 101.966 6.298 102.1 5.71274 102.1C4.70185 102.1 3.39832 101.483 1.80217 100.249V100.168C1.74897 100.115 1.66916 99.9805 1.56275 99.7658C1.40313 99.6048 1.27012 99.4438 1.16371 99.2828C1.0573 99.1218 0.95089 98.9876 0.84448 98.8803C0.63166 98.3436 0.472044 97.8069 0.365634 97.2702C0.206019 96.7335 0.126212 96.1699 0.126212 95.5796C0.0730068 95.0429 0.0996094 94.5062 0.20602 93.9695C0.312429 93.4328 0.472044 92.896 0.684865 92.3594C0.73807 92.091 0.897685 91.7153 1.16371 91.2323C1.27012 91.0176 1.34993 90.8566 1.40313 90.7492V90.6687C2.148 89.5417 2.52044 88.9781 2.52044 88.9781C3.26531 88.0121 4.14319 87.1802 5.15409 86.4825C6.11178 85.7848 7.3621 85.1407 8.90504 84.5503C10.448 84.0136 11.5387 83.638 12.1772 83.4233C12.8156 83.2623 14.0925 82.9134 16.0079 82.3767C16.9124 82.2157 17.7903 82.0815 18.6416 81.9742C18.748 81.8132 18.8278 81.6522 18.881 81.4912C18.9342 81.3838 19.0938 81.0081 19.3598 80.3641C19.6259 79.7737 19.8653 79.237 20.0781 78.754C20.2909 78.3246 20.5303 77.7611 20.7964 77.0634C21.1156 76.3657 21.3816 75.7753 21.5944 75.2923C21.8605 74.8092 22.0999 74.2994 22.3127 73.7627C22.5255 73.2796 22.6852 72.9039 22.7916 72.6356C24.2813 68.9324 25.5316 65.417 26.5425 62.0894C26.5957 61.8747 27.1544 59.9158 28.2185 56.2125C28.3249 55.7295 28.4579 55.2197 28.6175 54.6829C28.7771 54.0926 28.9101 53.5827 29.0166 53.1534C29.123 52.724 29.256 52.2141 29.4156 51.6238C29.5752 51.0334 29.7082 50.5504 29.8146 50.1747C31.0915 45.2907 32.129 41.2654 32.9271 38.0989C33.1399 37.4012 33.406 36.3814 33.7252 35.0397C34.4169 32.2488 34.9489 30.102 35.3214 28.5993C35.6938 27.0965 36.2258 25.1912 36.9175 22.8834C37.6092 20.5219 38.3008 18.4288 38.9925 16.604C39.0989 16.2283 39.2585 15.7453 39.4713 15.1549C39.6842 14.5646 39.8704 14.0279 40.03 13.5448C40.1896 13.0081 40.3758 12.5251 40.5886 12.0957C41.0143 10.9687 41.5197 9.89525 42.105 8.87552C42.6902 7.80212 43.3287 6.78239 44.0204 5.81633C44.712 4.7966 45.4835 3.85737 46.3348 2.99865C47.1329 2.13993 47.7979 1.54956 48.33 1.22754C48.33 1.22754 49.0216 0.905514 50.405 0.261472C51.5755 0.154133 52.1607 0.100464 52.1607 0.100464C52.4268 0.100464 52.6662 0.127299 52.879 0.180968C53.145 0.234637 53.3845 0.288307 53.5973 0.341976C53.8101 0.395646 54.0229 0.476151 54.2357 0.583493C54.4486 0.690832 54.6614 0.825007 54.8742 0.986019C55.087 1.09336 55.2998 1.22753 55.5127 1.38854C55.7255 1.49588 55.9117 1.63006 56.0713 1.79107C56.2841 1.95208 56.4704 2.11309 56.63 2.2741C56.8428 2.43511 57.029 2.62296 57.1886 2.83764C57.3482 2.99865 57.4813 3.18649 57.5877 3.40117C57.7473 3.56218 57.8803 3.75003 57.9867 3.96471C58.0399 4.07205 58.0931 4.20622 58.1463 4.36723C58.2527 4.52825 58.3325 4.68926 58.3857 4.85026C58.4389 4.95761 58.4921 5.11862 58.5454 5.3333C58.5986 5.49431 58.6518 5.62848 58.705 5.73582C58.705 5.84316 58.705 5.97734 58.705 6.13835C58.7582 6.29936 58.8114 6.43353 58.8646 6.54087C58.9178 6.64821 58.9444 6.78239 58.9444 6.9434C58.9976 7.05074 59.0242 7.18491 59.0242 7.34592C59.0242 7.45326 59.0508 7.58744 59.104 7.74845C59.2104 9.19754 58.971 11.72 58.3857 15.3159C58.3857 15.4233 58.3591 15.6111 58.3059 15.8795C58.3059 16.0941 58.2793 16.3088 58.2261 16.5235C58.2261 16.6845 58.1995 16.8724 58.1463 17.087C58.0931 17.3017 58.0399 17.5164 57.9867 17.7311C57.9867 17.8921 57.9601 18.0799 57.9069 18.2946C57.9069 18.402 57.8803 18.5361 57.8271 18.6971C57.8271 18.8045 57.8005 18.9118 57.7473 19.0192C57.7473 19.1265 57.7207 19.2607 57.6675 19.4217C57.6675 19.529 57.6409 19.6632 57.5877 19.8242C57.5877 19.9316 57.5611 20.0657 57.5079 20.2267C57.4547 20.3341 57.4014 20.4414 57.3482 20.5488C57.3482 20.6561 57.3216 20.7903 57.2684 20.9513C57.2684 21.0586 57.2684 21.1928 57.2684 21.3538C57.162 21.5148 57.0024 21.8905 56.7896 22.4809C56.63 23.0176 56.497 23.4201 56.3905 23.6885C56.3373 23.9031 56.2309 24.252 56.0713 24.735C55.9117 25.1644 55.7521 25.5669 55.5925 25.9426C55.4329 26.3183 55.2732 26.6672 55.1136 26.9892C53.6771 30.3704 51.6287 33.9663 48.9684 37.7769C48.7024 38.0452 48.3832 38.1794 48.0108 38.1794C47.6915 38.1257 47.3723 37.9647 47.0531 37.6964C46.255 36.9986 46.0688 36.3814 46.4944 35.8447ZM7.70793 97.5117C10.1554 95.3649 11.9111 93.5669 12.9752 92.1178C13.1881 91.7958 13.8265 90.7492 14.8906 88.9781C16.1675 86.885 16.9656 85.5164 17.2848 84.8724C17.1784 84.8724 17.072 84.8724 16.9656 84.8724C16.9124 84.926 16.8326 84.9529 16.7262 84.9529C16.5666 85.0065 16.3538 85.0871 16.0877 85.1944C11.4589 86.5898 8.18678 88.0389 6.27139 89.5417C5.73934 89.971 5.36691 90.3199 5.15409 90.5882C5.04768 90.7492 4.94127 90.8834 4.83486 90.9908C4.72845 91.1518 4.62204 91.3396 4.51563 91.5543C4.40922 91.769 4.32941 91.93 4.27621 92.0373C4.01018 92.735 3.82396 93.2449 3.71755 93.5669C3.55794 93.8889 3.45153 94.2915 3.39832 94.7745C3.29191 95.2575 3.29191 95.7137 3.39832 96.1431C3.50473 96.6261 3.69095 97.136 3.95697 97.6727C4.32941 98.0484 4.72845 98.3436 5.15409 98.5582C5.20729 98.5582 5.2871 98.5851 5.39351 98.6388C5.44672 98.6924 5.52652 98.7193 5.63293 98.7193L5.71274 98.8803C5.97877 98.8266 6.64383 98.3704 7.70793 97.5117Z"/>
<path d="M58.9587 64.0215C60.5017 64.3972 61.885 64.5851 63.1087 64.5851C64.3856 64.5851 65.8754 64.4241 67.5779 64.1021C69.3337 63.7264 70.8501 63.3507 72.127 62.975C73.4571 62.5993 74.9468 62.1968 76.5962 61.7674C78.2456 61.2844 79.6289 60.9623 80.7462 60.8013C82.9276 60.4256 84.0715 60.7477 84.1779 61.7674C84.2843 62.4114 83.9651 62.8676 83.2202 63.136C82.8478 63.2433 82.4754 63.1897 82.1029 62.975C80.3472 63.136 77.7135 63.5117 74.202 64.1021C70.7436 64.6387 68.5622 64.9876 67.6578 65.1486C67.2853 65.2023 66.4872 65.3365 65.2635 65.5511C64.093 65.7658 63.0555 65.9537 62.151 66.1147C61.2997 66.222 60.3687 66.2488 59.3578 66.1952C58.3469 66.1415 57.5754 65.9268 57.0433 65.5511C56.0857 64.8534 56.0857 63.6995 57.0433 62.0894C56.6709 62.3041 56.3517 62.4919 56.0857 62.653C55.8728 62.7603 55.6866 62.8676 55.527 62.975C55.4206 63.0286 55.3142 63.1091 55.2078 63.2165C55.1546 63.2702 55.1014 63.297 55.0482 63.297C55.0482 63.297 55.0216 63.3238 54.9683 63.3775C54.9151 63.3775 54.8885 63.3775 54.8885 63.3775C54.8885 63.3775 54.8087 63.4043 54.6491 63.458C54.5427 63.5117 54.4363 63.5653 54.3299 63.619C54.2235 63.6727 54.0373 63.78 53.7712 63.941C53.5052 64.0484 53.2126 64.1826 52.8933 64.3436C51.1908 64.8803 49.5946 65.256 48.1049 65.4706C48.0517 65.5243 47.8655 65.578 47.5462 65.6316C47.227 65.6853 46.9876 65.7122 46.828 65.7122C46.1363 65.6048 45.5245 65.3901 44.9924 65.0681C44.9924 65.0681 44.9126 64.8266 44.753 64.3436C44.753 64.2362 44.753 64.102 44.753 63.941C44.6998 63.78 44.6732 63.6727 44.6732 63.619C44.6732 63.5117 44.6732 63.3775 44.6732 63.2165C44.7796 62.7871 44.9924 62.3846 45.3116 62.0089C45.6309 61.6332 45.8703 61.3649 46.0299 61.2039C46.2427 61.0429 46.6684 60.8013 47.3068 60.4793C47.9453 60.1036 48.2911 59.8889 48.3443 59.8353C48.5039 59.7279 48.77 59.5401 49.1424 59.2717C49.5148 58.9497 49.8607 58.6814 50.1799 58.4667C50.4991 58.252 50.7918 58.091 51.0578 57.9837C51.7494 57.7153 52.7603 57.5275 54.0905 57.4201C55.4738 57.3128 56.4049 57.2054 56.8837 57.0981C57.4158 57.0981 57.6818 57.4738 57.6818 58.2252C57.6818 58.9766 57.4158 59.3522 56.8837 59.3522C56.6709 59.3522 56.1655 59.4059 55.3674 59.5133C54.5693 59.5669 53.9043 59.6474 53.3722 59.7548C52.8401 59.8621 52.3347 60.05 51.8559 60.3183C51.6962 60.4256 51.4834 60.6135 51.2174 60.8818C51.0046 61.0965 50.845 61.2307 50.7385 61.2844C50.6321 61.338 50.5257 61.4185 50.4193 61.5259C50.3129 61.5796 50.1799 61.6601 50.0203 61.7674C49.9139 61.8211 49.8341 61.8747 49.7809 61.9284C49.6744 62.0357 49.3818 62.1968 48.903 62.4114C48.4773 62.6261 48.1581 62.814 47.9453 62.975C49.2222 62.8676 50.6321 62.5993 52.1751 62.1699C52.4943 62.0089 52.8135 61.8747 53.1328 61.7674C53.5052 61.6064 53.718 61.5259 53.7712 61.5259C53.8244 61.4722 53.9309 61.4185 54.0905 61.3649C54.2501 61.2575 54.3565 61.177 54.4097 61.1234C54.4629 61.0697 54.6225 60.9623 54.8885 60.8013C55.2078 60.6403 55.527 60.4525 55.8462 60.2378C55.9526 60.1841 56.2187 60.05 56.6443 59.8353C57.07 59.5669 57.3892 59.3522 57.602 59.1912C57.9744 58.9766 58.4799 58.6009 59.1183 58.0642C59.7568 57.5275 60.2622 57.1518 60.6347 56.9371C61.1135 56.6151 61.5658 56.5077 61.9914 56.6151C62.4171 56.6687 62.7629 56.9371 63.0289 57.4201C63.2949 57.8495 63.3215 58.3057 63.1087 58.7887C63.0023 59.0571 62.8693 59.2986 62.7097 59.5133C62.6033 59.6743 62.5235 59.8084 62.4703 59.9158C62.4171 59.9695 62.2308 60.1036 61.9116 60.3183C61.6456 60.533 61.4594 60.694 61.353 60.8013C60.7677 61.2307 59.9696 62.3041 58.9587 64.0215Z"/>
<path d="M100.003 61.8479C100.907 61.7942 101.892 61.6869 102.956 61.5259C104.02 61.3649 105.19 61.177 106.467 60.9623C107.744 60.7477 108.755 60.5867 109.5 60.4793C109.979 60.372 110.325 60.5061 110.537 60.8818C110.75 61.2039 110.75 61.5527 110.537 61.9284C110.378 62.3041 110.059 62.5188 109.58 62.5724C106.281 62.8945 103.115 63.1091 100.083 63.2165C95.2942 63.2702 91.9955 62.6261 90.1866 61.2844C90.0801 61.177 89.9471 61.0697 89.7875 60.9623C89.6811 61.0697 89.4949 61.2844 89.2289 61.6064C88.9096 61.8211 88.4042 62.1431 87.7125 62.5724C87.0741 62.9481 86.675 63.1897 86.5154 63.297C86.4622 63.3507 86.1962 63.5922 85.7173 64.0215C85.2385 64.4509 84.6266 64.7998 83.8818 65.0681C81.86 65.1218 81.1683 63.78 81.8068 61.0429C82.0196 59.9158 82.126 59.3522 82.126 59.3522C82.1792 59.2986 82.3122 59.0034 82.525 58.4667C82.791 57.93 83.0305 57.3933 83.2433 56.8566C83.5093 56.3199 83.6423 56.0515 83.6423 56.0515C83.7487 55.8369 83.8818 55.488 84.0414 55.005C84.2542 54.5219 84.4138 54.1462 84.5202 53.8779C84.6798 53.5559 84.9991 52.8582 85.4779 51.7848C86.01 50.7114 86.3824 49.8795 86.5952 49.2891C88.085 45.8005 90.1866 41.4801 92.9 36.3278C93.5917 35.4154 93.9375 34.9592 93.9375 34.9592C94.6824 34.2615 95.4805 33.8858 96.3317 33.8321C96.8106 33.7784 97.2096 33.7784 97.5288 33.8321C97.9013 33.8321 98.1939 33.9395 98.4067 34.1541C98.6728 34.3688 98.9122 34.7177 99.125 35.2007C99.1782 35.308 99.2314 35.4422 99.2846 35.6032C99.3378 35.7106 99.391 35.8447 99.4442 36.0058C99.4974 36.1131 99.524 36.2204 99.524 36.3278C99.6305 36.7571 99.6837 37.1865 99.6837 37.6159C99.7369 37.9915 99.7103 38.4477 99.6039 38.9844C99.5506 39.4675 99.4708 39.8432 99.3644 40.1115C99.3112 40.3799 99.1782 40.8361 98.9654 41.4801C98.8058 42.1241 98.726 42.4998 98.726 42.6072C98.1407 43.8953 97.8481 44.5393 97.8481 44.5393C97.5821 45.0223 96.6776 46.3104 95.1346 48.4035C94.975 48.6182 94.709 48.9939 94.3365 49.5306C93.9641 50.0136 93.6715 50.3893 93.4587 50.6577C93.1926 51.0334 92.6606 51.7043 91.8625 52.6703C91.0644 53.5827 90.4526 54.3073 90.0269 54.844C86.7814 58.5472 84.7862 60.9087 84.0414 61.9284C84.201 61.7674 84.5468 61.5259 85.0789 61.2039C86.5686 60.2915 87.3933 59.7548 87.5529 59.5938C88.5638 58.252 89.6279 57.7958 90.7452 58.2252L91.5433 58.7887C91.5433 58.8424 91.5965 58.9229 91.7029 59.0302C91.8093 59.0839 91.8891 59.1644 91.9423 59.2717C91.9955 59.3254 92.0487 59.3791 92.1019 59.4327C93.166 61.3112 95.7997 62.1163 100.003 61.8479ZM85.8769 56.4541C86.1962 56.0784 86.6484 55.5417 87.2337 54.844C87.8721 54.1462 88.2978 53.69 88.5106 53.4754C88.883 52.885 89.4683 52.1336 90.2664 51.2212C91.1176 50.3088 91.6763 49.6916 91.9423 49.3696C92.1019 49.1549 92.2616 48.9402 92.4212 48.7256C92.5808 48.4572 92.7404 48.1889 92.9 47.9205C93.1128 47.5985 93.2724 47.357 93.3789 47.196C94.8686 45.1565 95.7465 43.8684 96.0125 43.3317C96.0657 43.1707 96.1189 43.0097 96.1721 42.8487C96.2785 42.6877 96.3583 42.4998 96.4115 42.2852C96.4647 42.0168 96.518 41.829 96.5712 41.7216C97.05 39.9505 97.2362 38.5551 97.1298 37.5354C97.1298 37.3207 97.1032 37.106 97.05 36.8913C97.05 36.7303 96.9968 36.5961 96.8904 36.4888C96.8372 36.3814 96.8106 36.3009 96.8106 36.2473C96.7574 36.2473 96.7308 36.1936 96.7308 36.0863C96.6244 35.9252 96.5446 35.8179 96.4914 35.7642L96.5712 35.9253C96.6776 36.1936 96.7042 36.3546 96.651 36.4083C96.5978 36.4083 96.518 36.4351 96.4115 36.4888C96.3583 36.4888 96.2785 36.4888 96.1721 36.4888C96.0657 36.4888 95.9859 36.5156 95.9327 36.5693C95.6667 36.6766 95.2942 37.106 94.8154 37.8574C92.6872 41.3459 90.5856 45.4249 88.5106 50.0942C88.351 50.5772 88.1382 51.0871 87.8721 51.6238C87.6593 52.1605 87.3933 52.724 87.0741 53.3144C86.808 53.9047 86.5952 54.3878 86.4356 54.7635C86.4356 54.8171 86.2494 55.3807 85.8769 56.4541Z"/>
<path d="M114.772 58.6277C114.718 58.5204 114.612 58.413 114.452 58.3057C114.346 58.1447 114.266 58.0105 114.213 57.9031C114.053 58.0642 113.787 58.2788 113.415 58.5472C113.042 58.8155 112.776 59.0302 112.617 59.1912C112.298 59.5133 111.899 60.1036 111.42 60.9623C110.941 61.8211 110.462 62.3846 109.983 62.653C109.451 62.975 108.972 63.0286 108.547 62.814C108.121 62.5456 107.855 62.2236 107.749 61.8479C107.695 61.4185 107.775 61.0429 107.988 60.7208C108.733 60.0231 109.478 59.2717 110.223 58.4667C110.435 58.252 110.675 58.0105 110.941 57.7421C111.047 57.5811 111.234 57.3665 111.5 57.0981C111.819 56.8298 112.085 56.5882 112.298 56.3736C112.51 56.1589 112.67 55.9442 112.776 55.7295C112.83 55.6222 112.883 55.5148 112.936 55.4075C112.989 55.2465 113.042 55.0855 113.096 54.9245C113.149 54.7635 113.202 54.6561 113.255 54.6024C113.255 54.4414 113.282 54.3073 113.335 54.1999C113.282 53.7169 113.362 53.3144 113.575 52.9923C113.628 52.9387 113.681 52.8582 113.734 52.7508C113.787 52.6435 113.841 52.5898 113.894 52.5898C113.787 52.3751 113.761 52.2141 113.814 52.1068C114.825 50.5504 115.623 50.3357 116.208 51.4627C116.687 52.5898 116.66 53.6095 116.128 54.5219C116.182 54.844 116.208 55.3538 116.208 56.0515C116.208 56.1052 116.208 56.132 116.208 56.132C116.581 57.0444 117.059 57.8226 117.645 58.4667C118.23 59.1107 118.815 59.6743 119.4 60.1573C119.986 60.5867 120.731 60.9087 121.635 61.1234C122.54 61.338 123.284 61.5259 123.87 61.6869C124.455 61.7942 125.306 61.8211 126.424 61.7674C127.541 61.7137 128.339 61.6869 128.818 61.6869C129.297 61.6332 130.095 61.499 131.212 61.2844C132.383 61.0697 133.074 60.9355 133.287 60.8818C133.553 60.8282 134.218 60.694 135.282 60.4793C135.655 60.372 136.133 60.3183 136.719 60.3183C137.251 60.3183 137.863 60.3988 138.554 60.5598C139.193 60.5062 139.592 60.9355 139.751 61.8479C139.911 62.7603 139.672 63.2433 139.033 63.297C138.874 63.297 138.714 63.2702 138.554 63.2165C138.501 63.2165 138.208 63.2165 137.676 63.2165C137.517 63.2702 137.304 63.297 137.038 63.297C136.825 63.297 136.639 63.297 136.479 63.297C136.16 63.3507 135.921 63.1897 135.761 62.814C135.548 62.814 135.442 62.814 135.442 62.814C134.644 62.8676 133.447 62.9481 131.85 63.0555C130.254 63.1628 128.977 63.2433 128.02 63.297C127.062 63.3507 125.865 63.3238 124.428 63.2165C123.045 63.1091 121.848 62.9213 120.837 62.653C119.826 62.3309 118.762 61.8479 117.645 61.2039C116.581 60.5061 115.623 59.6474 114.772 58.6277ZM116.767 41.8826C119.055 41.5069 120.385 41.2923 120.757 41.2386C121.023 41.1849 121.236 41.2923 121.396 41.5606C121.555 41.829 121.608 42.1241 121.555 42.4462C121.502 42.7145 121.369 42.8755 121.156 42.9292H120.997L120.917 43.0097H120.677L120.598 43.0902H120.358L120.278 43.1707H120.039L119.959 43.2512H119.72L119.64 43.3317H119.4L119.321 43.4122H119.081L119.001 43.4927H118.762L118.682 43.5732H118.443L118.363 43.6537H118.044L117.964 43.7342H117.725L117.645 43.8148H117.405L117.325 43.8953H117.166C116.9 43.9489 116.66 43.8148 116.448 43.4927C116.288 43.1707 116.235 42.8487 116.288 42.5267C116.341 42.151 116.501 41.9363 116.767 41.8826Z"/>
<path d="M138.731 58.7082C140.593 58.0105 141.684 57.5006 142.003 57.1786C141.684 56.6419 140.726 56.4541 139.13 56.6151C138.438 56.6687 137.959 56.8298 137.693 57.0981C137.48 57.3665 137.454 57.7421 137.613 58.2252C137.773 58.6545 138.012 58.9497 138.332 59.1107C138.385 58.9497 138.518 58.8155 138.731 58.7082ZM166.823 62.4114C164.801 62.4114 162.194 62.6261 159.002 63.0555C155.81 63.4848 153.043 63.8874 150.702 64.2631C148.414 64.5851 145.967 64.5851 143.36 64.2631C140.806 63.941 138.704 63.1091 137.055 61.7674C135.405 60.533 134.634 59.0839 134.74 57.4201C134.74 56.293 135.326 55.4075 136.496 54.7635C137.613 54.1194 138.917 53.8242 140.407 53.8779C141.896 53.9316 143.094 54.3609 143.998 55.166C144.743 55.81 145.062 56.3736 144.956 56.8566C144.849 57.3933 144.557 57.9032 144.078 58.3862C143.599 58.8692 143.04 59.2717 142.402 59.5938C141.763 59.9158 141.072 60.1841 140.327 60.3988C140.699 61.4722 141.657 62.2236 143.2 62.653C144.743 63.0286 146.605 63.136 148.786 62.975C151.021 62.7603 153.203 62.4919 155.331 62.1699C157.512 61.7942 159.72 61.3917 161.955 60.9623C164.243 60.533 165.839 60.2915 166.743 60.2378C168.073 59.6474 168.898 59.7816 169.217 60.6403C169.483 61.338 169.191 61.8747 168.339 62.2504C167.914 62.4114 167.408 62.4651 166.823 62.4114Z"/>
<path d="M184.772 65.3901C183.655 64.6387 182.75 63.1897 182.059 61.0429C181.58 61.3649 180.968 61.8479 180.223 62.4919C180.064 62.5993 179.744 62.8408 179.266 63.2165C178.84 63.5385 178.441 63.8605 178.068 64.1825C177.696 64.4509 177.217 64.7998 176.632 65.2291C176.047 65.6048 175.488 65.9537 174.956 66.2757C174.424 66.5977 173.839 66.9197 173.2 67.2417C172.562 67.5101 171.923 67.7248 171.285 67.8858C171.125 67.8858 170.886 67.9126 170.566 67.9663C170.3 68.02 170.061 68.0736 169.848 68.1273C169.635 68.1273 169.396 68.1273 169.13 68.1273C168.864 68.1273 168.598 68.1273 168.332 68.1273C168.119 68.0736 167.933 68.02 167.773 67.9663C166.443 67.4296 166.044 66.1683 166.576 64.1825C166.683 63.7532 166.842 63.3507 167.055 62.975C167.374 62.3309 167.826 61.6601 168.412 60.9623C169.05 60.2646 169.502 59.7279 169.768 59.3522C170.247 58.6545 170.912 58.7082 171.764 59.5133C172.455 60.2646 172.482 60.8818 171.843 61.3649C170.726 62.0626 169.875 63.0286 169.29 64.2631C168.811 65.2828 169.077 65.7658 170.088 65.7122C170.62 65.6585 171.338 65.4438 172.242 65.0681C172.562 64.9608 172.881 64.8266 173.2 64.6656C173.573 64.5046 173.918 64.3167 174.238 64.1021C174.61 63.8337 174.903 63.619 175.116 63.458C175.382 63.297 175.727 63.0555 176.153 62.7335C176.579 62.4114 176.871 62.1968 177.031 62.0894C177.191 61.9284 177.483 61.6601 177.909 61.2844C178.388 60.855 178.68 60.6135 178.787 60.5598C179.319 60.0768 179.957 59.5401 180.702 58.9497C181.074 58.6277 181.341 58.4399 181.5 58.3862C181.66 58.2788 181.926 58.1715 182.298 58.0642C182.724 57.9032 183.096 57.9032 183.415 58.0642C183.469 58.1178 183.522 58.1715 183.575 58.2252C183.628 58.2788 183.682 58.3325 183.735 58.3862C183.841 58.4399 183.894 58.4935 183.894 58.5472C183.948 58.5472 184.001 58.574 184.054 58.6277C184.107 58.735 184.16 58.8155 184.214 58.8692C184.373 59.3522 184.533 59.9694 184.692 60.7208C184.852 61.4185 184.985 61.9284 185.091 62.2504C185.198 62.5188 185.464 62.8676 185.89 63.297C186.368 63.7264 187.007 64.1289 187.805 64.5046C189.188 65.1486 190.917 65.5243 192.992 65.6316C195.121 65.6853 197.329 65.5511 199.616 65.2291C201.957 64.8534 204.192 64.4509 206.32 64.0215C208.448 63.5385 210.55 63.0555 212.625 62.5724C214.753 62.0357 216.27 61.7137 217.174 61.6064C217.281 61.177 217.52 60.9355 217.892 60.8818C218.265 60.8818 218.797 60.855 219.489 60.8013C220.18 60.694 220.792 60.6135 221.324 60.5598C221.909 60.5062 222.468 60.5062 223 60.5598C223.053 60.6135 223.16 60.694 223.319 60.8013C223.479 60.855 223.585 60.9355 223.639 61.0429C223.745 61.0965 223.825 61.177 223.878 61.2844C224.144 62.0894 224.171 62.653 223.958 62.975C223.745 63.2433 223.266 63.5385 222.521 63.8605C222.415 63.9142 222.096 63.8605 221.564 63.6995C221.031 63.5385 220.712 63.5117 220.606 63.619C219.169 63.619 218.079 63.6459 217.334 63.6995C216.323 63.8069 214.62 64.102 212.226 64.5851C209.832 65.0144 207.411 65.4438 204.964 65.8732C202.516 66.2488 199.962 66.5977 197.302 66.9197C194.695 67.2417 192.274 67.2954 190.04 67.0807C187.805 66.8124 186.049 66.2489 184.772 65.3901Z"/>
</mask>
<path d="M46.4944 35.8447C49.0483 32.8929 51.0966 29.5385 52.6396 25.7816C52.6928 25.6206 52.746 25.4327 52.7992 25.2181C52.9056 25.0034 52.9854 24.7887 53.0386 24.574C53.145 24.3593 53.2514 24.1178 53.3579 23.8495C53.4643 23.5811 53.5441 23.3396 53.5973 23.1249C53.6505 22.9103 53.7303 22.6687 53.8367 22.4004C53.9431 22.132 54.0229 21.9174 54.0761 21.7563C54.1293 21.5417 54.2091 21.3001 54.3155 21.0318C54.422 20.7634 54.5018 20.5488 54.555 20.3878C54.9806 18.563 55.1934 17.6506 55.1934 17.6506C55.2466 17.2212 55.3797 16.282 55.5925 14.8329C55.8585 13.1691 56.0181 11.9884 56.0713 11.2907C56.1245 10.593 56.0979 9.43906 55.9915 7.82895C55.9915 7.72161 55.9649 7.61427 55.9117 7.50693C55.9117 7.34592 55.8851 7.23858 55.8319 7.18492C55.8319 7.07757 55.8053 6.97023 55.7521 6.86289C55.6989 6.70188 55.6457 6.56771 55.5925 6.46037C55.2732 5.70899 55.1136 5.3333 55.1136 5.3333C54.422 4.31356 53.5175 3.64269 52.4002 3.32067C52.2406 3.267 51.7085 3.32067 50.804 3.48168C50.1124 3.85737 49.7665 4.04521 49.7665 4.04521C49.5537 4.20622 49.3143 4.39407 49.0482 4.60875C48.8354 4.76976 48.596 4.98444 48.33 5.25279C47.5319 6.05784 46.8136 6.88973 46.1752 7.74845C45.5367 8.5535 44.9249 9.41222 44.3396 10.3246C43.8076 11.237 43.3287 12.2031 42.9031 13.2228C42.9031 13.2228 42.371 14.6182 41.3069 17.4091C40.0832 20.6829 39.4713 22.3199 39.4713 22.3199C38.8861 23.9837 37.955 27.2575 36.6781 32.1415C36.5717 32.4635 36.5185 32.705 36.5185 32.8661C36.3056 33.6711 35.614 36.2741 34.4435 40.6751C33.273 45.0223 32.3685 48.3499 31.73 50.6577C29.123 60.6403 26.8351 68.2346 24.8666 73.4406C24.7069 73.8163 23.563 76.4998 21.4348 81.4912C27.1278 80.6861 32.2355 80.1762 36.7579 79.9616C39.6842 79.8006 44.3928 79.8006 50.8838 79.9616C54.0229 80.0689 57.5877 80.1494 61.578 80.2031C65.5684 80.3104 69.5854 80.3909 73.629 80.4446C77.7258 80.4983 81.3171 80.5788 84.403 80.6861C87.5953 80.8471 93.3414 81.2228 101.641 81.8132C107.281 82.1352 112.761 82.3499 118.082 82.4572C123.402 82.6182 128.643 82.6451 133.804 82.5377C134.123 82.5377 134.469 82.5377 134.841 82.5377C135.214 82.5377 135.56 82.5377 135.879 82.5377C136.198 82.5377 136.544 82.5377 136.916 82.5377C137.289 82.5377 137.635 82.5377 137.954 82.5377C138.326 82.5377 138.699 82.5109 139.071 82.4572C139.444 82.4572 139.789 82.4572 140.109 82.4572C140.481 82.4572 140.827 82.4572 141.146 82.4572C141.678 82.4035 142.237 82.3499 142.822 82.2962C143.461 82.2962 144.019 82.2694 144.498 82.2157C144.977 82.2157 145.536 82.1889 146.174 82.1352C146.866 82.0815 147.424 82.0279 147.85 81.9742C148.222 81.9742 148.808 81.9205 149.606 81.8132C159.981 80.7398 167.669 79.5054 172.67 78.1099C172.989 78.0563 173.309 77.9758 173.628 77.8684C173.947 77.7611 174.32 77.6269 174.745 77.4659C175.171 77.3586 175.49 77.2512 175.703 77.1439C175.916 77.0902 176.128 77.0097 176.341 76.9024C176.554 76.8487 176.794 76.7682 177.06 76.6609C177.326 76.6072 177.512 76.5535 177.618 76.4998C177.778 76.4462 178.044 76.3657 178.416 76.2583C178.789 76.151 179.002 76.0973 179.055 76.0973C178.842 76.0436 178.203 76.0168 177.139 76.0168C176.448 75.9631 176.102 75.4264 176.102 74.4067C176.102 73.9773 176.208 73.6016 176.421 73.2796C176.634 72.9576 176.927 72.7966 177.299 72.7966C179.161 72.8503 180.837 73.1455 182.327 73.6822C182.327 73.6822 182.487 73.709 182.806 73.7627C183.178 73.87 183.444 73.9773 183.604 74.0847C183.604 74.0847 184.056 74.4872 184.961 75.2923C184.961 75.3459 184.961 75.3996 184.961 75.4533C184.961 75.5606 184.934 75.7216 184.881 75.9363C184.881 76.2047 184.854 76.4193 184.801 76.5803C184.801 76.7414 184.774 76.9024 184.721 77.0634C184.668 77.2781 184.588 77.4927 184.482 77.7074C184.428 77.8148 184.295 77.8953 184.083 77.9489C183.923 78.0563 183.763 78.1099 183.604 78.1099C183.497 78.1636 183.338 78.1905 183.125 78.1905C182.965 78.1905 182.859 78.1905 182.806 78.1905C182.008 78.3515 180.89 78.6198 179.454 78.9955C178.017 79.4249 177.006 79.72 176.421 79.8811C174.293 80.4177 173.229 80.6861 173.229 80.6861C168.121 81.8132 159.688 82.8866 147.93 83.9063C143.461 84.0673 141.226 84.1478 141.226 84.1478C137.076 84.2552 132.66 84.282 127.978 84.2283C123.296 84.1747 118.88 84.0673 114.73 83.9063C110.58 83.7453 106.19 83.5306 101.562 83.2623C100.87 83.2086 99.9921 83.1281 98.928 83.0208C97.9171 82.9671 97.0924 82.9134 96.4539 82.8597C95.8155 82.8061 95.044 82.7524 94.1395 82.6987C93.235 82.6451 92.437 82.5914 91.7453 82.5377C91.0536 82.4841 90.2822 82.4304 89.4309 82.3767C88.5796 82.323 87.7283 82.2694 86.877 82.2157C86.079 82.162 85.2277 82.1352 84.3232 82.1352C81.1309 81.9742 77.5662 81.8668 73.629 81.8132C69.745 81.8132 65.7014 81.8132 61.4982 81.8132C57.3482 81.8132 53.8101 81.7595 50.8838 81.6522C44.0204 81.7058 39.3649 81.8132 36.9175 81.9742C32.2887 82.2962 26.7287 83.0744 20.2377 84.3088C19.5993 85.6506 19.1736 86.5093 18.9608 86.885C18.8012 87.2607 18.1627 88.4146 17.0454 90.3467C16.0345 92.1178 15.4227 93.1644 15.2098 93.4864C14.0393 95.2575 12.2304 97.3507 9.78293 99.7658C9.25088 100.303 8.85184 100.678 8.58581 100.893C8.31979 101.161 7.92075 101.43 7.3887 101.698C6.85665 101.966 6.298 102.1 5.71274 102.1C4.70185 102.1 3.39832 101.483 1.80217 100.249V100.168C1.74897 100.115 1.66916 99.9805 1.56275 99.7658C1.40313 99.6048 1.27012 99.4438 1.16371 99.2828C1.0573 99.1218 0.95089 98.9876 0.84448 98.8803C0.63166 98.3436 0.472044 97.8069 0.365634 97.2702C0.206019 96.7335 0.126212 96.1699 0.126212 95.5796C0.0730068 95.0429 0.0996094 94.5062 0.20602 93.9695C0.312429 93.4328 0.472044 92.896 0.684865 92.3594C0.73807 92.091 0.897685 91.7153 1.16371 91.2323C1.27012 91.0176 1.34993 90.8566 1.40313 90.7492V90.6687C2.148 89.5417 2.52044 88.9781 2.52044 88.9781C3.26531 88.0121 4.14319 87.1802 5.15409 86.4825C6.11178 85.7848 7.3621 85.1407 8.90504 84.5503C10.448 84.0136 11.5387 83.638 12.1772 83.4233C12.8156 83.2623 14.0925 82.9134 16.0079 82.3767C16.9124 82.2157 17.7903 82.0815 18.6416 81.9742C18.748 81.8132 18.8278 81.6522 18.881 81.4912C18.9342 81.3838 19.0938 81.0081 19.3598 80.3641C19.6259 79.7737 19.8653 79.237 20.0781 78.754C20.2909 78.3246 20.5303 77.7611 20.7964 77.0634C21.1156 76.3657 21.3816 75.7753 21.5944 75.2923C21.8605 74.8092 22.0999 74.2994 22.3127 73.7627C22.5255 73.2796 22.6852 72.9039 22.7916 72.6356C24.2813 68.9324 25.5316 65.417 26.5425 62.0894C26.5957 61.8747 27.1544 59.9158 28.2185 56.2125C28.3249 55.7295 28.4579 55.2197 28.6175 54.6829C28.7771 54.0926 28.9101 53.5827 29.0166 53.1534C29.123 52.724 29.256 52.2141 29.4156 51.6238C29.5752 51.0334 29.7082 50.5504 29.8146 50.1747C31.0915 45.2907 32.129 41.2654 32.9271 38.0989C33.1399 37.4012 33.406 36.3814 33.7252 35.0397C34.4169 32.2488 34.9489 30.102 35.3214 28.5993C35.6938 27.0965 36.2258 25.1912 36.9175 22.8834C37.6092 20.5219 38.3008 18.4288 38.9925 16.604C39.0989 16.2283 39.2585 15.7453 39.4713 15.1549C39.6842 14.5646 39.8704 14.0279 40.03 13.5448C40.1896 13.0081 40.3758 12.5251 40.5886 12.0957C41.0143 10.9687 41.5197 9.89525 42.105 8.87552C42.6902 7.80212 43.3287 6.78239 44.0204 5.81633C44.712 4.7966 45.4835 3.85737 46.3348 2.99865C47.1329 2.13993 47.7979 1.54956 48.33 1.22754C48.33 1.22754 49.0216 0.905514 50.405 0.261472C51.5755 0.154133 52.1607 0.100464 52.1607 0.100464C52.4268 0.100464 52.6662 0.127299 52.879 0.180968C53.145 0.234637 53.3845 0.288307 53.5973 0.341976C53.8101 0.395646 54.0229 0.476151 54.2357 0.583493C54.4486 0.690832 54.6614 0.825007 54.8742 0.986019C55.087 1.09336 55.2998 1.22753 55.5127 1.38854C55.7255 1.49588 55.9117 1.63006 56.0713 1.79107C56.2841 1.95208 56.4704 2.11309 56.63 2.2741C56.8428 2.43511 57.029 2.62296 57.1886 2.83764C57.3482 2.99865 57.4813 3.18649 57.5877 3.40117C57.7473 3.56218 57.8803 3.75003 57.9867 3.96471C58.0399 4.07205 58.0931 4.20622 58.1463 4.36723C58.2527 4.52825 58.3325 4.68926 58.3857 4.85026C58.4389 4.95761 58.4921 5.11862 58.5454 5.3333C58.5986 5.49431 58.6518 5.62848 58.705 5.73582C58.705 5.84316 58.705 5.97734 58.705 6.13835C58.7582 6.29936 58.8114 6.43353 58.8646 6.54087C58.9178 6.64821 58.9444 6.78239 58.9444 6.9434C58.9976 7.05074 59.0242 7.18491 59.0242 7.34592C59.0242 7.45326 59.0508 7.58744 59.104 7.74845C59.2104 9.19754 58.971 11.72 58.3857 15.3159C58.3857 15.4233 58.3591 15.6111 58.3059 15.8795C58.3059 16.0941 58.2793 16.3088 58.2261 16.5235C58.2261 16.6845 58.1995 16.8724 58.1463 17.087C58.0931 17.3017 58.0399 17.5164 57.9867 17.7311C57.9867 17.8921 57.9601 18.0799 57.9069 18.2946C57.9069 18.402 57.8803 18.5361 57.8271 18.6971C57.8271 18.8045 57.8005 18.9118 57.7473 19.0192C57.7473 19.1265 57.7207 19.2607 57.6675 19.4217C57.6675 19.529 57.6409 19.6632 57.5877 19.8242C57.5877 19.9316 57.5611 20.0657 57.5079 20.2267C57.4547 20.3341 57.4014 20.4414 57.3482 20.5488C57.3482 20.6561 57.3216 20.7903 57.2684 20.9513C57.2684 21.0586 57.2684 21.1928 57.2684 21.3538C57.162 21.5148 57.0024 21.8905 56.7896 22.4809C56.63 23.0176 56.497 23.4201 56.3905 23.6885C56.3373 23.9031 56.2309 24.252 56.0713 24.735C55.9117 25.1644 55.7521 25.5669 55.5925 25.9426C55.4329 26.3183 55.2732 26.6672 55.1136 26.9892C53.6771 30.3704 51.6287 33.9663 48.9684 37.7769C48.7024 38.0452 48.3832 38.1794 48.0108 38.1794C47.6915 38.1257 47.3723 37.9647 47.0531 37.6964C46.255 36.9986 46.0688 36.3814 46.4944 35.8447ZM7.70793 97.5117C10.1554 95.3649 11.9111 93.5669 12.9752 92.1178C13.1881 91.7958 13.8265 90.7492 14.8906 88.9781C16.1675 86.885 16.9656 85.5164 17.2848 84.8724C17.1784 84.8724 17.072 84.8724 16.9656 84.8724C16.9124 84.926 16.8326 84.9529 16.7262 84.9529C16.5666 85.0065 16.3538 85.0871 16.0877 85.1944C11.4589 86.5898 8.18678 88.0389 6.27139 89.5417C5.73934 89.971 5.36691 90.3199 5.15409 90.5882C5.04768 90.7492 4.94127 90.8834 4.83486 90.9908C4.72845 91.1518 4.62204 91.3396 4.51563 91.5543C4.40922 91.769 4.32941 91.93 4.27621 92.0373C4.01018 92.735 3.82396 93.2449 3.71755 93.5669C3.55794 93.8889 3.45153 94.2915 3.39832 94.7745C3.29191 95.2575 3.29191 95.7137 3.39832 96.1431C3.50473 96.6261 3.69095 97.136 3.95697 97.6727C4.32941 98.0484 4.72845 98.3436 5.15409 98.5582C5.20729 98.5582 5.2871 98.5851 5.39351 98.6388C5.44672 98.6924 5.52652 98.7193 5.63293 98.7193L5.71274 98.8803C5.97877 98.8266 6.64383 98.3704 7.70793 97.5117Z" fill="white"/>
<path d="M58.9587 64.0215C60.5017 64.3972 61.885 64.5851 63.1087 64.5851C64.3856 64.5851 65.8754 64.4241 67.5779 64.1021C69.3337 63.7264 70.8501 63.3507 72.127 62.975C73.4571 62.5993 74.9468 62.1968 76.5962 61.7674C78.2456 61.2844 79.6289 60.9623 80.7462 60.8013C82.9276 60.4256 84.0715 60.7477 84.1779 61.7674C84.2843 62.4114 83.9651 62.8676 83.2202 63.136C82.8478 63.2433 82.4754 63.1897 82.1029 62.975C80.3472 63.136 77.7135 63.5117 74.202 64.1021C70.7436 64.6387 68.5622 64.9876 67.6578 65.1486C67.2853 65.2023 66.4872 65.3365 65.2635 65.5511C64.093 65.7658 63.0555 65.9537 62.151 66.1147C61.2997 66.222 60.3687 66.2488 59.3578 66.1952C58.3469 66.1415 57.5754 65.9268 57.0433 65.5511C56.0857 64.8534 56.0857 63.6995 57.0433 62.0894C56.6709 62.3041 56.3517 62.4919 56.0857 62.653C55.8728 62.7603 55.6866 62.8676 55.527 62.975C55.4206 63.0286 55.3142 63.1091 55.2078 63.2165C55.1546 63.2702 55.1014 63.297 55.0482 63.297C55.0482 63.297 55.0216 63.3238 54.9683 63.3775C54.9151 63.3775 54.8885 63.3775 54.8885 63.3775C54.8885 63.3775 54.8087 63.4043 54.6491 63.458C54.5427 63.5117 54.4363 63.5653 54.3299 63.619C54.2235 63.6727 54.0373 63.78 53.7712 63.941C53.5052 64.0484 53.2126 64.1826 52.8933 64.3436C51.1908 64.8803 49.5946 65.256 48.1049 65.4706C48.0517 65.5243 47.8655 65.578 47.5462 65.6316C47.227 65.6853 46.9876 65.7122 46.828 65.7122C46.1363 65.6048 45.5245 65.3901 44.9924 65.0681C44.9924 65.0681 44.9126 64.8266 44.753 64.3436C44.753 64.2362 44.753 64.102 44.753 63.941C44.6998 63.78 44.6732 63.6727 44.6732 63.619C44.6732 63.5117 44.6732 63.3775 44.6732 63.2165C44.7796 62.7871 44.9924 62.3846 45.3116 62.0089C45.6309 61.6332 45.8703 61.3649 46.0299 61.2039C46.2427 61.0429 46.6684 60.8013 47.3068 60.4793C47.9453 60.1036 48.2911 59.8889 48.3443 59.8353C48.5039 59.7279 48.77 59.5401 49.1424 59.2717C49.5148 58.9497 49.8607 58.6814 50.1799 58.4667C50.4991 58.252 50.7918 58.091 51.0578 57.9837C51.7494 57.7153 52.7603 57.5275 54.0905 57.4201C55.4738 57.3128 56.4049 57.2054 56.8837 57.0981C57.4158 57.0981 57.6818 57.4738 57.6818 58.2252C57.6818 58.9766 57.4158 59.3522 56.8837 59.3522C56.6709 59.3522 56.1655 59.4059 55.3674 59.5133C54.5693 59.5669 53.9043 59.6474 53.3722 59.7548C52.8401 59.8621 52.3347 60.05 51.8559 60.3183C51.6962 60.4256 51.4834 60.6135 51.2174 60.8818C51.0046 61.0965 50.845 61.2307 50.7385 61.2844C50.6321 61.338 50.5257 61.4185 50.4193 61.5259C50.3129 61.5796 50.1799 61.6601 50.0203 61.7674C49.9139 61.8211 49.8341 61.8747 49.7809 61.9284C49.6744 62.0357 49.3818 62.1968 48.903 62.4114C48.4773 62.6261 48.1581 62.814 47.9453 62.975C49.2222 62.8676 50.6321 62.5993 52.1751 62.1699C52.4943 62.0089 52.8135 61.8747 53.1328 61.7674C53.5052 61.6064 53.718 61.5259 53.7712 61.5259C53.8244 61.4722 53.9309 61.4185 54.0905 61.3649C54.2501 61.2575 54.3565 61.177 54.4097 61.1234C54.4629 61.0697 54.6225 60.9623 54.8885 60.8013C55.2078 60.6403 55.527 60.4525 55.8462 60.2378C55.9526 60.1841 56.2187 60.05 56.6443 59.8353C57.07 59.5669 57.3892 59.3522 57.602 59.1912C57.9744 58.9766 58.4799 58.6009 59.1183 58.0642C59.7568 57.5275 60.2622 57.1518 60.6347 56.9371C61.1135 56.6151 61.5658 56.5077 61.9914 56.6151C62.4171 56.6687 62.7629 56.9371 63.0289 57.4201C63.2949 57.8495 63.3215 58.3057 63.1087 58.7887C63.0023 59.0571 62.8693 59.2986 62.7097 59.5133C62.6033 59.6743 62.5235 59.8084 62.4703 59.9158C62.4171 59.9695 62.2308 60.1036 61.9116 60.3183C61.6456 60.533 61.4594 60.694 61.353 60.8013C60.7677 61.2307 59.9696 62.3041 58.9587 64.0215Z" fill="white"/>
<path d="M100.003 61.8479C100.907 61.7942 101.892 61.6869 102.956 61.5259C104.02 61.3649 105.19 61.177 106.467 60.9623C107.744 60.7477 108.755 60.5867 109.5 60.4793C109.979 60.372 110.325 60.5061 110.537 60.8818C110.75 61.2039 110.75 61.5527 110.537 61.9284C110.378 62.3041 110.059 62.5188 109.58 62.5724C106.281 62.8945 103.115 63.1091 100.083 63.2165C95.2942 63.2702 91.9955 62.6261 90.1866 61.2844C90.0801 61.177 89.9471 61.0697 89.7875 60.9623C89.6811 61.0697 89.4949 61.2844 89.2289 61.6064C88.9096 61.8211 88.4042 62.1431 87.7125 62.5724C87.0741 62.9481 86.675 63.1897 86.5154 63.297C86.4622 63.3507 86.1962 63.5922 85.7173 64.0215C85.2385 64.4509 84.6266 64.7998 83.8818 65.0681C81.86 65.1218 81.1683 63.78 81.8068 61.0429C82.0196 59.9158 82.126 59.3522 82.126 59.3522C82.1792 59.2986 82.3122 59.0034 82.525 58.4667C82.791 57.93 83.0305 57.3933 83.2433 56.8566C83.5093 56.3199 83.6423 56.0515 83.6423 56.0515C83.7487 55.8369 83.8818 55.488 84.0414 55.005C84.2542 54.5219 84.4138 54.1462 84.5202 53.8779C84.6798 53.5559 84.9991 52.8582 85.4779 51.7848C86.01 50.7114 86.3824 49.8795 86.5952 49.2891C88.085 45.8005 90.1866 41.4801 92.9 36.3278C93.5917 35.4154 93.9375 34.9592 93.9375 34.9592C94.6824 34.2615 95.4805 33.8858 96.3317 33.8321C96.8106 33.7784 97.2096 33.7784 97.5288 33.8321C97.9013 33.8321 98.1939 33.9395 98.4067 34.1541C98.6728 34.3688 98.9122 34.7177 99.125 35.2007C99.1782 35.308 99.2314 35.4422 99.2846 35.6032C99.3378 35.7106 99.391 35.8447 99.4442 36.0058C99.4974 36.1131 99.524 36.2204 99.524 36.3278C99.6305 36.7571 99.6837 37.1865 99.6837 37.6159C99.7369 37.9915 99.7103 38.4477 99.6039 38.9844C99.5506 39.4675 99.4708 39.8432 99.3644 40.1115C99.3112 40.3799 99.1782 40.8361 98.9654 41.4801C98.8058 42.1241 98.726 42.4998 98.726 42.6072C98.1407 43.8953 97.8481 44.5393 97.8481 44.5393C97.5821 45.0223 96.6776 46.3104 95.1346 48.4035C94.975 48.6182 94.709 48.9939 94.3365 49.5306C93.9641 50.0136 93.6715 50.3893 93.4587 50.6577C93.1926 51.0334 92.6606 51.7043 91.8625 52.6703C91.0644 53.5827 90.4526 54.3073 90.0269 54.844C86.7814 58.5472 84.7862 60.9087 84.0414 61.9284C84.201 61.7674 84.5468 61.5259 85.0789 61.2039C86.5686 60.2915 87.3933 59.7548 87.5529 59.5938C88.5638 58.252 89.6279 57.7958 90.7452 58.2252L91.5433 58.7887C91.5433 58.8424 91.5965 58.9229 91.7029 59.0302C91.8093 59.0839 91.8891 59.1644 91.9423 59.2717C91.9955 59.3254 92.0487 59.3791 92.1019 59.4327C93.166 61.3112 95.7997 62.1163 100.003 61.8479ZM85.8769 56.4541C86.1962 56.0784 86.6484 55.5417 87.2337 54.844C87.8721 54.1462 88.2978 53.69 88.5106 53.4754C88.883 52.885 89.4683 52.1336 90.2664 51.2212C91.1176 50.3088 91.6763 49.6916 91.9423 49.3696C92.1019 49.1549 92.2616 48.9402 92.4212 48.7256C92.5808 48.4572 92.7404 48.1889 92.9 47.9205C93.1128 47.5985 93.2724 47.357 93.3789 47.196C94.8686 45.1565 95.7465 43.8684 96.0125 43.3317C96.0657 43.1707 96.1189 43.0097 96.1721 42.8487C96.2785 42.6877 96.3583 42.4998 96.4115 42.2852C96.4647 42.0168 96.518 41.829 96.5712 41.7216C97.05 39.9505 97.2362 38.5551 97.1298 37.5354C97.1298 37.3207 97.1032 37.106 97.05 36.8913C97.05 36.7303 96.9968 36.5961 96.8904 36.4888C96.8372 36.3814 96.8106 36.3009 96.8106 36.2473C96.7574 36.2473 96.7308 36.1936 96.7308 36.0863C96.6244 35.9252 96.5446 35.8179 96.4914 35.7642L96.5712 35.9253C96.6776 36.1936 96.7042 36.3546 96.651 36.4083C96.5978 36.4083 96.518 36.4351 96.4115 36.4888C96.3583 36.4888 96.2785 36.4888 96.1721 36.4888C96.0657 36.4888 95.9859 36.5156 95.9327 36.5693C95.6667 36.6766 95.2942 37.106 94.8154 37.8574C92.6872 41.3459 90.5856 45.4249 88.5106 50.0942C88.351 50.5772 88.1382 51.0871 87.8721 51.6238C87.6593 52.1605 87.3933 52.724 87.0741 53.3144C86.808 53.9047 86.5952 54.3878 86.4356 54.7635C86.4356 54.8171 86.2494 55.3807 85.8769 56.4541Z" fill="white"/>
<path d="M114.772 58.6277C114.718 58.5204 114.612 58.413 114.452 58.3057C114.346 58.1447 114.266 58.0105 114.213 57.9031C114.053 58.0642 113.787 58.2788 113.415 58.5472C113.042 58.8155 112.776 59.0302 112.617 59.1912C112.298 59.5133 111.899 60.1036 111.42 60.9623C110.941 61.8211 110.462 62.3846 109.983 62.653C109.451 62.975 108.972 63.0286 108.547 62.814C108.121 62.5456 107.855 62.2236 107.749 61.8479C107.695 61.4185 107.775 61.0429 107.988 60.7208C108.733 60.0231 109.478 59.2717 110.223 58.4667C110.435 58.252 110.675 58.0105 110.941 57.7421C111.047 57.5811 111.234 57.3665 111.5 57.0981C111.819 56.8298 112.085 56.5882 112.298 56.3736C112.51 56.1589 112.67 55.9442 112.776 55.7295C112.83 55.6222 112.883 55.5148 112.936 55.4075C112.989 55.2465 113.042 55.0855 113.096 54.9245C113.149 54.7635 113.202 54.6561 113.255 54.6024C113.255 54.4414 113.282 54.3073 113.335 54.1999C113.282 53.7169 113.362 53.3144 113.575 52.9923C113.628 52.9387 113.681 52.8582 113.734 52.7508C113.787 52.6435 113.841 52.5898 113.894 52.5898C113.787 52.3751 113.761 52.2141 113.814 52.1068C114.825 50.5504 115.623 50.3357 116.208 51.4627C116.687 52.5898 116.66 53.6095 116.128 54.5219C116.182 54.844 116.208 55.3538 116.208 56.0515C116.208 56.1052 116.208 56.132 116.208 56.132C116.581 57.0444 117.059 57.8226 117.645 58.4667C118.23 59.1107 118.815 59.6743 119.4 60.1573C119.986 60.5867 120.731 60.9087 121.635 61.1234C122.54 61.338 123.284 61.5259 123.87 61.6869C124.455 61.7942 125.306 61.8211 126.424 61.7674C127.541 61.7137 128.339 61.6869 128.818 61.6869C129.297 61.6332 130.095 61.499 131.212 61.2844C132.383 61.0697 133.074 60.9355 133.287 60.8818C133.553 60.8282 134.218 60.694 135.282 60.4793C135.655 60.372 136.133 60.3183 136.719 60.3183C137.251 60.3183 137.863 60.3988 138.554 60.5598C139.193 60.5062 139.592 60.9355 139.751 61.8479C139.911 62.7603 139.672 63.2433 139.033 63.297C138.874 63.297 138.714 63.2702 138.554 63.2165C138.501 63.2165 138.208 63.2165 137.676 63.2165C137.517 63.2702 137.304 63.297 137.038 63.297C136.825 63.297 136.639 63.297 136.479 63.297C136.16 63.3507 135.921 63.1897 135.761 62.814C135.548 62.814 135.442 62.814 135.442 62.814C134.644 62.8676 133.447 62.9481 131.85 63.0555C130.254 63.1628 128.977 63.2433 128.02 63.297C127.062 63.3507 125.865 63.3238 124.428 63.2165C123.045 63.1091 121.848 62.9213 120.837 62.653C119.826 62.3309 118.762 61.8479 117.645 61.2039C116.581 60.5061 115.623 59.6474 114.772 58.6277ZM116.767 41.8826C119.055 41.5069 120.385 41.2923 120.757 41.2386C121.023 41.1849 121.236 41.2923 121.396 41.5606C121.555 41.829 121.608 42.1241 121.555 42.4462C121.502 42.7145 121.369 42.8755 121.156 42.9292H120.997L120.917 43.0097H120.677L120.598 43.0902H120.358L120.278 43.1707H120.039L119.959 43.2512H119.72L119.64 43.3317H119.4L119.321 43.4122H119.081L119.001 43.4927H118.762L118.682 43.5732H118.443L118.363 43.6537H118.044L117.964 43.7342H117.725L117.645 43.8148H117.405L117.325 43.8953H117.166C116.9 43.9489 116.66 43.8148 116.448 43.4927C116.288 43.1707 116.235 42.8487 116.288 42.5267C116.341 42.151 116.501 41.9363 116.767 41.8826Z" fill="white"/>
<path d="M138.731 58.7082C140.593 58.0105 141.684 57.5006 142.003 57.1786C141.684 56.6419 140.726 56.4541 139.13 56.6151C138.438 56.6687 137.959 56.8298 137.693 57.0981C137.48 57.3665 137.454 57.7421 137.613 58.2252C137.773 58.6545 138.012 58.9497 138.332 59.1107C138.385 58.9497 138.518 58.8155 138.731 58.7082ZM166.823 62.4114C164.801 62.4114 162.194 62.6261 159.002 63.0555C155.81 63.4848 153.043 63.8874 150.702 64.2631C148.414 64.5851 145.967 64.5851 143.36 64.2631C140.806 63.941 138.704 63.1091 137.055 61.7674C135.405 60.533 134.634 59.0839 134.74 57.4201C134.74 56.293 135.326 55.4075 136.496 54.7635C137.613 54.1194 138.917 53.8242 140.407 53.8779C141.896 53.9316 143.094 54.3609 143.998 55.166C144.743 55.81 145.062 56.3736 144.956 56.8566C144.849 57.3933 144.557 57.9032 144.078 58.3862C143.599 58.8692 143.04 59.2717 142.402 59.5938C141.763 59.9158 141.072 60.1841 140.327 60.3988C140.699 61.4722 141.657 62.2236 143.2 62.653C144.743 63.0286 146.605 63.136 148.786 62.975C151.021 62.7603 153.203 62.4919 155.331 62.1699C157.512 61.7942 159.72 61.3917 161.955 60.9623C164.243 60.533 165.839 60.2915 166.743 60.2378C168.073 59.6474 168.898 59.7816 169.217 60.6403C169.483 61.338 169.191 61.8747 168.339 62.2504C167.914 62.4114 167.408 62.4651 166.823 62.4114Z" fill="white"/>
<path d="M184.772 65.3901C183.655 64.6387 182.75 63.1897 182.059 61.0429C181.58 61.3649 180.968 61.8479 180.223 62.4919C180.064 62.5993 179.744 62.8408 179.266 63.2165C178.84 63.5385 178.441 63.8605 178.068 64.1825C177.696 64.4509 177.217 64.7998 176.632 65.2291C176.047 65.6048 175.488 65.9537 174.956 66.2757C174.424 66.5977 173.839 66.9197 173.2 67.2417C172.562 67.5101 171.923 67.7248 171.285 67.8858C171.125 67.8858 170.886 67.9126 170.566 67.9663C170.3 68.02 170.061 68.0736 169.848 68.1273C169.635 68.1273 169.396 68.1273 169.13 68.1273C168.864 68.1273 168.598 68.1273 168.332 68.1273C168.119 68.0736 167.933 68.02 167.773 67.9663C166.443 67.4296 166.044 66.1683 166.576 64.1825C166.683 63.7532 166.842 63.3507 167.055 62.975C167.374 62.3309 167.826 61.6601 168.412 60.9623C169.05 60.2646 169.502 59.7279 169.768 59.3522C170.247 58.6545 170.912 58.7082 171.764 59.5133C172.455 60.2646 172.482 60.8818 171.843 61.3649C170.726 62.0626 169.875 63.0286 169.29 64.2631C168.811 65.2828 169.077 65.7658 170.088 65.7122C170.62 65.6585 171.338 65.4438 172.242 65.0681C172.562 64.9608 172.881 64.8266 173.2 64.6656C173.573 64.5046 173.918 64.3167 174.238 64.1021C174.61 63.8337 174.903 63.619 175.116 63.458C175.382 63.297 175.727 63.0555 176.153 62.7335C176.579 62.4114 176.871 62.1968 177.031 62.0894C177.191 61.9284 177.483 61.6601 177.909 61.2844C178.388 60.855 178.68 60.6135 178.787 60.5598C179.319 60.0768 179.957 59.5401 180.702 58.9497C181.074 58.6277 181.341 58.4399 181.5 58.3862C181.66 58.2788 181.926 58.1715 182.298 58.0642C182.724 57.9032 183.096 57.9032 183.415 58.0642C183.469 58.1178 183.522 58.1715 183.575 58.2252C183.628 58.2788 183.682 58.3325 183.735 58.3862C183.841 58.4399 183.894 58.4935 183.894 58.5472C183.948 58.5472 184.001 58.574 184.054 58.6277C184.107 58.735 184.16 58.8155 184.214 58.8692C184.373 59.3522 184.533 59.9694 184.692 60.7208C184.852 61.4185 184.985 61.9284 185.091 62.2504C185.198 62.5188 185.464 62.8676 185.89 63.297C186.368 63.7264 187.007 64.1289 187.805 64.5046C189.188 65.1486 190.917 65.5243 192.992 65.6316C195.121 65.6853 197.329 65.5511 199.616 65.2291C201.957 64.8534 204.192 64.4509 206.32 64.0215C208.448 63.5385 210.55 63.0555 212.625 62.5724C214.753 62.0357 216.27 61.7137 217.174 61.6064C217.281 61.177 217.52 60.9355 217.892 60.8818C218.265 60.8818 218.797 60.855 219.489 60.8013C220.18 60.694 220.792 60.6135 221.324 60.5598C221.909 60.5062 222.468 60.5062 223 60.5598C223.053 60.6135 223.16 60.694 223.319 60.8013C223.479 60.855 223.585 60.9355 223.639 61.0429C223.745 61.0965 223.825 61.177 223.878 61.2844C224.144 62.0894 224.171 62.653 223.958 62.975C223.745 63.2433 223.266 63.5385 222.521 63.8605C222.415 63.9142 222.096 63.8605 221.564 63.6995C221.031 63.5385 220.712 63.5117 220.606 63.619C219.169 63.619 218.079 63.6459 217.334 63.6995C216.323 63.8069 214.62 64.102 212.226 64.5851C209.832 65.0144 207.411 65.4438 204.964 65.8732C202.516 66.2488 199.962 66.5977 197.302 66.9197C194.695 67.2417 192.274 67.2954 190.04 67.0807C187.805 66.8124 186.049 66.2489 184.772 65.3901Z" fill="white"/>
<path d="M46.4944 35.8447C49.0483 32.8929 51.0966 29.5385 52.6396 25.7816C52.6928 25.6206 52.746 25.4327 52.7992 25.2181C52.9056 25.0034 52.9854 24.7887 53.0386 24.574C53.145 24.3593 53.2514 24.1178 53.3579 23.8495C53.4643 23.5811 53.5441 23.3396 53.5973 23.1249C53.6505 22.9103 53.7303 22.6687 53.8367 22.4004C53.9431 22.132 54.0229 21.9174 54.0761 21.7563C54.1293 21.5417 54.2091 21.3001 54.3155 21.0318C54.422 20.7634 54.5018 20.5488 54.555 20.3878C54.9806 18.563 55.1934 17.6506 55.1934 17.6506C55.2466 17.2212 55.3797 16.282 55.5925 14.8329C55.8585 13.1691 56.0181 11.9884 56.0713 11.2907C56.1245 10.593 56.0979 9.43906 55.9915 7.82895C55.9915 7.72161 55.9649 7.61427 55.9117 7.50693C55.9117 7.34592 55.8851 7.23858 55.8319 7.18492C55.8319 7.07757 55.8053 6.97023 55.7521 6.86289C55.6989 6.70188 55.6457 6.56771 55.5925 6.46037C55.2732 5.70899 55.1136 5.3333 55.1136 5.3333C54.422 4.31356 53.5175 3.64269 52.4002 3.32067C52.2406 3.267 51.7085 3.32067 50.804 3.48168C50.1124 3.85737 49.7665 4.04521 49.7665 4.04521C49.5537 4.20622 49.3143 4.39407 49.0482 4.60875C48.8354 4.76976 48.596 4.98444 48.33 5.25279C47.5319 6.05784 46.8136 6.88973 46.1752 7.74845C45.5367 8.5535 44.9249 9.41222 44.3396 10.3246C43.8076 11.237 43.3287 12.2031 42.9031 13.2228C42.9031 13.2228 42.371 14.6182 41.3069 17.4091C40.0832 20.6829 39.4713 22.3199 39.4713 22.3199C38.8861 23.9837 37.955 27.2575 36.6781 32.1415C36.5717 32.4635 36.5185 32.705 36.5185 32.8661C36.3056 33.6711 35.614 36.2741 34.4435 40.6751C33.273 45.0223 32.3685 48.3499 31.73 50.6577C29.123 60.6403 26.8351 68.2346 24.8666 73.4406C24.7069 73.8163 23.563 76.4998 21.4348 81.4912C27.1278 80.6861 32.2355 80.1762 36.7579 79.9616C39.6842 79.8006 44.3928 79.8006 50.8838 79.9616C54.0229 80.0689 57.5877 80.1494 61.578 80.2031C65.5684 80.3104 69.5854 80.3909 73.629 80.4446C77.7258 80.4983 81.3171 80.5788 84.403 80.6861C87.5953 80.8471 93.3414 81.2228 101.641 81.8132C107.281 82.1352 112.761 82.3499 118.082 82.4572C123.402 82.6182 128.643 82.6451 133.804 82.5377C134.123 82.5377 134.469 82.5377 134.841 82.5377C135.214 82.5377 135.56 82.5377 135.879 82.5377C136.198 82.5377 136.544 82.5377 136.916 82.5377C137.289 82.5377 137.635 82.5377 137.954 82.5377C138.326 82.5377 138.699 82.5109 139.071 82.4572C139.444 82.4572 139.789 82.4572 140.109 82.4572C140.481 82.4572 140.827 82.4572 141.146 82.4572C141.678 82.4035 142.237 82.3499 142.822 82.2962C143.461 82.2962 144.019 82.2694 144.498 82.2157C144.977 82.2157 145.536 82.1889 146.174 82.1352C146.866 82.0815 147.424 82.0279 147.85 81.9742C148.222 81.9742 148.808 81.9205 149.606 81.8132C159.981 80.7398 167.669 79.5054 172.67 78.1099C172.989 78.0563 173.309 77.9758 173.628 77.8684C173.947 77.7611 174.32 77.6269 174.745 77.4659C175.171 77.3586 175.49 77.2512 175.703 77.1439C175.916 77.0902 176.128 77.0097 176.341 76.9024C176.554 76.8487 176.794 76.7682 177.06 76.6609C177.326 76.6072 177.512 76.5535 177.618 76.4998C177.778 76.4462 178.044 76.3657 178.416 76.2583C178.789 76.151 179.002 76.0973 179.055 76.0973C178.842 76.0436 178.203 76.0168 177.139 76.0168C176.448 75.9631 176.102 75.4264 176.102 74.4067C176.102 73.9773 176.208 73.6016 176.421 73.2796C176.634 72.9576 176.927 72.7966 177.299 72.7966C179.161 72.8503 180.837 73.1455 182.327 73.6822C182.327 73.6822 182.487 73.709 182.806 73.7627C183.178 73.87 183.444 73.9773 183.604 74.0847C183.604 74.0847 184.056 74.4872 184.961 75.2923C184.961 75.3459 184.961 75.3996 184.961 75.4533C184.961 75.5606 184.934 75.7216 184.881 75.9363C184.881 76.2047 184.854 76.4193 184.801 76.5803C184.801 76.7414 184.774 76.9024 184.721 77.0634C184.668 77.2781 184.588 77.4927 184.482 77.7074C184.428 77.8148 184.295 77.8953 184.083 77.9489C183.923 78.0563 183.763 78.1099 183.604 78.1099C183.497 78.1636 183.338 78.1905 183.125 78.1905C182.965 78.1905 182.859 78.1905 182.806 78.1905C182.008 78.3515 180.89 78.6198 179.454 78.9955C178.017 79.4249 177.006 79.72 176.421 79.8811C174.293 80.4177 173.229 80.6861 173.229 80.6861C168.121 81.8132 159.688 82.8866 147.93 83.9063C143.461 84.0673 141.226 84.1478 141.226 84.1478C137.076 84.2552 132.66 84.282 127.978 84.2283C123.296 84.1747 118.88 84.0673 114.73 83.9063C110.58 83.7453 106.19 83.5306 101.562 83.2623C100.87 83.2086 99.9921 83.1281 98.928 83.0208C97.9171 82.9671 97.0924 82.9134 96.4539 82.8597C95.8155 82.8061 95.044 82.7524 94.1395 82.6987C93.235 82.6451 92.437 82.5914 91.7453 82.5377C91.0536 82.4841 90.2822 82.4304 89.4309 82.3767C88.5796 82.323 87.7283 82.2694 86.877 82.2157C86.079 82.162 85.2277 82.1352 84.3232 82.1352C81.1309 81.9742 77.5662 81.8668 73.629 81.8132C69.745 81.8132 65.7014 81.8132 61.4982 81.8132C57.3482 81.8132 53.8101 81.7595 50.8838 81.6522C44.0204 81.7058 39.3649 81.8132 36.9175 81.9742C32.2887 82.2962 26.7287 83.0744 20.2377 84.3088C19.5993 85.6506 19.1736 86.5093 18.9608 86.885C18.8012 87.2607 18.1627 88.4146 17.0454 90.3467C16.0345 92.1178 15.4227 93.1644 15.2098 93.4864C14.0393 95.2575 12.2304 97.3507 9.78293 99.7658C9.25088 100.303 8.85184 100.678 8.58581 100.893C8.31979 101.161 7.92075 101.43 7.3887 101.698C6.85665 101.966 6.298 102.1 5.71274 102.1C4.70185 102.1 3.39832 101.483 1.80217 100.249V100.168C1.74897 100.115 1.66916 99.9805 1.56275 99.7658C1.40313 99.6048 1.27012 99.4438 1.16371 99.2828C1.0573 99.1218 0.95089 98.9876 0.84448 98.8803C0.63166 98.3436 0.472044 97.8069 0.365634 97.2702C0.206019 96.7335 0.126212 96.1699 0.126212 95.5796C0.0730068 95.0429 0.0996094 94.5062 0.20602 93.9695C0.312429 93.4328 0.472044 92.896 0.684865 92.3594C0.73807 92.091 0.897685 91.7153 1.16371 91.2323C1.27012 91.0176 1.34993 90.8566 1.40313 90.7492V90.6687C2.148 89.5417 2.52044 88.9781 2.52044 88.9781C3.26531 88.0121 4.14319 87.1802 5.15409 86.4825C6.11178 85.7848 7.3621 85.1407 8.90504 84.5503C10.448 84.0136 11.5387 83.638 12.1772 83.4233C12.8156 83.2623 14.0925 82.9134 16.0079 82.3767C16.9124 82.2157 17.7903 82.0815 18.6416 81.9742C18.748 81.8132 18.8278 81.6522 18.881 81.4912C18.9342 81.3838 19.0938 81.0081 19.3598 80.3641C19.6259 79.7737 19.8653 79.237 20.0781 78.754C20.2909 78.3246 20.5303 77.7611 20.7964 77.0634C21.1156 76.3657 21.3816 75.7753 21.5944 75.2923C21.8605 74.8092 22.0999 74.2994 22.3127 73.7627C22.5255 73.2796 22.6852 72.9039 22.7916 72.6356C24.2813 68.9324 25.5316 65.417 26.5425 62.0894C26.5957 61.8747 27.1544 59.9158 28.2185 56.2125C28.3249 55.7295 28.4579 55.2197 28.6175 54.6829C28.7771 54.0926 28.9101 53.5827 29.0166 53.1534C29.123 52.724 29.256 52.2141 29.4156 51.6238C29.5752 51.0334 29.7082 50.5504 29.8146 50.1747C31.0915 45.2907 32.129 41.2654 32.9271 38.0989C33.1399 37.4012 33.406 36.3814 33.7252 35.0397C34.4169 32.2488 34.9489 30.102 35.3214 28.5993C35.6938 27.0965 36.2258 25.1912 36.9175 22.8834C37.6092 20.5219 38.3008 18.4288 38.9925 16.604C39.0989 16.2283 39.2585 15.7453 39.4713 15.1549C39.6842 14.5646 39.8704 14.0279 40.03 13.5448C40.1896 13.0081 40.3758 12.5251 40.5886 12.0957C41.0143 10.9687 41.5197 9.89525 42.105 8.87552C42.6902 7.80212 43.3287 6.78239 44.0204 5.81633C44.712 4.7966 45.4835 3.85737 46.3348 2.99865C47.1329 2.13993 47.7979 1.54956 48.33 1.22754C48.33 1.22754 49.0216 0.905514 50.405 0.261472C51.5755 0.154133 52.1607 0.100464 52.1607 0.100464C52.4268 0.100464 52.6662 0.127299 52.879 0.180968C53.145 0.234637 53.3845 0.288307 53.5973 0.341976C53.8101 0.395646 54.0229 0.476151 54.2357 0.583493C54.4486 0.690832 54.6614 0.825007 54.8742 0.986019C55.087 1.09336 55.2998 1.22753 55.5127 1.38854C55.7255 1.49588 55.9117 1.63006 56.0713 1.79107C56.2841 1.95208 56.4704 2.11309 56.63 2.2741C56.8428 2.43511 57.029 2.62296 57.1886 2.83764C57.3482 2.99865 57.4813 3.18649 57.5877 3.40117C57.7473 3.56218 57.8803 3.75003 57.9867 3.96471C58.0399 4.07205 58.0931 4.20622 58.1463 4.36723C58.2527 4.52825 58.3325 4.68926 58.3857 4.85026C58.4389 4.95761 58.4921 5.11862 58.5454 5.3333C58.5986 5.49431 58.6518 5.62848 58.705 5.73582C58.705 5.84316 58.705 5.97734 58.705 6.13835C58.7582 6.29936 58.8114 6.43353 58.8646 6.54087C58.9178 6.64821 58.9444 6.78239 58.9444 6.9434C58.9976 7.05074 59.0242 7.18491 59.0242 7.34592C59.0242 7.45326 59.0508 7.58744 59.104 7.74845C59.2104 9.19754 58.971 11.72 58.3857 15.3159C58.3857 15.4233 58.3591 15.6111 58.3059 15.8795C58.3059 16.0941 58.2793 16.3088 58.2261 16.5235C58.2261 16.6845 58.1995 16.8724 58.1463 17.087C58.0931 17.3017 58.0399 17.5164 57.9867 17.7311C57.9867 17.8921 57.9601 18.0799 57.9069 18.2946C57.9069 18.402 57.8803 18.5361 57.8271 18.6971C57.8271 18.8045 57.8005 18.9118 57.7473 19.0192C57.7473 19.1265 57.7207 19.2607 57.6675 19.4217C57.6675 19.529 57.6409 19.6632 57.5877 19.8242C57.5877 19.9316 57.5611 20.0657 57.5079 20.2267C57.4547 20.3341 57.4014 20.4414 57.3482 20.5488C57.3482 20.6561 57.3216 20.7903 57.2684 20.9513C57.2684 21.0586 57.2684 21.1928 57.2684 21.3538C57.162 21.5148 57.0024 21.8905 56.7896 22.4809C56.63 23.0176 56.497 23.4201 56.3905 23.6885C56.3373 23.9031 56.2309 24.252 56.0713 24.735C55.9117 25.1644 55.7521 25.5669 55.5925 25.9426C55.4329 26.3183 55.2732 26.6672 55.1136 26.9892C53.6771 30.3704 51.6287 33.9663 48.9684 37.7769C48.7024 38.0452 48.3832 38.1794 48.0108 38.1794C47.6915 38.1257 47.3723 37.9647 47.0531 37.6964C46.255 36.9986 46.0688 36.3814 46.4944 35.8447ZM7.70793 97.5117C10.1554 95.3649 11.9111 93.5669 12.9752 92.1178C13.1881 91.7958 13.8265 90.7492 14.8906 88.9781C16.1675 86.885 16.9656 85.5164 17.2848 84.8724C17.1784 84.8724 17.072 84.8724 16.9656 84.8724C16.9124 84.926 16.8326 84.9529 16.7262 84.9529C16.5666 85.0065 16.3538 85.0871 16.0877 85.1944C11.4589 86.5898 8.18678 88.0389 6.27139 89.5417C5.73934 89.971 5.36691 90.3199 5.15409 90.5882C5.04768 90.7492 4.94127 90.8834 4.83486 90.9908C4.72845 91.1518 4.62204 91.3396 4.51563 91.5543C4.40922 91.769 4.32941 91.93 4.27621 92.0373C4.01018 92.735 3.82396 93.2449 3.71755 93.5669C3.55794 93.8889 3.45153 94.2915 3.39832 94.7745C3.29191 95.2575 3.29191 95.7137 3.39832 96.1431C3.50473 96.6261 3.69095 97.136 3.95697 97.6727C4.32941 98.0484 4.72845 98.3436 5.15409 98.5582C5.20729 98.5582 5.2871 98.5851 5.39351 98.6388C5.44672 98.6924 5.52652 98.7193 5.63293 98.7193L5.71274 98.8803C5.97877 98.8266 6.64383 98.3704 7.70793 97.5117Z" stroke="white" stroke-width="0.2" mask="url(#path-1-outside-1_8033_6527)"/>
<path d="M58.9587 64.0215C60.5017 64.3972 61.885 64.5851 63.1087 64.5851C64.3856 64.5851 65.8754 64.4241 67.5779 64.1021C69.3337 63.7264 70.8501 63.3507 72.127 62.975C73.4571 62.5993 74.9468 62.1968 76.5962 61.7674C78.2456 61.2844 79.6289 60.9623 80.7462 60.8013C82.9276 60.4256 84.0715 60.7477 84.1779 61.7674C84.2843 62.4114 83.9651 62.8676 83.2202 63.136C82.8478 63.2433 82.4754 63.1897 82.1029 62.975C80.3472 63.136 77.7135 63.5117 74.202 64.1021C70.7436 64.6387 68.5622 64.9876 67.6578 65.1486C67.2853 65.2023 66.4872 65.3365 65.2635 65.5511C64.093 65.7658 63.0555 65.9537 62.151 66.1147C61.2997 66.222 60.3687 66.2488 59.3578 66.1952C58.3469 66.1415 57.5754 65.9268 57.0433 65.5511C56.0857 64.8534 56.0857 63.6995 57.0433 62.0894C56.6709 62.3041 56.3517 62.4919 56.0857 62.653C55.8728 62.7603 55.6866 62.8676 55.527 62.975C55.4206 63.0286 55.3142 63.1091 55.2078 63.2165C55.1546 63.2702 55.1014 63.297 55.0482 63.297C55.0482 63.297 55.0216 63.3238 54.9683 63.3775C54.9151 63.3775 54.8885 63.3775 54.8885 63.3775C54.8885 63.3775 54.8087 63.4043 54.6491 63.458C54.5427 63.5117 54.4363 63.5653 54.3299 63.619C54.2235 63.6727 54.0373 63.78 53.7712 63.941C53.5052 64.0484 53.2126 64.1826 52.8933 64.3436C51.1908 64.8803 49.5946 65.256 48.1049 65.4706C48.0517 65.5243 47.8655 65.578 47.5462 65.6316C47.227 65.6853 46.9876 65.7122 46.828 65.7122C46.1363 65.6048 45.5245 65.3901 44.9924 65.0681C44.9924 65.0681 44.9126 64.8266 44.753 64.3436C44.753 64.2362 44.753 64.102 44.753 63.941C44.6998 63.78 44.6732 63.6727 44.6732 63.619C44.6732 63.5117 44.6732 63.3775 44.6732 63.2165C44.7796 62.7871 44.9924 62.3846 45.3116 62.0089C45.6309 61.6332 45.8703 61.3649 46.0299 61.2039C46.2427 61.0429 46.6684 60.8013 47.3068 60.4793C47.9453 60.1036 48.2911 59.8889 48.3443 59.8353C48.5039 59.7279 48.77 59.5401 49.1424 59.2717C49.5148 58.9497 49.8607 58.6814 50.1799 58.4667C50.4991 58.252 50.7918 58.091 51.0578 57.9837C51.7494 57.7153 52.7603 57.5275 54.0905 57.4201C55.4738 57.3128 56.4049 57.2054 56.8837 57.0981C57.4158 57.0981 57.6818 57.4738 57.6818 58.2252C57.6818 58.9766 57.4158 59.3522 56.8837 59.3522C56.6709 59.3522 56.1655 59.4059 55.3674 59.5133C54.5693 59.5669 53.9043 59.6474 53.3722 59.7548C52.8401 59.8621 52.3347 60.05 51.8559 60.3183C51.6962 60.4256 51.4834 60.6135 51.2174 60.8818C51.0046 61.0965 50.845 61.2307 50.7385 61.2844C50.6321 61.338 50.5257 61.4185 50.4193 61.5259C50.3129 61.5796 50.1799 61.6601 50.0203 61.7674C49.9139 61.8211 49.8341 61.8747 49.7809 61.9284C49.6744 62.0357 49.3818 62.1968 48.903 62.4114C48.4773 62.6261 48.1581 62.814 47.9453 62.975C49.2222 62.8676 50.6321 62.5993 52.1751 62.1699C52.4943 62.0089 52.8135 61.8747 53.1328 61.7674C53.5052 61.6064 53.718 61.5259 53.7712 61.5259C53.8244 61.4722 53.9309 61.4185 54.0905 61.3649C54.2501 61.2575 54.3565 61.177 54.4097 61.1234C54.4629 61.0697 54.6225 60.9623 54.8885 60.8013C55.2078 60.6403 55.527 60.4525 55.8462 60.2378C55.9526 60.1841 56.2187 60.05 56.6443 59.8353C57.07 59.5669 57.3892 59.3522 57.602 59.1912C57.9744 58.9766 58.4799 58.6009 59.1183 58.0642C59.7568 57.5275 60.2622 57.1518 60.6347 56.9371C61.1135 56.6151 61.5658 56.5077 61.9914 56.6151C62.4171 56.6687 62.7629 56.9371 63.0289 57.4201C63.2949 57.8495 63.3215 58.3057 63.1087 58.7887C63.0023 59.0571 62.8693 59.2986 62.7097 59.5133C62.6033 59.6743 62.5235 59.8084 62.4703 59.9158C62.4171 59.9695 62.2308 60.1036 61.9116 60.3183C61.6456 60.533 61.4594 60.694 61.353 60.8013C60.7677 61.2307 59.9696 62.3041 58.9587 64.0215Z" stroke="white" stroke-width="0.2" mask="url(#path-1-outside-1_8033_6527)"/>
<path d="M100.003 61.8479C100.907 61.7942 101.892 61.6869 102.956 61.5259C104.02 61.3649 105.19 61.177 106.467 60.9623C107.744 60.7477 108.755 60.5867 109.5 60.4793C109.979 60.372 110.325 60.5061 110.537 60.8818C110.75 61.2039 110.75 61.5527 110.537 61.9284C110.378 62.3041 110.059 62.5188 109.58 62.5724C106.281 62.8945 103.115 63.1091 100.083 63.2165C95.2942 63.2702 91.9955 62.6261 90.1866 61.2844C90.0801 61.177 89.9471 61.0697 89.7875 60.9623C89.6811 61.0697 89.4949 61.2844 89.2289 61.6064C88.9096 61.8211 88.4042 62.1431 87.7125 62.5724C87.0741 62.9481 86.675 63.1897 86.5154 63.297C86.4622 63.3507 86.1962 63.5922 85.7173 64.0215C85.2385 64.4509 84.6266 64.7998 83.8818 65.0681C81.86 65.1218 81.1683 63.78 81.8068 61.0429C82.0196 59.9158 82.126 59.3522 82.126 59.3522C82.1792 59.2986 82.3122 59.0034 82.525 58.4667C82.791 57.93 83.0305 57.3933 83.2433 56.8566C83.5093 56.3199 83.6423 56.0515 83.6423 56.0515C83.7487 55.8369 83.8818 55.488 84.0414 55.005C84.2542 54.5219 84.4138 54.1462 84.5202 53.8779C84.6798 53.5559 84.9991 52.8582 85.4779 51.7848C86.01 50.7114 86.3824 49.8795 86.5952 49.2891C88.085 45.8005 90.1866 41.4801 92.9 36.3278C93.5917 35.4154 93.9375 34.9592 93.9375 34.9592C94.6824 34.2615 95.4805 33.8858 96.3317 33.8321C96.8106 33.7784 97.2096 33.7784 97.5288 33.8321C97.9013 33.8321 98.1939 33.9395 98.4067 34.1541C98.6728 34.3688 98.9122 34.7177 99.125 35.2007C99.1782 35.308 99.2314 35.4422 99.2846 35.6032C99.3378 35.7106 99.391 35.8447 99.4442 36.0058C99.4974 36.1131 99.524 36.2204 99.524 36.3278C99.6305 36.7571 99.6837 37.1865 99.6837 37.6159C99.7369 37.9915 99.7103 38.4477 99.6039 38.9844C99.5506 39.4675 99.4708 39.8432 99.3644 40.1115C99.3112 40.3799 99.1782 40.8361 98.9654 41.4801C98.8058 42.1241 98.726 42.4998 98.726 42.6072C98.1407 43.8953 97.8481 44.5393 97.8481 44.5393C97.5821 45.0223 96.6776 46.3104 95.1346 48.4035C94.975 48.6182 94.709 48.9939 94.3365 49.5306C93.9641 50.0136 93.6715 50.3893 93.4587 50.6577C93.1926 51.0334 92.6606 51.7043 91.8625 52.6703C91.0644 53.5827 90.4526 54.3073 90.0269 54.844C86.7814 58.5472 84.7862 60.9087 84.0414 61.9284C84.201 61.7674 84.5468 61.5259 85.0789 61.2039C86.5686 60.2915 87.3933 59.7548 87.5529 59.5938C88.5638 58.252 89.6279 57.7958 90.7452 58.2252L91.5433 58.7887C91.5433 58.8424 91.5965 58.9229 91.7029 59.0302C91.8093 59.0839 91.8891 59.1644 91.9423 59.2717C91.9955 59.3254 92.0487 59.3791 92.1019 59.4327C93.166 61.3112 95.7997 62.1163 100.003 61.8479ZM85.8769 56.4541C86.1962 56.0784 86.6484 55.5417 87.2337 54.844C87.8721 54.1462 88.2978 53.69 88.5106 53.4754C88.883 52.885 89.4683 52.1336 90.2664 51.2212C91.1176 50.3088 91.6763 49.6916 91.9423 49.3696C92.1019 49.1549 92.2616 48.9402 92.4212 48.7256C92.5808 48.4572 92.7404 48.1889 92.9 47.9205C93.1128 47.5985 93.2724 47.357 93.3789 47.196C94.8686 45.1565 95.7465 43.8684 96.0125 43.3317C96.0657 43.1707 96.1189 43.0097 96.1721 42.8487C96.2785 42.6877 96.3583 42.4998 96.4115 42.2852C96.4647 42.0168 96.518 41.829 96.5712 41.7216C97.05 39.9505 97.2362 38.5551 97.1298 37.5354C97.1298 37.3207 97.1032 37.106 97.05 36.8913C97.05 36.7303 96.9968 36.5961 96.8904 36.4888C96.8372 36.3814 96.8106 36.3009 96.8106 36.2473C96.7574 36.2473 96.7308 36.1936 96.7308 36.0863C96.6244 35.9252 96.5446 35.8179 96.4914 35.7642L96.5712 35.9253C96.6776 36.1936 96.7042 36.3546 96.651 36.4083C96.5978 36.4083 96.518 36.4351 96.4115 36.4888C96.3583 36.4888 96.2785 36.4888 96.1721 36.4888C96.0657 36.4888 95.9859 36.5156 95.9327 36.5693C95.6667 36.6766 95.2942 37.106 94.8154 37.8574C92.6872 41.3459 90.5856 45.4249 88.5106 50.0942C88.351 50.5772 88.1382 51.0871 87.8721 51.6238C87.6593 52.1605 87.3933 52.724 87.0741 53.3144C86.808 53.9047 86.5952 54.3878 86.4356 54.7635C86.4356 54.8171 86.2494 55.3807 85.8769 56.4541Z" stroke="white" stroke-width="0.2" mask="url(#path-1-outside-1_8033_6527)"/>
<path d="M114.772 58.6277C114.718 58.5204 114.612 58.413 114.452 58.3057C114.346 58.1447 114.266 58.0105 114.213 57.9031C114.053 58.0642 113.787 58.2788 113.415 58.5472C113.042 58.8155 112.776 59.0302 112.617 59.1912C112.298 59.5133 111.899 60.1036 111.42 60.9623C110.941 61.8211 110.462 62.3846 109.983 62.653C109.451 62.975 108.972 63.0286 108.547 62.814C108.121 62.5456 107.855 62.2236 107.749 61.8479C107.695 61.4185 107.775 61.0429 107.988 60.7208C108.733 60.0231 109.478 59.2717 110.223 58.4667C110.435 58.252 110.675 58.0105 110.941 57.7421C111.047 57.5811 111.234 57.3665 111.5 57.0981C111.819 56.8298 112.085 56.5882 112.298 56.3736C112.51 56.1589 112.67 55.9442 112.776 55.7295C112.83 55.6222 112.883 55.5148 112.936 55.4075C112.989 55.2465 113.042 55.0855 113.096 54.9245C113.149 54.7635 113.202 54.6561 113.255 54.6024C113.255 54.4414 113.282 54.3073 113.335 54.1999C113.282 53.7169 113.362 53.3144 113.575 52.9923C113.628 52.9387 113.681 52.8582 113.734 52.7508C113.787 52.6435 113.841 52.5898 113.894 52.5898C113.787 52.3751 113.761 52.2141 113.814 52.1068C114.825 50.5504 115.623 50.3357 116.208 51.4627C116.687 52.5898 116.66 53.6095 116.128 54.5219C116.182 54.844 116.208 55.3538 116.208 56.0515C116.208 56.1052 116.208 56.132 116.208 56.132C116.581 57.0444 117.059 57.8226 117.645 58.4667C118.23 59.1107 118.815 59.6743 119.4 60.1573C119.986 60.5867 120.731 60.9087 121.635 61.1234C122.54 61.338 123.284 61.5259 123.87 61.6869C124.455 61.7942 125.306 61.8211 126.424 61.7674C127.541 61.7137 128.339 61.6869 128.818 61.6869C129.297 61.6332 130.095 61.499 131.212 61.2844C132.383 61.0697 133.074 60.9355 133.287 60.8818C133.553 60.8282 134.218 60.694 135.282 60.4793C135.655 60.372 136.133 60.3183 136.719 60.3183C137.251 60.3183 137.863 60.3988 138.554 60.5598C139.193 60.5062 139.592 60.9355 139.751 61.8479C139.911 62.7603 139.672 63.2433 139.033 63.297C138.874 63.297 138.714 63.2702 138.554 63.2165C138.501 63.2165 138.208 63.2165 137.676 63.2165C137.517 63.2702 137.304 63.297 137.038 63.297C136.825 63.297 136.639 63.297 136.479 63.297C136.16 63.3507 135.921 63.1897 135.761 62.814C135.548 62.814 135.442 62.814 135.442 62.814C134.644 62.8676 133.447 62.9481 131.85 63.0555C130.254 63.1628 128.977 63.2433 128.02 63.297C127.062 63.3507 125.865 63.3238 124.428 63.2165C123.045 63.1091 121.848 62.9213 120.837 62.653C119.826 62.3309 118.762 61.8479 117.645 61.2039C116.581 60.5061 115.623 59.6474 114.772 58.6277ZM116.767 41.8826C119.055 41.5069 120.385 41.2923 120.757 41.2386C121.023 41.1849 121.236 41.2923 121.396 41.5606C121.555 41.829 121.608 42.1241 121.555 42.4462C121.502 42.7145 121.369 42.8755 121.156 42.9292H120.997L120.917 43.0097H120.677L120.598 43.0902H120.358L120.278 43.1707H120.039L119.959 43.2512H119.72L119.64 43.3317H119.4L119.321 43.4122H119.081L119.001 43.4927H118.762L118.682 43.5732H118.443L118.363 43.6537H118.044L117.964 43.7342H117.725L117.645 43.8148H117.405L117.325 43.8953H117.166C116.9 43.9489 116.66 43.8148 116.448 43.4927C116.288 43.1707 116.235 42.8487 116.288 42.5267C116.341 42.151 116.501 41.9363 116.767 41.8826Z" stroke="white" stroke-width="0.2" mask="url(#path-1-outside-1_8033_6527)"/>
<path d="M138.731 58.7082C140.593 58.0105 141.684 57.5006 142.003 57.1786C141.684 56.6419 140.726 56.4541 139.13 56.6151C138.438 56.6687 137.959 56.8298 137.693 57.0981C137.48 57.3665 137.454 57.7421 137.613 58.2252C137.773 58.6545 138.012 58.9497 138.332 59.1107C138.385 58.9497 138.518 58.8155 138.731 58.7082ZM166.823 62.4114C164.801 62.4114 162.194 62.6261 159.002 63.0555C155.81 63.4848 153.043 63.8874 150.702 64.2631C148.414 64.5851 145.967 64.5851 143.36 64.2631C140.806 63.941 138.704 63.1091 137.055 61.7674C135.405 60.533 134.634 59.0839 134.74 57.4201C134.74 56.293 135.326 55.4075 136.496 54.7635C137.613 54.1194 138.917 53.8242 140.407 53.8779C141.896 53.9316 143.094 54.3609 143.998 55.166C144.743 55.81 145.062 56.3736 144.956 56.8566C144.849 57.3933 144.557 57.9032 144.078 58.3862C143.599 58.8692 143.04 59.2717 142.402 59.5938C141.763 59.9158 141.072 60.1841 140.327 60.3988C140.699 61.4722 141.657 62.2236 143.2 62.653C144.743 63.0286 146.605 63.136 148.786 62.975C151.021 62.7603 153.203 62.4919 155.331 62.1699C157.512 61.7942 159.72 61.3917 161.955 60.9623C164.243 60.533 165.839 60.2915 166.743 60.2378C168.073 59.6474 168.898 59.7816 169.217 60.6403C169.483 61.338 169.191 61.8747 168.339 62.2504C167.914 62.4114 167.408 62.4651 166.823 62.4114Z" stroke="white" stroke-width="0.2" mask="url(#path-1-outside-1_8033_6527)"/>
<path d="M184.772 65.3901C183.655 64.6387 182.75 63.1897 182.059 61.0429C181.58 61.3649 180.968 61.8479 180.223 62.4919C180.064 62.5993 179.744 62.8408 179.266 63.2165C178.84 63.5385 178.441 63.8605 178.068 64.1825C177.696 64.4509 177.217 64.7998 176.632 65.2291C176.047 65.6048 175.488 65.9537 174.956 66.2757C174.424 66.5977 173.839 66.9197 173.2 67.2417C172.562 67.5101 171.923 67.7248 171.285 67.8858C171.125 67.8858 170.886 67.9126 170.566 67.9663C170.3 68.02 170.061 68.0736 169.848 68.1273C169.635 68.1273 169.396 68.1273 169.13 68.1273C168.864 68.1273 168.598 68.1273 168.332 68.1273C168.119 68.0736 167.933 68.02 167.773 67.9663C166.443 67.4296 166.044 66.1683 166.576 64.1825C166.683 63.7532 166.842 63.3507 167.055 62.975C167.374 62.3309 167.826 61.6601 168.412 60.9623C169.05 60.2646 169.502 59.7279 169.768 59.3522C170.247 58.6545 170.912 58.7082 171.764 59.5133C172.455 60.2646 172.482 60.8818 171.843 61.3649C170.726 62.0626 169.875 63.0286 169.29 64.2631C168.811 65.2828 169.077 65.7658 170.088 65.7122C170.62 65.6585 171.338 65.4438 172.242 65.0681C172.562 64.9608 172.881 64.8266 173.2 64.6656C173.573 64.5046 173.918 64.3167 174.238 64.1021C174.61 63.8337 174.903 63.619 175.116 63.458C175.382 63.297 175.727 63.0555 176.153 62.7335C176.579 62.4114 176.871 62.1968 177.031 62.0894C177.191 61.9284 177.483 61.6601 177.909 61.2844C178.388 60.855 178.68 60.6135 178.787 60.5598C179.319 60.0768 179.957 59.5401 180.702 58.9497C181.074 58.6277 181.341 58.4399 181.5 58.3862C181.66 58.2788 181.926 58.1715 182.298 58.0642C182.724 57.9032 183.096 57.9032 183.415 58.0642C183.469 58.1178 183.522 58.1715 183.575 58.2252C183.628 58.2788 183.682 58.3325 183.735 58.3862C183.841 58.4399 183.894 58.4935 183.894 58.5472C183.948 58.5472 184.001 58.574 184.054 58.6277C184.107 58.735 184.16 58.8155 184.214 58.8692C184.373 59.3522 184.533 59.9694 184.692 60.7208C184.852 61.4185 184.985 61.9284 185.091 62.2504C185.198 62.5188 185.464 62.8676 185.89 63.297C186.368 63.7264 187.007 64.1289 187.805 64.5046C189.188 65.1486 190.917 65.5243 192.992 65.6316C195.121 65.6853 197.329 65.5511 199.616 65.2291C201.957 64.8534 204.192 64.4509 206.32 64.0215C208.448 63.5385 210.55 63.0555 212.625 62.5724C214.753 62.0357 216.27 61.7137 217.174 61.6064C217.281 61.177 217.52 60.9355 217.892 60.8818C218.265 60.8818 218.797 60.855 219.489 60.8013C220.18 60.694 220.792 60.6135 221.324 60.5598C221.909 60.5062 222.468 60.5062 223 60.5598C223.053 60.6135 223.16 60.694 223.319 60.8013C223.479 60.855 223.585 60.9355 223.639 61.0429C223.745 61.0965 223.825 61.177 223.878 61.2844C224.144 62.0894 224.171 62.653 223.958 62.975C223.745 63.2433 223.266 63.5385 222.521 63.8605C222.415 63.9142 222.096 63.8605 221.564 63.6995C221.031 63.5385 220.712 63.5117 220.606 63.619C219.169 63.619 218.079 63.6459 217.334 63.6995C216.323 63.8069 214.62 64.102 212.226 64.5851C209.832 65.0144 207.411 65.4438 204.964 65.8732C202.516 66.2488 199.962 66.5977 197.302 66.9197C194.695 67.2417 192.274 67.2954 190.04 67.0807C187.805 66.8124 186.049 66.2489 184.772 65.3901Z" stroke="white" stroke-width="0.2" mask="url(#path-1-outside-1_8033_6527)"/>
</svg>
