<svg width="26" height="20" viewBox="0 0 26 20" fill="none" xmlns="http://www.w3.org/2000/svg">
<path d="M2.6 20C1.885 20 1.27313 19.7554 0.7644 19.2662C0.255667 18.7771 0.000866667 18.1883 0 17.5V2.5C0 1.8125 0.2548 1.22417 0.7644 0.735C1.274 0.245833 1.88587 0.000833333 2.6 0H23.4C24.115 0 24.7273 0.245 25.2369 0.735C25.7465 1.225 26.0009 1.81333 26 2.5V17.5C26 18.1875 25.7456 18.7762 25.2369 19.2662C24.7282 19.7562 24.1159 20.0008 23.4 20H2.6ZM13 11.25L23.4 5V2.5L13 8.75L2.6 2.5V5L13 11.25Z" fill="white"/>
</svg>
