<svg width="20" height="20" viewBox="0 0 20 20" fill="none" xmlns="http://www.w3.org/2000/svg">
<path d="M16.4052 20H16.775C17.0848 19.99 17.3746 19.8301 17.5544 19.5702L19.8228 16.3016C19.9727 16.0817 20.0327 15.8118 19.9827 15.5419C19.9582 15.4104 19.9076 15.2851 19.8338 15.1735C19.7599 15.0619 19.6645 14.9662 19.553 14.8922L14.6465 11.6236C14.2368 11.3537 13.6872 11.4137 13.3574 11.7735L11.4787 13.8027C10.7193 13.3529 9.45016 12.5432 8.45086 11.5436C7.45157 10.5441 6.64214 9.27461 6.19246 8.52493L8.22102 6.64574C8.58077 6.31588 8.65072 5.76612 8.37092 5.35629L5.10322 0.448404C4.95333 0.228498 4.72349 0.0685671 4.46368 0.0185886C4.19387 -0.0313899 3.92406 0.0185887 3.70421 0.17852L0.436518 2.43755C0.176701 2.61747 0.016814 2.90735 0.00682105 3.21721C-0.0231578 3.92691 -0.153066 10.2542 4.79344 15.1921C9.2503 19.6502 14.8264 19.99 16.4052 19.99V20Z" fill="white"/>
</svg>
