<svg width="165" height="215" viewBox="0 0 165 215" fill="none" xmlns="http://www.w3.org/2000/svg">
<path d="M114.564 215L72.486 139.750L47.607 139.750L47.607 215L0 215L0 0L81.700 0Q107.193 0 124.854 9.829Q142.514 19.657 151.114 35.782Q159.714 51.907 159.714 70.643L159.714 70.643Q159.714 91.529 149.271 108.268Q138.829 125.007 118.557 133.300L118.557 133.300L164.629 215L114.564 215ZM47.607 41.771L47.607 100.743L74.021 100.743Q90.607 100.743 101.971 93.832Q113.336 86.921 113.336 70.643L113.336 70.643Q113.336 54.979 102.125 48.375Q90.914 41.771 74.021 41.771L74.021 41.771L47.607 41.771Z" fill="url(#paint0_linear_r)"/>
<defs>
<linearGradient id="paint0_linear_r" x1="82.3143" y1="0" x2="82.3143" y2="215.000" gradientUnits="userSpaceOnUse">
<stop stop-color="#F7F7F7" stop-opacity="0"/>
<stop offset="1" stop-color="#F7F7F7"/>
</linearGradient>
</defs>
</svg>
