<svg width="157" height="215" viewBox="0 0 157 215" fill="none" xmlns="http://www.w3.org/2000/svg">
<path d="M79.450 215.000Q57.920 215.000 39.877 206.358Q21.834 197.715 10.917 180.430Q0 163.145 0 137.976L0 137.976Q0 114.020 8.642 94.157Q17.285 74.295 32.144 51.248L32.144 51.248L65.197 0L110.987 0L51.855 89.154L52.764 90.063L57.313 86.121Q64.288 79.450 72.475 75.659Q80.663 71.869 93.702 71.869L93.702 71.869Q113.413 71.869 127.666 81.118Q141.918 90.367 149.348 106.287Q156.777 122.207 156.777 141.615L156.777 141.615Q156.777 165.268 146.315 181.946Q135.853 198.625 118.265 206.812Q100.677 215.000 79.450 215.000L79.450 215.000ZM77.630 177.701Q94.309 177.701 102.648 166.784Q110.987 155.867 110.987 141.615L110.987 141.615Q110.987 127.362 102.648 116.446Q94.309 105.529 77.630 105.529L77.630 105.529Q61.559 105.529 53.219 116.294Q44.880 127.059 44.880 141.615L44.880 141.615Q44.880 155.564 53.219 166.633Q61.559 177.701 77.630 177.701L77.630 177.701Z" fill="url(#paint0_linear_6)"/>
<defs>
<linearGradient id="paint0_linear_6" x1="78.3886" y1="0" x2="78.3886" y2="215.000" gradientUnits="userSpaceOnUse">
<stop stop-color="#F7F7F7" stop-opacity="0"/>
<stop offset="1" stop-color="#F7F7F7"/>
</linearGradient>
</defs>
</svg>
