<svg width="147" height="215" viewBox="0 0 147 215" fill="none" xmlns="http://www.w3.org/2000/svg">
<path d="M48.174 151.660L48.174 148.686Q48.174 134.115 55.460 123.558Q62.746 113.001 76.722 99.620L76.722 99.620Q88.022 89.212 93.672 81.480Q99.322 73.748 99.322 64.827L99.322 64.827Q99.322 54.716 92.631 48.620Q85.941 42.524 74.046 42.524L74.046 42.524Q58.285 42.524 52.486 52.337Q46.687 62.151 46.687 74.046L46.687 74.046L46.687 74.938L0 74.938L0 74.046Q0 39.253 20.221 19.627Q40.443 0 74.343 0L74.343 0Q95.754 0 112.109 7.880Q128.465 15.761 137.386 29.737Q146.307 43.714 146.307 61.853L146.307 61.853Q146.307 74.343 141.995 84.156Q137.683 93.970 131.587 100.809Q125.491 107.649 115.678 116.272L115.678 116.272Q104.378 126.086 99.174 132.925Q93.970 139.765 93.970 148.686L93.970 148.686L93.970 151.660L48.174 151.660ZM71.369 215Q60.961 215 54.270 208.012Q47.580 201.024 47.580 190.913L47.580 190.913Q47.580 180.802 54.270 173.814Q60.961 166.826 71.369 166.826L71.369 166.826Q81.777 166.826 88.766 173.814Q95.754 180.802 95.754 190.913L95.754 190.913Q95.754 200.726 88.766 207.863Q81.777 215 71.369 215L71.369 215Z" fill="url(#paint0_linear_question)"/>
<defs>
<linearGradient id="paint0_linear_question" x1="73.1535" y1="0" x2="73.1535" y2="215.000" gradientUnits="userSpaceOnUse">
<stop stop-color="#F7F7F7" stop-opacity="0"/>
<stop offset="1" stop-color="#F7F7F7"/>
</linearGradient>
</defs>
</svg>
