<svg width="158" height="215" viewBox="0 0 158 215" fill="none" xmlns="http://www.w3.org/2000/svg">
<path d="M80.290 215.000Q55.311 215.000 37.023 205.187Q18.734 195.373 9.367 179.464Q0 163.555 0 146.307L0 146.307L0 143.928L50.851 143.928L50.851 146.010Q50.851 156.715 58.582 165.636Q66.314 174.557 81.183 174.557L81.183 174.557Q93.970 174.557 101.701 168.015Q109.433 161.473 109.433 150.768L109.433 150.768Q109.433 141.252 102.593 135.453Q95.754 129.654 85.941 127.573L85.941 127.573L62.151 122.815Q41.335 118.057 23.195 104.972Q5.055 91.888 5.055 62.151L5.055 62.151Q5.055 42.822 14.423 28.845Q23.790 14.869 40.443 7.434Q57.095 0 78.209 0L78.209 0Q102.296 0 119.841 9.219Q137.386 18.437 146.307 33.157Q155.228 47.877 155.228 63.935L155.228 63.935L155.228 65.422L104.378 65.422L104.378 64.530Q104.378 55.014 97.687 46.836Q90.996 38.658 76.425 38.658L76.425 38.658Q65.124 38.658 58.434 44.903Q51.743 51.148 51.743 61.259L51.743 61.259Q51.743 71.072 59.177 76.722Q66.611 82.372 77.019 84.454L77.019 84.454L101.107 89.806Q124.599 94.862 141.252 108.838Q157.905 122.815 157.905 149.578L157.905 149.578Q157.905 169.205 147.794 184.073Q137.683 198.942 119.990 206.971Q102.296 215.000 80.290 215.000L80.290 215.000Z" fill="url(#paint0_linear_s)"/>
<defs>
<linearGradient id="paint0_linear_s" x1="78.9523" y1="0" x2="78.9523" y2="215.000" gradientUnits="userSpaceOnUse">
<stop stop-color="#F7F7F7" stop-opacity="0"/>
<stop offset="1" stop-color="#F7F7F7"/>
</linearGradient>
</defs>
</svg>
