<svg width="156" height="215" viewBox="0 0 156 215" fill="none" xmlns="http://www.w3.org/2000/svg">
<path d="M39.502 215L104.032 125.140L103.128 123.934L98.604 128.156Q91.669 134.488 83.527 138.107Q75.386 141.725 62.721 141.725L62.721 141.725Q43.121 141.725 28.948 132.528Q14.776 123.331 7.388 107.651Q0 91.971 0 72.672L0 72.672Q0 49.151 10.403 32.717Q20.806 16.283 38.597 8.142Q56.388 0 78.100 0L78.100 0Q98.604 0 116.396 8.443Q134.187 16.886 145.042 34.074Q155.898 51.262 155.898 75.687L155.898 75.687Q155.898 92.875 151.224 108.254Q146.550 123.633 140.067 135.242Q133.583 146.851 123.633 162.532L123.633 162.532L89.860 215L39.502 215ZM78.703 108.555Q94.684 108.555 102.977 97.700Q111.269 86.844 111.269 72.973L111.269 72.973Q111.269 59.102 102.977 48.096Q94.684 37.090 78.703 37.090L78.703 37.090Q62.118 37.090 53.825 47.945Q45.533 58.801 45.533 72.672L45.533 72.672Q45.533 86.844 53.825 97.700Q62.118 108.555 78.703 108.555L78.703 108.555Z" fill="url(#paint0_linear_9)"/>
<defs>
<linearGradient id="paint0_linear_9" x1="77.9488" y1="0" x2="77.9488" y2="215.000" gradientUnits="userSpaceOnUse">
<stop stop-color="#F7F7F7" stop-opacity="0"/>
<stop offset="1" stop-color="#F7F7F7"/>
</linearGradient>
</defs>
</svg>
