<svg width="182" height="215" viewBox="0 0 182 215" fill="none" xmlns="http://www.w3.org/2000/svg">
<path d="M0 215.000L0 0L84.771 0Q113.336 0 135.143 12.746Q156.950 25.493 169.082 49.604Q181.214 73.714 181.214 107.193L181.214 107.193Q181.214 141.286 168.929 165.550Q156.643 189.814 134.682 202.407Q112.721 215.000 84.157 215.000L84.157 215.000L0 215.000ZM46.379 172.000L75.250 172.000Q100.436 172.000 115.179 157.564Q129.921 143.129 129.921 107.193L129.921 107.193Q129.921 71.257 115.332 56.821Q100.743 42.386 75.250 42.386L75.250 42.386L46.379 42.386L46.379 172.000Z" fill="url(#paint0_linear_d)"/>
<defs>
<linearGradient id="paint0_linear_d" x1="90.6071" y1="0" x2="90.6071" y2="215.000" gradientUnits="userSpaceOnUse">
<stop stop-color="#F7F7F7" stop-opacity="0"/>
<stop offset="1" stop-color="#F7F7F7"/>
</linearGradient>
</defs>
</svg>
