<svg width="186" height="215" viewBox="0 0 186 215" fill="none" xmlns="http://www.w3.org/2000/svg">
<path d="M90.104 215.000Q60.961 215.000 40.591 199.834Q20.221 184.668 10.111 160.284Q0 135.899 0 108.243L0 108.243Q0 79.696 10.557 55.014Q21.113 30.332 42.524 15.166Q63.935 0 94.862 0L94.862 0Q130.249 0 152.998 19.775Q175.747 39.550 184.965 71.369L184.965 71.369L136.196 71.369Q132.331 57.393 121.923 49.066Q111.515 40.740 95.159 40.740L95.159 40.740Q71.667 40.740 59.177 59.474Q46.687 78.209 46.687 109.433L46.687 109.433Q46.687 142.144 60.069 160.135Q73.451 178.126 97.538 178.126L97.538 178.126Q118.354 178.126 129.208 165.339Q140.062 152.552 140.360 135.304L140.360 135.304L140.360 131.438L101.404 131.438L101.404 98.430L185.858 98.430L185.858 212.324L151.660 212.324L151.660 182.884L149.281 182.884Q131.736 215.000 90.104 215.000L90.104 215.000Z" fill="url(#paint0_linear_g)"/>
<defs>
<linearGradient id="paint0_linear_g" x1="92.9288" y1="0" x2="92.9288" y2="215.000" gradientUnits="userSpaceOnUse">
<stop stop-color="#F7F7F7" stop-opacity="0"/>
<stop offset="1" stop-color="#F7F7F7"/>
</linearGradient>
</defs>
</svg>
