<svg width="230" height="215" viewBox="0 0 230 215" fill="none" xmlns="http://www.w3.org/2000/svg">
<path d="M222.371 86.921L179.986 86.921L169.543 134.529L209.779 134.529L202.407 166.471L162.786 166.471L152.343 215L113.643 215L113.643 211.314L123.471 166.471L83.236 166.471L72.793 215L34.093 215L34.093 211.314L43.614 166.471L0 166.471L7.371 134.529L50.679 134.529L60.814 86.921L19.964 86.921L27.336 54.057L67.879 54.057L79.550 0L118.250 0L118.250 3.686L107.500 54.057L147.736 54.057L159.407 0L197.800 0L197.800 3.686L187.050 54.057L229.743 54.057L222.371 86.921ZM130.229 134.529L140.671 86.921L100.436 86.921L89.993 134.529L130.229 134.529Z" fill="url(#paint0_linear_hash)"/>
<defs>
<linearGradient id="paint0_linear_hash" x1="114.8714" y1="0" x2="114.8714" y2="215.000" gradientUnits="userSpaceOnUse">
<stop stop-color="#F7F7F7" stop-opacity="0"/>
<stop offset="1" stop-color="#F7F7F7"/>
</linearGradient>
</defs>
</svg>
