<svg width="166" height="215" viewBox="0 0 166 215" fill="none" xmlns="http://www.w3.org/2000/svg">
<path d="M0 215.000L0 0L92.011 0Q111.641 0 125.442 7.361Q139.244 14.722 145.991 27.143Q152.739 39.565 152.739 54.593L152.739 54.593Q152.739 72.689 143.538 84.190Q134.337 95.692 122.068 99.066L122.068 99.066L122.068 101.213Q131.270 102.439 141.238 108.267Q151.205 114.094 158.260 125.289Q165.314 136.484 165.314 152.432L165.314 152.432Q165.314 167.767 158.413 182.183Q151.512 196.598 136.484 205.799Q121.455 215.000 99.066 215.000L99.066 215.000L0 215.000ZM46.926 87.411L77.596 87.411Q90.171 87.411 99.066 81.583Q107.960 75.756 107.960 62.261L107.960 62.261Q107.960 49.073 98.912 43.399Q89.864 37.725 77.596 37.725L77.596 37.725L46.926 37.725L46.926 87.411ZM46.926 176.969L88.331 176.969Q100.906 176.969 110.414 170.835Q119.922 164.700 119.922 149.365L119.922 149.365Q119.922 134.337 110.260 127.896Q100.599 121.455 88.331 121.455L88.331 121.455L46.926 121.455L46.926 176.969Z" fill="url(#paint0_linear_b)"/>
<defs>
<linearGradient id="paint0_linear_b" x1="82.6569" y1="0" x2="82.6569" y2="215.000" gradientUnits="userSpaceOnUse">
<stop stop-color="#F7F7F7" stop-opacity="0"/>
<stop offset="1" stop-color="#F7F7F7"/>
</linearGradient>
</defs>
</svg>
