<svg width="149" height="215" viewBox="0 0 149 215" fill="none" xmlns="http://www.w3.org/2000/svg">
<path d="M2.105 215.000L2.105 175.308L29.769 151.552Q34.580 147.643 38.941 144.035Q43.301 140.427 47.510 137.119L47.510 137.119Q67.657 120.881 78.332 111.108Q89.007 101.336 96.073 90.360Q103.140 79.385 103.140 67.657L103.140 67.657Q103.140 56.231 96.224 48.112Q89.308 39.993 75.175 39.993L75.175 39.993Q57.133 39.993 51.570 50.517Q46.007 61.042 46.007 72.168L46.007 72.168L46.007 76.077L0 76.077Q0 52.021 9.472 34.731Q18.944 17.441 35.783 8.720Q52.622 0 74.273 0L74.273 0Q96.825 0 113.364 8.570Q129.902 17.140 138.622 31.874Q147.343 46.608 147.343 64.951L147.343 64.951Q147.343 82.392 140.126 96.524Q132.909 110.657 122.986 120.881Q113.063 131.105 97.427 144.035L97.427 144.035L90.811 149.448L62.846 172.902L62.846 174.406L148.846 174.406L148.846 215.000L2.105 215.000Z" fill="url(#paint0_linear_2)"/>
<defs>
<linearGradient id="paint0_linear_2" x1="74.4231" y1="0" x2="74.4231" y2="215.000" gradientUnits="userSpaceOnUse">
<stop stop-color="#F7F7F7" stop-opacity="0"/>
<stop offset="1" stop-color="#F7F7F7"/>
</linearGradient>
</defs>
</svg>
