<svg width="163" height="215" viewBox="0 0 163 215" fill="none" xmlns="http://www.w3.org/2000/svg">
<path d="M81.511 215.000Q40.165 215.000 20.082 188.420Q0 161.841 0 117.837L0 117.837L0 95.982Q0 52.273 20.082 26.137Q40.165 0 81.511 0L81.511 0Q122.857 0 142.792 26.137Q162.727 52.273 162.727 95.982L162.727 95.982L162.727 117.837Q162.727 161.841 142.792 188.420Q122.857 215.000 81.511 215.000L81.511 215.000ZM81.511 175.426Q97.459 175.426 104.251 161.545Q111.044 147.665 111.044 120.495L111.044 120.495L111.044 93.324Q111.044 66.449 104.251 53.012Q97.459 39.574 81.511 39.574L81.511 39.574Q65.563 39.574 58.623 53.012Q51.683 66.449 51.683 93.324L51.683 93.324L51.683 120.495Q51.683 147.370 58.623 161.398Q65.563 175.426 81.511 175.426L81.511 175.426Z" fill="url(#paint0_linear_0)"/>
<defs>
<linearGradient id="paint0_linear_0" x1="81.3633" y1="0" x2="81.3633" y2="215.000" gradientUnits="userSpaceOnUse">
<stop stop-color="#F7F7F7" stop-opacity="0"/>
<stop offset="1" stop-color="#F7F7F7"/>
</linearGradient>
</defs>
</svg>
