<svg width="160" height="215" viewBox="0 0 160 215" fill="none" xmlns="http://www.w3.org/2000/svg">
<path d="M81.700 0Q107.193 0 124.854 10.443Q142.514 20.886 151.114 38.086Q159.714 55.286 159.714 75.250L159.714 75.250Q159.714 94.907 151.268 111.646Q142.821 128.386 125.161 138.521Q107.500 148.657 81.700 148.657L81.700 148.657L46.993 148.657L46.993 215L0 215L0 0L81.700 0ZM74.021 109.343Q90.607 109.343 101.971 101.511Q113.336 93.679 113.336 75.250L113.336 75.250Q113.336 56.821 102.125 49.450Q90.914 42.079 74.021 42.079L74.021 42.079L46.993 42.079L46.993 109.343L74.021 109.343Z" fill="url(#paint0_linear_p)"/>
<defs>
<linearGradient id="paint0_linear_p" x1="79.8571" y1="0" x2="79.8571" y2="215.000" gradientUnits="userSpaceOnUse">
<stop stop-color="#F7F7F7" stop-opacity="0"/>
<stop offset="1" stop-color="#F7F7F7"/>
</linearGradient>
</defs>
</svg>
