<svg width="102" height="51" viewBox="0 0 102 51" fill="none" xmlns="http://www.w3.org/2000/svg">
<mask id="path-1-outside-1_8062_5887" maskUnits="userSpaceOnUse" x="-0.899902" y="-0.899414" width="103" height="52" fill="black">
<rect fill="white" x="-0.899902" y="-0.899414" width="103" height="52"/>
<path d="M21.0281 17.6516C22.1801 16.2022 23.1041 14.5552 23.8001 12.7105C23.8241 12.6314 23.8481 12.5392 23.8721 12.4338C23.9201 12.3283 23.9561 12.2229 23.9801 12.1175C24.0281 12.0121 24.0761 11.8935 24.1241 11.7618C24.1721 11.63 24.2081 11.5114 24.2321 11.406C24.2561 11.3006 24.2921 11.182 24.3401 11.0502C24.3881 10.9185 24.4241 10.8131 24.4481 10.734C24.4721 10.6286 24.5081 10.51 24.5561 10.3782C24.6041 10.2465 24.6401 10.1411 24.6641 10.062C24.8561 9.166 24.9521 8.718 24.9521 8.718C24.9761 8.50717 25.0361 8.046 25.1321 7.33447C25.2521 6.51753 25.3241 5.93776 25.3481 5.59517C25.3721 5.25258 25.3601 4.686 25.3121 3.89541C25.3121 3.8427 25.3001 3.79 25.2761 3.73729C25.2761 3.65823 25.2641 3.60553 25.2401 3.57917C25.2401 3.52647 25.2281 3.47376 25.2041 3.42106C25.1801 3.342 25.1561 3.27611 25.1321 3.22341C24.9881 2.85447 24.9161 2.67 24.9161 2.67C24.6041 2.16929 24.1961 1.83988 23.6921 1.68176C23.6201 1.65541 23.3801 1.68176 22.9721 1.76082C22.6601 1.94529 22.5041 2.03753 22.5041 2.03753C22.4081 2.11659 22.3001 2.20882 22.1801 2.31423C22.0841 2.39329 21.9761 2.4987 21.8561 2.63047C21.4961 3.02576 21.1721 3.43423 20.8841 3.85588C20.5961 4.25117 20.3201 4.67282 20.0561 5.12082C19.8161 5.56882 19.6001 6.04317 19.4081 6.54388C19.4081 6.54388 19.1681 7.22906 18.6881 8.59941C18.1361 10.2069 17.8601 11.0107 17.8601 11.0107C17.5961 11.8276 17.1761 13.4352 16.6001 15.8333C16.5521 15.9914 16.5281 16.11 16.5281 16.1891C16.4321 16.5843 16.1201 17.8625 15.5921 20.0234C15.0641 22.158 14.6561 23.7919 14.3681 24.9251C13.1921 29.8267 12.1601 33.5556 11.2721 36.1119C11.2001 36.2963 10.6841 37.614 9.7241 40.0648C12.2921 39.6695 14.5961 39.4192 16.6361 39.3138C17.9561 39.2347 20.0801 39.2347 23.0081 39.3138C24.4241 39.3665 26.0321 39.406 27.8321 39.4323C29.6321 39.4851 31.4441 39.5246 33.2681 39.5509C35.1161 39.5773 36.7361 39.6168 38.1281 39.6695C39.5681 39.7486 42.1601 39.9331 45.9041 40.2229C48.4481 40.3811 50.9201 40.4865 53.3201 40.5392C55.7201 40.6182 58.0841 40.6314 60.4121 40.5787C60.5561 40.5787 60.7121 40.5787 60.8801 40.5787C61.0481 40.5787 61.2041 40.5787 61.3481 40.5787C61.4921 40.5787 61.6481 40.5787 61.8161 40.5787C61.9841 40.5787 62.1401 40.5787 62.2841 40.5787C62.4521 40.5787 62.6201 40.5655 62.7881 40.5392C62.9561 40.5392 63.1121 40.5392 63.2561 40.5392C63.4241 40.5392 63.5801 40.5392 63.7241 40.5392C63.9641 40.5128 64.2161 40.4865 64.4801 40.4601C64.7681 40.4601 65.0201 40.4469 65.2361 40.4206C65.4521 40.4206 65.7041 40.4074 65.9921 40.3811C66.3041 40.3547 66.5561 40.3283 66.7481 40.302C66.9161 40.302 67.1801 40.2756 67.5401 40.2229C72.2201 39.6959 75.6881 39.0898 77.9441 38.4046C78.0881 38.3782 78.2321 38.3387 78.3761 38.286C78.5201 38.2333 78.6881 38.1674 78.8801 38.0883C79.0721 38.0356 79.2161 37.9829 79.3121 37.9302C79.4081 37.9039 79.5041 37.8643 79.6001 37.8116C79.6961 37.7853 79.8041 37.7458 79.9241 37.6931C80.0441 37.6667 80.1281 37.6404 80.1761 37.614C80.2481 37.5876 80.3681 37.5481 80.5361 37.4954C80.7041 37.4427 80.8001 37.4164 80.8241 37.4164C80.7281 37.39 80.4401 37.3768 79.9601 37.3768C79.6481 37.3505 79.4921 37.0869 79.4921 36.5862C79.4921 36.3754 79.5401 36.1909 79.6361 36.0328C79.7321 35.8747 79.8641 35.7956 80.0321 35.7956C80.8721 35.822 81.6281 35.9669 82.3001 36.2305C82.3001 36.2305 82.3721 36.2436 82.5161 36.27C82.6841 36.3227 82.8041 36.3754 82.8761 36.4281C82.8761 36.4281 83.0801 36.6258 83.4881 37.0211C83.4881 37.0474 83.4881 37.0738 83.4881 37.1001C83.4881 37.1528 83.4761 37.2319 83.4521 37.3373C83.4521 37.4691 83.4401 37.5745 83.4161 37.6535C83.4161 37.7326 83.4041 37.8116 83.3801 37.8907C83.3561 37.9961 83.3201 38.1015 83.2721 38.2069C83.2481 38.2596 83.1881 38.2992 83.0921 38.3255C83.0201 38.3782 82.9481 38.4046 82.8761 38.4046C82.8281 38.4309 82.7561 38.4441 82.6601 38.4441C82.5881 38.4441 82.5401 38.4441 82.5161 38.4441C82.1561 38.5232 81.6521 38.6549 81.0041 38.8394C80.3561 39.0502 79.9001 39.1952 79.6361 39.2742C78.6761 39.5378 78.1961 39.6695 78.1961 39.6695C75.8921 40.2229 72.0881 40.75 66.7841 41.2507C64.7681 41.3298 63.7601 41.3693 63.7601 41.3693C61.8881 41.422 59.8961 41.4352 57.7841 41.4088C55.6721 41.3825 53.6801 41.3298 51.8081 41.2507C49.9361 41.1716 47.9561 41.0662 45.8681 40.9345C45.5561 40.9081 45.1601 40.8686 44.6801 40.8159C44.2241 40.7895 43.8521 40.7632 43.5641 40.7368C43.2761 40.7105 42.9281 40.6841 42.5201 40.6578C42.1121 40.6314 41.7521 40.6051 41.4401 40.5787C41.1281 40.5523 40.7801 40.526 40.3961 40.4996C40.0121 40.4733 39.6281 40.4469 39.2441 40.4206C38.8841 40.3942 38.5001 40.3811 38.0921 40.3811C36.6521 40.302 35.0441 40.2493 33.2681 40.2229C31.5161 40.2229 29.6921 40.2229 27.7961 40.2229C25.9241 40.2229 24.3281 40.1966 23.0081 40.1439C19.9121 40.1702 17.8121 40.2229 16.7081 40.302C14.6201 40.4601 12.1121 40.8422 9.1841 41.4483C8.8961 42.1072 8.7041 42.5288 8.6081 42.7133C8.5361 42.8978 8.2481 43.4643 7.7441 44.4131C7.2881 45.2827 7.0121 45.7966 6.9161 45.9547C6.3881 46.8243 5.5721 47.8521 4.4681 49.038C4.2281 49.3015 4.0481 49.486 3.9281 49.5914C3.8081 49.7232 3.6281 49.8549 3.3881 49.9867C3.1481 50.1185 2.8961 50.1843 2.6321 50.1843C2.1761 50.1843 1.5881 49.8813 0.868098 49.2752V49.2356C0.844098 49.2093 0.808097 49.1434 0.760097 49.038C0.688098 48.9589 0.628098 48.8799 0.580098 48.8008C0.532097 48.7218 0.484098 48.6559 0.436098 48.6032C0.340098 48.3396 0.268097 48.0761 0.220097 47.8126C0.148098 47.5491 0.112098 47.2723 0.112098 46.9825C0.0880976 46.7189 0.100098 46.4554 0.148098 46.1919C0.196097 45.9283 0.268097 45.6648 0.364098 45.4013C0.388098 45.2695 0.460098 45.0851 0.580098 44.8479C0.628098 44.7425 0.664098 44.6634 0.688098 44.6107V44.5712C1.0241 44.0178 1.1921 43.7411 1.1921 43.7411C1.5281 43.2667 1.9241 42.8582 2.3801 42.5156C2.8121 42.1731 3.3761 41.8568 4.0721 41.5669C4.7681 41.3034 5.2601 41.1189 5.5481 41.0135C5.8361 40.9345 6.4121 40.7632 7.2761 40.4996C7.6841 40.4206 8.0801 40.3547 8.4641 40.302C8.5121 40.2229 8.5481 40.1439 8.5721 40.0648C8.5961 40.0121 8.6681 39.8276 8.7881 39.5114C8.9081 39.2215 9.0161 38.958 9.1121 38.7208C9.2081 38.51 9.3161 38.2333 9.4361 37.8907C9.5801 37.5481 9.7001 37.2582 9.7961 37.0211C9.9161 36.7839 10.0241 36.5335 10.1201 36.27C10.2161 36.0328 10.2881 35.8484 10.3361 35.7166C11.0081 33.8982 11.5721 32.1721 12.0281 30.5382C12.0521 30.4328 12.3041 29.4709 12.7841 27.6526C12.8321 27.4154 12.8921 27.1651 12.9641 26.9015C13.0361 26.6116 13.0961 26.3613 13.1441 26.1505C13.1921 25.9396 13.2521 25.6893 13.3241 25.3994C13.3961 25.1095 13.4561 24.8723 13.5041 24.6879C14.0801 22.2898 14.5481 20.3133 14.9081 18.7585C15.0041 18.4159 15.1241 17.9152 15.2681 17.2563C15.5801 15.886 15.8201 14.8319 15.9881 14.094C16.1561 13.3561 16.3961 12.4206 16.7081 11.2874C17.0201 10.1279 17.3321 9.10011 17.6441 8.20411C17.6921 8.01964 17.7641 7.78247 17.8601 7.49258C17.9561 7.2027 18.0401 6.93917 18.1121 6.702C18.1841 6.43847 18.2681 6.20129 18.3641 5.99047C18.5561 5.43705 18.7841 4.91 19.0481 4.40929C19.3121 3.88223 19.6001 3.38153 19.9121 2.90717C20.2241 2.40647 20.5721 1.94529 20.9561 1.52364C21.3161 1.102 21.6161 0.812115 21.8561 0.653998C21.8561 0.653998 22.1681 0.49588 22.7921 0.179644C23.3201 0.126939 23.5841 0.100586 23.5841 0.100586C23.7041 0.100586 23.8121 0.113762 23.9081 0.140115C24.0281 0.166467 24.1361 0.19282 24.2321 0.219173C24.3281 0.245525 24.4241 0.285055 24.5201 0.337762C24.6161 0.390467 24.7121 0.456349 24.8081 0.535409C24.9041 0.588114 25.0001 0.653996 25.0961 0.733055C25.1921 0.785761 25.2761 0.851643 25.3481 0.930702C25.4441 1.00976 25.5281 1.08882 25.6001 1.16788C25.6961 1.24694 25.7801 1.33917 25.8521 1.44459C25.9241 1.52364 25.9841 1.61588 26.0321 1.72129C26.1041 1.80035 26.1641 1.89258 26.2121 1.998C26.2361 2.0507 26.2601 2.11658 26.2841 2.19564C26.3321 2.2747 26.3681 2.35376 26.3921 2.43282C26.4161 2.48553 26.4401 2.56459 26.4641 2.67C26.4881 2.74906 26.5121 2.81494 26.5361 2.86764C26.5361 2.92035 26.5361 2.98623 26.5361 3.06529C26.5601 3.14435 26.5841 3.21023 26.6081 3.26294C26.6321 3.31564 26.6441 3.38153 26.6441 3.46058C26.6681 3.51329 26.6801 3.57917 26.6801 3.65823C26.6801 3.71094 26.6921 3.77682 26.7161 3.85588C26.7641 4.56741 26.6561 5.806 26.3921 7.57164C26.3921 7.62435 26.3801 7.71658 26.3561 7.84835C26.3561 7.95376 26.3441 8.05917 26.3201 8.16459C26.3201 8.24364 26.3081 8.33588 26.2841 8.44129C26.2601 8.5467 26.2361 8.65211 26.2121 8.75753C26.2121 8.83659 26.2001 8.92882 26.1761 9.03423C26.1761 9.08694 26.1641 9.15282 26.1401 9.23188C26.1401 9.28458 26.1281 9.33729 26.1041 9.38999C26.1041 9.4427 26.0921 9.50858 26.0681 9.58764C26.0681 9.64035 26.0561 9.70623 26.0321 9.78529C26.0321 9.838 26.0201 9.90388 25.9961 9.98294C25.9721 10.0356 25.9481 10.0883 25.9241 10.1411C25.9241 10.1938 25.9121 10.2596 25.8881 10.3387C25.8881 10.3914 25.8881 10.4573 25.8881 10.5363C25.8401 10.6154 25.7681 10.7999 25.6721 11.0898C25.6001 11.3533 25.5401 11.5509 25.4921 11.6827C25.4681 11.7881 25.4201 11.9594 25.3481 12.1966C25.2761 12.4074 25.2041 12.6051 25.1321 12.7895C25.0601 12.974 24.9881 13.1453 24.9161 13.3034C24.2681 14.9636 23.3441 16.7293 22.1441 18.6003C22.0241 18.7321 21.8801 18.798 21.7121 18.798C21.5681 18.7716 21.4241 18.6926 21.2801 18.5608C20.9201 18.2182 20.8361 17.9152 21.0281 17.6516ZM3.5321 47.9312C4.6361 46.8771 5.4281 45.9942 5.9081 45.2827C6.0041 45.1246 6.2921 44.6107 6.7721 43.7411C7.3481 42.7133 7.7081 42.0413 7.8521 41.7251C7.8041 41.7251 7.7561 41.7251 7.7081 41.7251C7.6841 41.7514 7.6481 41.7646 7.6001 41.7646C7.5281 41.7909 7.4321 41.8305 7.3121 41.8832C5.2241 42.5684 3.7481 43.2799 2.8841 44.0178C2.6441 44.2286 2.4761 44.3999 2.3801 44.5316C2.3321 44.6107 2.2841 44.6766 2.2361 44.7293C2.1881 44.8083 2.1401 44.9006 2.0921 45.006C2.0441 45.1114 2.0081 45.1905 1.9841 45.2432C1.8641 45.5858 1.7801 45.8361 1.7321 45.9942C1.6601 46.1524 1.6121 46.35 1.5881 46.5872C1.5401 46.8244 1.5401 47.0484 1.5881 47.2592C1.6361 47.4963 1.7201 47.7467 1.8401 48.0102C2.0081 48.1947 2.1881 48.3396 2.3801 48.4451C2.4041 48.4451 2.4401 48.4582 2.4881 48.4846C2.5121 48.5109 2.5481 48.5241 2.5961 48.5241L2.6321 48.6032C2.7521 48.5768 3.0521 48.3528 3.5321 47.9312Z"/>
<path d="M26.6506 31.4869C27.3466 31.6714 27.9706 31.7636 28.5226 31.7636C29.0986 31.7636 29.7706 31.6846 30.5386 31.5265C31.3306 31.342 32.0146 31.1575 32.5906 30.9731C33.1906 30.7886 33.8626 30.5909 34.6066 30.3801C35.3506 30.1429 35.9746 29.9848 36.4786 29.9058C37.4626 29.7213 37.9786 29.8794 38.0266 30.3801C38.0746 30.6963 37.9306 30.9203 37.5946 31.0521C37.4266 31.1048 37.2586 31.0785 37.0906 30.9731C36.2986 31.0521 35.1106 31.2366 33.5266 31.5265C31.9666 31.79 30.9826 31.9613 30.5746 32.0403C30.4066 32.0667 30.0466 32.1326 29.4946 32.238C28.9666 32.3434 28.4986 32.4356 28.0906 32.5147C27.7066 32.5674 27.2866 32.5806 26.8306 32.5542C26.3746 32.5279 26.0266 32.4225 25.7866 32.238C25.3546 31.8954 25.3546 31.3288 25.7866 30.5382C25.6186 30.6436 25.4746 30.7359 25.3546 30.8149C25.2586 30.8676 25.1746 30.9203 25.1026 30.9731C25.0546 30.9994 25.0066 31.0389 24.9586 31.0916C24.9346 31.118 24.9106 31.1312 24.8866 31.1312C24.8866 31.1312 24.8746 31.1443 24.8506 31.1707C24.8266 31.1707 24.8146 31.1707 24.8146 31.1707C24.8146 31.1707 24.7786 31.1839 24.7066 31.2102C24.6586 31.2366 24.6106 31.2629 24.5626 31.2893C24.5146 31.3156 24.4306 31.3683 24.3106 31.4474C24.1906 31.5001 24.0586 31.566 23.9146 31.6451C23.1466 31.9086 22.4266 32.0931 21.7546 32.1985C21.7306 32.2248 21.6466 32.2512 21.5026 32.2775C21.3586 32.3039 21.2506 32.3171 21.1786 32.3171C20.8666 32.2643 20.5906 32.1589 20.3506 32.0008C20.3506 32.0008 20.3146 31.8822 20.2426 31.6451C20.2426 31.5924 20.2426 31.5265 20.2426 31.4474C20.2186 31.3683 20.2066 31.3156 20.2066 31.2893C20.2066 31.2366 20.2066 31.1707 20.2066 31.0916C20.2546 30.8808 20.3506 30.6832 20.4946 30.4987C20.6386 30.3142 20.7466 30.1825 20.8186 30.1034C20.9146 30.0243 21.1066 29.9058 21.3946 29.7476C21.6826 29.5632 21.8386 29.4578 21.8626 29.4314C21.9346 29.3787 22.0546 29.2865 22.2226 29.1547C22.3906 28.9966 22.5466 28.8648 22.6906 28.7594C22.8346 28.654 22.9666 28.5749 23.0866 28.5222C23.3986 28.3905 23.8546 28.2982 24.4546 28.2455C25.0786 28.1928 25.4986 28.1401 25.7146 28.0874C25.9546 28.0874 26.0746 28.2719 26.0746 28.6408C26.0746 29.0098 25.9546 29.1942 25.7146 29.1942C25.6186 29.1942 25.3906 29.2206 25.0306 29.2733C24.6706 29.2996 24.3706 29.3392 24.1306 29.3919C23.8906 29.4446 23.6626 29.5368 23.4466 29.6686C23.3746 29.7213 23.2786 29.8135 23.1586 29.9453C23.0626 30.0507 22.9906 30.1166 22.9426 30.1429C22.8946 30.1693 22.8466 30.2088 22.7986 30.2615C22.7506 30.2879 22.6906 30.3274 22.6186 30.3801C22.5706 30.4065 22.5346 30.4328 22.5106 30.4592C22.4626 30.5119 22.3306 30.5909 22.1146 30.6964C21.9226 30.8018 21.7786 30.894 21.6826 30.9731C22.2586 30.9203 22.8946 30.7886 23.5906 30.5778C23.7346 30.4987 23.8786 30.4328 24.0226 30.3801C24.1906 30.3011 24.2866 30.2615 24.3106 30.2615C24.3346 30.2352 24.3826 30.2088 24.4546 30.1825C24.5266 30.1298 24.5746 30.0902 24.5986 30.0639C24.6226 30.0375 24.6946 29.9848 24.8146 29.9058C24.9586 29.8267 25.1026 29.7345 25.2466 29.6291C25.2946 29.6027 25.4146 29.5368 25.6066 29.4314C25.7986 29.2996 25.9426 29.1942 26.0386 29.1152C26.2066 29.0098 26.4346 28.8253 26.7226 28.5618C27.0106 28.2982 27.2386 28.1138 27.4066 28.0083C27.6226 27.8502 27.8266 27.7975 28.0186 27.8502C28.2106 27.8766 28.3666 28.0083 28.4866 28.2455C28.6066 28.4563 28.6186 28.6803 28.5226 28.9175C28.4746 29.0493 28.4146 29.1679 28.3426 29.2733C28.2946 29.3524 28.2586 29.4182 28.2346 29.4709C28.2106 29.4973 28.1266 29.5632 27.9826 29.6686C27.8626 29.774 27.7786 29.8531 27.7306 29.9058C27.4666 30.1166 27.1066 30.6436 26.6506 31.4869Z"/>
<path d="M45.165 30.4196C45.573 30.3933 46.017 30.3406 46.497 30.2615C46.977 30.1825 47.505 30.0902 48.081 29.9848C48.657 29.8794 49.113 29.8003 49.449 29.7476C49.665 29.6949 49.821 29.7608 49.917 29.9453C50.013 30.1034 50.013 30.2747 49.917 30.4592C49.845 30.6436 49.701 30.7491 49.485 30.7754C47.997 30.9335 46.569 31.0389 45.201 31.0916C43.041 31.118 41.553 30.8018 40.737 30.1429C40.689 30.0902 40.629 30.0375 40.557 29.9848C40.509 30.0375 40.425 30.1429 40.305 30.3011C40.161 30.4065 39.933 30.5646 39.621 30.7754C39.333 30.9599 39.153 31.0785 39.081 31.1312C39.057 31.1575 38.937 31.2761 38.721 31.4869C38.505 31.6978 38.229 31.8691 37.893 32.0008C36.981 32.0272 36.669 31.3683 36.957 30.0243C37.053 29.4709 37.101 29.1942 37.101 29.1942C37.125 29.1679 37.185 29.0229 37.281 28.7594C37.401 28.4959 37.509 28.2323 37.605 27.9688C37.725 27.7053 37.785 27.5735 37.785 27.5735C37.833 27.4681 37.893 27.2968 37.965 27.0596C38.061 26.8225 38.133 26.638 38.181 26.5062C38.253 26.3481 38.397 26.0055 38.613 25.4785C38.853 24.9514 39.021 24.5429 39.117 24.2531C39.789 22.5401 40.737 20.4187 41.961 17.8888C42.273 17.4408 42.429 17.2168 42.429 17.2168C42.765 16.8742 43.125 16.6898 43.509 16.6634C43.725 16.6371 43.905 16.6371 44.049 16.6634C44.217 16.6634 44.349 16.7161 44.445 16.8215C44.565 16.9269 44.673 17.0982 44.769 17.3354C44.793 17.3881 44.817 17.454 44.841 17.5331C44.865 17.5858 44.889 17.6516 44.913 17.7307C44.937 17.7834 44.949 17.8361 44.949 17.8888C44.997 18.0996 45.021 18.3105 45.021 18.5213C45.045 18.7058 45.033 18.9298 44.985 19.1933C44.961 19.4305 44.925 19.6149 44.877 19.7467C44.853 19.8785 44.793 20.1025 44.697 20.4187C44.625 20.7349 44.589 20.9194 44.589 20.9721C44.325 21.6046 44.193 21.9208 44.193 21.9208C44.073 22.158 43.665 22.7905 42.969 23.8182C42.897 23.9236 42.777 24.1081 42.609 24.3716C42.441 24.6088 42.309 24.7933 42.213 24.9251C42.093 25.1095 41.853 25.4389 41.493 25.9133C41.133 26.3613 40.857 26.7171 40.665 26.9806C39.201 28.7989 38.301 29.9585 37.965 30.4592C38.037 30.3801 38.193 30.2615 38.433 30.1034C39.105 29.6554 39.477 29.3919 39.549 29.3128C40.005 28.654 40.485 28.43 40.989 28.6408L41.349 28.9175C41.349 28.9439 41.373 28.9834 41.421 29.0361C41.469 29.0625 41.505 29.102 41.529 29.1547C41.553 29.1811 41.577 29.2074 41.601 29.2338C42.081 30.1561 43.269 30.5514 45.165 30.4196ZM38.793 27.7712C38.937 27.5867 39.141 27.3232 39.405 26.9806C39.693 26.638 39.885 26.414 39.981 26.3086C40.149 26.0187 40.413 25.6498 40.773 25.2018C41.157 24.7538 41.409 24.4507 41.529 24.2926C41.601 24.1872 41.673 24.0818 41.745 23.9763C41.817 23.8446 41.889 23.7128 41.961 23.5811C42.057 23.4229 42.129 23.3043 42.177 23.2253C42.849 22.2239 43.245 21.5914 43.365 21.3279C43.389 21.2488 43.413 21.1698 43.437 21.0907C43.485 21.0116 43.521 20.9194 43.545 20.814C43.569 20.6822 43.593 20.59 43.617 20.5373C43.833 19.6676 43.917 18.9825 43.869 18.4818C43.869 18.3763 43.857 18.2709 43.833 18.1655C43.833 18.0865 43.809 18.0206 43.761 17.9679C43.737 17.9152 43.725 17.8756 43.725 17.8493C43.701 17.8493 43.689 17.8229 43.689 17.7702C43.641 17.6912 43.605 17.6385 43.581 17.6121L43.617 17.6912C43.665 17.8229 43.677 17.902 43.653 17.9284C43.629 17.9284 43.593 17.9415 43.545 17.9679C43.521 17.9679 43.485 17.9679 43.437 17.9679C43.389 17.9679 43.353 17.9811 43.329 18.0074C43.209 18.0601 43.041 18.2709 42.825 18.6399C41.865 20.3528 40.917 22.3556 39.981 24.6483C39.909 24.8855 39.813 25.1359 39.693 25.3994C39.597 25.6629 39.477 25.9396 39.333 26.2295C39.213 26.5194 39.117 26.7566 39.045 26.9411C39.045 26.9674 38.961 27.2441 38.793 27.7712Z"/>
<path d="M51.8269 28.8385C51.8029 28.7858 51.7549 28.7331 51.6829 28.6803C51.6349 28.6013 51.5989 28.5354 51.5749 28.4827C51.5029 28.5618 51.3829 28.6672 51.2149 28.7989C51.0469 28.9307 50.9269 29.0361 50.8549 29.1152C50.7109 29.2733 50.5309 29.5632 50.3149 29.9848C50.0989 30.4065 49.8829 30.6832 49.6669 30.8149C49.4269 30.9731 49.2109 30.9994 49.0189 30.894C48.8269 30.7622 48.7069 30.6041 48.6589 30.4196C48.6349 30.2088 48.6709 30.0243 48.7669 29.8662C49.1029 29.5236 49.4389 29.1547 49.7749 28.7594C49.8709 28.654 49.9789 28.5354 50.0989 28.4036C50.1469 28.3246 50.2309 28.2192 50.3509 28.0874C50.4949 27.9556 50.6149 27.8371 50.7109 27.7316C50.8069 27.6262 50.8789 27.5208 50.9269 27.4154C50.9509 27.3627 50.9749 27.31 50.9989 27.2573C51.0229 27.1782 51.0469 27.0992 51.0709 27.0201C51.0949 26.9411 51.1189 26.8883 51.1429 26.862C51.1429 26.7829 51.1549 26.7171 51.1789 26.6643C51.1549 26.4272 51.1909 26.2295 51.2869 26.0714C51.3109 26.0451 51.3349 26.0055 51.3589 25.9528C51.3829 25.9001 51.4069 25.8738 51.4309 25.8738C51.3829 25.7683 51.3709 25.6893 51.3949 25.6366C51.8509 24.8724 52.2109 24.7669 52.4749 25.3203C52.6909 25.8738 52.6789 26.3745 52.4389 26.8225C52.4629 26.9806 52.4749 27.2309 52.4749 27.5735C52.4749 27.5999 52.4749 27.6131 52.4749 27.6131C52.6429 28.0611 52.8589 28.4432 53.1229 28.7594C53.3869 29.0756 53.6509 29.3524 53.9149 29.5895C54.1789 29.8004 54.5149 29.9585 54.9229 30.0639C55.3309 30.1693 55.6669 30.2615 55.9309 30.3406C56.1949 30.3933 56.5789 30.4065 57.0829 30.3801C57.5869 30.3538 57.9469 30.3406 58.1629 30.3406C58.3789 30.3142 58.7389 30.2484 59.2429 30.1429C59.7709 30.0375 60.0829 29.9716 60.1789 29.9453C60.2989 29.9189 60.5989 29.8531 61.0789 29.7476C61.2469 29.6949 61.4629 29.6686 61.7269 29.6686C61.9669 29.6686 62.2429 29.7081 62.5549 29.7872C62.8429 29.7608 63.0229 29.9716 63.0949 30.4196C63.1669 30.8676 63.0589 31.1048 62.7709 31.1312C62.6989 31.1312 62.6269 31.118 62.5549 31.0916C62.5309 31.0916 62.3989 31.0916 62.1589 31.0916C62.0869 31.118 61.9909 31.1312 61.8709 31.1312C61.7749 31.1312 61.6909 31.1312 61.6189 31.1312C61.4749 31.1575 61.3669 31.0785 61.2949 30.894C61.1989 30.894 61.1509 30.894 61.1509 30.894C60.7909 30.9203 60.2509 30.9599 59.5309 31.0126C58.8109 31.0653 58.2349 31.1048 57.8029 31.1312C57.3709 31.1575 56.8309 31.1444 56.1829 31.0916C55.5589 31.0389 55.0189 30.9467 54.5629 30.8149C54.1069 30.6568 53.6269 30.4196 53.1229 30.1034C52.6429 29.7608 52.2109 29.3392 51.8269 28.8385ZM52.7269 20.6164C53.7589 20.4319 54.3589 20.3265 54.5269 20.3001C54.6469 20.2738 54.7429 20.3265 54.8149 20.4582C54.8869 20.59 54.9109 20.7349 54.8869 20.8931C54.8629 21.0248 54.8029 21.1039 54.7069 21.1302H54.6349L54.5989 21.1698H54.4909L54.4549 21.2093H54.3469L54.3109 21.2488H54.2029L54.1669 21.2883H54.0589L54.0229 21.3279H53.9149L53.8789 21.3674H53.7709L53.7349 21.4069H53.6269L53.5909 21.4465H53.4829L53.4469 21.486H53.3029L53.2669 21.5255H53.1589L53.1229 21.5651H53.0149L52.9789 21.6046H52.9069C52.7869 21.6309 52.6789 21.5651 52.5829 21.4069C52.5109 21.2488 52.4869 21.0907 52.5109 20.9326C52.5349 20.7481 52.6069 20.6427 52.7269 20.6164Z"/>
<path d="M62.6345 28.878C63.4745 28.5354 63.9665 28.2851 64.1105 28.1269C63.9665 27.8634 63.5345 27.7712 62.8145 27.8502C62.5025 27.8766 62.2865 27.9556 62.1665 28.0874C62.0705 28.2192 62.0585 28.4036 62.1305 28.6408C62.2025 28.8516 62.3105 28.9966 62.4545 29.0756C62.4785 28.9966 62.5385 28.9307 62.6345 28.878ZM75.3065 30.6964C74.3945 30.6964 73.2185 30.8018 71.7785 31.0126C70.3385 31.2234 69.0905 31.4211 68.0345 31.6055C67.0025 31.7636 65.8985 31.7636 64.7225 31.6055C63.5705 31.4474 62.6225 31.0389 61.8785 30.3801C61.1345 29.774 60.7865 29.0625 60.8345 28.2455C60.8345 27.6921 61.0985 27.2573 61.6265 26.9411C62.1305 26.6248 62.7185 26.4799 63.3905 26.5062C64.0625 26.5326 64.6025 26.7434 65.0105 27.1387C65.3465 27.4549 65.4905 27.7316 65.4425 27.9688C65.3945 28.2323 65.2625 28.4827 65.0465 28.7199C64.8305 28.9571 64.5785 29.1547 64.2905 29.3128C64.0025 29.4709 63.6905 29.6027 63.3545 29.7081C63.5225 30.2352 63.9545 30.6041 64.6505 30.8149C65.3465 30.9994 66.1865 31.0521 67.1705 30.9731C68.1785 30.8676 69.1625 30.7359 70.1225 30.5778C71.1065 30.3933 72.1025 30.1956 73.1105 29.9848C74.1425 29.774 74.8625 29.6554 75.2705 29.6291C75.8705 29.3392 76.2425 29.4051 76.3865 29.8267C76.5065 30.1693 76.3745 30.4328 75.9905 30.6173C75.7985 30.6963 75.5705 30.7227 75.3065 30.6964Z"/>
<path d="M83.4032 32.1589C82.8992 31.79 82.4912 31.0785 82.1792 30.0243C81.9632 30.1825 81.6872 30.4196 81.3512 30.7359C81.2792 30.7886 81.1352 30.9072 80.9192 31.0916C80.7272 31.2498 80.5472 31.4079 80.3792 31.566C80.2112 31.6978 79.9952 31.8691 79.7312 32.0799C79.4672 32.2644 79.2152 32.4356 78.9752 32.5938C78.7352 32.7519 78.4712 32.91 78.1832 33.0681C77.8952 33.1999 77.6072 33.3053 77.3192 33.3843C77.2472 33.3843 77.1392 33.3975 76.9952 33.4239C76.8752 33.4502 76.7672 33.4766 76.6712 33.5029C76.5752 33.5029 76.4672 33.5029 76.3472 33.5029C76.2272 33.5029 76.1072 33.5029 75.9872 33.5029C75.8912 33.4766 75.8072 33.4502 75.7352 33.4239C75.1352 33.1603 74.9552 32.5411 75.1952 31.566C75.2432 31.3552 75.3152 31.1575 75.4112 30.9731C75.5552 30.6568 75.7592 30.3274 76.0232 29.9848C76.3112 29.6422 76.5152 29.3787 76.6352 29.1942C76.8512 28.8516 77.1512 28.878 77.5352 29.2733C77.8472 29.6422 77.8592 29.9453 77.5712 30.1825C77.0672 30.5251 76.6832 30.9994 76.4192 31.6055C76.2032 32.1062 76.3232 32.3434 76.7792 32.3171C77.0192 32.2907 77.3432 32.1853 77.7512 32.0008C77.8952 31.9481 78.0392 31.8822 78.1832 31.8032C78.3512 31.7241 78.5072 31.6319 78.6512 31.5265C78.8192 31.3947 78.9512 31.2893 79.0472 31.2102C79.1672 31.1312 79.3232 31.0126 79.5152 30.8545C79.7072 30.6963 79.8392 30.5909 79.9112 30.5382C79.9832 30.4592 80.1152 30.3274 80.3072 30.1429C80.5232 29.9321 80.6552 29.8135 80.7032 29.7872C80.9432 29.55 81.2312 29.2865 81.5672 28.9966C81.7352 28.8385 81.8552 28.7462 81.9272 28.7199C81.9992 28.6672 82.1192 28.6145 82.2872 28.5618C82.4792 28.4827 82.6472 28.4827 82.7912 28.5618C82.8152 28.5881 82.8392 28.6145 82.8632 28.6408C82.8872 28.6672 82.9112 28.6935 82.9352 28.7199C82.9832 28.7462 83.0072 28.7726 83.0072 28.7989C83.0312 28.7989 83.0552 28.8121 83.0792 28.8385C83.1032 28.8912 83.1272 28.9307 83.1512 28.9571C83.2232 29.1942 83.2952 29.4973 83.3672 29.8662C83.4392 30.2088 83.4992 30.4592 83.5472 30.6173C83.5952 30.7491 83.7152 30.9203 83.9072 31.1312C84.1232 31.342 84.4112 31.5396 84.7712 31.7241C85.3952 32.0403 86.1752 32.2248 87.1112 32.2775C88.0712 32.3039 89.0672 32.238 90.0992 32.0799C91.1552 31.8954 92.1632 31.6978 93.1232 31.4869C94.0832 31.2498 95.0312 31.0126 95.9672 30.7754C96.9272 30.5119 97.6112 30.3538 98.0192 30.3011C98.0672 30.0902 98.1752 29.9716 98.3432 29.9453C98.5112 29.9453 98.7512 29.9321 99.0632 29.9058C99.3752 29.8531 99.6512 29.8135 99.8912 29.7872C100.155 29.7608 100.407 29.7608 100.647 29.7872C100.671 29.8135 100.719 29.8531 100.791 29.9058C100.863 29.9321 100.911 29.9716 100.935 30.0243C100.983 30.0507 101.019 30.0902 101.043 30.1429C101.163 30.5382 101.175 30.8149 101.079 30.9731C100.983 31.1048 100.767 31.2498 100.431 31.4079C100.383 31.4342 100.239 31.4079 99.9992 31.3288C99.7592 31.2498 99.6152 31.2366 99.5672 31.2893C98.9192 31.2893 98.4272 31.3025 98.0912 31.3288C97.6352 31.3815 96.8672 31.5265 95.7872 31.7636C94.7072 31.9745 93.6152 32.1853 92.5112 32.3961C91.4072 32.5806 90.2552 32.7519 89.0552 32.91C87.8792 33.0681 86.7872 33.0945 85.7792 32.9891C84.7712 32.8573 83.9792 32.5806 83.4032 32.1589Z"/>
</mask>
<path d="M21.0281 17.6516C22.1801 16.2022 23.1041 14.5552 23.8001 12.7105C23.8241 12.6314 23.8481 12.5392 23.8721 12.4338C23.9201 12.3283 23.9561 12.2229 23.9801 12.1175C24.0281 12.0121 24.0761 11.8935 24.1241 11.7618C24.1721 11.63 24.2081 11.5114 24.2321 11.406C24.2561 11.3006 24.2921 11.182 24.3401 11.0502C24.3881 10.9185 24.4241 10.8131 24.4481 10.734C24.4721 10.6286 24.5081 10.51 24.5561 10.3782C24.6041 10.2465 24.6401 10.1411 24.6641 10.062C24.8561 9.166 24.9521 8.718 24.9521 8.718C24.9761 8.50717 25.0361 8.046 25.1321 7.33447C25.2521 6.51753 25.3241 5.93776 25.3481 5.59517C25.3721 5.25258 25.3601 4.686 25.3121 3.89541C25.3121 3.8427 25.3001 3.79 25.2761 3.73729C25.2761 3.65823 25.2641 3.60553 25.2401 3.57917C25.2401 3.52647 25.2281 3.47376 25.2041 3.42106C25.1801 3.342 25.1561 3.27611 25.1321 3.22341C24.9881 2.85447 24.9161 2.67 24.9161 2.67C24.6041 2.16929 24.1961 1.83988 23.6921 1.68176C23.6201 1.65541 23.3801 1.68176 22.9721 1.76082C22.6601 1.94529 22.5041 2.03753 22.5041 2.03753C22.4081 2.11659 22.3001 2.20882 22.1801 2.31423C22.0841 2.39329 21.9761 2.4987 21.8561 2.63047C21.4961 3.02576 21.1721 3.43423 20.8841 3.85588C20.5961 4.25117 20.3201 4.67282 20.0561 5.12082C19.8161 5.56882 19.6001 6.04317 19.4081 6.54388C19.4081 6.54388 19.1681 7.22906 18.6881 8.59941C18.1361 10.2069 17.8601 11.0107 17.8601 11.0107C17.5961 11.8276 17.1761 13.4352 16.6001 15.8333C16.5521 15.9914 16.5281 16.11 16.5281 16.1891C16.4321 16.5843 16.1201 17.8625 15.5921 20.0234C15.0641 22.158 14.6561 23.7919 14.3681 24.9251C13.1921 29.8267 12.1601 33.5556 11.2721 36.1119C11.2001 36.2963 10.6841 37.614 9.7241 40.0648C12.2921 39.6695 14.5961 39.4192 16.6361 39.3138C17.9561 39.2347 20.0801 39.2347 23.0081 39.3138C24.4241 39.3665 26.0321 39.406 27.8321 39.4323C29.6321 39.4851 31.4441 39.5246 33.2681 39.5509C35.1161 39.5773 36.7361 39.6168 38.1281 39.6695C39.5681 39.7486 42.1601 39.9331 45.9041 40.2229C48.4481 40.3811 50.9201 40.4865 53.3201 40.5392C55.7201 40.6182 58.0841 40.6314 60.4121 40.5787C60.5561 40.5787 60.7121 40.5787 60.8801 40.5787C61.0481 40.5787 61.2041 40.5787 61.3481 40.5787C61.4921 40.5787 61.6481 40.5787 61.8161 40.5787C61.9841 40.5787 62.1401 40.5787 62.2841 40.5787C62.4521 40.5787 62.6201 40.5655 62.7881 40.5392C62.9561 40.5392 63.1121 40.5392 63.2561 40.5392C63.4241 40.5392 63.5801 40.5392 63.7241 40.5392C63.9641 40.5128 64.2161 40.4865 64.4801 40.4601C64.7681 40.4601 65.0201 40.4469 65.2361 40.4206C65.4521 40.4206 65.7041 40.4074 65.9921 40.3811C66.3041 40.3547 66.5561 40.3283 66.7481 40.302C66.9161 40.302 67.1801 40.2756 67.5401 40.2229C72.2201 39.6959 75.6881 39.0898 77.9441 38.4046C78.0881 38.3782 78.2321 38.3387 78.3761 38.286C78.5201 38.2333 78.6881 38.1674 78.8801 38.0883C79.0721 38.0356 79.2161 37.9829 79.3121 37.9302C79.4081 37.9039 79.5041 37.8643 79.6001 37.8116C79.6961 37.7853 79.8041 37.7458 79.9241 37.6931C80.0441 37.6667 80.1281 37.6404 80.1761 37.614C80.2481 37.5876 80.3681 37.5481 80.5361 37.4954C80.7041 37.4427 80.8001 37.4164 80.8241 37.4164C80.7281 37.39 80.4401 37.3768 79.9601 37.3768C79.6481 37.3505 79.4921 37.0869 79.4921 36.5862C79.4921 36.3754 79.5401 36.1909 79.6361 36.0328C79.7321 35.8747 79.8641 35.7956 80.0321 35.7956C80.8721 35.822 81.6281 35.9669 82.3001 36.2305C82.3001 36.2305 82.3721 36.2436 82.5161 36.27C82.6841 36.3227 82.8041 36.3754 82.8761 36.4281C82.8761 36.4281 83.0801 36.6258 83.4881 37.0211C83.4881 37.0474 83.4881 37.0738 83.4881 37.1001C83.4881 37.1528 83.4761 37.2319 83.4521 37.3373C83.4521 37.4691 83.4401 37.5745 83.4161 37.6535C83.4161 37.7326 83.4041 37.8116 83.3801 37.8907C83.3561 37.9961 83.3201 38.1015 83.2721 38.2069C83.2481 38.2596 83.1881 38.2992 83.0921 38.3255C83.0201 38.3782 82.9481 38.4046 82.8761 38.4046C82.8281 38.4309 82.7561 38.4441 82.6601 38.4441C82.5881 38.4441 82.5401 38.4441 82.5161 38.4441C82.1561 38.5232 81.6521 38.6549 81.0041 38.8394C80.3561 39.0502 79.9001 39.1952 79.6361 39.2742C78.6761 39.5378 78.1961 39.6695 78.1961 39.6695C75.8921 40.2229 72.0881 40.75 66.7841 41.2507C64.7681 41.3298 63.7601 41.3693 63.7601 41.3693C61.8881 41.422 59.8961 41.4352 57.7841 41.4088C55.6721 41.3825 53.6801 41.3298 51.8081 41.2507C49.9361 41.1716 47.9561 41.0662 45.8681 40.9345C45.5561 40.9081 45.1601 40.8686 44.6801 40.8159C44.2241 40.7895 43.8521 40.7632 43.5641 40.7368C43.2761 40.7105 42.9281 40.6841 42.5201 40.6578C42.1121 40.6314 41.7521 40.6051 41.4401 40.5787C41.1281 40.5523 40.7801 40.526 40.3961 40.4996C40.0121 40.4733 39.6281 40.4469 39.2441 40.4206C38.8841 40.3942 38.5001 40.3811 38.0921 40.3811C36.6521 40.302 35.0441 40.2493 33.2681 40.2229C31.5161 40.2229 29.6921 40.2229 27.7961 40.2229C25.9241 40.2229 24.3281 40.1966 23.0081 40.1439C19.9121 40.1702 17.8121 40.2229 16.7081 40.302C14.6201 40.4601 12.1121 40.8422 9.1841 41.4483C8.8961 42.1072 8.7041 42.5288 8.6081 42.7133C8.5361 42.8978 8.2481 43.4643 7.7441 44.4131C7.2881 45.2827 7.0121 45.7966 6.9161 45.9547C6.3881 46.8243 5.5721 47.8521 4.4681 49.038C4.2281 49.3015 4.0481 49.486 3.9281 49.5914C3.8081 49.7232 3.6281 49.8549 3.3881 49.9867C3.1481 50.1185 2.8961 50.1843 2.6321 50.1843C2.1761 50.1843 1.5881 49.8813 0.868098 49.2752V49.2356C0.844098 49.2093 0.808097 49.1434 0.760097 49.038C0.688098 48.9589 0.628098 48.8799 0.580098 48.8008C0.532097 48.7218 0.484098 48.6559 0.436098 48.6032C0.340098 48.3396 0.268097 48.0761 0.220097 47.8126C0.148098 47.5491 0.112098 47.2723 0.112098 46.9825C0.0880976 46.7189 0.100098 46.4554 0.148098 46.1919C0.196097 45.9283 0.268097 45.6648 0.364098 45.4013C0.388098 45.2695 0.460098 45.0851 0.580098 44.8479C0.628098 44.7425 0.664098 44.6634 0.688098 44.6107V44.5712C1.0241 44.0178 1.1921 43.7411 1.1921 43.7411C1.5281 43.2667 1.9241 42.8582 2.3801 42.5156C2.8121 42.1731 3.3761 41.8568 4.0721 41.5669C4.7681 41.3034 5.2601 41.1189 5.5481 41.0135C5.8361 40.9345 6.4121 40.7632 7.2761 40.4996C7.6841 40.4206 8.0801 40.3547 8.4641 40.302C8.5121 40.2229 8.5481 40.1439 8.5721 40.0648C8.5961 40.0121 8.6681 39.8276 8.7881 39.5114C8.9081 39.2215 9.0161 38.958 9.1121 38.7208C9.2081 38.51 9.3161 38.2333 9.4361 37.8907C9.5801 37.5481 9.7001 37.2582 9.7961 37.0211C9.9161 36.7839 10.0241 36.5335 10.1201 36.27C10.2161 36.0328 10.2881 35.8484 10.3361 35.7166C11.0081 33.8982 11.5721 32.1721 12.0281 30.5382C12.0521 30.4328 12.3041 29.4709 12.7841 27.6526C12.8321 27.4154 12.8921 27.1651 12.9641 26.9015C13.0361 26.6116 13.0961 26.3613 13.1441 26.1505C13.1921 25.9396 13.2521 25.6893 13.3241 25.3994C13.3961 25.1095 13.4561 24.8723 13.5041 24.6879C14.0801 22.2898 14.5481 20.3133 14.9081 18.7585C15.0041 18.4159 15.1241 17.9152 15.2681 17.2563C15.5801 15.886 15.8201 14.8319 15.9881 14.094C16.1561 13.3561 16.3961 12.4206 16.7081 11.2874C17.0201 10.1279 17.3321 9.10011 17.6441 8.20411C17.6921 8.01964 17.7641 7.78247 17.8601 7.49258C17.9561 7.2027 18.0401 6.93917 18.1121 6.702C18.1841 6.43847 18.2681 6.20129 18.3641 5.99047C18.5561 5.43705 18.7841 4.91 19.0481 4.40929C19.3121 3.88223 19.6001 3.38153 19.9121 2.90717C20.2241 2.40647 20.5721 1.94529 20.9561 1.52364C21.3161 1.102 21.6161 0.812115 21.8561 0.653998C21.8561 0.653998 22.1681 0.49588 22.7921 0.179644C23.3201 0.126939 23.5841 0.100586 23.5841 0.100586C23.7041 0.100586 23.8121 0.113762 23.9081 0.140115C24.0281 0.166467 24.1361 0.19282 24.2321 0.219173C24.3281 0.245525 24.4241 0.285055 24.5201 0.337762C24.6161 0.390467 24.7121 0.456349 24.8081 0.535409C24.9041 0.588114 25.0001 0.653996 25.0961 0.733055C25.1921 0.785761 25.2761 0.851643 25.3481 0.930702C25.4441 1.00976 25.5281 1.08882 25.6001 1.16788C25.6961 1.24694 25.7801 1.33917 25.8521 1.44459C25.9241 1.52364 25.9841 1.61588 26.0321 1.72129C26.1041 1.80035 26.1641 1.89258 26.2121 1.998C26.2361 2.0507 26.2601 2.11658 26.2841 2.19564C26.3321 2.2747 26.3681 2.35376 26.3921 2.43282C26.4161 2.48553 26.4401 2.56459 26.4641 2.67C26.4881 2.74906 26.5121 2.81494 26.5361 2.86764C26.5361 2.92035 26.5361 2.98623 26.5361 3.06529C26.5601 3.14435 26.5841 3.21023 26.6081 3.26294C26.6321 3.31564 26.6441 3.38153 26.6441 3.46058C26.6681 3.51329 26.6801 3.57917 26.6801 3.65823C26.6801 3.71094 26.6921 3.77682 26.7161 3.85588C26.7641 4.56741 26.6561 5.806 26.3921 7.57164C26.3921 7.62435 26.3801 7.71658 26.3561 7.84835C26.3561 7.95376 26.3441 8.05917 26.3201 8.16459C26.3201 8.24364 26.3081 8.33588 26.2841 8.44129C26.2601 8.5467 26.2361 8.65211 26.2121 8.75753C26.2121 8.83659 26.2001 8.92882 26.1761 9.03423C26.1761 9.08694 26.1641 9.15282 26.1401 9.23188C26.1401 9.28458 26.1281 9.33729 26.1041 9.38999C26.1041 9.4427 26.0921 9.50858 26.0681 9.58764C26.0681 9.64035 26.0561 9.70623 26.0321 9.78529C26.0321 9.838 26.0201 9.90388 25.9961 9.98294C25.9721 10.0356 25.9481 10.0883 25.9241 10.1411C25.9241 10.1938 25.9121 10.2596 25.8881 10.3387C25.8881 10.3914 25.8881 10.4573 25.8881 10.5363C25.8401 10.6154 25.7681 10.7999 25.6721 11.0898C25.6001 11.3533 25.5401 11.5509 25.4921 11.6827C25.4681 11.7881 25.4201 11.9594 25.3481 12.1966C25.2761 12.4074 25.2041 12.6051 25.1321 12.7895C25.0601 12.974 24.9881 13.1453 24.9161 13.3034C24.2681 14.9636 23.3441 16.7293 22.1441 18.6003C22.0241 18.7321 21.8801 18.798 21.7121 18.798C21.5681 18.7716 21.4241 18.6926 21.2801 18.5608C20.9201 18.2182 20.8361 17.9152 21.0281 17.6516ZM3.5321 47.9312C4.6361 46.8771 5.4281 45.9942 5.9081 45.2827C6.0041 45.1246 6.2921 44.6107 6.7721 43.7411C7.3481 42.7133 7.7081 42.0413 7.8521 41.7251C7.8041 41.7251 7.7561 41.7251 7.7081 41.7251C7.6841 41.7514 7.6481 41.7646 7.6001 41.7646C7.5281 41.7909 7.4321 41.8305 7.3121 41.8832C5.2241 42.5684 3.7481 43.2799 2.8841 44.0178C2.6441 44.2286 2.4761 44.3999 2.3801 44.5316C2.3321 44.6107 2.2841 44.6766 2.2361 44.7293C2.1881 44.8083 2.1401 44.9006 2.0921 45.006C2.0441 45.1114 2.0081 45.1905 1.9841 45.2432C1.8641 45.5858 1.7801 45.8361 1.7321 45.9942C1.6601 46.1524 1.6121 46.35 1.5881 46.5872C1.5401 46.8244 1.5401 47.0484 1.5881 47.2592C1.6361 47.4963 1.7201 47.7467 1.8401 48.0102C2.0081 48.1947 2.1881 48.3396 2.3801 48.4451C2.4041 48.4451 2.4401 48.4582 2.4881 48.4846C2.5121 48.5109 2.5481 48.5241 2.5961 48.5241L2.6321 48.6032C2.7521 48.5768 3.0521 48.3528 3.5321 47.9312Z" fill="black"/>
<path d="M26.6506 31.4869C27.3466 31.6714 27.9706 31.7636 28.5226 31.7636C29.0986 31.7636 29.7706 31.6846 30.5386 31.5265C31.3306 31.342 32.0146 31.1575 32.5906 30.9731C33.1906 30.7886 33.8626 30.5909 34.6066 30.3801C35.3506 30.1429 35.9746 29.9848 36.4786 29.9058C37.4626 29.7213 37.9786 29.8794 38.0266 30.3801C38.0746 30.6963 37.9306 30.9203 37.5946 31.0521C37.4266 31.1048 37.2586 31.0785 37.0906 30.9731C36.2986 31.0521 35.1106 31.2366 33.5266 31.5265C31.9666 31.79 30.9826 31.9613 30.5746 32.0403C30.4066 32.0667 30.0466 32.1326 29.4946 32.238C28.9666 32.3434 28.4986 32.4356 28.0906 32.5147C27.7066 32.5674 27.2866 32.5806 26.8306 32.5542C26.3746 32.5279 26.0266 32.4225 25.7866 32.238C25.3546 31.8954 25.3546 31.3288 25.7866 30.5382C25.6186 30.6436 25.4746 30.7359 25.3546 30.8149C25.2586 30.8676 25.1746 30.9203 25.1026 30.9731C25.0546 30.9994 25.0066 31.0389 24.9586 31.0916C24.9346 31.118 24.9106 31.1312 24.8866 31.1312C24.8866 31.1312 24.8746 31.1443 24.8506 31.1707C24.8266 31.1707 24.8146 31.1707 24.8146 31.1707C24.8146 31.1707 24.7786 31.1839 24.7066 31.2102C24.6586 31.2366 24.6106 31.2629 24.5626 31.2893C24.5146 31.3156 24.4306 31.3683 24.3106 31.4474C24.1906 31.5001 24.0586 31.566 23.9146 31.6451C23.1466 31.9086 22.4266 32.0931 21.7546 32.1985C21.7306 32.2248 21.6466 32.2512 21.5026 32.2775C21.3586 32.3039 21.2506 32.3171 21.1786 32.3171C20.8666 32.2643 20.5906 32.1589 20.3506 32.0008C20.3506 32.0008 20.3146 31.8822 20.2426 31.6451C20.2426 31.5924 20.2426 31.5265 20.2426 31.4474C20.2186 31.3683 20.2066 31.3156 20.2066 31.2893C20.2066 31.2366 20.2066 31.1707 20.2066 31.0916C20.2546 30.8808 20.3506 30.6832 20.4946 30.4987C20.6386 30.3142 20.7466 30.1825 20.8186 30.1034C20.9146 30.0243 21.1066 29.9058 21.3946 29.7476C21.6826 29.5632 21.8386 29.4578 21.8626 29.4314C21.9346 29.3787 22.0546 29.2865 22.2226 29.1547C22.3906 28.9966 22.5466 28.8648 22.6906 28.7594C22.8346 28.654 22.9666 28.5749 23.0866 28.5222C23.3986 28.3905 23.8546 28.2982 24.4546 28.2455C25.0786 28.1928 25.4986 28.1401 25.7146 28.0874C25.9546 28.0874 26.0746 28.2719 26.0746 28.6408C26.0746 29.0098 25.9546 29.1942 25.7146 29.1942C25.6186 29.1942 25.3906 29.2206 25.0306 29.2733C24.6706 29.2996 24.3706 29.3392 24.1306 29.3919C23.8906 29.4446 23.6626 29.5368 23.4466 29.6686C23.3746 29.7213 23.2786 29.8135 23.1586 29.9453C23.0626 30.0507 22.9906 30.1166 22.9426 30.1429C22.8946 30.1693 22.8466 30.2088 22.7986 30.2615C22.7506 30.2879 22.6906 30.3274 22.6186 30.3801C22.5706 30.4065 22.5346 30.4328 22.5106 30.4592C22.4626 30.5119 22.3306 30.5909 22.1146 30.6964C21.9226 30.8018 21.7786 30.894 21.6826 30.9731C22.2586 30.9203 22.8946 30.7886 23.5906 30.5778C23.7346 30.4987 23.8786 30.4328 24.0226 30.3801C24.1906 30.3011 24.2866 30.2615 24.3106 30.2615C24.3346 30.2352 24.3826 30.2088 24.4546 30.1825C24.5266 30.1298 24.5746 30.0902 24.5986 30.0639C24.6226 30.0375 24.6946 29.9848 24.8146 29.9058C24.9586 29.8267 25.1026 29.7345 25.2466 29.6291C25.2946 29.6027 25.4146 29.5368 25.6066 29.4314C25.7986 29.2996 25.9426 29.1942 26.0386 29.1152C26.2066 29.0098 26.4346 28.8253 26.7226 28.5618C27.0106 28.2982 27.2386 28.1138 27.4066 28.0083C27.6226 27.8502 27.8266 27.7975 28.0186 27.8502C28.2106 27.8766 28.3666 28.0083 28.4866 28.2455C28.6066 28.4563 28.6186 28.6803 28.5226 28.9175C28.4746 29.0493 28.4146 29.1679 28.3426 29.2733C28.2946 29.3524 28.2586 29.4182 28.2346 29.4709C28.2106 29.4973 28.1266 29.5632 27.9826 29.6686C27.8626 29.774 27.7786 29.8531 27.7306 29.9058C27.4666 30.1166 27.1066 30.6436 26.6506 31.4869Z" fill="black"/>
<path d="M45.165 30.4196C45.573 30.3933 46.017 30.3406 46.497 30.2615C46.977 30.1825 47.505 30.0902 48.081 29.9848C48.657 29.8794 49.113 29.8003 49.449 29.7476C49.665 29.6949 49.821 29.7608 49.917 29.9453C50.013 30.1034 50.013 30.2747 49.917 30.4592C49.845 30.6436 49.701 30.7491 49.485 30.7754C47.997 30.9335 46.569 31.0389 45.201 31.0916C43.041 31.118 41.553 30.8018 40.737 30.1429C40.689 30.0902 40.629 30.0375 40.557 29.9848C40.509 30.0375 40.425 30.1429 40.305 30.3011C40.161 30.4065 39.933 30.5646 39.621 30.7754C39.333 30.9599 39.153 31.0785 39.081 31.1312C39.057 31.1575 38.937 31.2761 38.721 31.4869C38.505 31.6978 38.229 31.8691 37.893 32.0008C36.981 32.0272 36.669 31.3683 36.957 30.0243C37.053 29.4709 37.101 29.1942 37.101 29.1942C37.125 29.1679 37.185 29.0229 37.281 28.7594C37.401 28.4959 37.509 28.2323 37.605 27.9688C37.725 27.7053 37.785 27.5735 37.785 27.5735C37.833 27.4681 37.893 27.2968 37.965 27.0596C38.061 26.8225 38.133 26.638 38.181 26.5062C38.253 26.3481 38.397 26.0055 38.613 25.4785C38.853 24.9514 39.021 24.5429 39.117 24.2531C39.789 22.5401 40.737 20.4187 41.961 17.8888C42.273 17.4408 42.429 17.2168 42.429 17.2168C42.765 16.8742 43.125 16.6898 43.509 16.6634C43.725 16.6371 43.905 16.6371 44.049 16.6634C44.217 16.6634 44.349 16.7161 44.445 16.8215C44.565 16.9269 44.673 17.0982 44.769 17.3354C44.793 17.3881 44.817 17.454 44.841 17.5331C44.865 17.5858 44.889 17.6516 44.913 17.7307C44.937 17.7834 44.949 17.8361 44.949 17.8888C44.997 18.0996 45.021 18.3105 45.021 18.5213C45.045 18.7058 45.033 18.9298 44.985 19.1933C44.961 19.4305 44.925 19.6149 44.877 19.7467C44.853 19.8785 44.793 20.1025 44.697 20.4187C44.625 20.7349 44.589 20.9194 44.589 20.9721C44.325 21.6046 44.193 21.9208 44.193 21.9208C44.073 22.158 43.665 22.7905 42.969 23.8182C42.897 23.9236 42.777 24.1081 42.609 24.3716C42.441 24.6088 42.309 24.7933 42.213 24.9251C42.093 25.1095 41.853 25.4389 41.493 25.9133C41.133 26.3613 40.857 26.7171 40.665 26.9806C39.201 28.7989 38.301 29.9585 37.965 30.4592C38.037 30.3801 38.193 30.2615 38.433 30.1034C39.105 29.6554 39.477 29.3919 39.549 29.3128C40.005 28.654 40.485 28.43 40.989 28.6408L41.349 28.9175C41.349 28.9439 41.373 28.9834 41.421 29.0361C41.469 29.0625 41.505 29.102 41.529 29.1547C41.553 29.1811 41.577 29.2074 41.601 29.2338C42.081 30.1561 43.269 30.5514 45.165 30.4196ZM38.793 27.7712C38.937 27.5867 39.141 27.3232 39.405 26.9806C39.693 26.638 39.885 26.414 39.981 26.3086C40.149 26.0187 40.413 25.6498 40.773 25.2018C41.157 24.7538 41.409 24.4507 41.529 24.2926C41.601 24.1872 41.673 24.0818 41.745 23.9763C41.817 23.8446 41.889 23.7128 41.961 23.5811C42.057 23.4229 42.129 23.3043 42.177 23.2253C42.849 22.2239 43.245 21.5914 43.365 21.3279C43.389 21.2488 43.413 21.1698 43.437 21.0907C43.485 21.0116 43.521 20.9194 43.545 20.814C43.569 20.6822 43.593 20.59 43.617 20.5373C43.833 19.6676 43.917 18.9825 43.869 18.4818C43.869 18.3763 43.857 18.2709 43.833 18.1655C43.833 18.0865 43.809 18.0206 43.761 17.9679C43.737 17.9152 43.725 17.8756 43.725 17.8493C43.701 17.8493 43.689 17.8229 43.689 17.7702C43.641 17.6912 43.605 17.6385 43.581 17.6121L43.617 17.6912C43.665 17.8229 43.677 17.902 43.653 17.9284C43.629 17.9284 43.593 17.9415 43.545 17.9679C43.521 17.9679 43.485 17.9679 43.437 17.9679C43.389 17.9679 43.353 17.9811 43.329 18.0074C43.209 18.0601 43.041 18.2709 42.825 18.6399C41.865 20.3528 40.917 22.3556 39.981 24.6483C39.909 24.8855 39.813 25.1359 39.693 25.3994C39.597 25.6629 39.477 25.9396 39.333 26.2295C39.213 26.5194 39.117 26.7566 39.045 26.9411C39.045 26.9674 38.961 27.2441 38.793 27.7712Z" fill="black"/>
<path d="M51.8269 28.8385C51.8029 28.7858 51.7549 28.7331 51.6829 28.6803C51.6349 28.6013 51.5989 28.5354 51.5749 28.4827C51.5029 28.5618 51.3829 28.6672 51.2149 28.7989C51.0469 28.9307 50.9269 29.0361 50.8549 29.1152C50.7109 29.2733 50.5309 29.5632 50.3149 29.9848C50.0989 30.4065 49.8829 30.6832 49.6669 30.8149C49.4269 30.9731 49.2109 30.9994 49.0189 30.894C48.8269 30.7622 48.7069 30.6041 48.6589 30.4196C48.6349 30.2088 48.6709 30.0243 48.7669 29.8662C49.1029 29.5236 49.4389 29.1547 49.7749 28.7594C49.8709 28.654 49.9789 28.5354 50.0989 28.4036C50.1469 28.3246 50.2309 28.2192 50.3509 28.0874C50.4949 27.9556 50.6149 27.8371 50.7109 27.7316C50.8069 27.6262 50.8789 27.5208 50.9269 27.4154C50.9509 27.3627 50.9749 27.31 50.9989 27.2573C51.0229 27.1782 51.0469 27.0992 51.0709 27.0201C51.0949 26.9411 51.1189 26.8883 51.1429 26.862C51.1429 26.7829 51.1549 26.7171 51.1789 26.6643C51.1549 26.4272 51.1909 26.2295 51.2869 26.0714C51.3109 26.0451 51.3349 26.0055 51.3589 25.9528C51.3829 25.9001 51.4069 25.8738 51.4309 25.8738C51.3829 25.7683 51.3709 25.6893 51.3949 25.6366C51.8509 24.8724 52.2109 24.7669 52.4749 25.3203C52.6909 25.8738 52.6789 26.3745 52.4389 26.8225C52.4629 26.9806 52.4749 27.2309 52.4749 27.5735C52.4749 27.5999 52.4749 27.6131 52.4749 27.6131C52.6429 28.0611 52.8589 28.4432 53.1229 28.7594C53.3869 29.0756 53.6509 29.3524 53.9149 29.5895C54.1789 29.8004 54.5149 29.9585 54.9229 30.0639C55.3309 30.1693 55.6669 30.2615 55.9309 30.3406C56.1949 30.3933 56.5789 30.4065 57.0829 30.3801C57.5869 30.3538 57.9469 30.3406 58.1629 30.3406C58.3789 30.3142 58.7389 30.2484 59.2429 30.1429C59.7709 30.0375 60.0829 29.9716 60.1789 29.9453C60.2989 29.9189 60.5989 29.8531 61.0789 29.7476C61.2469 29.6949 61.4629 29.6686 61.7269 29.6686C61.9669 29.6686 62.2429 29.7081 62.5549 29.7872C62.8429 29.7608 63.0229 29.9716 63.0949 30.4196C63.1669 30.8676 63.0589 31.1048 62.7709 31.1312C62.6989 31.1312 62.6269 31.118 62.5549 31.0916C62.5309 31.0916 62.3989 31.0916 62.1589 31.0916C62.0869 31.118 61.9909 31.1312 61.8709 31.1312C61.7749 31.1312 61.6909 31.1312 61.6189 31.1312C61.4749 31.1575 61.3669 31.0785 61.2949 30.894C61.1989 30.894 61.1509 30.894 61.1509 30.894C60.7909 30.9203 60.2509 30.9599 59.5309 31.0126C58.8109 31.0653 58.2349 31.1048 57.8029 31.1312C57.3709 31.1575 56.8309 31.1444 56.1829 31.0916C55.5589 31.0389 55.0189 30.9467 54.5629 30.8149C54.1069 30.6568 53.6269 30.4196 53.1229 30.1034C52.6429 29.7608 52.2109 29.3392 51.8269 28.8385ZM52.7269 20.6164C53.7589 20.4319 54.3589 20.3265 54.5269 20.3001C54.6469 20.2738 54.7429 20.3265 54.8149 20.4582C54.8869 20.59 54.9109 20.7349 54.8869 20.8931C54.8629 21.0248 54.8029 21.1039 54.7069 21.1302H54.6349L54.5989 21.1698H54.4909L54.4549 21.2093H54.3469L54.3109 21.2488H54.2029L54.1669 21.2883H54.0589L54.0229 21.3279H53.9149L53.8789 21.3674H53.7709L53.7349 21.4069H53.6269L53.5909 21.4465H53.4829L53.4469 21.486H53.3029L53.2669 21.5255H53.1589L53.1229 21.5651H53.0149L52.9789 21.6046H52.9069C52.7869 21.6309 52.6789 21.5651 52.5829 21.4069C52.5109 21.2488 52.4869 21.0907 52.5109 20.9326C52.5349 20.7481 52.6069 20.6427 52.7269 20.6164Z" fill="black"/>
<path d="M62.6345 28.878C63.4745 28.5354 63.9665 28.2851 64.1105 28.1269C63.9665 27.8634 63.5345 27.7712 62.8145 27.8502C62.5025 27.8766 62.2865 27.9556 62.1665 28.0874C62.0705 28.2192 62.0585 28.4036 62.1305 28.6408C62.2025 28.8516 62.3105 28.9966 62.4545 29.0756C62.4785 28.9966 62.5385 28.9307 62.6345 28.878ZM75.3065 30.6964C74.3945 30.6964 73.2185 30.8018 71.7785 31.0126C70.3385 31.2234 69.0905 31.4211 68.0345 31.6055C67.0025 31.7636 65.8985 31.7636 64.7225 31.6055C63.5705 31.4474 62.6225 31.0389 61.8785 30.3801C61.1345 29.774 60.7865 29.0625 60.8345 28.2455C60.8345 27.6921 61.0985 27.2573 61.6265 26.9411C62.1305 26.6248 62.7185 26.4799 63.3905 26.5062C64.0625 26.5326 64.6025 26.7434 65.0105 27.1387C65.3465 27.4549 65.4905 27.7316 65.4425 27.9688C65.3945 28.2323 65.2625 28.4827 65.0465 28.7199C64.8305 28.9571 64.5785 29.1547 64.2905 29.3128C64.0025 29.4709 63.6905 29.6027 63.3545 29.7081C63.5225 30.2352 63.9545 30.6041 64.6505 30.8149C65.3465 30.9994 66.1865 31.0521 67.1705 30.9731C68.1785 30.8676 69.1625 30.7359 70.1225 30.5778C71.1065 30.3933 72.1025 30.1956 73.1105 29.9848C74.1425 29.774 74.8625 29.6554 75.2705 29.6291C75.8705 29.3392 76.2425 29.4051 76.3865 29.8267C76.5065 30.1693 76.3745 30.4328 75.9905 30.6173C75.7985 30.6963 75.5705 30.7227 75.3065 30.6964Z" fill="black"/>
<path d="M83.4032 32.1589C82.8992 31.79 82.4912 31.0785 82.1792 30.0243C81.9632 30.1825 81.6872 30.4196 81.3512 30.7359C81.2792 30.7886 81.1352 30.9072 80.9192 31.0916C80.7272 31.2498 80.5472 31.4079 80.3792 31.566C80.2112 31.6978 79.9952 31.8691 79.7312 32.0799C79.4672 32.2644 79.2152 32.4356 78.9752 32.5938C78.7352 32.7519 78.4712 32.91 78.1832 33.0681C77.8952 33.1999 77.6072 33.3053 77.3192 33.3843C77.2472 33.3843 77.1392 33.3975 76.9952 33.4239C76.8752 33.4502 76.7672 33.4766 76.6712 33.5029C76.5752 33.5029 76.4672 33.5029 76.3472 33.5029C76.2272 33.5029 76.1072 33.5029 75.9872 33.5029C75.8912 33.4766 75.8072 33.4502 75.7352 33.4239C75.1352 33.1603 74.9552 32.5411 75.1952 31.566C75.2432 31.3552 75.3152 31.1575 75.4112 30.9731C75.5552 30.6568 75.7592 30.3274 76.0232 29.9848C76.3112 29.6422 76.5152 29.3787 76.6352 29.1942C76.8512 28.8516 77.1512 28.878 77.5352 29.2733C77.8472 29.6422 77.8592 29.9453 77.5712 30.1825C77.0672 30.5251 76.6832 30.9994 76.4192 31.6055C76.2032 32.1062 76.3232 32.3434 76.7792 32.3171C77.0192 32.2907 77.3432 32.1853 77.7512 32.0008C77.8952 31.9481 78.0392 31.8822 78.1832 31.8032C78.3512 31.7241 78.5072 31.6319 78.6512 31.5265C78.8192 31.3947 78.9512 31.2893 79.0472 31.2102C79.1672 31.1312 79.3232 31.0126 79.5152 30.8545C79.7072 30.6963 79.8392 30.5909 79.9112 30.5382C79.9832 30.4592 80.1152 30.3274 80.3072 30.1429C80.5232 29.9321 80.6552 29.8135 80.7032 29.7872C80.9432 29.55 81.2312 29.2865 81.5672 28.9966C81.7352 28.8385 81.8552 28.7462 81.9272 28.7199C81.9992 28.6672 82.1192 28.6145 82.2872 28.5618C82.4792 28.4827 82.6472 28.4827 82.7912 28.5618C82.8152 28.5881 82.8392 28.6145 82.8632 28.6408C82.8872 28.6672 82.9112 28.6935 82.9352 28.7199C82.9832 28.7462 83.0072 28.7726 83.0072 28.7989C83.0312 28.7989 83.0552 28.8121 83.0792 28.8385C83.1032 28.8912 83.1272 28.9307 83.1512 28.9571C83.2232 29.1942 83.2952 29.4973 83.3672 29.8662C83.4392 30.2088 83.4992 30.4592 83.5472 30.6173C83.5952 30.7491 83.7152 30.9203 83.9072 31.1312C84.1232 31.342 84.4112 31.5396 84.7712 31.7241C85.3952 32.0403 86.1752 32.2248 87.1112 32.2775C88.0712 32.3039 89.0672 32.238 90.0992 32.0799C91.1552 31.8954 92.1632 31.6978 93.1232 31.4869C94.0832 31.2498 95.0312 31.0126 95.9672 30.7754C96.9272 30.5119 97.6112 30.3538 98.0192 30.3011C98.0672 30.0902 98.1752 29.9716 98.3432 29.9453C98.5112 29.9453 98.7512 29.9321 99.0632 29.9058C99.3752 29.8531 99.6512 29.8135 99.8912 29.7872C100.155 29.7608 100.407 29.7608 100.647 29.7872C100.671 29.8135 100.719 29.8531 100.791 29.9058C100.863 29.9321 100.911 29.9716 100.935 30.0243C100.983 30.0507 101.019 30.0902 101.043 30.1429C101.163 30.5382 101.175 30.8149 101.079 30.9731C100.983 31.1048 100.767 31.2498 100.431 31.4079C100.383 31.4342 100.239 31.4079 99.9992 31.3288C99.7592 31.2498 99.6152 31.2366 99.5672 31.2893C98.9192 31.2893 98.4272 31.3025 98.0912 31.3288C97.6352 31.3815 96.8672 31.5265 95.7872 31.7636C94.7072 31.9745 93.6152 32.1853 92.5112 32.3961C91.4072 32.5806 90.2552 32.7519 89.0552 32.91C87.8792 33.0681 86.7872 33.0945 85.7792 32.9891C84.7712 32.8573 83.9792 32.5806 83.4032 32.1589Z" fill="black"/>
<path d="M21.0281 17.6516C22.1801 16.2022 23.1041 14.5552 23.8001 12.7105C23.8241 12.6314 23.8481 12.5392 23.8721 12.4338C23.9201 12.3283 23.9561 12.2229 23.9801 12.1175C24.0281 12.0121 24.0761 11.8935 24.1241 11.7618C24.1721 11.63 24.2081 11.5114 24.2321 11.406C24.2561 11.3006 24.2921 11.182 24.3401 11.0502C24.3881 10.9185 24.4241 10.8131 24.4481 10.734C24.4721 10.6286 24.5081 10.51 24.5561 10.3782C24.6041 10.2465 24.6401 10.1411 24.6641 10.062C24.8561 9.166 24.9521 8.718 24.9521 8.718C24.9761 8.50717 25.0361 8.046 25.1321 7.33447C25.2521 6.51753 25.3241 5.93776 25.3481 5.59517C25.3721 5.25258 25.3601 4.686 25.3121 3.89541C25.3121 3.8427 25.3001 3.79 25.2761 3.73729C25.2761 3.65823 25.2641 3.60553 25.2401 3.57917C25.2401 3.52647 25.2281 3.47376 25.2041 3.42106C25.1801 3.342 25.1561 3.27611 25.1321 3.22341C24.9881 2.85447 24.9161 2.67 24.9161 2.67C24.6041 2.16929 24.1961 1.83988 23.6921 1.68176C23.6201 1.65541 23.3801 1.68176 22.9721 1.76082C22.6601 1.94529 22.5041 2.03753 22.5041 2.03753C22.4081 2.11659 22.3001 2.20882 22.1801 2.31423C22.0841 2.39329 21.9761 2.4987 21.8561 2.63047C21.4961 3.02576 21.1721 3.43423 20.8841 3.85588C20.5961 4.25117 20.3201 4.67282 20.0561 5.12082C19.8161 5.56882 19.6001 6.04317 19.4081 6.54388C19.4081 6.54388 19.1681 7.22906 18.6881 8.59941C18.1361 10.2069 17.8601 11.0107 17.8601 11.0107C17.5961 11.8276 17.1761 13.4352 16.6001 15.8333C16.5521 15.9914 16.5281 16.11 16.5281 16.1891C16.4321 16.5843 16.1201 17.8625 15.5921 20.0234C15.0641 22.158 14.6561 23.7919 14.3681 24.9251C13.1921 29.8267 12.1601 33.5556 11.2721 36.1119C11.2001 36.2963 10.6841 37.614 9.7241 40.0648C12.2921 39.6695 14.5961 39.4192 16.6361 39.3138C17.9561 39.2347 20.0801 39.2347 23.0081 39.3138C24.4241 39.3665 26.0321 39.406 27.8321 39.4323C29.6321 39.4851 31.4441 39.5246 33.2681 39.5509C35.1161 39.5773 36.7361 39.6168 38.1281 39.6695C39.5681 39.7486 42.1601 39.9331 45.9041 40.2229C48.4481 40.3811 50.9201 40.4865 53.3201 40.5392C55.7201 40.6182 58.0841 40.6314 60.4121 40.5787C60.5561 40.5787 60.7121 40.5787 60.8801 40.5787C61.0481 40.5787 61.2041 40.5787 61.3481 40.5787C61.4921 40.5787 61.6481 40.5787 61.8161 40.5787C61.9841 40.5787 62.1401 40.5787 62.2841 40.5787C62.4521 40.5787 62.6201 40.5655 62.7881 40.5392C62.9561 40.5392 63.1121 40.5392 63.2561 40.5392C63.4241 40.5392 63.5801 40.5392 63.7241 40.5392C63.9641 40.5128 64.2161 40.4865 64.4801 40.4601C64.7681 40.4601 65.0201 40.4469 65.2361 40.4206C65.4521 40.4206 65.7041 40.4074 65.9921 40.3811C66.3041 40.3547 66.5561 40.3283 66.7481 40.302C66.9161 40.302 67.1801 40.2756 67.5401 40.2229C72.2201 39.6959 75.6881 39.0898 77.9441 38.4046C78.0881 38.3782 78.2321 38.3387 78.3761 38.286C78.5201 38.2333 78.6881 38.1674 78.8801 38.0883C79.0721 38.0356 79.2161 37.9829 79.3121 37.9302C79.4081 37.9039 79.5041 37.8643 79.6001 37.8116C79.6961 37.7853 79.8041 37.7458 79.9241 37.6931C80.0441 37.6667 80.1281 37.6404 80.1761 37.614C80.2481 37.5876 80.3681 37.5481 80.5361 37.4954C80.7041 37.4427 80.8001 37.4164 80.8241 37.4164C80.7281 37.39 80.4401 37.3768 79.9601 37.3768C79.6481 37.3505 79.4921 37.0869 79.4921 36.5862C79.4921 36.3754 79.5401 36.1909 79.6361 36.0328C79.7321 35.8747 79.8641 35.7956 80.0321 35.7956C80.8721 35.822 81.6281 35.9669 82.3001 36.2305C82.3001 36.2305 82.3721 36.2436 82.5161 36.27C82.6841 36.3227 82.8041 36.3754 82.8761 36.4281C82.8761 36.4281 83.0801 36.6258 83.4881 37.0211C83.4881 37.0474 83.4881 37.0738 83.4881 37.1001C83.4881 37.1528 83.4761 37.2319 83.4521 37.3373C83.4521 37.4691 83.4401 37.5745 83.4161 37.6535C83.4161 37.7326 83.4041 37.8116 83.3801 37.8907C83.3561 37.9961 83.3201 38.1015 83.2721 38.2069C83.2481 38.2596 83.1881 38.2992 83.0921 38.3255C83.0201 38.3782 82.9481 38.4046 82.8761 38.4046C82.8281 38.4309 82.7561 38.4441 82.6601 38.4441C82.5881 38.4441 82.5401 38.4441 82.5161 38.4441C82.1561 38.5232 81.6521 38.6549 81.0041 38.8394C80.3561 39.0502 79.9001 39.1952 79.6361 39.2742C78.6761 39.5378 78.1961 39.6695 78.1961 39.6695C75.8921 40.2229 72.0881 40.75 66.7841 41.2507C64.7681 41.3298 63.7601 41.3693 63.7601 41.3693C61.8881 41.422 59.8961 41.4352 57.7841 41.4088C55.6721 41.3825 53.6801 41.3298 51.8081 41.2507C49.9361 41.1716 47.9561 41.0662 45.8681 40.9345C45.5561 40.9081 45.1601 40.8686 44.6801 40.8159C44.2241 40.7895 43.8521 40.7632 43.5641 40.7368C43.2761 40.7105 42.9281 40.6841 42.5201 40.6578C42.1121 40.6314 41.7521 40.6051 41.4401 40.5787C41.1281 40.5523 40.7801 40.526 40.3961 40.4996C40.0121 40.4733 39.6281 40.4469 39.2441 40.4206C38.8841 40.3942 38.5001 40.3811 38.0921 40.3811C36.6521 40.302 35.0441 40.2493 33.2681 40.2229C31.5161 40.2229 29.6921 40.2229 27.7961 40.2229C25.9241 40.2229 24.3281 40.1966 23.0081 40.1439C19.9121 40.1702 17.8121 40.2229 16.7081 40.302C14.6201 40.4601 12.1121 40.8422 9.1841 41.4483C8.8961 42.1072 8.7041 42.5288 8.6081 42.7133C8.5361 42.8978 8.2481 43.4643 7.7441 44.4131C7.2881 45.2827 7.0121 45.7966 6.9161 45.9547C6.3881 46.8243 5.5721 47.8521 4.4681 49.038C4.2281 49.3015 4.0481 49.486 3.9281 49.5914C3.8081 49.7232 3.6281 49.8549 3.3881 49.9867C3.1481 50.1185 2.8961 50.1843 2.6321 50.1843C2.1761 50.1843 1.5881 49.8813 0.868098 49.2752V49.2356C0.844098 49.2093 0.808097 49.1434 0.760097 49.038C0.688098 48.9589 0.628098 48.8799 0.580098 48.8008C0.532097 48.7218 0.484098 48.6559 0.436098 48.6032C0.340098 48.3396 0.268097 48.0761 0.220097 47.8126C0.148098 47.5491 0.112098 47.2723 0.112098 46.9825C0.0880976 46.7189 0.100098 46.4554 0.148098 46.1919C0.196097 45.9283 0.268097 45.6648 0.364098 45.4013C0.388098 45.2695 0.460098 45.0851 0.580098 44.8479C0.628098 44.7425 0.664098 44.6634 0.688098 44.6107V44.5712C1.0241 44.0178 1.1921 43.7411 1.1921 43.7411C1.5281 43.2667 1.9241 42.8582 2.3801 42.5156C2.8121 42.1731 3.3761 41.8568 4.0721 41.5669C4.7681 41.3034 5.2601 41.1189 5.5481 41.0135C5.8361 40.9345 6.4121 40.7632 7.2761 40.4996C7.6841 40.4206 8.0801 40.3547 8.4641 40.302C8.5121 40.2229 8.5481 40.1439 8.5721 40.0648C8.5961 40.0121 8.6681 39.8276 8.7881 39.5114C8.9081 39.2215 9.0161 38.958 9.1121 38.7208C9.2081 38.51 9.3161 38.2333 9.4361 37.8907C9.5801 37.5481 9.7001 37.2582 9.7961 37.0211C9.9161 36.7839 10.0241 36.5335 10.1201 36.27C10.2161 36.0328 10.2881 35.8484 10.3361 35.7166C11.0081 33.8982 11.5721 32.1721 12.0281 30.5382C12.0521 30.4328 12.3041 29.4709 12.7841 27.6526C12.8321 27.4154 12.8921 27.1651 12.9641 26.9015C13.0361 26.6116 13.0961 26.3613 13.1441 26.1505C13.1921 25.9396 13.2521 25.6893 13.3241 25.3994C13.3961 25.1095 13.4561 24.8723 13.5041 24.6879C14.0801 22.2898 14.5481 20.3133 14.9081 18.7585C15.0041 18.4159 15.1241 17.9152 15.2681 17.2563C15.5801 15.886 15.8201 14.8319 15.9881 14.094C16.1561 13.3561 16.3961 12.4206 16.7081 11.2874C17.0201 10.1279 17.3321 9.10011 17.6441 8.20411C17.6921 8.01964 17.7641 7.78247 17.8601 7.49258C17.9561 7.2027 18.0401 6.93917 18.1121 6.702C18.1841 6.43847 18.2681 6.20129 18.3641 5.99047C18.5561 5.43705 18.7841 4.91 19.0481 4.40929C19.3121 3.88223 19.6001 3.38153 19.9121 2.90717C20.2241 2.40647 20.5721 1.94529 20.9561 1.52364C21.3161 1.102 21.6161 0.812115 21.8561 0.653998C21.8561 0.653998 22.1681 0.49588 22.7921 0.179644C23.3201 0.126939 23.5841 0.100586 23.5841 0.100586C23.7041 0.100586 23.8121 0.113762 23.9081 0.140115C24.0281 0.166467 24.1361 0.19282 24.2321 0.219173C24.3281 0.245525 24.4241 0.285055 24.5201 0.337762C24.6161 0.390467 24.7121 0.456349 24.8081 0.535409C24.9041 0.588114 25.0001 0.653996 25.0961 0.733055C25.1921 0.785761 25.2761 0.851643 25.3481 0.930702C25.4441 1.00976 25.5281 1.08882 25.6001 1.16788C25.6961 1.24694 25.7801 1.33917 25.8521 1.44459C25.9241 1.52364 25.9841 1.61588 26.0321 1.72129C26.1041 1.80035 26.1641 1.89258 26.2121 1.998C26.2361 2.0507 26.2601 2.11658 26.2841 2.19564C26.3321 2.2747 26.3681 2.35376 26.3921 2.43282C26.4161 2.48553 26.4401 2.56459 26.4641 2.67C26.4881 2.74906 26.5121 2.81494 26.5361 2.86764C26.5361 2.92035 26.5361 2.98623 26.5361 3.06529C26.5601 3.14435 26.5841 3.21023 26.6081 3.26294C26.6321 3.31564 26.6441 3.38153 26.6441 3.46058C26.6681 3.51329 26.6801 3.57917 26.6801 3.65823C26.6801 3.71094 26.6921 3.77682 26.7161 3.85588C26.7641 4.56741 26.6561 5.806 26.3921 7.57164C26.3921 7.62435 26.3801 7.71658 26.3561 7.84835C26.3561 7.95376 26.3441 8.05917 26.3201 8.16459C26.3201 8.24364 26.3081 8.33588 26.2841 8.44129C26.2601 8.5467 26.2361 8.65211 26.2121 8.75753C26.2121 8.83659 26.2001 8.92882 26.1761 9.03423C26.1761 9.08694 26.1641 9.15282 26.1401 9.23188C26.1401 9.28458 26.1281 9.33729 26.1041 9.38999C26.1041 9.4427 26.0921 9.50858 26.0681 9.58764C26.0681 9.64035 26.0561 9.70623 26.0321 9.78529C26.0321 9.838 26.0201 9.90388 25.9961 9.98294C25.9721 10.0356 25.9481 10.0883 25.9241 10.1411C25.9241 10.1938 25.9121 10.2596 25.8881 10.3387C25.8881 10.3914 25.8881 10.4573 25.8881 10.5363C25.8401 10.6154 25.7681 10.7999 25.6721 11.0898C25.6001 11.3533 25.5401 11.5509 25.4921 11.6827C25.4681 11.7881 25.4201 11.9594 25.3481 12.1966C25.2761 12.4074 25.2041 12.6051 25.1321 12.7895C25.0601 12.974 24.9881 13.1453 24.9161 13.3034C24.2681 14.9636 23.3441 16.7293 22.1441 18.6003C22.0241 18.7321 21.8801 18.798 21.7121 18.798C21.5681 18.7716 21.4241 18.6926 21.2801 18.5608C20.9201 18.2182 20.8361 17.9152 21.0281 17.6516ZM3.5321 47.9312C4.6361 46.8771 5.4281 45.9942 5.9081 45.2827C6.0041 45.1246 6.2921 44.6107 6.7721 43.7411C7.3481 42.7133 7.7081 42.0413 7.8521 41.7251C7.8041 41.7251 7.7561 41.7251 7.7081 41.7251C7.6841 41.7514 7.6481 41.7646 7.6001 41.7646C7.5281 41.7909 7.4321 41.8305 7.3121 41.8832C5.2241 42.5684 3.7481 43.2799 2.8841 44.0178C2.6441 44.2286 2.4761 44.3999 2.3801 44.5316C2.3321 44.6107 2.2841 44.6766 2.2361 44.7293C2.1881 44.8083 2.1401 44.9006 2.0921 45.006C2.0441 45.1114 2.0081 45.1905 1.9841 45.2432C1.8641 45.5858 1.7801 45.8361 1.7321 45.9942C1.6601 46.1524 1.6121 46.35 1.5881 46.5872C1.5401 46.8244 1.5401 47.0484 1.5881 47.2592C1.6361 47.4963 1.7201 47.7467 1.8401 48.0102C2.0081 48.1947 2.1881 48.3396 2.3801 48.4451C2.4041 48.4451 2.4401 48.4582 2.4881 48.4846C2.5121 48.5109 2.5481 48.5241 2.5961 48.5241L2.6321 48.6032C2.7521 48.5768 3.0521 48.3528 3.5321 47.9312Z" stroke="black" stroke-width="0.2" mask="url(#path-1-outside-1_8062_5887)"/>
<path d="M26.6506 31.4869C27.3466 31.6714 27.9706 31.7636 28.5226 31.7636C29.0986 31.7636 29.7706 31.6846 30.5386 31.5265C31.3306 31.342 32.0146 31.1575 32.5906 30.9731C33.1906 30.7886 33.8626 30.5909 34.6066 30.3801C35.3506 30.1429 35.9746 29.9848 36.4786 29.9058C37.4626 29.7213 37.9786 29.8794 38.0266 30.3801C38.0746 30.6963 37.9306 30.9203 37.5946 31.0521C37.4266 31.1048 37.2586 31.0785 37.0906 30.9731C36.2986 31.0521 35.1106 31.2366 33.5266 31.5265C31.9666 31.79 30.9826 31.9613 30.5746 32.0403C30.4066 32.0667 30.0466 32.1326 29.4946 32.238C28.9666 32.3434 28.4986 32.4356 28.0906 32.5147C27.7066 32.5674 27.2866 32.5806 26.8306 32.5542C26.3746 32.5279 26.0266 32.4225 25.7866 32.238C25.3546 31.8954 25.3546 31.3288 25.7866 30.5382C25.6186 30.6436 25.4746 30.7359 25.3546 30.8149C25.2586 30.8676 25.1746 30.9203 25.1026 30.9731C25.0546 30.9994 25.0066 31.0389 24.9586 31.0916C24.9346 31.118 24.9106 31.1312 24.8866 31.1312C24.8866 31.1312 24.8746 31.1443 24.8506 31.1707C24.8266 31.1707 24.8146 31.1707 24.8146 31.1707C24.8146 31.1707 24.7786 31.1839 24.7066 31.2102C24.6586 31.2366 24.6106 31.2629 24.5626 31.2893C24.5146 31.3156 24.4306 31.3683 24.3106 31.4474C24.1906 31.5001 24.0586 31.566 23.9146 31.6451C23.1466 31.9086 22.4266 32.0931 21.7546 32.1985C21.7306 32.2248 21.6466 32.2512 21.5026 32.2775C21.3586 32.3039 21.2506 32.3171 21.1786 32.3171C20.8666 32.2643 20.5906 32.1589 20.3506 32.0008C20.3506 32.0008 20.3146 31.8822 20.2426 31.6451C20.2426 31.5924 20.2426 31.5265 20.2426 31.4474C20.2186 31.3683 20.2066 31.3156 20.2066 31.2893C20.2066 31.2366 20.2066 31.1707 20.2066 31.0916C20.2546 30.8808 20.3506 30.6832 20.4946 30.4987C20.6386 30.3142 20.7466 30.1825 20.8186 30.1034C20.9146 30.0243 21.1066 29.9058 21.3946 29.7476C21.6826 29.5632 21.8386 29.4578 21.8626 29.4314C21.9346 29.3787 22.0546 29.2865 22.2226 29.1547C22.3906 28.9966 22.5466 28.8648 22.6906 28.7594C22.8346 28.654 22.9666 28.5749 23.0866 28.5222C23.3986 28.3905 23.8546 28.2982 24.4546 28.2455C25.0786 28.1928 25.4986 28.1401 25.7146 28.0874C25.9546 28.0874 26.0746 28.2719 26.0746 28.6408C26.0746 29.0098 25.9546 29.1942 25.7146 29.1942C25.6186 29.1942 25.3906 29.2206 25.0306 29.2733C24.6706 29.2996 24.3706 29.3392 24.1306 29.3919C23.8906 29.4446 23.6626 29.5368 23.4466 29.6686C23.3746 29.7213 23.2786 29.8135 23.1586 29.9453C23.0626 30.0507 22.9906 30.1166 22.9426 30.1429C22.8946 30.1693 22.8466 30.2088 22.7986 30.2615C22.7506 30.2879 22.6906 30.3274 22.6186 30.3801C22.5706 30.4065 22.5346 30.4328 22.5106 30.4592C22.4626 30.5119 22.3306 30.5909 22.1146 30.6964C21.9226 30.8018 21.7786 30.894 21.6826 30.9731C22.2586 30.9203 22.8946 30.7886 23.5906 30.5778C23.7346 30.4987 23.8786 30.4328 24.0226 30.3801C24.1906 30.3011 24.2866 30.2615 24.3106 30.2615C24.3346 30.2352 24.3826 30.2088 24.4546 30.1825C24.5266 30.1298 24.5746 30.0902 24.5986 30.0639C24.6226 30.0375 24.6946 29.9848 24.8146 29.9058C24.9586 29.8267 25.1026 29.7345 25.2466 29.6291C25.2946 29.6027 25.4146 29.5368 25.6066 29.4314C25.7986 29.2996 25.9426 29.1942 26.0386 29.1152C26.2066 29.0098 26.4346 28.8253 26.7226 28.5618C27.0106 28.2982 27.2386 28.1138 27.4066 28.0083C27.6226 27.8502 27.8266 27.7975 28.0186 27.8502C28.2106 27.8766 28.3666 28.0083 28.4866 28.2455C28.6066 28.4563 28.6186 28.6803 28.5226 28.9175C28.4746 29.0493 28.4146 29.1679 28.3426 29.2733C28.2946 29.3524 28.2586 29.4182 28.2346 29.4709C28.2106 29.4973 28.1266 29.5632 27.9826 29.6686C27.8626 29.774 27.7786 29.8531 27.7306 29.9058C27.4666 30.1166 27.1066 30.6436 26.6506 31.4869Z" stroke="black" stroke-width="0.2" mask="url(#path-1-outside-1_8062_5887)"/>
<path d="M45.165 30.4196C45.573 30.3933 46.017 30.3406 46.497 30.2615C46.977 30.1825 47.505 30.0902 48.081 29.9848C48.657 29.8794 49.113 29.8003 49.449 29.7476C49.665 29.6949 49.821 29.7608 49.917 29.9453C50.013 30.1034 50.013 30.2747 49.917 30.4592C49.845 30.6436 49.701 30.7491 49.485 30.7754C47.997 30.9335 46.569 31.0389 45.201 31.0916C43.041 31.118 41.553 30.8018 40.737 30.1429C40.689 30.0902 40.629 30.0375 40.557 29.9848C40.509 30.0375 40.425 30.1429 40.305 30.3011C40.161 30.4065 39.933 30.5646 39.621 30.7754C39.333 30.9599 39.153 31.0785 39.081 31.1312C39.057 31.1575 38.937 31.2761 38.721 31.4869C38.505 31.6978 38.229 31.8691 37.893 32.0008C36.981 32.0272 36.669 31.3683 36.957 30.0243C37.053 29.4709 37.101 29.1942 37.101 29.1942C37.125 29.1679 37.185 29.0229 37.281 28.7594C37.401 28.4959 37.509 28.2323 37.605 27.9688C37.725 27.7053 37.785 27.5735 37.785 27.5735C37.833 27.4681 37.893 27.2968 37.965 27.0596C38.061 26.8225 38.133 26.638 38.181 26.5062C38.253 26.3481 38.397 26.0055 38.613 25.4785C38.853 24.9514 39.021 24.5429 39.117 24.2531C39.789 22.5401 40.737 20.4187 41.961 17.8888C42.273 17.4408 42.429 17.2168 42.429 17.2168C42.765 16.8742 43.125 16.6898 43.509 16.6634C43.725 16.6371 43.905 16.6371 44.049 16.6634C44.217 16.6634 44.349 16.7161 44.445 16.8215C44.565 16.9269 44.673 17.0982 44.769 17.3354C44.793 17.3881 44.817 17.454 44.841 17.5331C44.865 17.5858 44.889 17.6516 44.913 17.7307C44.937 17.7834 44.949 17.8361 44.949 17.8888C44.997 18.0996 45.021 18.3105 45.021 18.5213C45.045 18.7058 45.033 18.9298 44.985 19.1933C44.961 19.4305 44.925 19.6149 44.877 19.7467C44.853 19.8785 44.793 20.1025 44.697 20.4187C44.625 20.7349 44.589 20.9194 44.589 20.9721C44.325 21.6046 44.193 21.9208 44.193 21.9208C44.073 22.158 43.665 22.7905 42.969 23.8182C42.897 23.9236 42.777 24.1081 42.609 24.3716C42.441 24.6088 42.309 24.7933 42.213 24.9251C42.093 25.1095 41.853 25.4389 41.493 25.9133C41.133 26.3613 40.857 26.7171 40.665 26.9806C39.201 28.7989 38.301 29.9585 37.965 30.4592C38.037 30.3801 38.193 30.2615 38.433 30.1034C39.105 29.6554 39.477 29.3919 39.549 29.3128C40.005 28.654 40.485 28.43 40.989 28.6408L41.349 28.9175C41.349 28.9439 41.373 28.9834 41.421 29.0361C41.469 29.0625 41.505 29.102 41.529 29.1547C41.553 29.1811 41.577 29.2074 41.601 29.2338C42.081 30.1561 43.269 30.5514 45.165 30.4196ZM38.793 27.7712C38.937 27.5867 39.141 27.3232 39.405 26.9806C39.693 26.638 39.885 26.414 39.981 26.3086C40.149 26.0187 40.413 25.6498 40.773 25.2018C41.157 24.7538 41.409 24.4507 41.529 24.2926C41.601 24.1872 41.673 24.0818 41.745 23.9763C41.817 23.8446 41.889 23.7128 41.961 23.5811C42.057 23.4229 42.129 23.3043 42.177 23.2253C42.849 22.2239 43.245 21.5914 43.365 21.3279C43.389 21.2488 43.413 21.1698 43.437 21.0907C43.485 21.0116 43.521 20.9194 43.545 20.814C43.569 20.6822 43.593 20.59 43.617 20.5373C43.833 19.6676 43.917 18.9825 43.869 18.4818C43.869 18.3763 43.857 18.2709 43.833 18.1655C43.833 18.0865 43.809 18.0206 43.761 17.9679C43.737 17.9152 43.725 17.8756 43.725 17.8493C43.701 17.8493 43.689 17.8229 43.689 17.7702C43.641 17.6912 43.605 17.6385 43.581 17.6121L43.617 17.6912C43.665 17.8229 43.677 17.902 43.653 17.9284C43.629 17.9284 43.593 17.9415 43.545 17.9679C43.521 17.9679 43.485 17.9679 43.437 17.9679C43.389 17.9679 43.353 17.9811 43.329 18.0074C43.209 18.0601 43.041 18.2709 42.825 18.6399C41.865 20.3528 40.917 22.3556 39.981 24.6483C39.909 24.8855 39.813 25.1359 39.693 25.3994C39.597 25.6629 39.477 25.9396 39.333 26.2295C39.213 26.5194 39.117 26.7566 39.045 26.9411C39.045 26.9674 38.961 27.2441 38.793 27.7712Z" stroke="black" stroke-width="0.2" mask="url(#path-1-outside-1_8062_5887)"/>
<path d="M51.8269 28.8385C51.8029 28.7858 51.7549 28.7331 51.6829 28.6803C51.6349 28.6013 51.5989 28.5354 51.5749 28.4827C51.5029 28.5618 51.3829 28.6672 51.2149 28.7989C51.0469 28.9307 50.9269 29.0361 50.8549 29.1152C50.7109 29.2733 50.5309 29.5632 50.3149 29.9848C50.0989 30.4065 49.8829 30.6832 49.6669 30.8149C49.4269 30.9731 49.2109 30.9994 49.0189 30.894C48.8269 30.7622 48.7069 30.6041 48.6589 30.4196C48.6349 30.2088 48.6709 30.0243 48.7669 29.8662C49.1029 29.5236 49.4389 29.1547 49.7749 28.7594C49.8709 28.654 49.9789 28.5354 50.0989 28.4036C50.1469 28.3246 50.2309 28.2192 50.3509 28.0874C50.4949 27.9556 50.6149 27.8371 50.7109 27.7316C50.8069 27.6262 50.8789 27.5208 50.9269 27.4154C50.9509 27.3627 50.9749 27.31 50.9989 27.2573C51.0229 27.1782 51.0469 27.0992 51.0709 27.0201C51.0949 26.9411 51.1189 26.8883 51.1429 26.862C51.1429 26.7829 51.1549 26.7171 51.1789 26.6643C51.1549 26.4272 51.1909 26.2295 51.2869 26.0714C51.3109 26.0451 51.3349 26.0055 51.3589 25.9528C51.3829 25.9001 51.4069 25.8738 51.4309 25.8738C51.3829 25.7683 51.3709 25.6893 51.3949 25.6366C51.8509 24.8724 52.2109 24.7669 52.4749 25.3203C52.6909 25.8738 52.6789 26.3745 52.4389 26.8225C52.4629 26.9806 52.4749 27.2309 52.4749 27.5735C52.4749 27.5999 52.4749 27.6131 52.4749 27.6131C52.6429 28.0611 52.8589 28.4432 53.1229 28.7594C53.3869 29.0756 53.6509 29.3524 53.9149 29.5895C54.1789 29.8004 54.5149 29.9585 54.9229 30.0639C55.3309 30.1693 55.6669 30.2615 55.9309 30.3406C56.1949 30.3933 56.5789 30.4065 57.0829 30.3801C57.5869 30.3538 57.9469 30.3406 58.1629 30.3406C58.3789 30.3142 58.7389 30.2484 59.2429 30.1429C59.7709 30.0375 60.0829 29.9716 60.1789 29.9453C60.2989 29.9189 60.5989 29.8531 61.0789 29.7476C61.2469 29.6949 61.4629 29.6686 61.7269 29.6686C61.9669 29.6686 62.2429 29.7081 62.5549 29.7872C62.8429 29.7608 63.0229 29.9716 63.0949 30.4196C63.1669 30.8676 63.0589 31.1048 62.7709 31.1312C62.6989 31.1312 62.6269 31.118 62.5549 31.0916C62.5309 31.0916 62.3989 31.0916 62.1589 31.0916C62.0869 31.118 61.9909 31.1312 61.8709 31.1312C61.7749 31.1312 61.6909 31.1312 61.6189 31.1312C61.4749 31.1575 61.3669 31.0785 61.2949 30.894C61.1989 30.894 61.1509 30.894 61.1509 30.894C60.7909 30.9203 60.2509 30.9599 59.5309 31.0126C58.8109 31.0653 58.2349 31.1048 57.8029 31.1312C57.3709 31.1575 56.8309 31.1444 56.1829 31.0916C55.5589 31.0389 55.0189 30.9467 54.5629 30.8149C54.1069 30.6568 53.6269 30.4196 53.1229 30.1034C52.6429 29.7608 52.2109 29.3392 51.8269 28.8385ZM52.7269 20.6164C53.7589 20.4319 54.3589 20.3265 54.5269 20.3001C54.6469 20.2738 54.7429 20.3265 54.8149 20.4582C54.8869 20.59 54.9109 20.7349 54.8869 20.8931C54.8629 21.0248 54.8029 21.1039 54.7069 21.1302H54.6349L54.5989 21.1698H54.4909L54.4549 21.2093H54.3469L54.3109 21.2488H54.2029L54.1669 21.2883H54.0589L54.0229 21.3279H53.9149L53.8789 21.3674H53.7709L53.7349 21.4069H53.6269L53.5909 21.4465H53.4829L53.4469 21.486H53.3029L53.2669 21.5255H53.1589L53.1229 21.5651H53.0149L52.9789 21.6046H52.9069C52.7869 21.6309 52.6789 21.5651 52.5829 21.4069C52.5109 21.2488 52.4869 21.0907 52.5109 20.9326C52.5349 20.7481 52.6069 20.6427 52.7269 20.6164Z" stroke="black" stroke-width="0.2" mask="url(#path-1-outside-1_8062_5887)"/>
<path d="M62.6345 28.878C63.4745 28.5354 63.9665 28.2851 64.1105 28.1269C63.9665 27.8634 63.5345 27.7712 62.8145 27.8502C62.5025 27.8766 62.2865 27.9556 62.1665 28.0874C62.0705 28.2192 62.0585 28.4036 62.1305 28.6408C62.2025 28.8516 62.3105 28.9966 62.4545 29.0756C62.4785 28.9966 62.5385 28.9307 62.6345 28.878ZM75.3065 30.6964C74.3945 30.6964 73.2185 30.8018 71.7785 31.0126C70.3385 31.2234 69.0905 31.4211 68.0345 31.6055C67.0025 31.7636 65.8985 31.7636 64.7225 31.6055C63.5705 31.4474 62.6225 31.0389 61.8785 30.3801C61.1345 29.774 60.7865 29.0625 60.8345 28.2455C60.8345 27.6921 61.0985 27.2573 61.6265 26.9411C62.1305 26.6248 62.7185 26.4799 63.3905 26.5062C64.0625 26.5326 64.6025 26.7434 65.0105 27.1387C65.3465 27.4549 65.4905 27.7316 65.4425 27.9688C65.3945 28.2323 65.2625 28.4827 65.0465 28.7199C64.8305 28.9571 64.5785 29.1547 64.2905 29.3128C64.0025 29.4709 63.6905 29.6027 63.3545 29.7081C63.5225 30.2352 63.9545 30.6041 64.6505 30.8149C65.3465 30.9994 66.1865 31.0521 67.1705 30.9731C68.1785 30.8676 69.1625 30.7359 70.1225 30.5778C71.1065 30.3933 72.1025 30.1956 73.1105 29.9848C74.1425 29.774 74.8625 29.6554 75.2705 29.6291C75.8705 29.3392 76.2425 29.4051 76.3865 29.8267C76.5065 30.1693 76.3745 30.4328 75.9905 30.6173C75.7985 30.6963 75.5705 30.7227 75.3065 30.6964Z" stroke="black" stroke-width="0.2" mask="url(#path-1-outside-1_8062_5887)"/>
<path d="M83.4032 32.1589C82.8992 31.79 82.4912 31.0785 82.1792 30.0243C81.9632 30.1825 81.6872 30.4196 81.3512 30.7359C81.2792 30.7886 81.1352 30.9072 80.9192 31.0916C80.7272 31.2498 80.5472 31.4079 80.3792 31.566C80.2112 31.6978 79.9952 31.8691 79.7312 32.0799C79.4672 32.2644 79.2152 32.4356 78.9752 32.5938C78.7352 32.7519 78.4712 32.91 78.1832 33.0681C77.8952 33.1999 77.6072 33.3053 77.3192 33.3843C77.2472 33.3843 77.1392 33.3975 76.9952 33.4239C76.8752 33.4502 76.7672 33.4766 76.6712 33.5029C76.5752 33.5029 76.4672 33.5029 76.3472 33.5029C76.2272 33.5029 76.1072 33.5029 75.9872 33.5029C75.8912 33.4766 75.8072 33.4502 75.7352 33.4239C75.1352 33.1603 74.9552 32.5411 75.1952 31.566C75.2432 31.3552 75.3152 31.1575 75.4112 30.9731C75.5552 30.6568 75.7592 30.3274 76.0232 29.9848C76.3112 29.6422 76.5152 29.3787 76.6352 29.1942C76.8512 28.8516 77.1512 28.878 77.5352 29.2733C77.8472 29.6422 77.8592 29.9453 77.5712 30.1825C77.0672 30.5251 76.6832 30.9994 76.4192 31.6055C76.2032 32.1062 76.3232 32.3434 76.7792 32.3171C77.0192 32.2907 77.3432 32.1853 77.7512 32.0008C77.8952 31.9481 78.0392 31.8822 78.1832 31.8032C78.3512 31.7241 78.5072 31.6319 78.6512 31.5265C78.8192 31.3947 78.9512 31.2893 79.0472 31.2102C79.1672 31.1312 79.3232 31.0126 79.5152 30.8545C79.7072 30.6963 79.8392 30.5909 79.9112 30.5382C79.9832 30.4592 80.1152 30.3274 80.3072 30.1429C80.5232 29.9321 80.6552 29.8135 80.7032 29.7872C80.9432 29.55 81.2312 29.2865 81.5672 28.9966C81.7352 28.8385 81.8552 28.7462 81.9272 28.7199C81.9992 28.6672 82.1192 28.6145 82.2872 28.5618C82.4792 28.4827 82.6472 28.4827 82.7912 28.5618C82.8152 28.5881 82.8392 28.6145 82.8632 28.6408C82.8872 28.6672 82.9112 28.6935 82.9352 28.7199C82.9832 28.7462 83.0072 28.7726 83.0072 28.7989C83.0312 28.7989 83.0552 28.8121 83.0792 28.8385C83.1032 28.8912 83.1272 28.9307 83.1512 28.9571C83.2232 29.1942 83.2952 29.4973 83.3672 29.8662C83.4392 30.2088 83.4992 30.4592 83.5472 30.6173C83.5952 30.7491 83.7152 30.9203 83.9072 31.1312C84.1232 31.342 84.4112 31.5396 84.7712 31.7241C85.3952 32.0403 86.1752 32.2248 87.1112 32.2775C88.0712 32.3039 89.0672 32.238 90.0992 32.0799C91.1552 31.8954 92.1632 31.6978 93.1232 31.4869C94.0832 31.2498 95.0312 31.0126 95.9672 30.7754C96.9272 30.5119 97.6112 30.3538 98.0192 30.3011C98.0672 30.0902 98.1752 29.9716 98.3432 29.9453C98.5112 29.9453 98.7512 29.9321 99.0632 29.9058C99.3752 29.8531 99.6512 29.8135 99.8912 29.7872C100.155 29.7608 100.407 29.7608 100.647 29.7872C100.671 29.8135 100.719 29.8531 100.791 29.9058C100.863 29.9321 100.911 29.9716 100.935 30.0243C100.983 30.0507 101.019 30.0902 101.043 30.1429C101.163 30.5382 101.175 30.8149 101.079 30.9731C100.983 31.1048 100.767 31.2498 100.431 31.4079C100.383 31.4342 100.239 31.4079 99.9992 31.3288C99.7592 31.2498 99.6152 31.2366 99.5672 31.2893C98.9192 31.2893 98.4272 31.3025 98.0912 31.3288C97.6352 31.3815 96.8672 31.5265 95.7872 31.7636C94.7072 31.9745 93.6152 32.1853 92.5112 32.3961C91.4072 32.5806 90.2552 32.7519 89.0552 32.91C87.8792 33.0681 86.7872 33.0945 85.7792 32.9891C84.7712 32.8573 83.9792 32.5806 83.4032 32.1589Z" stroke="black" stroke-width="0.2" mask="url(#path-1-outside-1_8062_5887)"/>
</svg>
